<?xml version="1.0" encoding="UTF-8" standalone="no"?>
<!-- Created with Inkscape (http://www.inkscape.org/) -->

<svg
   xmlns:dc="http://purl.org/dc/elements/1.1/"
   xmlns:cc="http://creativecommons.org/ns#"
   xmlns:rdf="http://www.w3.org/1999/02/22-rdf-syntax-ns#"
   xmlns:svg="http://www.w3.org/2000/svg"
   xmlns="http://www.w3.org/2000/svg"
   xmlns:sodipodi="http://sodipodi.sourceforge.net/DTD/sodipodi-0.dtd"
   xmlns:inkscape="http://www.inkscape.org/namespaces/inkscape"
   width="256"
   height="256"
   viewBox="0 0 256 256"
   id="svg2"
   version="1.1"
   inkscape:version="0.91 r13725"
   sodipodi:docname="application-x-executable.svg">
  <sodipodi:namedview
     id="base"
     pagecolor="#ffffff"
     bordercolor="#666666"
     borderopacity="1.0"
     inkscape:pageopacity="0.0"
     inkscape:pageshadow="2"
     inkscape:zoom="2.0507812"
     inkscape:cx="-56.320005"
     inkscape:cy="69.485713"
     inkscape:document-units="px"
     inkscape:current-layer="layer1"
     showgrid="false"
     units="px"
     inkscape:window-width="1600"
     inkscape:window-height="836"
     inkscape:window-x="0"
     inkscape:window-y="27"
     inkscape:window-maximized="1" />
  <defs
     id="defs4">
    <filter
       style="color-interpolation-filters:sRGB;"
       inkscape:label="Drop Shadow"
       id="filter4301">
      <feFlood
         flood-opacity="0.498039"
         flood-color="rgb(0,0,0)"
         result="flood"
         id="feFlood4303" />
      <feComposite
         in="flood"
         in2="SourceGraphic"
         operator="in"
         result="composite1"
         id="feComposite4305" />
      <feGaussianBlur
         in="composite1"
         stdDeviation="3.7"
         result="blur"
         id="feGaussianBlur4307" />
      <feOffset
         dx="3.8"
         dy="3.7"
         result="offset"
         id="feOffset4309" />
      <feComposite
         in="SourceGraphic"
         in2="offset"
         operator="over"
         result="composite2"
         id="feComposite4311" />
    </filter>
    <clipPath
       id="clipPath5055"
       clipPathUnits="userSpaceOnUse">
      <path
         inkscape:connector-curvature="0"
         id="path5057"
         d="m 153.38672,796.84847 -105.781251,0 c -7.804357,0 -14.087891,6.28158 -14.087891,14.08594 l 0,227.33989 c 0,7.8043 6.283534,14.0878 14.087891,14.0878 l 165.162111,0 c 7.80436,0 14.08594,-6.2835 14.08594,-14.0878 l 0,-154.82232 -73.4668,-86.60351 z"
         style="fill:#db4437;fill-opacity:1" />
    </clipPath>
    <clipPath
       clipPathUnits="userSpaceOnUse"
       id="clipPath4563">
      <path
         id="path4565"
         d="m 153.38672,796.84847 -105.781251,0 c -7.804357,0 -14.087891,6.28158 -14.087891,14.08594 l 0,227.33989 c 0,7.8043 6.283534,14.0878 14.087891,14.0878 l 165.162111,0 c 7.80436,0 14.08594,-6.2835 14.08594,-14.0878 l 0,-154.82232 -73.4668,-86.60351 z"
         style="fill:#db4437;fill-opacity:1"
         inkscape:connector-curvature="0" />
    </clipPath>
    <clipPath
       id="clipPath4417"
       clipPathUnits="userSpaceOnUse">
      <path
         inkscape:connector-curvature="0"
         id="path4419"
         d="m 150.44107,-2.4143919 -103.348511,0 c -7.624874,0 -13.7639,6.0316356 -13.7639,13.5254569 l 0,218.293965 c 0,7.49382 6.139026,13.52733 13.7639,13.52733 l 161.363741,0 c 7.62487,0 13.76199,-6.03351 13.76199,-13.52733 l 0,-148.661872 -71.77722,-83.1575499 z"
         style="fill:#db4437;fill-opacity:1" />
    </clipPath>
    <clipPath
       clipPathUnits="userSpaceOnUse"
       id="clipPath4384">
      <rect
         style="fill:#958add;fill-opacity:1;stroke:none;stroke-width:9.10000038;stroke-miterlimit:4;stroke-dasharray:none;stroke-opacity:1"
         id="rect4386"
         width="188.88968"
         height="185.64313"
         x="34.040928"
         y="63.353016"
         ry="14.926058" />
    </clipPath>
  </defs>
  <metadata
     id="metadata7">
    <rdf:RDF>
      <cc:Work
         rdf:about="">
        <dc:format>image/svg+xml</dc:format>
        <dc:type
           rdf:resource="http://purl.org/dc/dcmitype/StillImage" />
        <dc:title />
      </cc:Work>
    </rdf:RDF>
  </metadata>
  <g
     inkscape:label="Layer 1"
     inkscape:groupmode="layer"
     id="layer1"
     transform="translate(0,-796.36214)">
    <rect
       ry="15.544579"
       y="827.69415"
       x="31.332001"
       height="193.336"
       width="193.336"
       id="rect4196"
       style="fill:#4cbc7d;fill-opacity:1;stroke:none;stroke-width:9.10000038;stroke-miterlimit:4;stroke-dasharray:none;stroke-opacity:1" />
    <g
       id="g4201"
       style="fill:none;stroke:#ffffff;stroke-width:9.09971142;stroke-linejoin:round;stroke-miterlimit:4;stroke-dasharray:none;stroke-opacity:1"
       transform="matrix(1.0235392,0,0,1.041439,-3.5102222,761.71585)">
      <g
         id="g4203"
         inkscape:label="Gear10"
         transform="translate(128.48577,156.17457)"
         style="fill:none;stroke:#ffffff;stroke-width:9.09971142;stroke-linejoin:round;stroke-miterlimit:4;stroke-dasharray:none;stroke-opacity:1">
        <path
           sodipodi:nodetypes="ccccccccccccccccccccccccccccccccccccccccc"
           id="path4205"
           style="fill:none;stroke:#ffffff;stroke-width:9.09971142;stroke-linejoin:round;stroke-miterlimit:4;stroke-dasharray:none;stroke-opacity:1"
           d="m 32.40946,-5.35926 16.77566,2.39496 0,5.9286 -16.77566,2.39496 -3.03956,9.35481 12.16407,11.79805 -3.48474,4.79634 -14.97952,-7.92292 -7.95767,5.78158 2.90621,16.69469 -5.63842,1.83204 -7.46172,-15.21452 -9.83622,0 -7.46172,15.21452 -5.63842,-1.83204 2.90621,-16.69469 -7.95767,-5.78158 -14.97952,7.92292 -3.48474,-4.79634 12.16407,-11.79805 -3.03956,-9.35481 -16.77566,-2.39496 0,-5.9286 16.77566,-2.39496 3.03956,-9.35481 -12.16407,-11.79805 3.48474,-4.79634 14.97952,7.92292 7.95767,-5.78158 -2.90621,-16.69469 5.63842,-1.83204 7.46172,15.21452 9.83622,0 7.46172,-15.21452 5.63842,1.83204 -2.90621,16.69469 7.95767,5.78158 14.97952,-7.92292 3.48474,4.79634 -12.16407,11.79805 z"
           inkscape:connector-curvature="0" />
        <path
           id="path4207"
           d="M 14.25,0 A 14.25,14.25 0 0 1 0,14.25 14.25,14.25 0 0 1 -14.25,0 14.25,14.25 0 0 1 0,-14.25 14.25,14.25 0 0 1 14.25,0 Z"
           style="fill:none;stroke:#ffffff;stroke-width:9.09971142;stroke-linejoin:round;stroke-miterlimit:4;stroke-dasharray:none;stroke-opacity:1"
           inkscape:connector-curvature="0" />
      </g>
    </g>
  </g>
</svg>
