<?xml version="1.0" encoding="UTF-8" standalone="no"?>
<!-- Created with Inkscape (http://www.inkscape.org/) -->

<svg
   xmlns:dc="http://purl.org/dc/elements/1.1/"
   xmlns:cc="http://creativecommons.org/ns#"
   xmlns:rdf="http://www.w3.org/1999/02/22-rdf-syntax-ns#"
   xmlns:svg="http://www.w3.org/2000/svg"
   xmlns="http://www.w3.org/2000/svg"
   xmlns:sodipodi="http://sodipodi.sourceforge.net/DTD/sodipodi-0.dtd"
   xmlns:inkscape="http://www.inkscape.org/namespaces/inkscape"
   width="256"
   height="256"
   viewBox="0 0 256 256"
   id="svg2"
   version="1.1"
   inkscape:version="0.91 r13725"
   sodipodi:docname="audio-x-generic.svg">
  <sodipodi:namedview
     id="base"
     pagecolor="#ffffff"
     bordercolor="#666666"
     borderopacity="1.0"
     inkscape:pageopacity="0.0"
     inkscape:pageshadow="2"
     inkscape:zoom="3.3632812"
     inkscape:cx="69.723576"
     inkscape:cy="128"
     inkscape:document-units="px"
     inkscape:current-layer="layer1"
     showgrid="false"
     units="px"
     inkscape:window-width="1600"
     inkscape:window-height="836"
     inkscape:window-x="0"
     inkscape:window-y="27"
     inkscape:window-maximized="1" />
  <defs
     id="defs4">
    <filter
       id="filter4301"
       inkscape:label="Drop Shadow"
       style="color-interpolation-filters:sRGB;">
      <feFlood
         id="feFlood4303"
         result="flood"
         flood-color="rgb(0,0,0)"
         flood-opacity="0.498039" />
      <feComposite
         id="feComposite4305"
         result="composite1"
         operator="in"
         in2="SourceGraphic"
         in="flood" />
      <feGaussianBlur
         id="feGaussianBlur4307"
         result="blur"
         stdDeviation="3.7"
         in="composite1" />
      <feOffset
         id="feOffset4309"
         result="offset"
         dy="3.7"
         dx="3.8" />
      <feComposite
         id="feComposite4311"
         result="composite2"
         operator="over"
         in2="offset"
         in="SourceGraphic" />
    </filter>
    <clipPath
       clipPathUnits="userSpaceOnUse"
       id="clipPath4321">
      <path
         style="fill:#ec6155;fill-opacity:1"
         d="M 45.894155,-46.540706 A 56.84453,68.796377 0 0 0 -10.877516,22.252521 56.84453,68.796377 0 0 0 45.967014,91.048898 56.84453,68.796377 0 0 0 102.80808,22.339651 L 45.894155,-46.540706 Z m 5.517397,0.326471 a 56.84453,68.796377 0 0 1 3.449561,0.60256 56.84453,68.796377 0 0 0 -3.449561,-0.60256 z m 5.590255,0.994113 a 56.84453,68.796377 0 0 1 3.740135,1.12323 56.84453,68.796377 0 0 0 -3.740135,-1.12323 z m 5.490507,1.664905 a 56.84453,68.796377 0 0 1 3.972593,1.718437 56.84453,68.796377 0 0 0 -3.972593,-1.718437 z m 5.322233,2.313643 a 56.84453,68.796377 0 0 1 4.14954,2.386084 56.84453,68.796377 0 0 0 -4.14954,-2.386084 z m 5.10626,2.94455 a 56.84453,68.796377 0 0 1 4.216327,3.082067 56.84453,68.796377 0 0 0 -4.216327,-3.082067 z m 4.843443,3.547103 a 56.84453,68.796377 0 0 1 4.290056,3.893521 56.84453,68.796377 0 0 0 -4.290056,-3.893521 z m 4.519908,4.105569 a 56.84453,68.796377 0 0 1 4.169493,4.637795 56.84453,68.796377 0 0 0 -4.169493,-4.637795 z m 4.169493,4.637795 0.43542,0.526975 a 56.84453,68.796377 0 0 0 -0.43542,-0.526975 z m 3.397522,4.607347 a 56.84453,68.796377 0 0 1 2.000173,3.182843 56.84453,68.796377 0 0 0 -2.000173,-3.182843 z m 3.392317,5.538479 a 56.84453,68.796377 0 0 1 1.692253,3.339253 56.84453,68.796377 0 0 0 -1.692253,-3.339253 z m 2.920463,5.9289851 a 56.84453,68.796377 0 0 1 1.368724,3.4274301 56.84453,68.796377 0 0 0 -1.368724,-3.4274301 z m 2.414783,6.2554556 a 56.84453,68.796377 0 0 1 1.055598,3.49776908 56.84453,68.796377 0 0 0 -1.055598,-3.49776908 z m 1.879604,6.5000483 a 56.84453,68.796377 0 0 1 0.74855,3.543954 56.84453,68.796377 0 0 0 -0.74855,-3.543954 z m 1.33577,6.711049 a 56.84453,68.796377 0 0 1 0.43976,3.51456 56.84453,68.796377 0 0 0 -0.43976,-3.51456 z m 0.77283,6.83177 a 56.84453,68.796377 0 0 1 0.2446,5.885944 56.84453,68.796377 0 0 0 -0.2446,-5.885944 z"
         id="path4323"
         inkscape:connector-curvature="0" />
    </clipPath>
  </defs>
  <metadata
     id="metadata7">
    <rdf:RDF>
      <cc:Work
         rdf:about="">
        <dc:format>image/svg+xml</dc:format>
        <dc:type
           rdf:resource="http://purl.org/dc/dcmitype/StillImage" />
        <dc:title />
      </cc:Work>
    </rdf:RDF>
  </metadata>
  <g
     transform="translate(0,-796.36214)"
     id="layer1"
     inkscape:groupmode="layer"
     inkscape:label="Layer 1">
    <path
       inkscape:connector-curvature="0"
       id="path4957"
       d="M 127.83594,796.36506 A 128,128 0 0 0 0,924.3592 a 128,128 0 0 0 128,128 128,128 0 0 0 127.99219,-127.83789 L 127.83594,796.36506 Z m 12.42383,0.60742 a 128,128 0 0 1 7.76757,1.1211 128,128 0 0 0 -7.76757,-1.1211 z m 12.58789,1.84961 a 128,128 0 0 1 8.42187,2.08984 128,128 0 0 0 -8.42187,-2.08984 z m 12.36328,3.09766 a 128,128 0 0 1 8.94531,3.19726 128,128 0 0 0 -8.94531,-3.19726 z m 11.98437,4.30468 a 128,128 0 0 1 9.34375,4.43946 128,128 0 0 0 -9.34375,-4.43946 z m 11.49805,5.47852 a 128,128 0 0 1 9.49414,5.73438 128,128 0 0 0 -9.49414,-5.73438 z m 10.90625,6.59961 a 128,128 0 0 1 9.66016,7.24414 128,128 0 0 0 -9.66016,-7.24414 z m 10.17773,7.63867 a 128,128 0 0 1 9.38868,8.62891 128,128 0 0 0 -9.38868,-8.62891 z m 9.38868,8.62891 0.98046,0.98047 a 128,128 0 0 0 -0.98046,-0.98047 z m 7.65039,8.57226 a 128,128 0 0 1 4.5039,5.92188 128,128 0 0 0 -4.5039,-5.92188 z m 7.63867,10.30469 a 128,128 0 0 1 3.81054,6.21289 128,128 0 0 0 -3.81054,-6.21289 z m 6.57617,11.03125 a 128,128 0 0 1 3.08203,6.37695 128,128 0 0 0 -3.08203,-6.37695 z m 5.4375,11.63867 a 128,128 0 0 1 2.37695,6.50782 128,128 0 0 0 -2.37695,-6.50782 z m 4.23242,12.09375 a 128,128 0 0 1 1.68555,6.59375 128,128 0 0 0 -1.68555,-6.59375 z m 3.00781,12.48633 a 128,128 0 0 1 0.99024,6.53906 128,128 0 0 0 -0.99024,-6.53906 z m 1.74024,12.71094 A 128,128 0 0 1 256,924.3592 128,128 0 0 0 255.44922,913.40803 Z"
       style="fill:#ec6155;fill-opacity:1" />
    <path
       inkscape:connector-curvature="0"
       id="rect4961"
       d="m 255.61415,924.52718 a 128,128 0 0 0 0.16406,-0.006 L 127.62197,796.36506 a 128,128 0 0 0 -0.008,0.16211 128,128 0 0 0 35.85352,88.80861 l 0.98046,0.98046 a 128,128 0 0 0 91.16603,38.21094 z"
       style="fill:#f39e97;fill-opacity:1" />
    <text
       sodipodi:linespacing="125%"
       id="text4164"
       y="965.15338"
       x="54.857143"
       style="font-style:normal;font-weight:normal;font-size:40px;line-height:125%;font-family:sans-serif;letter-spacing:0px;word-spacing:0px;fill:#000000;fill-opacity:1;stroke:none;stroke-width:1px;stroke-linecap:butt;stroke-linejoin:miter;stroke-opacity:1"
       xml:space="preserve"><tspan
         y="965.15338"
         x="54.857143"
         id="tspan4166"
         sodipodi:role="line" /></text>
    <g
       style="opacity:0.97000002;fill:#ffffff;stroke:#ffffff;stroke-width:0.99998069;stroke-miterlimit:4;stroke-dasharray:none;stroke-opacity:1"
       id="g4248"
       transform="matrix(2.2517558,0,0,1.8605631,24.49351,882.95698)">
      <path
         inkscape:connector-curvature="0"
         sodipodi:nodetypes="cssssssssscsssssssssc"
         id="path4250"
         d="m 39.708934,63.678683 c -0.39184,2.091967 1.790672,6.436378 6.18165,6.578301 5.308336,0.171574 8.699737,-3.889078 7.119749,-10.516109 L 45.086538,23.171517 c -0.943257,-4.353257 -0.235257,-6.71442 0.268403,-8.121572 1.343735,-3.754196 4.700881,-5.3026408 5.518193,-4.100737 0.466629,0.686205 1.594908,3.894798 -1.616859,9.641613 -2.504897,4.482014 -14.15929,10.359317 -15.014575,20.87719 -0.740418,9.146238 8.833989,15.90129 17.097566,13.245729 5.48642,-1.763101 8.314699,-10.08972 4.918791,-14.384753 C 47.29624,28.994371 32.923702,46.341263 46.846564,51.0935 45.332604,49.90238 44.300646,48.980054 44.1085,47.852721 42.237755,36.876941 58.741182,39.774741 54.294493,50.18735 52.466001,54.469045 45.080341,55.297323 40.874269,51.477433 37.350853,48.277521 35.787387,42.113231 39.708327,37.687888 45.018831,31.694223 51.288782,26.31366 52.954064,18.108736 54.923313,8.4061491 48.493821,0.84188926 44.429027,10.385835 c -1.363934,3.202453 -1.872011,6.417239 -0.566021,12.577699 l 7.917543,37.347681 c 0.566837,2.673813 0.187362,6.353204 -2.308175,8.044259 -1.236187,0.83768 -5.61059,1.414194 -6.680799,-0.585382"
         style="fill:#ffffff;fill-opacity:1;fill-rule:nonzero;stroke:#ffffff;stroke-width:0.99998069;stroke-linecap:butt;stroke-linejoin:miter;stroke-miterlimit:4;stroke-dasharray:none;stroke-opacity:1" />
      <ellipse
         ry="3.4987047"
         rx="3.439605"
         cy="64.584198"
         cx="44.809425"
         transform="matrix(-1.08512,-0.02036848,0.02036848,-1.08512,90.68868,135.0572)"
         id="ellipse4252"
         style="fill:#ffffff;fill-opacity:1;stroke:#ffffff;stroke-width:0.92137694;stroke-miterlimit:4;stroke-dasharray:none;stroke-opacity:1" />
    </g>
  </g>
</svg>
