<?xml version="1.0" encoding="UTF-8" standalone="no"?>
<!-- Created with Inkscape (http://www.inkscape.org/) -->

<svg
   xmlns:dc="http://purl.org/dc/elements/1.1/"
   xmlns:cc="http://creativecommons.org/ns#"
   xmlns:rdf="http://www.w3.org/1999/02/22-rdf-syntax-ns#"
   xmlns:svg="http://www.w3.org/2000/svg"
   xmlns="http://www.w3.org/2000/svg"
   xmlns:xlink="http://www.w3.org/1999/xlink"
   xmlns:sodipodi="http://sodipodi.sourceforge.net/DTD/sodipodi-0.dtd"
   xmlns:inkscape="http://www.inkscape.org/namespaces/inkscape"
   sodipodi:docname="svg.svg"
   inkscape:version="0.91 r13725"
   version="1.1"
   id="svg2"
   viewBox="0 0 256 256"
   height="256"
   width="256">
  <sodipodi:namedview
     inkscape:window-maximized="1"
     inkscape:window-y="27"
     inkscape:window-x="0"
     inkscape:window-height="836"
     inkscape:window-width="1600"
     units="px"
     showgrid="false"
     inkscape:current-layer="layer1"
     inkscape:document-units="px"
     inkscape:cy="128"
     inkscape:cx="-128.46886"
     inkscape:zoom="2.1328125"
     inkscape:pageshadow="2"
     inkscape:pageopacity="0.0"
     borderopacity="1.0"
     bordercolor="#666666"
     pagecolor="#ffffff"
     id="base" />
  <defs
     id="defs4">
    <filter
       id="filter4301"
       inkscape:label="Drop Shadow"
       style="color-interpolation-filters:sRGB;">
      <feFlood
         id="feFlood4303"
         result="flood"
         flood-color="rgb(0,0,0)"
         flood-opacity="0.498039" />
      <feComposite
         id="feComposite4305"
         result="composite1"
         operator="in"
         in2="SourceGraphic"
         in="flood" />
      <feGaussianBlur
         id="feGaussianBlur4307"
         result="blur"
         stdDeviation="3.7"
         in="composite1" />
      <feOffset
         id="feOffset4309"
         result="offset"
         dy="3.7"
         dx="3.8" />
      <feComposite
         id="feComposite4311"
         result="composite2"
         operator="over"
         in2="offset"
         in="SourceGraphic" />
    </filter>
    <clipPath
       clipPathUnits="userSpaceOnUse"
       id="clipPath4382">
      <path
         style="fill:#0f9d58;fill-opacity:1"
         d="M 147.03837,-155.476 A 241.35719,241.35719 0 0 0 -94.009464,85.870136 241.35719,241.35719 0 0 0 147.34772,327.22732 241.35719,241.35719 0 0 0 388.69019,86.175811 L 147.03837,-155.476 Z m 23.42641,1.14535 a 241.35719,241.35719 0 0 1 14.64656,2.11395 241.35719,241.35719 0 0 0 -14.64656,-2.11395 z m 23.73577,3.48763 a 241.35719,241.35719 0 0 1 15.8803,3.94061 241.35719,241.35719 0 0 0 -15.8803,-3.94061 z m 23.31224,5.84096 a 241.35719,241.35719 0 0 1 16.8673,6.02876 241.35719,241.35719 0 0 0 -16.8673,-6.02876 z m 22.59776,8.11692 a 241.35719,241.35719 0 0 1 17.6186,8.37105 241.35719,241.35719 0 0 0 -17.6186,-8.37105 z m 21.68076,10.33031 a 241.35719,241.35719 0 0 1 17.90218,10.81276 241.35719,241.35719 0 0 0 -17.90218,-10.81276 z m 20.56486,12.44424 a 241.35719,241.35719 0 0 1 18.21522,13.65958 241.35719,241.35719 0 0 0 -18.21522,-13.65958 z m 19.19115,14.403503 a 241.35719,241.35719 0 0 1 17.70333,16.270699 241.35719,241.35719 0 0 0 -17.70333,-16.270699 z m 17.70333,16.270699 1.84876,1.848777 a 241.35719,241.35719 0 0 0 -1.84876,-1.848777 z m 14.4256,16.16388 a 241.35719,241.35719 0 0 1 8.49256,11.166314 241.35719,241.35719 0 0 0 -8.49256,-11.166314 z m 14.4035,19.430554 a 241.35719,241.35719 0 0 1 7.18516,11.715044 241.35719,241.35719 0 0 0 -7.18516,-11.715044 z m 12.40004,20.800559 a 241.35719,241.35719 0 0 1 5.81149,12.024396 241.35719,241.35719 0 0 0 -5.81149,-12.024396 z m 10.25297,21.9459111 a 241.35719,241.35719 0 0 1 4.48198,12.2711651 241.35719,241.35719 0 0 0 -4.48198,-12.2711651 z m 7.98066,22.8040119 a 241.35719,241.35719 0 0 1 3.17828,12.433195 241.35719,241.35719 0 0 0 -3.17828,-12.433195 z m 5.67154,23.544261 a 241.35719,241.35719 0 0 1 1.8672,12.330072 241.35719,241.35719 0 0 0 -1.8672,-12.330072 z m 3.2814,23.967787 a 241.35719,241.35719 0 0 1 1.03855,20.64956 241.35719,241.35719 0 0 0 -1.03855,-20.64956 z"
         id="path4384"
         inkscape:connector-curvature="0" />
    </clipPath>
  </defs>
  <metadata
     id="metadata7">
    <rdf:RDF>
      <cc:Work
         rdf:about="">
        <dc:format>image/svg+xml</dc:format>
        <dc:type
           rdf:resource="http://purl.org/dc/dcmitype/StillImage" />
        <dc:title />
      </cc:Work>
    </rdf:RDF>
  </metadata>
  <g
     transform="translate(0,-796.36214)"
     id="layer1"
     inkscape:groupmode="layer"
     inkscape:label="Layer 1">
    <path
       inkscape:connector-curvature="0"
       id="path4957"
       d="M 127.83594,796.36506 A 128,128 0 0 0 0,924.3592 a 128,128 0 0 0 128,128 128,128 0 0 0 127.99219,-127.83789 L 127.83594,796.36506 Z m 12.42383,0.60742 a 128,128 0 0 1 7.76757,1.1211 128,128 0 0 0 -7.76757,-1.1211 z m 12.58789,1.84961 a 128,128 0 0 1 8.42187,2.08984 128,128 0 0 0 -8.42187,-2.08984 z m 12.36328,3.09766 a 128,128 0 0 1 8.94531,3.19726 128,128 0 0 0 -8.94531,-3.19726 z m 11.98437,4.30468 a 128,128 0 0 1 9.34375,4.43946 128,128 0 0 0 -9.34375,-4.43946 z m 11.49805,5.47852 a 128,128 0 0 1 9.49414,5.73438 128,128 0 0 0 -9.49414,-5.73438 z m 10.90625,6.59961 a 128,128 0 0 1 9.66016,7.24414 128,128 0 0 0 -9.66016,-7.24414 z m 10.17773,7.63867 a 128,128 0 0 1 9.38868,8.62891 128,128 0 0 0 -9.38868,-8.62891 z m 9.38868,8.62891 0.98046,0.98047 a 128,128 0 0 0 -0.98046,-0.98047 z m 7.65039,8.57226 a 128,128 0 0 1 4.5039,5.92188 128,128 0 0 0 -4.5039,-5.92188 z m 7.63867,10.30469 a 128,128 0 0 1 3.81054,6.21289 128,128 0 0 0 -3.81054,-6.21289 z m 6.57617,11.03125 a 128,128 0 0 1 3.08203,6.37695 128,128 0 0 0 -3.08203,-6.37695 z m 5.4375,11.63867 a 128,128 0 0 1 2.37695,6.50782 128,128 0 0 0 -2.37695,-6.50782 z m 4.23242,12.09375 a 128,128 0 0 1 1.68555,6.59375 128,128 0 0 0 -1.68555,-6.59375 z m 3.00781,12.48633 a 128,128 0 0 1 0.99024,6.53906 128,128 0 0 0 -0.99024,-6.53906 z m 1.74024,12.71094 A 128,128 0 0 1 256,924.3592 128,128 0 0 0 255.44922,913.40803 Z"
       style="fill:#0f9d58;fill-opacity:1" />
    <path
       inkscape:connector-curvature="0"
       id="rect4961"
       d="m 255.61415,924.52718 a 128,128 0 0 0 0.16406,-0.006 L 127.62197,796.36506 a 128,128 0 0 0 -0.008,0.16211 128,128 0 0 0 35.85352,88.80861 l 0.98046,0.98046 a 128,128 0 0 0 91.16603,38.21094 z"
       style="fill:#71bd98;fill-opacity:1" />
    <text
       sodipodi:linespacing="125%"
       id="text4164"
       y="965.15338"
       x="54.857143"
       style="font-style:normal;font-weight:normal;font-size:40px;line-height:125%;font-family:sans-serif;letter-spacing:0px;word-spacing:0px;fill:#000000;fill-opacity:1;stroke:none;stroke-width:1px;stroke-linecap:butt;stroke-linejoin:miter;stroke-opacity:1"
       xml:space="preserve"><tspan
         y="965.15338"
         x="54.857143"
         id="tspan4166"
         sodipodi:role="line" /></text>
    <g
       transform="matrix(0.53033432,0,0,0.53033432,49.856445,878.81932)"
       style="stroke:#ffffff;stroke-width:38.00859833;stroke-opacity:1"
       id="g4563">
      <g
         style="stroke:#ffffff;stroke-opacity:1"
         transform="translate(150,150)"
         id="svgstar-0">
        <path
           style="fill:#ffb13b;stroke:#ffffff;stroke-opacity:1"
           inkscape:connector-curvature="0"
           d="m -84.1487,-15.8513 a 22.4171,22.4171 0 1 0 0,31.7026 l 168.2974,0 a 22.4171,22.4171 0 1 0 0,-31.7026 z"
           id="svgbar-5" />
        <use
           style="stroke:#ffffff;stroke-opacity:1"
           height="100%"
           width="100%"
           y="0"
           x="0"
           id="use4567"
           transform="matrix(0.70710678,0.70710678,-0.70710678,0.70710678,0,0)"
           xlink:href="#svgbar-5" />
        <use
           style="stroke:#ffffff;stroke-opacity:1"
           height="100%"
           width="100%"
           y="0"
           x="0"
           id="use4569"
           transform="matrix(0,1,-1,0,0,0)"
           xlink:href="#svgbar-5" />
        <use
           style="stroke:#ffffff;stroke-opacity:1"
           height="100%"
           width="100%"
           y="0"
           x="0"
           id="use4571"
           transform="matrix(-0.70710678,0.70710678,-0.70710678,-0.70710678,0,0)"
           xlink:href="#svgbar-5" />
      </g>
    </g>
    <use
       transform="matrix(0.53033432,0,0,0.53033432,49.856445,878.81932)"
       height="100%"
       width="100%"
       y="0"
       x="0"
       id="use4573"
       xlink:href="#svgstar-0" />
  </g>
</svg>
