<?xml version="1.0" encoding="UTF-8" standalone="no"?>
<!-- Created with Inkscape (http://www.inkscape.org/) -->

<svg
   xmlns:dc="http://purl.org/dc/elements/1.1/"
   xmlns:cc="http://creativecommons.org/ns#"
   xmlns:rdf="http://www.w3.org/1999/02/22-rdf-syntax-ns#"
   xmlns:svg="http://www.w3.org/2000/svg"
   xmlns="http://www.w3.org/2000/svg"
   xmlns:sodipodi="http://sodipodi.sourceforge.net/DTD/sodipodi-0.dtd"
   xmlns:inkscape="http://www.inkscape.org/namespaces/inkscape"
   width="256"
   height="256"
   viewBox="0 0 256 256"
   id="svg2"
   version="1.1"
   inkscape:version="0.91 r13725"
   sodipodi:docname="x-office-drawing.svg">
  <sodipodi:namedview
     id="base"
     pagecolor="#ffffff"
     bordercolor="#666666"
     borderopacity="1.0"
     inkscape:pageopacity="0.0"
     inkscape:pageshadow="2"
     inkscape:zoom="3.3632812"
     inkscape:cx="69.426246"
     inkscape:cy="128"
     inkscape:document-units="px"
     inkscape:current-layer="layer1"
     showgrid="false"
     units="px"
     inkscape:window-width="1600"
     inkscape:window-height="836"
     inkscape:window-x="0"
     inkscape:window-y="27"
     inkscape:window-maximized="1" />
  <defs
     id="defs4">
    <filter
       style="color-interpolation-filters:sRGB;"
       inkscape:label="Drop Shadow"
       id="filter4301">
      <feFlood
         flood-opacity="0.498039"
         flood-color="rgb(0,0,0)"
         result="flood"
         id="feFlood4303" />
      <feComposite
         in="flood"
         in2="SourceGraphic"
         operator="in"
         result="composite1"
         id="feComposite4305" />
      <feGaussianBlur
         in="composite1"
         stdDeviation="3.7"
         result="blur"
         id="feGaussianBlur4307" />
      <feOffset
         dx="3.8"
         dy="3.7"
         result="offset"
         id="feOffset4309" />
      <feComposite
         in="SourceGraphic"
         in2="offset"
         operator="over"
         result="composite2"
         id="feComposite4311" />
    </filter>
    <clipPath
       id="clipPath4369"
       clipPathUnits="userSpaceOnUse">
      <path
         inkscape:connector-curvature="0"
         id="path4371"
         d="M 121.77164,792.46477 A 124.37042,124.37042 0 0 0 -2.4393803,916.8295 124.37042,124.37042 0 0 0 121.93104,1041.1999 124.37042,124.37042 0 0 0 246.29388,916.98701 L 121.77164,792.46477 Z m 12.07153,0.59019 a 124.37042,124.37042 0 0 1 7.54732,1.08931 124.37042,124.37042 0 0 0 -7.54732,-1.08931 z m 12.23095,1.79717 a 124.37042,124.37042 0 0 1 8.18306,2.03058 124.37042,124.37042 0 0 0 -8.18306,-2.03058 z m 12.01271,3.00982 a 124.37042,124.37042 0 0 1 8.69165,3.1066 124.37042,124.37042 0 0 0 -8.69165,-3.1066 z m 11.64454,4.18261 a 124.37042,124.37042 0 0 1 9.0788,4.31358 124.37042,124.37042 0 0 0 -9.0788,-4.31358 z m 11.17201,5.32317 a 124.37042,124.37042 0 0 1 9.22492,5.57178 124.37042,124.37042 0 0 0 -9.22492,-5.57178 z m 10.59699,6.41248 a 124.37042,124.37042 0 0 1 9.38624,7.03872 124.37042,124.37042 0 0 0 -9.38624,-7.03872 z m 9.88913,7.42206 a 124.37042,124.37042 0 0 1 9.12245,8.38423 124.37042,124.37042 0 0 0 -9.12245,-8.38423 z m 9.12245,8.38423 0.95266,0.95267 a 124.37042,124.37042 0 0 0 -0.95266,-0.95267 z m 7.43346,8.32919 a 124.37042,124.37042 0 0 1 4.37619,5.75395 124.37042,124.37042 0 0 0 -4.37619,-5.75395 z m 7.42207,10.01249 a 124.37042,124.37042 0 0 1 3.70248,6.03671 124.37042,124.37042 0 0 0 -3.70248,-6.03671 z m 6.38969,10.71844 a 124.37042,124.37042 0 0 1 2.99464,6.19613 124.37042,124.37042 0 0 0 -2.99464,-6.19613 z m 5.28332,11.30865 a 124.37042,124.37042 0 0 1 2.30954,6.32328 124.37042,124.37042 0 0 0 -2.30954,-6.32328 z m 4.1124,11.75081 a 124.37042,124.37042 0 0 1 1.63775,6.40678 124.37042,124.37042 0 0 0 -1.63775,-6.40678 z m 2.92252,12.13227 a 124.37042,124.37042 0 0 1 0.96216,6.35364 124.37042,124.37042 0 0 0 -0.96216,-6.35364 z m 1.69089,12.35051 a 124.37042,124.37042 0 0 1 0.53517,10.64064 124.37042,124.37042 0 0 0 -0.53517,-10.64064 z"
         style="fill:#72a854;fill-opacity:1" />
    </clipPath>
    <clipPath
       clipPathUnits="userSpaceOnUse"
       id="clipPath4571">
      <path
         inkscape:connector-curvature="0"
         id="path4573"
         d="M 175.85452,772.36506 A 128,128 0 0 0 48.018585,900.3592 a 128,128 0 0 0 127.999995,128 128,128 0 0 0 127.99219,-127.83789 L 175.85452,772.36506 Z m 12.42383,0.60742 a 128,128 0 0 1 7.76757,1.1211 128,128 0 0 0 -7.76757,-1.1211 z m 12.58789,1.84961 a 128,128 0 0 1 8.42187,2.08984 128,128 0 0 0 -8.42187,-2.08984 z m 12.36328,3.09766 a 128,128 0 0 1 8.94531,3.19726 128,128 0 0 0 -8.94531,-3.19726 z m 11.98437,4.30468 a 128,128 0 0 1 9.34375,4.43946 128,128 0 0 0 -9.34375,-4.43946 z m 11.49806,5.47852 a 128,128 0 0 1 9.49413,5.73438 128,128 0 0 0 -9.49413,-5.73438 z m 10.90625,6.59961 a 128,128 0 0 1 9.66016,7.24414 128,128 0 0 0 -9.66016,-7.24414 z m 10.17772,7.63867 a 128,128 0 0 1 9.38869,8.62891 128,128 0 0 0 -9.38869,-8.62891 z m 9.38869,8.62891 0.98046,0.98047 a 128,128 0 0 0 -0.98046,-0.98047 z m 7.65038,8.57226 a 128,128 0 0 1 4.5039,5.92188 128,128 0 0 0 -4.5039,-5.92188 z m 7.63867,10.30469 a 128,128 0 0 1 3.81054,6.21289 128,128 0 0 0 -3.81054,-6.21289 z m 6.57617,11.03125 a 128,128 0 0 1 3.08203,6.37695 128,128 0 0 0 -3.08203,-6.37695 z m 5.4375,11.63867 a 128,128 0 0 1 2.37695,6.50782 128,128 0 0 0 -2.37695,-6.50782 z m 4.23242,12.09375 a 128,128 0 0 1 1.68555,6.59375 128,128 0 0 0 -1.68555,-6.59375 z m 3.00781,12.48633 a 128,128 0 0 1 0.99024,6.53906 128,128 0 0 0 -0.99024,-6.53906 z m 1.74024,12.71094 a 128,128 0 0 1 0.55079,10.95117 128,128 0 0 0 -0.55079,-10.95117 z"
         style="fill:#72a854;fill-opacity:1" />
    </clipPath>
  </defs>
  <metadata
     id="metadata7">
    <rdf:RDF>
      <cc:Work
         rdf:about="">
        <dc:format>image/svg+xml</dc:format>
        <dc:type
           rdf:resource="http://purl.org/dc/dcmitype/StillImage" />
        <dc:title />
      </cc:Work>
    </rdf:RDF>
  </metadata>
  <g
     inkscape:label="Layer 1"
     inkscape:groupmode="layer"
     id="layer1"
     transform="translate(0,-796.36214)">
    <path
       style="fill:#72a854;fill-opacity:1"
       d="M 127.83594,796.36506 A 128,128 0 0 0 0,924.3592 a 128,128 0 0 0 128,128 128,128 0 0 0 127.99219,-127.83789 L 127.83594,796.36506 Z m 12.42383,0.60742 a 128,128 0 0 1 7.76757,1.1211 128,128 0 0 0 -7.76757,-1.1211 z m 12.58789,1.84961 a 128,128 0 0 1 8.42187,2.08984 128,128 0 0 0 -8.42187,-2.08984 z m 12.36328,3.09766 a 128,128 0 0 1 8.94531,3.19726 128,128 0 0 0 -8.94531,-3.19726 z m 11.98437,4.30468 a 128,128 0 0 1 9.34375,4.43946 128,128 0 0 0 -9.34375,-4.43946 z m 11.49805,5.47852 a 128,128 0 0 1 9.49414,5.73438 128,128 0 0 0 -9.49414,-5.73438 z m 10.90625,6.59961 a 128,128 0 0 1 9.66016,7.24414 128,128 0 0 0 -9.66016,-7.24414 z m 10.17773,7.63867 a 128,128 0 0 1 9.38868,8.62891 128,128 0 0 0 -9.38868,-8.62891 z m 9.38868,8.62891 0.98046,0.98047 a 128,128 0 0 0 -0.98046,-0.98047 z m 7.65039,8.57226 a 128,128 0 0 1 4.5039,5.92188 128,128 0 0 0 -4.5039,-5.92188 z m 7.63867,10.30469 a 128,128 0 0 1 3.81054,6.21289 128,128 0 0 0 -3.81054,-6.21289 z m 6.57617,11.03125 a 128,128 0 0 1 3.08203,6.37695 128,128 0 0 0 -3.08203,-6.37695 z m 5.4375,11.63867 a 128,128 0 0 1 2.37695,6.50782 128,128 0 0 0 -2.37695,-6.50782 z m 4.23242,12.09375 a 128,128 0 0 1 1.68555,6.59375 128,128 0 0 0 -1.68555,-6.59375 z m 3.00781,12.48633 a 128,128 0 0 1 0.99024,6.53906 128,128 0 0 0 -0.99024,-6.53906 z m 1.74024,12.71094 A 128,128 0 0 1 256,924.3592 128,128 0 0 0 255.44922,913.40803 Z"
       id="path4957"
       inkscape:connector-curvature="0" />
    <path
       style="fill:#a4c790;fill-opacity:1"
       d="m 255.61415,924.52718 a 128,128 0 0 0 0.16406,-0.006 L 127.62197,796.36506 a 128,128 0 0 0 -0.008,0.16211 128,128 0 0 0 35.85352,88.80861 l 0.98046,0.98046 a 128,128 0 0 0 91.16603,38.21094 z"
       id="rect4961"
       inkscape:connector-curvature="0" />
    <text
       xml:space="preserve"
       style="font-style:normal;font-weight:normal;font-size:40px;line-height:125%;font-family:sans-serif;letter-spacing:0px;word-spacing:0px;fill:#000000;fill-opacity:1;stroke:none;stroke-width:1px;stroke-linecap:butt;stroke-linejoin:miter;stroke-opacity:1"
       x="54.857143"
       y="965.15338"
       id="text4164"
       sodipodi:linespacing="125%"><tspan
         sodipodi:role="line"
         id="tspan4166"
         x="54.857143"
         y="965.15338" /></text>
    <g
       transform="translate(-48.018585,24)"
       id="g4454">
      <circle
         style="fill:#ffffff;fill-opacity:1;stroke:none;stroke-width:8;stroke-miterlimit:4;stroke-dasharray:none;stroke-opacity:1"
         id="circle4199"
         cx="145.86108"
         cy="919.77496"
         r="32.5" />
      <rect
         style="fill:none;fill-opacity:1;stroke:#ffffff;stroke-width:8;stroke-miterlimit:4;stroke-dasharray:none;stroke-opacity:1"
         id="rect4201"
         width="65"
         height="60"
         x="169.67609"
         y="898.33002" />
      <path
         sodipodi:type="star"
         style="fill:#ffffff;fill-opacity:1;stroke:none;stroke-width:8;stroke-miterlimit:4;stroke-dasharray:none;stroke-opacity:1"
         id="path4203"
         sodipodi:sides="3"
         sodipodi:cx="153.2188"
         sodipodi:cy="-963.03296"
         sodipodi:r1="45"
         sodipodi:r2="22.5"
         sodipodi:arg1="1.5707963"
         sodipodi:arg2="2.6179939"
         inkscape:flatsided="false"
         inkscape:rounded="0"
         inkscape:randomized="0"
         d="m 153.2188,-918.03296 -19.48558,-33.75 -19.48557,-33.75 38.97115,0 38.97114,0 -19.48557,33.75 z"
         inkscape:transform-center-y="-11.249999"
         transform="scale(1,-1)" />
    </g>
  </g>
</svg>
