<?xml version="1.0" encoding="UTF-8" standalone="no"?>
<!-- Created with Inkscape (http://www.inkscape.org/) -->

<svg
   xmlns:dc="http://purl.org/dc/elements/1.1/"
   xmlns:cc="http://creativecommons.org/ns#"
   xmlns:rdf="http://www.w3.org/1999/02/22-rdf-syntax-ns#"
   xmlns:svg="http://www.w3.org/2000/svg"
   xmlns="http://www.w3.org/2000/svg"
   xmlns:sodipodi="http://sodipodi.sourceforge.net/DTD/sodipodi-0.dtd"
   xmlns:inkscape="http://www.inkscape.org/namespaces/inkscape"
   width="256"
   height="256"
   viewBox="0 0 256 256"
   id="svg2"
   version="1.1"
   inkscape:version="0.91 r13725"
   sodipodi:docname="folder.svg">
  <sodipodi:namedview
     id="base"
     pagecolor="#ffffff"
     bordercolor="#666666"
     borderopacity="1.0"
     inkscape:pageopacity="0.0"
     inkscape:pageshadow="2"
     inkscape:zoom="2.1328125"
     inkscape:cx="36.102564"
     inkscape:cy="128"
     inkscape:document-units="px"
     inkscape:current-layer="layer1"
     showgrid="true"
     units="px"
     inkscape:window-width="1600"
     inkscape:window-height="836"
     inkscape:window-x="0"
     inkscape:window-y="27"
     inkscape:window-maximized="1">
    <inkscape:grid
       spacingy="5"
       spacingx="5"
       id="grid4136"
       type="xygrid" />
  </sodipodi:namedview>
  <defs
     id="defs4">
    <filter
       id="filter4298"
       inkscape:label="Drop Shadow"
       style="color-interpolation-filters:sRGB;">
      <feFlood
         id="feFlood4300"
         result="flood"
         flood-color="rgb(0,0,0)"
         flood-opacity="0.498039" />
      <feComposite
         id="feComposite4302"
         result="composite1"
         operator="in"
         in2="SourceGraphic"
         in="flood" />
      <feGaussianBlur
         id="feGaussianBlur4304"
         result="blur"
         stdDeviation="1.6"
         in="composite1" />
      <feOffset
         id="feOffset4306"
         result="offset"
         dy="-7.7"
         dx="-2.77556e-17" />
      <feComposite
         id="feComposite4308"
         result="composite2"
         operator="over"
         in2="offset"
         in="SourceGraphic" />
    </filter>
    <clipPath
       clipPathUnits="userSpaceOnUse"
       id="clipPath5092">
      <path
         transform="matrix(1.2315339,0,0,1.0608965,-109.24268,-939.37809)"
         sodipodi:nodetypes="cccccccccccccccccccccssscccccccccazzzzzzzzzzzsccccccccc"
         inkscape:connector-curvature="0"
         id="path5094"
         d="m 10.42124,864.27189 42.534575,-0.0913 21.267287,-0.0456 c 7.245384,-0.0152 14.490768,-0.0305 21.736152,-0.0456 8.394956,-10.58827 10.291846,-15.47699 14.084686,-17.71727 3.79283,-2.24028 9.4816,-1.8321 25.46032,-1.82658 23.36644,-0.007 109.60565,-0.67788 109.60565,-0.67788 l -0.0879,12.1518 -0.0879,12.1518 -0.0879,12.15181 -0.0879,12.1518 -0.0879,12.1518 -0.0879,12.1518 -0.0879,12.15181 -0.0879,12.1518 -0.0879,12.1518 -0.0879,12.1518 -0.0879,12.15181 -0.0879,12.1518 -0.0879,12.15181 -0.0879,12.1518 c 0,0 0.59382,8.1589 -0.0879,12.1518 -0.58177,3.4075 -0.78038,7.5176 -3.36995,9.8075 -2.83121,2.5035 -7.3341,1.9515 -11.09295,2.3443 -4.76571,0.4981 -14.375,0 -14.375,0 l -14.375,0 -14.375,0 -14.37501,0 -14.375,0 -14.375,0 -14.375,0 -14.375,0 -14.375,0 -14.375001,0 c 0,0 -9.583334,0 -14.375001,0 -4.791667,0 -9.583334,0 -14.375001,0 -4.791667,0 -9.500662,0.094 -14.375001,0 -4.874339,-0.093 -10.854147,0.062 -15.030858,-0.571 -4.176712,-0.6329 -7.699545,-0.5576 -9.968228,-2.7111 -2.268683,-2.1535 -2.21606,-4.4991 -2.972258,-7.5945 -0.756198,-3.0955 -0.95689,-7.246 -1.188915,-10.8765 -0.232024,-3.6305 -0.136752,-7.251 -0.205128,-10.8765 -0.06838,-3.6255 -0.136752,-7.25106 -0.205128,-10.87658 -0.06838,-3.62552 -0.136753,-7.25102 -0.205129,-10.87653 -0.06838,-3.62551 -0.136752,-7.25103 -0.205128,-10.87654 -0.06838,-3.62551 -0.205129,-10.87653 -0.205129,-10.87653 L 12.062467,951.28418 11.857339,940.40764 11.65221,929.53111 11.447082,918.65457 11.241954,907.77803 11.036825,896.9015 10.831697,886.02496 10.626568,875.14843 Z"
         style="opacity:0.91000001;fill:#38bae1;fill-opacity:1;stroke:none;stroke-width:0;stroke-linecap:round;stroke-linejoin:round;stroke-miterlimit:4;stroke-dasharray:none;stroke-opacity:1;filter:url(#filter4298)" />
    </clipPath>
  </defs>
  <metadata
     id="metadata7">
    <rdf:RDF>
      <cc:Work
         rdf:about="">
        <dc:format>image/svg+xml</dc:format>
        <dc:type
           rdf:resource="http://purl.org/dc/dcmitype/StillImage" />
        <dc:title />
      </cc:Work>
    </rdf:RDF>
  </metadata>
  <g
     transform="translate(0,-796.36216)"
     id="layer1"
     inkscape:groupmode="layer"
     inkscape:label="Layer 1">
    <g
       style="fill:#2496e3;fill-opacity:1"
       transform="matrix(1.15,0,0,1,-15.75,2.5934066)"
       id="g4149">
      <path
         sodipodi:nodetypes="sscsssssscsss"
         inkscape:connector-curvature="0"
         id="rect4138"
         transform="translate(0,796.36216)"
         d="m 30,11 c -2.769989,0 -5,2.23001 -5,5 l 0,20 0,50 c 0,2.76999 2.230012,5 5,5 l 190,0 c 2.76999,0 5,-2.23001 5,-5 l 0,-50 c 0,-2.76999 -2.23004,-5.013008 -5,-5 L 120.16211,31.468864 112.19141,16 c -1.26877,-2.462328 -2.23002,-5 -5,-5 z"
         style="opacity:0.98000004;fill:#2496e3;fill-opacity:1;stroke:none;stroke-width:0;stroke-linecap:round;stroke-linejoin:round;stroke-miterlimit:4;stroke-dasharray:none;stroke-opacity:1" />
    </g>
    <rect
       y="847.36218"
       x="25"
       height="35"
       width="95"
       id="rect4222"
       style="opacity:0.95999995;fill:#ffffff;fill-opacity:1;stroke:none;stroke-width:0;stroke-linecap:round;stroke-linejoin:round;stroke-miterlimit:4;stroke-dasharray:none;stroke-opacity:1" />
    <path
       transform="matrix(1.0110039,0,0,0.87092225,-1.4059192,107.89621)"
       sodipodi:nodetypes="cccccccccccccccccccccssscccccccccazzzzzzzzzzzsccccccccc"
       inkscape:connector-curvature="0"
       id="path4296"
       d="m 10.42124,864.27189 42.534575,-0.0913 21.267287,-0.0456 c 7.245384,-0.0152 14.490768,-0.0305 21.736152,-0.0456 8.394956,-10.58827 10.291846,-15.47699 14.084686,-17.71727 3.79283,-2.24028 9.4816,-1.8321 25.46032,-1.82658 23.36644,-0.007 109.60565,-0.67788 109.60565,-0.67788 l -0.0879,12.1518 -0.0879,12.1518 -0.0879,12.15181 -0.0879,12.1518 -0.0879,12.1518 -0.0879,12.1518 -0.0879,12.15181 -0.0879,12.1518 -0.0879,12.1518 -0.0879,12.1518 -0.0879,12.15181 -0.0879,12.1518 -0.0879,12.15181 -0.0879,12.1518 c 0,0 0.59382,8.1589 -0.0879,12.1518 -0.58177,3.4075 -0.78038,7.5176 -3.36995,9.8075 -2.83121,2.5035 -7.3341,1.9515 -11.09295,2.3443 -4.76571,0.4981 -14.375,0 -14.375,0 l -14.375,0 -14.375,0 -14.37501,0 -14.375,0 -14.375,0 -14.375,0 -14.375,0 -14.375,0 -14.375001,0 c 0,0 -9.583334,0 -14.375001,0 -4.791667,0 -9.583334,0 -14.375001,0 -4.791667,0 -9.500662,0.094 -14.375001,0 -4.874339,-0.093 -10.854147,0.062 -15.030858,-0.571 -4.176712,-0.6329 -7.699545,-0.5576 -9.968228,-2.7111 -2.268683,-2.1535 -2.21606,-4.4991 -2.972258,-7.5945 -0.756198,-3.0955 -0.95689,-7.246 -1.188915,-10.8765 -0.232024,-3.6305 -0.136752,-7.251 -0.205128,-10.8765 -0.06838,-3.6255 -0.136752,-7.25106 -0.205128,-10.87658 -0.06838,-3.62552 -0.136753,-7.25102 -0.205129,-10.87653 -0.06838,-3.62551 -0.136752,-7.25103 -0.205128,-10.87654 -0.06838,-3.62551 -0.205129,-10.87653 -0.205129,-10.87653 L 12.062467,951.28418 11.857339,940.40764 11.65221,929.53111 11.447082,918.65457 11.241954,907.77803 11.036825,896.9015 10.831697,886.02496 10.626568,875.14843 Z"
       style="opacity:0.91000001;fill:#0285f4;fill-opacity:1;stroke:none;stroke-width:0;stroke-linecap:round;stroke-linejoin:round;stroke-miterlimit:4;stroke-dasharray:none;stroke-opacity:1;filter:url(#filter4298)" />
    <path
       style="opacity:0.935;fill:#38bae1;fill-opacity:1;stroke:none;stroke-width:0;stroke-linecap:round;stroke-linejoin:round;stroke-miterlimit:4;stroke-dasharray:none;stroke-opacity:1;filter:url(#filter4298)"
       d="m 10.42124,864.27189 42.534575,-0.0913 21.267287,-0.0456 c 7.245384,-0.0152 14.490768,-0.0305 21.736152,-0.0456 8.394956,-10.58827 10.291846,-15.47699 14.084686,-17.71727 3.79283,-2.24028 9.4816,-1.8321 25.46032,-1.82658 23.36644,-0.007 109.60565,-0.67788 109.60565,-0.67788 l -0.0879,12.1518 -0.0879,12.1518 -0.0879,12.15181 -0.0879,12.1518 -0.0879,12.1518 -0.0879,12.1518 -0.0879,12.15181 -0.0879,12.1518 -0.0879,12.1518 -0.0879,12.1518 -0.0879,12.15181 -0.0879,12.1518 -0.0879,12.15181 -0.0879,12.1518 c 0,0 0.59382,8.1589 -0.0879,12.1518 -0.58177,3.4075 -0.78038,7.5176 -3.36995,9.8075 -2.83121,2.5035 -7.3341,1.9515 -11.09295,2.3443 -4.76571,0.4981 -14.375,0 -14.375,0 l -14.375,0 -14.375,0 -14.37501,0 -14.375,0 -14.375,0 -14.375,0 -14.375,0 -14.375,0 -14.375001,0 c 0,0 -9.583334,0 -14.375001,0 -4.791667,0 -9.583334,0 -14.375001,0 -4.791667,0 -9.500662,0.094 -14.375001,0 -4.874339,-0.093 -10.854147,0.062 -15.030858,-0.571 -4.176712,-0.6329 -7.699545,-0.5576 -9.968228,-2.7111 -2.268683,-2.1535 -2.21606,-4.4991 -2.972258,-7.5945 -0.756198,-3.0955 -0.95689,-7.246 -1.188915,-10.8765 -0.232024,-3.6305 -0.136752,-7.251 -0.205128,-10.8765 -0.06838,-3.6255 -0.136752,-7.25106 -0.205128,-10.87658 -0.06838,-3.62552 -0.136753,-7.25102 -0.205129,-10.87653 -0.06838,-3.62551 -0.136752,-7.25103 -0.205128,-10.87654 -0.06838,-3.62551 -0.205129,-10.87653 -0.205129,-10.87653 L 12.062467,951.28418 11.857339,940.40764 11.65221,929.53111 11.447082,918.65457 11.241954,907.77803 11.036825,896.9015 10.831697,886.02496 10.626568,875.14843 Z"
       id="path4154"
       inkscape:connector-curvature="0"
       sodipodi:nodetypes="cccccccccccccccccccccssscccccccccazzzzzzzzzzzsccccccccc"
       transform="matrix(1.0110039,0,0,0.87092225,-1.4059192,107.89621)" />
    <g
       transform="matrix(0.82093063,0,0,0.82093048,88.274745,879.06032)"
       id="g4212"
       style="opacity:0.93500001;fill:#ffffff;fill-opacity:1;fill-rule:nonzero;stroke:none;stroke-width:1.00008464;stroke-miterlimit:4;stroke-dasharray:none;stroke-opacity:1">
      <g
         id="g4214"
         style="fill:#ffffff;fill-opacity:1;stroke:none;stroke-width:1.00008464;stroke-miterlimit:4;stroke-dasharray:none;stroke-opacity:1">
        <path
           id="path4216"
           d="M 86.068,0 C 61.466,0 56.851,35.041 70.691,35.041 84.529,35.041 110.671,0 86.068,0 Z"
           inkscape:connector-curvature="0"
           style="fill:#ffffff;fill-opacity:1;stroke:none;stroke-width:1.00008464;stroke-miterlimit:4;stroke-dasharray:none;stroke-opacity:1" />
        <path
           id="path4218"
           d="M 45.217,30.699 C 52.586,31.149 60.671,2.577 46.821,4.374 32.976,6.171 37.845,30.249 45.217,30.699 Z"
           inkscape:connector-curvature="0"
           style="fill:#ffffff;fill-opacity:1;stroke:none;stroke-width:1.00008464;stroke-miterlimit:4;stroke-dasharray:none;stroke-opacity:1" />
        <path
           id="path4220"
           d="M 11.445,48.453 C 16.686,46.146 12.12,23.581 3.208,29.735 -5.7,35.89 6.204,50.759 11.445,48.453 Z"
           inkscape:connector-curvature="0"
           style="fill:#ffffff;fill-opacity:1;stroke:none;stroke-width:1.00008464;stroke-miterlimit:4;stroke-dasharray:none;stroke-opacity:1" />
        <path
           id="path4222"
           d="M 26.212,36.642 C 32.451,35.37 32.793,9.778 21.667,14.369 10.539,18.961 19.978,37.916 26.212,36.642 l 0,0 z"
           inkscape:connector-curvature="0"
           style="fill:#ffffff;fill-opacity:1;stroke:none;stroke-width:1.00008464;stroke-miterlimit:4;stroke-dasharray:none;stroke-opacity:1" />
        <path
           id="path4224"
           d="m 58.791,93.913 c 1.107,8.454 -6.202,12.629 -13.36,7.179 C 22.644,83.743 83.16,75.088 79.171,51.386 75.86,31.712 15.495,37.769 8.621,68.553 3.968,89.374 27.774,118.26 52.614,118.26 c 12.22,0 26.315,-11.034 28.952,-25.012 C 83.58,82.589 57.867,86.86 58.791,93.913 l 0,0 z"
           inkscape:connector-curvature="0"
           style="fill:#ffffff;fill-opacity:1;stroke:none;stroke-width:1.00008464;stroke-miterlimit:4;stroke-dasharray:none;stroke-opacity:1" />
      </g>
    </g>
  </g>
</svg>
