<?xml version="1.0" encoding="UTF-8" standalone="no"?>
<!-- Created with Inkscape (http://www.inkscape.org/) -->

<svg
   xmlns:dc="http://purl.org/dc/elements/1.1/"
   xmlns:cc="http://creativecommons.org/ns#"
   xmlns:rdf="http://www.w3.org/1999/02/22-rdf-syntax-ns#"
   xmlns:svg="http://www.w3.org/2000/svg"
   xmlns="http://www.w3.org/2000/svg"
   xmlns:sodipodi="http://sodipodi.sourceforge.net/DTD/sodipodi-0.dtd"
   xmlns:inkscape="http://www.inkscape.org/namespaces/inkscape"
   width="256"
   height="256"
   viewBox="0 0 256 256"
   id="svg4149"
   version="1.1"
   inkscape:version="0.91 r13725"
   sodipodi:docname="ubuntu.svg">
  <sodipodi:namedview
     id="base"
     pagecolor="#ffffff"
     bordercolor="#666666"
     borderopacity="1.0"
     inkscape:pageopacity="0.0"
     inkscape:pageshadow="2"
     inkscape:zoom="2.0507812"
     inkscape:cx="32.426664"
     inkscape:cy="128"
     inkscape:document-units="px"
     inkscape:current-layer="layer1"
     showgrid="false"
     units="px"
     inkscape:window-width="1600"
     inkscape:window-height="836"
     inkscape:window-x="0"
     inkscape:window-y="27"
     inkscape:window-maximized="1" />
  <defs
     id="defs4151">
    <clipPath
       id="clipPath4863"
       clipPathUnits="userSpaceOnUse">
      <circle
         r="77.263145"
         cy="924.36218"
         cx="128"
         id="circle4865"
         style="fill:#e9e9e9;fill-opacity:1;stroke:none;stroke-width:20;stroke-miterlimit:4;stroke-dasharray:none;stroke-opacity:1" />
    </clipPath>
    <clipPath
       clipPathUnits="userSpaceOnUse"
       id="clipPath5108">
      <circle
         r="128"
         cy="128.00002"
         cx="128"
         id="circle5110"
         style="fill:#dd4814;fill-opacity:1;stroke:none;stroke-width:20;stroke-miterlimit:4;stroke-dasharray:none;stroke-opacity:1" />
    </clipPath>
  </defs>
  <metadata
     id="metadata4154">
    <rdf:RDF>
      <cc:Work
         rdf:about="">
        <dc:format>image/svg+xml</dc:format>
        <dc:type
           rdf:resource="http://purl.org/dc/dcmitype/StillImage" />
        <dc:title />
      </cc:Work>
    </rdf:RDF>
  </metadata>
  <g
     inkscape:label="Layer 1"
     inkscape:groupmode="layer"
     id="layer1"
     transform="translate(0,-796.36216)">
    <circle
       style="fill:#dd4814;fill-opacity:1;stroke:none;stroke-width:20;stroke-miterlimit:4;stroke-dasharray:none;stroke-opacity:1"
       id="path4723"
       cx="128"
       cy="924.36218"
       r="128" />
    <g
       transform="matrix(0.81857456,0,0,0.81857456,17.983302,824.21525)"
       id="g4803"
       style="fill:#ffffff;fill-opacity:1">
      <path
         inkscape:connector-curvature="0"
         id="path4805"
         d="m 191.93536,209.76349 c 1.98662,-1.02733 4.48994,-3.12124 5.56292,-4.65313 2.48397,-3.54637 2.51239,-12.51731 0.0548,-17.26992 -5.53319,-10.70002 -22.8494,-9.35672 -27.65527,2.14535 -2.60836,6.2427 -1.24762,12.34651 3.90001,17.49415 3.36799,3.36798 5.13028,4.15141 9.33849,4.15141 2.85289,0 6.8125,-0.84054 8.79913,-1.86786 z"
         style="fill:#ffffff;fill-opacity:1" />
      <path
         inkscape:connector-curvature="0"
         id="path4807"
         d="m 155.69915,192.89289 c 3.41549,-0.95597 5.06036,-2.52355 7.5,-7.14763 1.79892,-3.40966 5.37716,-7.49472 8.43237,-9.62672 4.58985,-3.20292 6.39529,-3.69338 13.35454,-3.62792 7.10967,0.0669 8.41112,-0.30641 11.17121,-3.20428 5.6414,-5.923 11.73342,-17.52674 14.4106,-27.44855 3.97431,-14.72899 4.44255,-13.95644 -8.45895,-13.95644 l -11.09023,0 -0.75954,4.74986 c -2.13215,13.33371 -14.42295,28.67343 -28.03741,34.99251 -10.71346,4.97259 -27.67504,5.30397 -39.48665,0.77142 -1.25721,-0.48244 -2.05402,-0.13247 -2.08322,0.91497 -0.026,0.93294 -2.22837,5.35249 -4.89415,9.82124 -5.55578,9.31337 -6.1891,8.3255 8.06643,12.58232 8.32919,2.48718 24.99858,3.10385 31.875,1.17922 z"
         style="fill:#ffffff;fill-opacity:1" />
      <path
         inkscape:connector-curvature="0"
         id="path4809"
         d="m 107.9902,171.83724 5.10277,-8.58923 -6.00608,-6.23121 c -8.911853,-9.24589 -12.987362,-18.47824 -13.629463,-30.87515 -0.369016,-7.12451 0.09555,-12.26206 1.563901,-17.29467 2.1677,-7.42957 10.639812,-20.22552 15.549592,-23.485486 l 2.82098,-1.873066 -5.03639,-8.618553 c -2.77002,-4.740205 -5.59873,-9.180892 -6.28603,-9.868193 -0.83285,-0.832849 -4.107224,1.627753 -9.817418,7.377519 -8.656916,8.71691 -13.24337,15.650744 -17.192818,25.992223 l -2.163082,5.663946 3.243619,3.85483 c 1.783991,2.12015 3.859653,6.1426 4.612583,8.93877 2.193889,8.14748 0.611685,13.91835 -6.505945,23.72958 -2.658199,3.66416 7.206298,21.94366 17.542945,32.50811 4.768279,4.87338 9.216006,8.52298 9.883836,8.11024 0.66783,-0.41275 3.51048,-4.6156 6.317,-9.33966 z"
         style="fill:#ffffff;fill-opacity:1" />
      <path
         inkscape:connector-curvature="0"
         id="path4811"
         d="m 63.83693,137.33158 c 8.45432,-3.53245 11.852556,-14.72567 6.924439,-22.80795 -3.139989,-5.14969 -6.834845,-7.04924 -13.515209,-6.94825 -9.946037,0.15036 -16.099196,7.32354 -14.959054,17.43883 0.688996,6.11278 3.458191,9.90143 9.037046,12.364 4.875358,2.15203 7.271999,2.1431 12.512778,-0.0466 z"
         style="fill:#ffffff;fill-opacity:1" />
      <path
         inkscape:connector-curvature="0"
         id="path4813"
         d="m 213.18068,116.31885 c -0.0445,-3.76695 -3.8867,-17.463156 -6.62187,-23.605128 -1.64283,-3.689051 -5.36684,-9.702158 -8.27556,-13.362462 -5.10038,-6.418234 -5.45792,-6.626492 -10.04557,-5.851411 -10.22571,1.727622 -23.22859,-5.721781 -26.31593,-15.076514 -1.78501,-5.40863 -4.34253,-6.1722 -20.5976,-6.149598 -9.74466,0.01355 -14.49602,0.671363 -21.55524,2.98426 l -9.05525,2.966876 5.19126,9.515742 c 2.85519,5.233657 5.35269,9.71963 5.55,9.968827 0.1973,0.249198 3.02067,-0.453927 6.27416,-1.5625 7.4192,-2.527976 20.42337,-2.570911 28.59507,-0.09441 8.62411,2.613611 18.35436,9.361156 24.2443,16.812472 4.9063,6.20693 10.13071,17.842806 10.13071,22.563236 0,2.25577 0.90501,2.45311 11.25,2.45311 8.17653,0 11.24495,-0.42687 11.23152,-1.5625 z"
         style="fill:#ffffff;fill-opacity:1" />
      <path
         inkscape:connector-curvature="0"
         id="path4815"
         d="m 194.98516,61.17126 c 3.88346,-3.662575 4.464,-4.971144 4.464,-10.062075 0,-7.235544 -2.65078,-12.595197 -7.45909,-15.08167 -8.20222,-4.241538 -18.61781,-0.607413 -22.09234,7.708281 -2.60836,6.242692 -1.24762,12.346511 3.90002,17.494146 3.60117,3.601182 4.98456,4.151414 10.43741,4.151414 5.42017,0 6.90086,-0.579891 10.75,-4.210096 z"
         style="fill:#ffffff;fill-opacity:1" />
    </g>
  </g>
</svg>
