<?xml version="1.0" encoding="UTF-8" standalone="no"?>
<!-- Created with Inkscape (http://www.inkscape.org/) -->

<svg
   xmlns:dc="http://purl.org/dc/elements/1.1/"
   xmlns:cc="http://creativecommons.org/ns#"
   xmlns:rdf="http://www.w3.org/1999/02/22-rdf-syntax-ns#"
   xmlns:svg="http://www.w3.org/2000/svg"
   xmlns="http://www.w3.org/2000/svg"
   xmlns:sodipodi="http://sodipodi.sourceforge.net/DTD/sodipodi-0.dtd"
   xmlns:inkscape="http://www.inkscape.org/namespaces/inkscape"
   width="256"
   height="256"
   viewBox="0 0 256 256"
   id="svg4149"
   version="1.1"
   inkscape:version="0.91 r13725"
   sodipodi:docname="builder.svg">
  <sodipodi:namedview
     id="base"
     pagecolor="#ffffff"
     bordercolor="#666666"
     borderopacity="1.0"
     inkscape:pageopacity="0.0"
     inkscape:pageshadow="2"
     inkscape:zoom="2.0507812"
     inkscape:cx="32.426664"
     inkscape:cy="128"
     inkscape:document-units="px"
     inkscape:current-layer="layer1"
     showgrid="false"
     units="px"
     inkscape:window-width="1600"
     inkscape:window-height="836"
     inkscape:window-x="0"
     inkscape:window-y="27"
     inkscape:window-maximized="1" />
  <defs
     id="defs4151">
    <clipPath
       id="clipPath4863"
       clipPathUnits="userSpaceOnUse">
      <circle
         r="77.263145"
         cy="924.36218"
         cx="128"
         id="circle4865"
         style="fill:#e9e9e9;fill-opacity:1;stroke:none;stroke-width:20;stroke-miterlimit:4;stroke-dasharray:none;stroke-opacity:1" />
    </clipPath>
    <clipPath
       clipPathUnits="userSpaceOnUse"
       id="clipPath4227">
      <circle
         r="77.263145"
         cy="924.36218"
         cx="128"
         id="circle4229"
         style="fill:#e9e9e9;fill-opacity:1;stroke:none;stroke-width:20;stroke-miterlimit:4;stroke-dasharray:none;stroke-opacity:1" />
    </clipPath>
    <clipPath
       id="clipPath5543"
       clipPathUnits="userSpaceOnUse">
      <circle
         r="128"
         cy="924.36218"
         cx="128"
         id="circle5545"
         style="fill:#9e9fe9;fill-opacity:1;stroke:none;stroke-width:20;stroke-miterlimit:4;stroke-dasharray:none;stroke-opacity:1" />
    </clipPath>
    <clipPath
       clipPathUnits="userSpaceOnUse"
       id="clipPath6248">
      <circle
         r="128"
         cy="924.36218"
         cx="128"
         id="circle6250"
         style="fill:#77c445;fill-opacity:1;stroke:none;stroke-width:20;stroke-miterlimit:4;stroke-dasharray:none;stroke-opacity:1" />
    </clipPath>
    <clipPath
       clipPathUnits="userSpaceOnUse"
       id="clipPath4624">
      <path
         style="fill:#0f9d58;fill-opacity:1"
         d="m 151.20117,0.24318 -105.78125,0 c -7.804357,0 -14.087891,6.28158 -14.087891,14.08594 l 0,227.33994 c 0,7.8043 6.283534,14.0878 14.087891,14.0878 l 165.16211,0 c 7.80436,0 14.08594,-6.2835 14.08594,-14.0878 l 0,-154.82237 -73.4668,-86.60351 z"
         id="path4626"
         inkscape:connector-curvature="0" />
    </clipPath>
    <clipPath
       clipPathUnits="userSpaceOnUse"
       id="clipPath6409">
      <circle
         r="128"
         cy="924.36218"
         cx="128"
         id="circle6411"
         style="fill:#77c445;fill-opacity:1;stroke:none;stroke-width:20;stroke-miterlimit:4;stroke-dasharray:none;stroke-opacity:1" />
    </clipPath>
    <clipPath
       id="clipPath4544"
       clipPathUnits="userSpaceOnUse">
      <circle
         r="128"
         cy="128.00002"
         cx="128"
         id="circle4546"
         style="fill:#0f9d97;fill-opacity:1;stroke:none;stroke-width:20;stroke-miterlimit:4;stroke-dasharray:none;stroke-opacity:1" />
    </clipPath>
    <clipPath
       clipPathUnits="userSpaceOnUse"
       id="clipPath4250">
      <circle
         r="128"
         cy="924.36218"
         cx="128"
         id="circle4252"
         style="fill:#b70a01;fill-opacity:1;stroke:none;stroke-width:20;stroke-miterlimit:4;stroke-dasharray:none;stroke-opacity:1" />
    </clipPath>
    <clipPath
       id="clipPath4241"
       clipPathUnits="userSpaceOnUse">
      <circle
         r="128"
         cy="924.36218"
         cx="128"
         id="circle4243"
         style="fill:#01a3d2;fill-opacity:1;stroke:none;stroke-width:20;stroke-miterlimit:4;stroke-dasharray:none;stroke-opacity:1" />
    </clipPath>
    <clipPath
       clipPathUnits="userSpaceOnUse"
       id="clipPath4247">
      <circle
         r="128"
         cy="924.36218"
         cx="128"
         id="circle4249"
         style="fill:#01a3d2;fill-opacity:1;stroke:none;stroke-width:20;stroke-miterlimit:4;stroke-dasharray:none;stroke-opacity:1" />
    </clipPath>
    <clipPath
       id="clipPath4274"
       clipPathUnits="userSpaceOnUse">
      <circle
         r="128"
         cy="924.36218"
         cx="128"
         id="circle4276"
         style="fill:#f77e08;fill-opacity:1;stroke:none;stroke-width:20;stroke-miterlimit:4;stroke-dasharray:none;stroke-opacity:1" />
    </clipPath>
    <clipPath
       clipPathUnits="userSpaceOnUse"
       id="clipPath4856">
      <circle
         r="128"
         cy="924.36218"
         cx="128"
         id="circle4858"
         style="fill:#fffc59;fill-opacity:1;stroke:none;stroke-width:20;stroke-miterlimit:4;stroke-dasharray:none;stroke-opacity:1" />
    </clipPath>
  </defs>
  <metadata
     id="metadata4154">
    <rdf:RDF>
      <cc:Work
         rdf:about="">
        <dc:format>image/svg+xml</dc:format>
        <dc:type
           rdf:resource="http://purl.org/dc/dcmitype/StillImage" />
        <dc:title />
      </cc:Work>
    </rdf:RDF>
  </metadata>
  <g
     inkscape:label="Layer 1"
     inkscape:groupmode="layer"
     id="layer1"
     transform="translate(0,-796.36216)">
    <circle
       style="fill:#fffc59;fill-opacity:1;stroke:none;stroke-width:20;stroke-miterlimit:4;stroke-dasharray:none;stroke-opacity:1"
       id="path4723"
       cx="128"
       cy="924.36218"
       r="128" />
    <path
       id="path4274"
       d="m 169.00952,1082.0063 0,-11.2826 4.99992,-0.2175 c 3.86123,-0.168 5.45542,0.238 7,1.7825 2.65247,2.6525 2.65251,8.3477 8e-5,11.0001 -1.2381,1.2381 -3.33333,2 -5.5,2 -3.41667,0 -3.5,0.095 -3.5,4 0,2.8889 -0.41667,4 -1.5,4 -1.2447,0 -1.5,-1.9203 -1.5,-11.2825 z"
       style="fill:#000000" />
    <path
       id="path4272"
       d="m 179.24421,1080.904 c 1.12892,-1.7136 0.90084,-5.0797 -0.43469,-6.4152 -0.66,-0.66 -2.46,-1.2 -4,-1.2 -2.64403,0 -2.8,0.2461 -2.8,4.4167 0,2.603 0.5133,4.6197 1.25,4.911 1.65984,0.6565 5.06617,-0.3182 5.98469,-1.7125 z"
       style="fill:#000000" />
    <path
       id="path4270"
       d="m 16.00952,1087.2231 c 0,-2.0338 2.07809,-4.9343 3.53518,-4.9343 1.76609,0 1.78416,0.205 0.3043,3.453 -1.1449,2.5128 -3.83948,3.5524 -3.83948,1.4813 z"
       style="fill:#000000" />
    <path
       id="path4268"
       d="m 114.00952,1087.2231 c 0,-2.0338 2.07809,-4.9343 3.53518,-4.9343 1.76609,0 1.78416,0.205 0.3043,3.453 -1.1449,2.5128 -3.83948,3.5524 -3.83948,1.4813 z"
       style="fill:#000000" />
    <path
       id="path4266"
       d="m -31.74048,1084.7668 c -1.93588,-1.3692 -2.25,-2.4909 -2.25,-8.0347 0,-5.0607 0.32187,-6.4433 1.5,-6.4433 1.14091,0 1.50367,1.2568 1.51531,5.25 0.0185,6.3268 0.94045,8.0339 4.09778,7.5875 2.18681,-0.3092 2.41187,-0.8614 2.68463,-6.5875 0.22202,-4.6609 0.66695,-6.25 1.75,-6.25 1.13954,0 1.45228,1.6017 1.45228,7.4379 0,6.4464 -0.23326,7.4275 -1.75,7.3605 -0.9625,-0.043 -2.875,0.2261 -4.25,0.5969 -1.61447,0.4353 -3.29697,0.1104 -4.75,-0.9173 z"
       style="fill:#000000" />
    <path
       id="path4264"
       d="m -8.34845,1085.1084 c -2.33296,-1.3056 -2.46609,-20.8196 -0.14203,-20.8196 1.22337,0 1.5,1.6771 1.5,9.0936 0,8.2527 0.18497,9.142 2,9.6167 1.1,0.2876 2,0.868 2,1.2897 0,1.2587 -3.59163,1.8081 -5.35797,0.8196 z"
       style="fill:#000000" />
    <path
       id="path4262"
       d="m 2.90401,1085.1184 c -2.71748,-0.9389 -4.89449,-4.4767 -4.89449,-7.9539 0,-3.2036 5.57985,-8.1894 8.53329,-7.6249 2.15742,0.4125 2.46671,0.1128 2.46671,-2.3897 0,-2.1947 0.46598,-2.8614 2,-2.8614 1.8722,0 2,0.6667 2,10.4331 l 0,10.4331 -2.85589,-0.081 c -1.57074,-0.045 -3.25824,0.1497 -3.75,0.4319 -0.49176,0.2822 -2.06659,0.108 -3.49962,-0.3871 z"
       style="fill:#000000" />
    <path
       id="path4260"
       d="m 8.81178,1077.5385 c 0.2839,-4.9311 0.15936,-5.25 -2.05,-5.25 -3.19875,0 -4.75226,1.7979 -4.75226,5.5 0,3.6755 1.70712,5.6869 4.48832,5.2883 1.67683,-0.2403 2.06199,-1.1622 2.31394,-5.5383 z"
       style="fill:#000000" />
    <path
       id="path4258"
       d="m 37.29805,1085.155 c -5.08641,-1.4313 -3.25384,-3.6657 2.54913,-3.1081 3.49773,0.3361 5.07994,0.046 6.03724,-1.1077 1.78698,-2.1532 0.81084,-3.3001 -4.89911,-5.7565 -5.12904,-2.2064 -6.5723,-4.3814 -5.56653,-8.3887 0.71436,-2.8462 5.86894,-4.8107 9.82172,-3.7431 3.66519,0.9899 3.42254,2.8037 -0.33143,2.4774 -3.62185,-0.3148 -6.89955,1.2769 -6.89955,3.3504 0,0.8818 2.32236,2.5469 5.53197,3.9663 5.94342,2.6285 7.03401,4.0523 6.06407,7.9169 -0.98711,3.9329 -6.69821,5.9715 -12.30751,4.3931 z"
       style="fill:#000000" />
    <path
       id="path4256"
       d="m 72.17619,1084.4552 c -1.20809,-1.2081 -1.81331,-2.802 -1.5077,-3.9706 0.55038,-2.1047 4.23275,-4.1961 7.38808,-4.1961 2.51531,0 2.5446,-2.6774 0.038,-3.473 -1.05322,-0.3343 -3.07822,-0.3158 -4.5,0.041 -1.54999,0.3891 -2.58505,0.2287 -2.58505,-0.4005 0,-1.6095 1.79087,-2.3675 5.59336,-2.3675 5.30278,0 6.40664,1.5182 6.40664,8.8113 0,5.9582 -0.14425,6.3614 -2.25,6.2896 -1.2375,-0.042 -3.2209,0.2294 -4.40755,0.6036 -1.4921,0.4706 -2.78002,0.058 -4.17578,-1.3378 z"
       style="fill:#000000" />
    <path
       id="path4254"
       d="m 78.42773,1082.6815 c 0.86999,-0.3338 1.58179,-1.3809 1.58179,-2.3268 0,-1.3421 -0.6589,-1.6231 -3,-1.2795 -2.11757,0.3108 -3,0.9952 -3,2.3268 0,1.919 1.56828,2.3732 4.41821,1.2795 z"
       style="fill:#000000" />
    <path
       id="path4252"
       d="m 102.86023,1085.1595 c -5.00391,-1.8331 -6.03933,-9.5804 -1.79391,-13.4224 4.10587,-3.7158 10.9432,-0.7752 10.9432,4.7064 0,2.7473 -0.17164,2.845 -5,2.845 -2.75,0 -5,0.3949 -5,0.8776 0,1.8303 3.09742,3.3351 5.99084,2.9104 2.05548,-0.3016 3.00916,-0.021 3.00916,0.8852 0,0.7297 -0.6382,1.3268 -1.41821,1.3268 -0.78002,0 -2.01752,0.1893 -2.75,0.4208 -0.73249,0.2314 -2.52397,-0.016 -3.98108,-0.5498 z"
       style="fill:#000000" />
    <path
       id="path4250"
       d="m 109.00952,1075.411 c 0,-1.7145 -2.93507,-3.2779 -4.95201,-2.6377 -3.47491,1.1029 -2.47847,3.5152 1.45201,3.5152 1.925,0 3.5,-0.3949 3.5,-0.8775 z"
       style="fill:#000000" />
    <path
       id="path4248"
       d="m 156.86023,1085.1595 c -5.00391,-1.8331 -6.03933,-9.5803 -1.79391,-13.4224 4.10587,-3.7157 10.9432,-0.7752 10.9432,4.7064 0,2.7474 -0.17164,2.845 -5,2.845 -2.75,0 -5,0.3949 -5,0.8776 0,1.8303 3.09742,3.3351 5.99084,2.9105 2.05548,-0.3017 3.00916,-0.021 3.00916,0.8851 0,0.7298 -0.6382,1.3268 -1.41821,1.3268 -0.78002,0 -2.01752,0.1894 -2.75,0.4208 -0.73249,0.2314 -2.52397,-0.016 -3.98108,-0.5498 z"
       style="fill:#000000" />
    <path
       id="path4246"
       d="m 163.00952,1075.411 c 0,-1.7145 -2.93507,-3.2779 -4.95201,-2.6377 -3.47491,1.1029 -2.47847,3.5152 1.45201,3.5152 1.925,0 3.5,-0.3949 3.5,-0.8775 z"
       style="fill:#000000" />
    <path
       id="path4244"
       d="m 190.86023,1085.1595 c -5.00391,-1.8331 -6.03933,-9.5803 -1.79391,-13.4224 4.10587,-3.7157 10.9432,-0.7752 10.9432,4.7064 0,2.7474 -0.17164,2.845 -5,2.845 -2.75,0 -5,0.3949 -5,0.8776 0,1.8303 3.09742,3.3351 5.99084,2.9105 2.05548,-0.3017 3.00916,-0.021 3.00916,0.8851 0,0.7298 -0.6382,1.3268 -1.41821,1.3268 -0.78002,0 -2.01752,0.1894 -2.75,0.4208 -0.73249,0.2314 -2.52397,-0.016 -3.98108,-0.5498 z"
       style="fill:#000000" />
    <path
       id="path4242"
       d="m 197.00952,1075.411 c 0,-1.7145 -2.93507,-3.2779 -4.95201,-2.6377 -3.47491,1.1029 -2.47847,3.5152 1.45201,3.5152 1.925,0 3.5,-0.3949 3.5,-0.8775 z"
       style="fill:#000000" />
    <path
       id="path4240"
       d="m 204.17619,1084.4552 c -1.20809,-1.2081 -1.81331,-2.8019 -1.5077,-3.9706 0.55038,-2.1047 4.23275,-4.1961 7.38808,-4.1961 2.51531,0 2.5446,-2.6774 0.038,-3.473 -1.05322,-0.3343 -3.07822,-0.3158 -4.5,0.041 -1.54999,0.3891 -2.58505,0.2287 -2.58505,-0.4005 0,-1.6095 1.79087,-2.3675 5.59336,-2.3675 5.30278,0 6.40664,1.5182 6.40664,8.8113 0,5.9582 -0.14425,6.3614 -2.25,6.2896 -1.2375,-0.042 -3.2209,0.2294 -4.40755,0.6036 -1.4921,0.4706 -2.78002,0.058 -4.17578,-1.3378 z"
       style="fill:#000000" />
    <path
       id="path4238"
       d="m 210.42773,1082.6815 c 0.86999,-0.3338 1.58179,-1.3809 1.58179,-2.3268 0,-1.3421 -0.6589,-1.6231 -3,-1.2795 -2.11757,0.3108 -3,0.9952 -3,2.3268 0,1.919 1.56828,2.3732 4.41821,1.2795 z"
       style="fill:#000000" />
    <path
       id="path4236"
       d="m -53.99048,1074.2885 0,-11 5.84501,0 c 4.62264,0 6.23302,0.4288 7.70033,2.0501 1.51953,1.6791 1.66553,2.5529 0.80669,4.8283 -0.85398,2.2624 -0.70554,3.2018 0.79967,5.0606 2.46084,3.0391 2.33091,4.6693 -0.60625,7.6065 -2.0647,2.0647 -3.4147,2.4545 -8.5,2.4545 l -6.04545,0 0,-11 z"
       style="fill:#000000" />
    <path
       id="path4234"
       d="m -41.06441,1080.4267 c 1.41523,-2.6444 -0.60595,-4.8649 -5.17607,-5.6866 l -3.75,-0.6742 0,4.1113 0,4.1113 3.96482,0 c 2.8433,0 4.24667,-0.5266 4.96125,-1.8618 z"
       style="fill:#000000" />
    <path
       id="path4232"
       d="m -42.63895,1070.337 c 1.8501,-1.8501 -0.22428,-4.0485 -3.82015,-4.0485 -3.28848,0 -3.53138,0.215 -3.53138,3.125 0,2.9861 0.14308,3.0964 3.21875,2.4813 1.77031,-0.3541 3.63006,-1.0551 4.13278,-1.5578 z"
       style="fill:#000000" />
    <path
       id="path4230"
       d="m -16.99048,1077.7885 c 0,-6 0.3,-7.5 1.5,-7.5 1.2,0 1.5,1.5 1.5,7.5 0,6 -0.3,7.5 -1.5,7.5 -1.2,0 -1.5,-1.5 -1.5,-7.5 z"
       style="fill:#000000" />
    <path
       id="path4228"
       d="m 54.00952,1074.7885 c 0,-8.6666 0.2619,-10.5 1.5,-10.5 1.00496,0 1.5,1.0051 1.5,3.0453 0,2.8924 0.16322,3.0152 3.25,2.4442 5.18524,-0.959 6.8602,1.0142 7.48678,8.8201 0.50845,6.3342 0.42326,6.6904 -1.59987,6.6904 -1.94275,0 -2.13691,-0.5398 -2.13691,-5.941 0,-6.4284 -0.79055,-7.5793 -4.55684,-6.6341 -2.2502,0.5648 -2.44316,1.0856 -2.44316,6.5942 0,4.6497 -0.33386,5.9809 -1.5,5.9809 -1.2381,0 -1.5,-1.8333 -1.5,-10.5 z"
       style="fill:#000000" />
    <path
       id="path4226"
       d="m 87.00952,1077.9153 0,-7.3731 4.5,-0.09 c 3.3246,-0.067 4.5,0.2919 4.5,1.3732 0,0.9594 -1.03325,1.4635 -3,1.4635 -3,0 -3,0 -3,6 0,4.6666 -0.33333,6 -1.5,6 -1.19771,0 -1.5,-1.486 -1.5,-7.3732 z"
       style="fill:#000000" />
    <path
       id="path4224"
       d="m 133.00952,1074.2885 0,-11 5.75,0.015 c 6.33327,0.017 7.40554,0.4492 9.1003,3.669 1.6481,3.1311 1.45786,4.0985 -1.36023,6.9166 l -2.50994,2.5099 3.05798,4.4446 c 2.77683,4.036 2.87812,4.4446 1.10175,4.4446 -1.23051,0 -3.01044,-1.6687 -4.79804,-4.4982 -3.83065,-6.0634 -6.34182,-6.0641 -6.34182,0 0,3.8334 -0.2963,4.5 -2,4.5 -1.87879,0 -2,-0.6666 -2,-11 z"
       style="fill:#000000" />
    <path
       id="path4222"
       d="m 144.50952,1069.7885 c 0,-2.7448 -0.31897,-3.0264 -3.75,-3.3103 -3.70001,-0.3063 -3.75,-0.2621 -3.75,3.3103 0,3.5725 0.05,3.6166 3.75,3.3104 3.43103,-0.284 3.75,-0.5656 3.75,-3.3104 z"
       style="fill:#000000" />
    <path
       id="path4220"
       d="m 221.20952,1084.0885 c -0.66,-0.66 -1.2,-3.585 -1.2,-6.5 0,-4.0444 -0.35535,-5.3 -1.5,-5.3 -0.825,0 -1.5,-0.45 -1.5,-1 0,-0.55 0.675,-1 1.5,-1 0.83333,0 1.5,-0.8889 1.5,-2 0,-1.1111 0.66667,-2 1.5,-2 0.83333,0 1.5,0.8889 1.5,2 0,1.4667 0.66667,2 2.5,2 1.375,0 2.5,0.45 2.5,1 0,0.55 -1.125,1 -2.5,1 -2.33333,0 -2.5,0.3334 -2.5,5 0,4.8844 0.4566,5.5023 3.75,5.0747 0.6875,-0.089 1.25,0.5324 1.25,1.3815 0,1.8782 -5.01222,2.1316 -6.8,0.3438 z"
       style="fill:#000000" />
    <path
       id="path4218"
       d="m -16.99048,1065.7885 c 0,-0.825 0.675,-1.5 1.5,-1.5 0.825,0 1.5,0.675 1.5,1.5 0,0.825 -0.675,1.5 -1.5,1.5 -0.825,0 -1.5,-0.675 -1.5,-1.5 z"
       style="fill:#000000" />
    <path
       id="path4214"
       d="m -34.99048,968.34754 c 0,-0.51754 -0.45,-1.2191 -1,-1.55902 -0.55,-0.33992 -1,0.0835 -1,0.94098 0,0.85746 0.45,1.55902 1,1.55902 0.55,0 1,-0.42344 1,-0.94098 z"
       style="fill:#000000" />
    <path
       style="fill:#2b2b2b;fill-opacity:1"
       d="m 110.40017,850.48903 c -4.12597,0 -7.33893,1.71274 -10.16707,5.4183 -1.961478,2.57006 -2.296968,3.80098 -2.432278,8.91363 l -0.15708,5.93237 -9.89257,17.47186 c -7.6785,13.56007 -10.6765,18.11189 -13.39425,20.33888 -4.41632,3.61883 -7.66514,10.07504 -7.90294,15.70594 l -0.17771,4.20454 -2.84322,0.005 c -8.10365,0.0137 -15.43549,5.27272 -15.43305,11.06985 0.003,7.11074 5.31544,12.48352 12.3439,12.48352 4.62436,0 7.76978,-1.43574 12.78498,-5.83717 l 3.60321,-3.16213 5.59601,5.51509 c 5.35308,5.27563 5.57874,5.65284 5.19142,8.6788 -0.46673,3.64631 -0.97433,4.06785 -7.02713,5.83242 -9.1578,2.66975 -15.43464,7.43503 -15.43464,11.71719 0,0.97754 -0.73111,2.70678 -1.6247,3.84279 -5.61587,7.13944 3.09467,15.50933 19.15685,18.40953 l 0,0 c 3.53789,0.6389 10.81884,1.1815 16.18034,1.2059 16.427058,0.075 28.985458,-3.1538 34.813598,-8.9501 2.80003,-2.78479 3.08642,-3.44069 2.69726,-6.17199 -1.0949,-7.68457 -2.25376,-12.11638 -3.66033,-14.00033 -1.98481,-2.65843 -7.34993,-5.34718 -13.94797,-6.98905 -5.60927,-1.39582 -7.78185,-2.69087 -5.68644,-3.39061 2.81475,-0.93997 10.32074,-9.69586 11.64577,-13.58464 1.77354,-5.20505 1.70382,-12.1693 -0.16342,-16.26919 -1.54456,-3.3914 -6.12495,-8.0042 -10.53039,-10.60656 -1.41742,-0.8373 -2.5705,-1.90031 -2.56238,-2.36247 0.0275,-1.6035 7.09854,-31.37541 7.56182,-31.8387 0.25617,-0.25616 2.50749,0.37951 5.00261,1.41368 4.09757,1.69835 4.89569,1.78429 8.25677,0.88534 2.63857,-0.70571 4.02434,-0.74343 4.76144,-0.13169 0.57174,0.4745 1.35206,0.78779 1.73418,0.69652 0.38212,-0.0913 3.61939,2.75647 7.19373,6.32902 4.46919,4.46696 7.68786,6.94843 10.30668,7.94579 3.67616,1.40004 3.91244,1.39839 6.79866,-0.0619 1.6444,-0.83196 3.48036,-2.42752 4.08079,-3.5445 2.26429,-4.21224 4.40287,-9.2833 4.40287,-10.44154 0,-2.62971 1.02366,0.0823 2.36724,6.27349 l 1.41526,6.52418 -2.33074,0.96625 c -1.28191,0.53098 -3.24596,1.68548 -4.36479,2.56556 -1.77781,1.39842 -1.9709,2.02423 -1.52951,4.96771 l 0.50455,3.36839 -4.5647,2.23873 c -4.45686,2.18585 -4.55256,2.30447 -4.04906,4.98832 0.55368,2.95138 -0.27291,5.10163 -3.40964,8.87238 -1.0506,1.26295 -1.91029,2.98596 -1.91029,3.8301 0,4.77923 9.58888,14.9051 13.66873,14.43348 3.03239,-0.35053 3.17564,-2.81483 0.58864,-10.10201 -2.31622,-6.52442 -2.18639,-7.42695 1.60248,-11.21581 1.10654,-1.10654 2.01183,-2.93615 2.01183,-4.06492 0,-2.14007 0.47307,-2.36953 6.52259,-3.16848 l 2.86703,-0.3792 2.63061,8.45033 c 2.36274,7.59267 2.82258,8.44875 4.54408,8.44875 2.1529,0 2.93207,-2.30565 2.93207,-8.68515 0,-3.37093 0.12021,-3.5714 1.82462,-3.03044 2.36679,0.75118 3.79555,2.67593 3.87135,5.2168 0.0333,1.11698 1.06471,5.13811 2.29266,8.93584 2.27634,7.04011 3.67067,8.45343 6.52101,6.60351 2.2557,-1.464 3.45806,-15.57155 1.61994,-19.00612 -0.51096,-0.95473 -2.15596,-2.89335 -3.65558,-4.30767 -2.13077,-2.00958 -2.72581,-3.22173 -2.72581,-5.54999 0,-2.75165 -0.27568,-3.09756 -3.60956,-4.52663 -3.16928,-1.35852 -3.67087,-1.92515 -4.10616,-4.64245 -0.71933,-4.49024 -1.44003,-5.44451 -4.75193,-6.2846 -1.6317,-0.41389 -2.96698,-1.07109 -2.96698,-1.46128 0,-1.21522 2.26764,-5.16478 3.60163,-6.2719 2.16319,-1.79528 1.50489,-4.8503 -1.73259,-8.04575 -2.94111,-2.90292 -2.99866,-3.07905 -2.77024,-8.43764 0.37065,-8.69541 -3.07079,-12.80894 -10.71286,-12.80243 -1.96303,0.002 -4.53029,0.68341 -6.04026,1.60407 -2.35632,1.4367 -3.27477,1.52296 -8.93584,0.83138 -15.84437,-1.93561 -17.37671,-2.24777 -19.14891,-3.90625 -2.3362,-2.18629 -25.0485,-9.90527 -29.14619,-9.90527 z m 35.856,14.3827 c 3.51261,0.0479 8.72622,0.55637 9.33726,1.13443 0.4608,0.43595 -1.17563,0.68642 -4.06175,0.62038 -5.68534,-0.13013 -8.48841,-0.59114 -8.48841,-1.39464 0,-0.20585 0.72548,-0.31585 1.82937,-0.35065 0.41396,-0.0131 0.88174,-0.0164 1.38353,-0.01 z m 11.39035,4.73289 c 4.30564,0.0564 4.89313,0.65311 4.89313,2.50686 0,1.07341 -0.45247,1.88056 -1.01544,1.81192 -2.42009,-0.29522 -11.05143,-1.48506 -14.25419,-1.96582 -5.81187,-0.87239 -3.45982,-1.99843 4.71544,-2.25618 2.37766,-0.075 4.22584,-0.11556 5.66106,-0.0968 z m -8.91681,5.34532 c 0.95705,0 1.9141,0.0448 2.64014,0.13487 1.45207,0.1802 0.26401,0.32842 -2.64014,0.32842 -2.90415,0 -4.09221,-0.14822 -2.64013,-0.32842 0.72603,-0.0901 1.68309,-0.13487 2.64013,-0.13487 z m 16.22478,4.08713 1.17568,2.58302 c 2.18106,4.79482 0.19529,13.56829 -3.68571,16.28665 -2.31364,1.62051 -2.88128,1.62183 -6.12119,0.0238 -3.23788,-1.59704 -15.19738,-13.81482 -14.5493,-14.86345 0.26621,-0.43073 0.12835,-1.0039 -0.30621,-1.27247 -0.43459,-0.26858 -0.59718,-0.99278 -0.36017,-1.61042 0.33887,-0.88307 2.93268,-1.12644 12.13923,-1.13602 l 11.70767,-0.0111 z m 16.40723,3.65875 c 0.68387,0.0352 1.45147,0.68672 2.99078,2.22602 l 2.77975,2.77977 -1.76591,2.47988 c -0.97144,1.36427 -2.24796,3.8664 -2.83528,5.5611 -1.24593,3.59513 -1.48974,3.12374 -3.00348,-5.7864 -0.87676,-5.16077 -0.83242,-5.70838 0.5458,-6.71616 0.49867,-0.36464 0.87802,-0.56531 1.28834,-0.54421 z M 64.883222,931.75885 c 1.58626,-0.0188 2.61158,0.23775 2.61158,0.77586 0,0.4455 1.33327,2.2871 2.9638,4.0919 2.79792,3.09696 2.90068,3.40129 1.82778,5.42306 -0.62525,1.17821 -2.76082,3.17497 -4.74716,4.43777 -4.12878,2.62484 -9.16115,3.05404 -12.05355,1.02813 -2.11382,-1.48059 -4.23786,-5.27203 -4.23786,-7.565 0,-2.75239 3.74428,-6.32867 7.65861,-7.31431 2.2424,-0.56465 4.39053,-0.85863 5.9768,-0.87741 z"
       id="path4284"
       inkscape:connector-curvature="0" />
  </g>
</svg>
