<?xml version="1.0" encoding="UTF-8" standalone="no"?>
<!-- Created with Inkscape (http://www.inkscape.org/) -->

<svg
   xmlns:dc="http://purl.org/dc/elements/1.1/"
   xmlns:cc="http://creativecommons.org/ns#"
   xmlns:rdf="http://www.w3.org/1999/02/22-rdf-syntax-ns#"
   xmlns:svg="http://www.w3.org/2000/svg"
   xmlns="http://www.w3.org/2000/svg"
   xmlns:sodipodi="http://sodipodi.sourceforge.net/DTD/sodipodi-0.dtd"
   xmlns:inkscape="http://www.inkscape.org/namespaces/inkscape"
   width="256"
   height="256"
   viewBox="0 0 256 256"
   id="svg2"
   version="1.1"
   inkscape:version="0.91 r13725"
   sodipodi:docname="chrome-deceagebecbceejblnlcjooeohmmeldh-Default.svg">
  <sodipodi:namedview
     id="base"
     pagecolor="#ffffff"
     bordercolor="#666666"
     borderopacity="1.0"
     inkscape:pageopacity="0.0"
     inkscape:pageshadow="2"
     inkscape:zoom="2.0507812"
     inkscape:cx="32.426664"
     inkscape:cy="128"
     inkscape:document-units="px"
     inkscape:current-layer="layer1"
     showgrid="true"
     units="px"
     inkscape:window-width="1600"
     inkscape:window-height="836"
     inkscape:window-x="0"
     inkscape:window-y="27"
     inkscape:window-maximized="1">
    <inkscape:grid
       type="xygrid"
       id="grid5364"
       spacingx="5"
       spacingy="5" />
  </sodipodi:namedview>
  <defs
     id="defs4">
    <inkscape:path-effect
       is_visible="true"
       id="path-effect4285"
       effect="spiro" />
    <inkscape:path-effect
       is_visible="true"
       id="path-effect4267"
       effect="spiro" />
    <inkscape:path-effect
       effect="spiro"
       id="path-effect4263"
       is_visible="true" />
    <inkscape:path-effect
       effect="spiro"
       id="path-effect4259"
       is_visible="true" />
    <inkscape:path-effect
       is_visible="true"
       id="path-effect4255"
       effect="spiro" />
    <inkscape:path-effect
       is_visible="true"
       id="path-effect4251"
       effect="spiro" />
    <inkscape:path-effect
       is_visible="true"
       id="path-effect4247"
       effect="spiro" />
    <inkscape:path-effect
       is_visible="true"
       id="path-effect4243"
       effect="spiro" />
    <inkscape:path-effect
       is_visible="true"
       id="path-effect4239"
       effect="spiro" />
    <inkscape:path-effect
       is_visible="true"
       id="path-effect4235"
       effect="spiro" />
    <inkscape:path-effect
       fuse_tolerance="0"
       vertical_pattern="false"
       prop_units="false"
       tang_offset="0"
       normal_offset="0"
       spacing="0"
       scale_y_rel="false"
       prop_scale="1"
       copytype="single_stretched"
       pattern="m 0,801.36216 c 0,-2.76 2.24,-5 5,-5 2.76,0 5,2.24 5,5 0,2.76 -2.24,5 -5,5 -2.76,0 -5,-2.24 -5,-5 z"
       is_visible="true"
       id="path-effect4231"
       effect="skeletal" />
    <inkscape:path-effect
       is_visible="true"
       id="path-effect4229"
       effect="spiro" />
    <inkscape:path-effect
       is_visible="true"
       id="path-effect4225"
       effect="spiro" />
    <clipPath
       id="clipPath6496"
       clipPathUnits="userSpaceOnUse">
      <circle
         r="128"
         cy="923.80737"
         cx="138.67154"
         id="circle6498"
         style="fill:#ec6155;fill-opacity:1;stroke:none;stroke-width:10;stroke-miterlimit:4;stroke-dasharray:none;stroke-opacity:1" />
    </clipPath>
    <clipPath
       clipPathUnits="userSpaceOnUse"
       id="clipPath4403">
      <path
         style="fill:#0ee132;fill-opacity:1;stroke:none;stroke-width:10;stroke-miterlimit:4;stroke-dasharray:none;stroke-opacity:1"
         d="m 209.35592,964.68798 a 80.79922,80.79922 0 0 1 -70.39733,90.00692 80.79922,80.79922 0 0 1 -90.00691,-70.39734 80.79922,80.79922 0 0 1 70.39733,-90.00691 80.79922,80.79922 0 0 1 90.00691,70.39733 z"
         id="path4405"
         inkscape:connector-curvature="0" />
    </clipPath>
    <clipPath
       id="clipPath5371"
       clipPathUnits="userSpaceOnUse">
      <path
         inkscape:connector-curvature="0"
         style="fill:#84bd00;fill-opacity:1;stroke:none;stroke-width:10;stroke-miterlimit:4;stroke-dasharray:none;stroke-opacity:1"
         d="m 233.40483,929.35779 a 112,112 0 0 1 -112,112.00001 112,112 0 0 1 -112.000005,-112.00001 112,112 0 0 1 112.000005,-112 112,112 0 0 1 112,112 z"
         id="path5373" />
    </clipPath>
    <clipPath
       clipPathUnits="userSpaceOnUse"
       id="clipPath4294">
      <path
         style="fill:#e61d25;fill-opacity:1;stroke:none;stroke-width:10;stroke-miterlimit:4;stroke-dasharray:none;stroke-opacity:1"
         d="M 256,924.36218 A 128,128 0 0 1 128,1052.3622 128,128 0 0 1 0,924.36218 a 128,128 0 0 1 128,-128 128,128 0 0 1 128,128 z"
         id="path4296"
         inkscape:connector-curvature="0" />
    </clipPath>
  </defs>
  <metadata
     id="metadata7">
    <rdf:RDF>
      <cc:Work
         rdf:about="">
        <dc:format>image/svg+xml</dc:format>
        <dc:type
           rdf:resource="http://purl.org/dc/dcmitype/StillImage" />
        <dc:title />
      </cc:Work>
    </rdf:RDF>
  </metadata>
  <g
     inkscape:label="Layer 1"
     inkscape:groupmode="layer"
     id="layer1"
     transform="translate(0,-796.36216)">
    <path
       id="path4136"
       d="M 256,924.36218 A 128,128 0 0 1 128,1052.3622 128,128 0 0 1 0,924.36218 a 128,128 0 0 1 128,-128 128,128 0 0 1 128,128 z"
       style="fill:#e61d25;fill-opacity:1;stroke:none;stroke-width:10;stroke-miterlimit:4;stroke-dasharray:none;stroke-opacity:1" />
    <path
       inkscape:connector-curvature="0"
       style="fill:#ffffff;fill-opacity:1;fill-rule:nonzero;stroke:none"
       d="m 143.40582,934.70265 -32.03195,-88.79133 -23.37387,0 0,156.90168 c 8.18228,-1.1646 16.38013,-2.28 24.59414,-3.34987 l 0,-85.32282 28.48192,81.81962 c 8.95859,-1.039 17.9327,-2.0231 26.92394,-2.948 l 0,-147.10061 -24.59418,0 0,88.79133 z"
       id="path4200" />
  </g>
</svg>
