<?xml version="1.0" encoding="UTF-8" standalone="no"?>
<!-- Created with Inkscape (http://www.inkscape.org/) -->

<svg
   xmlns:dc="http://purl.org/dc/elements/1.1/"
   xmlns:cc="http://creativecommons.org/ns#"
   xmlns:rdf="http://www.w3.org/1999/02/22-rdf-syntax-ns#"
   xmlns:svg="http://www.w3.org/2000/svg"
   xmlns="http://www.w3.org/2000/svg"
   xmlns:sodipodi="http://sodipodi.sourceforge.net/DTD/sodipodi-0.dtd"
   xmlns:inkscape="http://www.inkscape.org/namespaces/inkscape"
   sodipodi:docname="copyq.svg"
   inkscape:version="0.91 r13725"
   version="1.1"
   id="svg2"
   viewBox="0 0 256 256"
   height="256"
   width="256">
  <sodipodi:namedview
     inkscape:window-maximized="1"
     inkscape:window-y="27"
     inkscape:window-x="0"
     inkscape:window-height="836"
     inkscape:window-width="1600"
     units="px"
     showgrid="true"
     inkscape:current-layer="layer1"
     inkscape:document-units="px"
     inkscape:cy="126.84788"
     inkscape:cx="68.337692"
     inkscape:zoom="3.2851562"
     inkscape:pageshadow="2"
     inkscape:pageopacity="0.0"
     borderopacity="1.0"
     bordercolor="#666666"
     pagecolor="#ffffff"
     id="base">
    <inkscape:grid
       spacingy="5"
       spacingx="5"
       id="grid4168"
       type="xygrid" />
  </sodipodi:namedview>
  <defs
     id="defs4">
    <clipPath
       id="clipPath5002"
       clipPathUnits="userSpaceOnUse">
      <g
         id="g5004">
        <path
           style="fill:#0f9d58;fill-opacity:1;stroke:none;stroke-width:4.85768509;stroke-linejoin:round;stroke-miterlimit:4;stroke-dasharray:none;stroke-opacity:1"
           d="M 88.118406,249.43519 C 46.103287,235.29134 14.771284,201.68742 4.1335861,159.36053 1.3377997,148.23623 0.92261224,144.16281 0.92582381,127.88908 0.92787958,117.47222 1.134384,112.01362 1.6577819,108.54099 4.4653598,89.913336 12.17654,70.638106 23.042737,55.086148 c 3.958678,-5.665755 8.344812,-10.93092 9.101533,-10.925587 0.32809,0.0023 10.488643,18.309713 22.579009,40.683112 12.090365,22.373397 22.374546,41.334697 22.853732,42.136217 0.479186,0.80151 0.924733,2.44098 0.990103,3.64326 0.343424,6.31639 2.524175,14.20976 5.6424,20.42304 2.954444,5.88693 5.065381,8.73258 10.434696,14.06652 6.71418,6.66995 12.88853,10.28643 21.73204,12.72904 3.16587,0.87442 5.10478,1.05037 11.57517,1.05037 8.82596,0 12.60219,-0.76201 19.26429,-3.88733 2.04584,-0.95974 3.93661,-1.66536 4.20172,-1.56805 0.2651,0.0973 -11.0555,17.66459 -25.1569,39.0384 l -25.6389,38.86148 -3.094121,0.11221 c -2.554618,0.0927 -4.195204,-0.25845 -9.409103,-2.01364 z"
           id="path5006"
           inkscape:connector-curvature="0"
           transform="translate(0,796.36216)" />
        <path
           style="fill:#f4b400;fill-opacity:1;stroke:none;stroke-width:4.85768509;stroke-linejoin:round;stroke-miterlimit:4;stroke-dasharray:none;stroke-opacity:1"
           d="m 112.35984,1051.5167 c -10.0014,-1.4495 -12.15632,-1.8201 -12.531784,-2.1556 -0.248854,-0.2223 1.738304,-3.7475 4.550294,-8.0722 7.16635,-11.0213 49.77231,-74.64801 50.25856,-75.05489 3.57509,-2.99158 8.63523,-8.0414 10.57512,-10.55356 3.36154,-4.35318 7.55784,-12.9141 9.06523,-18.494 6.19314,-22.92535 -2.59253,-47.15185 -21.69967,-59.83688 l -2.96081,-1.96565 17.02469,0.29584 c 9.36358,0.1627 31.17032,0.43384 48.45941,0.60252 l 31.43471,0.30668 1.54584,4.18869 c 2.24597,6.08579 4.67816,15.0947 5.93451,21.9816 1.52517,8.36049 1.92536,28.85896 0.73851,37.82758 -3.0805,23.27845 -12.81326,45.72018 -27.80202,64.10577 -20.47622,25.1166 -51.4599,42.1974 -84.14612,46.3885 -5.31244,0.6812 -26.64601,0.9864 -30.44647,0.4356 z"
           id="path5008"
           inkscape:connector-curvature="0" />
        <path
           style="fill:#db4437;fill-opacity:1;stroke:none;stroke-width:10;stroke-linejoin:round;stroke-miterlimit:4;stroke-dasharray:none;stroke-opacity:1"
           d="M 67.989788,108.87302 C 41.284246,59.575543 33.290284,45.149038 32.233625,44.344765 31.651257,43.901497 32.811213,42.549931 38.695603,36.815353 53.43581,22.450419 68.809334,13.040746 87.839196,6.7360352 101.68742,2.1480329 112.58238,0.43719165 127.95142,0.43719165 c 21.3099,0 37.80488,3.80960275 56.83492,13.12633035 25.29351,12.383198 46.19421,33.578863 58.51993,59.345832 1.61138,3.368591 2.92978,6.372442 2.92978,6.675231 0,0.560033 -10.54865,0.49527 -71.16508,-0.436914 l -24.28843,-0.373518 -3.93063,-1.764495 c -6.75732,-3.033425 -10.64587,-3.839529 -18.6576,-3.867747 -5.0296,-0.01773 -7.97946,0.207636 -10.31642,0.788106 -14.50826,3.603659 -26.283291,12.94777 -33.291614,26.418653 -3.58502,6.89086 -5.24713,13.08166 -6.331628,23.58317 l -0.33738,3.26696 -9.92748,-18.32578 z"
           id="path5010"
           inkscape:connector-curvature="0"
           transform="translate(0,796.36216)" />
      </g>
    </clipPath>
    <clipPath
       clipPathUnits="userSpaceOnUse"
       id="clipPath4271">
      <circle
         style="fill:#292929;fill-opacity:0.26020412;stroke:none;stroke-width:10;stroke-linejoin:round;stroke-miterlimit:4;stroke-dasharray:none;stroke-opacity:0.25882353"
         id="circle4273"
         cx="128"
         cy="128.00002"
         r="128" />
    </clipPath>
    <clipPath
       id="clipPath4363"
       clipPathUnits="userSpaceOnUse">
      <circle
         style="fill:#4285f4;fill-opacity:1;stroke:none;stroke-width:10;stroke-linejoin:round;stroke-miterlimit:4;stroke-dasharray:none;stroke-opacity:0.25882353"
         id="circle4365"
         cx="128"
         cy="924.36218"
         r="128" />
    </clipPath>
    <clipPath
       clipPathUnits="userSpaceOnUse"
       id="clipPath4452">
      <circle
         style="fill:#4285f4;fill-opacity:1;stroke:none;stroke-width:10;stroke-linejoin:round;stroke-miterlimit:4;stroke-dasharray:none;stroke-opacity:0.25882353"
         id="circle4454"
         cx="128"
         cy="924.36218"
         r="128" />
    </clipPath>
    <clipPath
       id="clipPath5177"
       clipPathUnits="userSpaceOnUse">
      <circle
         style="fill:#4285f4;fill-opacity:1;stroke:none;stroke-width:10;stroke-linejoin:round;stroke-miterlimit:4;stroke-dasharray:none;stroke-opacity:0.25882353"
         id="circle5179"
         cx="128"
         cy="924.36218"
         r="128" />
    </clipPath>
    <clipPath
       clipPathUnits="userSpaceOnUse"
       id="clipPath4342">
      <circle
         style="fill:#4285f4;fill-opacity:1;stroke:none;stroke-width:10;stroke-linejoin:round;stroke-miterlimit:4;stroke-dasharray:none;stroke-opacity:0.25882353"
         id="circle4344"
         cx="128"
         cy="933.48718"
         r="128" />
    </clipPath>
    <clipPath
       id="clipPath4681"
       clipPathUnits="userSpaceOnUse">
      <circle
         style="fill:#9d5fad;fill-opacity:1;stroke:none;stroke-width:10;stroke-linejoin:round;stroke-miterlimit:4;stroke-dasharray:none;stroke-opacity:0.25882353"
         id="circle4683"
         cx="127.00293"
         cy="930.43964"
         r="128" />
    </clipPath>
    <clipPath
       clipPathUnits="userSpaceOnUse"
       id="clipPath4235">
      <circle
         style="fill:#0f9d58;fill-opacity:1;stroke:none;stroke-width:10;stroke-linejoin:round;stroke-miterlimit:4;stroke-dasharray:none;stroke-opacity:0.25882353"
         id="circle4237"
         cx="128"
         cy="924.36218"
         r="128" />
    </clipPath>
    <clipPath
       id="clipPath4771"
       clipPathUnits="userSpaceOnUse">
      <circle
         style="fill:#0f9d58;fill-opacity:1;stroke:none;stroke-width:10;stroke-linejoin:round;stroke-miterlimit:4;stroke-dasharray:none;stroke-opacity:0.25882353"
         id="circle4773"
         cx="128"
         cy="924.36218"
         r="128" />
    </clipPath>
    <clipPath
       clipPathUnits="userSpaceOnUse"
       id="clipPath4842">
      <circle
         style="fill:#0f9d58;fill-opacity:1;stroke:none;stroke-width:10;stroke-linejoin:round;stroke-miterlimit:4;stroke-dasharray:none;stroke-opacity:0.25882353"
         id="circle4844"
         cx="128"
         cy="924.36218"
         r="128" />
    </clipPath>
    <clipPath
       id="clipPath4458"
       clipPathUnits="userSpaceOnUse">
      <circle
         style="fill:#ff3b38;fill-opacity:1;stroke:none;stroke-width:10;stroke-linejoin:round;stroke-miterlimit:4;stroke-dasharray:none;stroke-opacity:0.25882353"
         id="circle4460"
         cx="128"
         cy="924.36218"
         r="128" />
    </clipPath>
    <clipPath
       clipPathUnits="userSpaceOnUse"
       id="clipPath4783">
      <circle
         style="fill:#ff3b38;fill-opacity:1;stroke:none;stroke-width:10;stroke-linejoin:round;stroke-miterlimit:4;stroke-dasharray:none;stroke-opacity:0.25882353"
         id="circle4785"
         cx="128"
         cy="924.36218"
         r="128" />
    </clipPath>
    <clipPath
       id="clipPath4789"
       clipPathUnits="userSpaceOnUse">
      <circle
         style="fill:#80b4ff;fill-opacity:1;stroke:none;stroke-width:10;stroke-linejoin:round;stroke-miterlimit:4;stroke-dasharray:none;stroke-opacity:0.25882353"
         id="circle4791"
         cx="102.64714"
         cy="924.36218"
         r="128" />
    </clipPath>
    <clipPath
       clipPathUnits="userSpaceOnUse"
       id="clipPath4745">
      <circle
         style="fill:#7cffea;fill-opacity:1;stroke:none;stroke-width:10;stroke-linejoin:round;stroke-miterlimit:4;stroke-dasharray:none;stroke-opacity:0.25882353"
         id="circle4747"
         cx="128"
         cy="128.00002"
         r="128" />
    </clipPath>
  </defs>
  <metadata
     id="metadata7">
    <rdf:RDF>
      <cc:Work
         rdf:about="">
        <dc:format>image/svg+xml</dc:format>
        <dc:type
           rdf:resource="http://purl.org/dc/dcmitype/StillImage" />
        <dc:title />
      </cc:Work>
    </rdf:RDF>
  </metadata>
  <g
     inkscape:label="Layer 1"
     inkscape:groupmode="layer"
     id="layer1"
     transform="translate(0,-796.36216)">
    <circle
       r="128"
       cy="924.36218"
       cx="128"
       id="path4152"
       style="fill:#7cffea;fill-opacity:1;stroke:none;stroke-width:10;stroke-linejoin:round;stroke-miterlimit:4;stroke-dasharray:none;stroke-opacity:0.25882353" />
    <text
       xml:space="preserve"
       style="font-style:normal;font-weight:normal;font-size:40px;line-height:125%;font-family:sans-serif;letter-spacing:0px;word-spacing:0px;fill:#000000;fill-opacity:1;stroke:none;stroke-width:1px;stroke-linecap:butt;stroke-linejoin:miter;stroke-opacity:1"
       x="120"
       y="927.36218"
       id="text4914"
       sodipodi:linespacing="125%"><tspan
         sodipodi:role="line"
         id="tspan4916"
         x="120"
         y="927.36218" /></text>
    <g
       id="g4241"
       transform="translate(-4.11162,138)"
       style="stroke:none">
      <g
         id="g4446"
         style="stroke:none">
        <g
           style="fill:none;fill-rule:evenodd;stroke:none;stroke-width:10;stroke-linecap:round;stroke-linejoin:miter;stroke-miterlimit:4;stroke-dasharray:none;stroke-opacity:1"
           id="g4448">
          <path
             inkscape:connector-curvature="0"
             d="m 129.98857,850.41168 c 0,15 0,15 0,15 L -82.143464,1077.5437 c 0,0 0,0 0,-15 z"
             id="path4450"
             style="stroke:none" />
        </g>
        <path
           style="fill:none;fill-rule:evenodd;stroke:none;stroke-width:10;stroke-linecap:round;stroke-linejoin:miter;stroke-miterlimit:4;stroke-dasharray:none;stroke-opacity:1"
           d="m 129.98857,850.41168 c 0,15 0,15 0,15"
           id="path4247"
           inkscape:connector-curvature="0" />
      </g>
      <g
         id="g4453"
         style="stroke:none">
        <g
           style="fill:none;fill-rule:evenodd;stroke:none;stroke-width:10;stroke-linecap:round;stroke-linejoin:miter;stroke-miterlimit:4;stroke-dasharray:none;stroke-opacity:1"
           id="g4455">
          <path
             inkscape:connector-curvature="0"
             d="m 111.58095,850.41168 c 0,15 0,15 0,15 l -212.13203,212.13202 c 0,0 0,0 0,-15 z"
             id="path4457"
             style="stroke:none" />
        </g>
        <path
           inkscape:connector-curvature="0"
           id="path4245"
           d="m 111.58095,850.41168 c 0,15 0,15 0,15"
           style="fill:none;fill-rule:evenodd;stroke:none;stroke-width:10;stroke-linecap:round;stroke-linejoin:miter;stroke-miterlimit:4;stroke-dasharray:none;stroke-opacity:1" />
      </g>
      <g
         id="g4460"
         style="stroke:none">
        <g
           style="fill:none;fill-rule:evenodd;stroke:none;stroke-width:10;stroke-linecap:round;stroke-linejoin:miter;stroke-miterlimit:4;stroke-dasharray:none;stroke-opacity:1"
           id="g4462">
          <path
             inkscape:connector-curvature="0"
             d="m 93.173333,850.41168 c 0,15 0,15 0,15 L -118.9587,1077.5437 c 0,0 0,0 0,-15 z"
             id="path4464"
             style="stroke:none" />
        </g>
        <path
           style="fill:none;fill-rule:evenodd;stroke:none;stroke-width:10;stroke-linecap:round;stroke-linejoin:miter;stroke-miterlimit:4;stroke-dasharray:none;stroke-opacity:1"
           d="m 93.173333,850.41168 c 0,15 0,15 0,15"
           id="path4243"
           inkscape:connector-curvature="0" />
      </g>
      <g
         id="g4467"
         style="stroke:none">
        <g
           style="fill:none;fill-rule:evenodd;stroke:none;stroke-width:10;stroke-linecap:round;stroke-linejoin:miter;stroke-miterlimit:4;stroke-dasharray:none;stroke-opacity:1"
           id="g4469">
          <path
             inkscape:connector-curvature="0"
             d="m 166.80381,850.41168 c 0,15 0,15 0,15 L -45.328224,1077.5437 c 0,0 0,0 0,-15 z"
             id="path4471"
             style="stroke:none" />
        </g>
        <path
           style="fill:none;fill-rule:evenodd;stroke:none;stroke-width:10;stroke-linecap:round;stroke-linejoin:miter;stroke-miterlimit:4;stroke-dasharray:none;stroke-opacity:1"
           d="m 166.80381,850.41168 c 0,15 0,15 0,15"
           id="path4251"
           inkscape:connector-curvature="0" />
      </g>
      <g
         id="g4474"
         style="stroke:none">
        <g
           style="fill:none;fill-rule:evenodd;stroke:none;stroke-width:10;stroke-linecap:round;stroke-linejoin:miter;stroke-miterlimit:4;stroke-dasharray:none;stroke-opacity:1"
           id="g4476">
          <path
             inkscape:connector-curvature="0"
             d="m 148.39619,850.41168 c 0,15 0,15 0,15 L -63.735844,1077.5437 c 0,0 0,0 0,-15 z"
             id="path4478"
             style="stroke:none" />
        </g>
        <path
           inkscape:connector-curvature="0"
           id="path4249"
           d="m 148.39619,850.41168 c 0,15 0,15 0,15"
           style="fill:none;fill-rule:evenodd;stroke:none;stroke-width:10;stroke-linecap:round;stroke-linejoin:miter;stroke-miterlimit:4;stroke-dasharray:none;stroke-opacity:1" />
      </g>
    </g>
    <path
       inkscape:connector-curvature="0"
       id="path4300"
       d="m 92.414251,841.90988 c -12.21575,19.83903 -12.61272,46.58702 -1.08221,72.91914 1.11504,2.54645 -0.24203,3.37512 -7.2477,4.42569 -19.035931,2.8546 -31.916502,19.01738 -31.99677,40.1501 -0.09531,25.09336 15.334915,40.26056 40.83467,40.1386 12.382699,-0.0593 25.501249,-6.013 31.211119,-14.16499 l 2.96079,-4.22711 7.2349,7.02933 c 9.01232,8.75624 15.13087,11.10884 28.89147,11.10884 13.41635,0 25.58359,-5.53096 32.70427,-14.86666 4.0321,-5.28634 5.33628,-9.45775 5.9448,-19.01438 0.42874,-6.73331 0.20387,-15.31095 -0.49973,-19.0614 -2.61477,-13.93794 -20.62064,-27.7797 -36.25543,-27.87086 l -7.25169,-0.0423 5.32656,-10.10695 c 4.83872,-9.18134 5.32653,-11.95815 5.32653,-30.32084 0,-18.28212 -0.51946,-21.27177 -5.43571,-31.28341 -7.85519,-15.99666 -9.22196,-15.42339 -25.13118,10.54091 -5.01208,8.17985 -9.86348,15.33636 -10.78088,15.90335 -0.91742,0.56699 -5.78541,-5.69246 -10.81776,-13.90989 -9.65738,-15.76969 -15.78619,-23.60388 -18.465689,-23.60388 -0.88983,0 -3.35148,2.8155 -5.47036,6.25668 z M 163.83668,859.312 c 3.73264,15.55944 1.52422,37.26599 -5.01356,49.27805 -6.15616,11.31088 -20.10422,24.88405 -30.77468,29.94752 -6.02824,2.86059 -6.60946,3.70715 -4.47075,6.51197 1.35206,1.77316 2.54785,3.42934 2.65735,3.68037 0.10954,0.25106 4.25811,-3.32349 9.21914,-7.94342 16.5753,-15.43564 42.08912,-14.47848 57.71213,2.16506 4.6023,4.90297 5.42298,7.43388 5.56075,17.14897 0.26178,18.46239 -8.21133,30.09104 -25.1217,34.47753 -15.62026,4.05185 -29.93739,-0.60944 -41.11155,-13.38483 l -5.21991,-5.9679 -5.06833,6.31005 c -16.14859,20.10483 -50.457029,18.24999 -61.876935,-3.34538 -5.890342,-11.13882 -5.930847,-24.24712 -0.101531,-32.85742 10.010097,-14.78557 32.708747,-19.65635 50.240236,-10.7808 4.96163,2.5119 8.14551,3.51202 7.07531,2.22251 -1.0702,-1.28951 -5.41606,-3.90942 -9.65743,-5.82202 -4.24138,-1.91259 -7.7116,-4.57206 -7.7116,-5.90993 0,-1.33787 6.75365,-12.68491 15.00812,-25.21564 8.25449,-12.53073 19.23749,-29.71362 24.40668,-38.1842 5.16919,-8.47059 10.69071,-16.93099 12.27003,-18.80091 2.7056,-3.20344 3.06912,-3.09858 6.29252,1.81523 1.88159,2.86829 4.44015,9.46314 5.68571,14.65519 z m -83.964469,94.64937 c -5.71305,5.71304 -5.83414,7.87096 -0.89616,15.96984 4.24492,6.96218 6.12093,7.61734 9.64677,3.36898 1.31812,-1.58823 4.10604,-2.8877 6.19537,-2.8877 4.13605,0 14.981089,-5.76808 14.981089,-7.96789 0,-0.7493 -2.24278,-4.02776 -4.98398,-7.28546 -6.558149,-7.79395 -17.806759,-8.33411 -24.943089,-1.19777 z m 21.359809,2.38348 c 3.06132,3.06133 2.99847,3.46917 -1.03834,6.73797 -4.901739,3.9692 -7.378709,4.24603 -14.333229,1.60192 -8.98107,-3.41459 -4.81974,-11.59844 5.89758,-11.59844 3.41848,0 7.68178,1.46635 9.473989,3.25855 z m 49.77346,-2.62592 c -4.18726,3.60175 -4.95556,5.50342 -3.90866,9.67464 1.94377,7.74454 7.9729,12.79432 15.27566,12.79432 7.02323,0 10.65132,-2.32042 15.22457,-9.73724 8.0202,-13.00699 -14.00937,-23.55447 -26.59157,-12.73172 z m 21.47395,2.25636 c 3.6672,2.83506 3.65213,2.96079 -0.80788,6.73796 -2.49965,2.11693 -5.70756,3.84898 -7.12867,3.84898 -4.33228,0 -12.39068,-4.33267 -12.39068,-6.66195 0,-6.70059 13.39209,-9.28649 20.32723,-3.92499 z m -61.14224,-97.07467 c 5.61057,8.91979 10.66659,17.25394 11.23562,18.52033 1.09122,2.42852 -21.70867,39.08782 -24.310249,39.08782 -0.83336,0 -3.54981,-4.11497 -6.03655,-9.14438 -6.40547,-12.95499 -6.49218,-43.13399 -0.16363,-56.95174 2.45599,-5.3624 5.281,-8.97108 6.66768,-8.51727 1.323349,0.4331 6.996559,8.08546 12.607109,17.00524 z"
       style="fill:#ffffff;fill-opacity:1" />
    <path
       style="opacity:1;fill:#338066;fill-opacity:1;stroke:#ffffff;stroke-width:0.30439952;stroke-opacity:1"
       d="m 157.43543,199.10819 c -9.79967,-1.6287 -17.55228,-6.20396 -25.31194,-14.93803 -1.48105,-1.66703 -3.18453,-3.57175 -3.78552,-4.23272 l -1.09272,-1.20175 -3.20509,3.92831 c -7.28893,8.93368 -12.91718,12.72591 -22.61424,15.23716 -3.161163,0.81865 -3.697323,0.86655 -9.588583,0.85681 -5.365039,-0.009 -6.633344,-0.10464 -9.043535,-0.68286 -13.186107,-3.16345 -22.083153,-11.6953 -25.498758,-24.45211 -2.030165,-7.58238 -1.550728,-15.29738 1.333678,-21.46121 1.201539,-2.56763 2.433063,-4.31574 4.862883,-6.9027 7.544339,-8.03225 19.622889,-12.28623 31.723991,-11.17295 5.981374,0.55028 9.529524,1.6221 17.473104,5.27825 3.61106,1.66204 9.89299,8.42247 9.89299,7.70196 0,-0.76534 -8.61654,-9.59539 -13.72868,-12.15659 -4.99961,-2.50482 -8.06259,-4.63415 -8.35775,-5.81017 -0.39878,-1.58887 3.78587,-8.63487 19.0958,-32.152938 7.26601,-11.161557 14.61998,-22.716876 20.34103,-31.96195 5.6184,-9.079179 10.77177,-16.900058 12.3856,-18.796671 0.92485,-1.086901 1.58815,-1.598097 2.0736,-1.598097 1.75022,0 5.20281,5.789763 7.56489,12.685826 2.67438,7.807807 3.40074,12.786198 3.3676,23.081118 -0.0201,6.232346 -0.14602,8.401062 -0.69572,11.97982 -1.65804,10.794282 -4.44416,18.308722 -9.32742,25.156922 -7.43839,10.43146 -17.97719,19.85834 -27.59074,24.67972 -4.16729,2.08997 -5.55338,3.2539 -5.31204,4.46061 0.1956,0.97798 3.50139,5.71342 3.98852,5.71342 0.30458,0 4.02355,-3.15072 9.48665,-8.0371 5.99012,-5.35778 12.67938,-8.68217 20.34481,-10.11085 3.67438,-0.68483 10.37518,-0.681 13.96402,0.008 9.40884,1.80627 17.87576,6.62475 23.82879,13.56084 3.69504,4.30521 4.41966,6.87822 4.46144,15.84191 0.0457,9.80312 -1.52182,15.95945 -5.58044,21.91677 -4.50354,6.61038 -12.08693,11.15655 -21.87925,13.11638 -3.84283,0.76911 -10.39637,0.99351 -13.57697,0.46489 l 0,0 z m 10.65116,-19.99493 c 1.07689,-0.33262 2.71694,-1.17829 3.72672,-1.92165 2.0826,-1.53312 5.03863,-5.29371 6.50917,-8.2808 2.5719,-5.22428 0.3106,-10.76222 -5.66707,-13.87869 -3.00154,-1.56486 -5.51252,-2.16413 -9.13199,-2.17945 -5.09693,-0.0215 -8.96642,1.38271 -12.86524,4.66892 -2.76051,2.32676 -4.02202,4.38139 -4.02607,6.5573 -0.01,5.36688 4.11531,11.94805 8.9349,14.25402 3.74778,1.79316 8.31818,2.07803 12.51958,0.78035 z m -81.547662,0.004 c 0.557502,-0.34455 1.43483,-1.15826 1.949618,-1.80823 1.106672,-1.39728 4.197429,-3.04449 5.712568,-3.04449 1.767253,0 4.639865,-0.88405 7.890376,-2.42827 4.91129,-2.3332 7.70542,-4.40885 7.70542,-5.72405 0,-1.67083 -5.51301,-8.60669 -8.41964,-10.59264 -5.379422,-3.67549 -11.530171,-4.01757 -17.590607,-0.9783 -2.242282,1.12449 -6.73052,5.52627 -7.715911,7.56729 -0.848165,1.75678 -0.872832,4.00825 -0.06714,6.12864 0.977333,2.57213 4.285126,7.85159 6.107879,9.74859 1.903331,1.98086 2.716754,2.18873 4.427442,1.13147 z"
       id="path4831"
       inkscape:connector-curvature="0"
       transform="translate(0,796.36216)"
       sodipodi:nodetypes="csscsscssssssssssssssssssssssssssscccsssscsssscssssssssscc" />
    <path
       style="opacity:1;fill:#ffffff;fill-opacity:1;stroke:#ffffff;stroke-width:0;stroke-miterlimit:4;stroke-dasharray:none;stroke-opacity:1"
       d="m 96.610001,118.17852 c -4.249934,-6.00667 -6.486787,-11.59149 -7.779589,-19.423558 -2.495844,-15.12034 -1.202346,-33.884375 3.020415,-43.815444 1.797455,-4.227247 4.511609,-8.295552 6.10229,-9.146859 0.756425,-0.404826 1.855988,0.596619 4.610723,4.199297 3.84763,5.031965 13.30137,19.69237 18.6183,28.872342 l 1.42747,2.464613 -0.64271,1.64478 c -3.15315,8.069297 -21.73851,37.107329 -23.750002,37.107329 -0.143446,0 -0.866549,-0.85613 -1.606897,-1.9025 z"
       id="path4843"
       inkscape:connector-curvature="0"
       transform="translate(0,796.36216)" />
    <path
       style="opacity:1;fill:#ffffff;fill-opacity:1;stroke:#ffffff;stroke-width:0;stroke-miterlimit:4;stroke-dasharray:none;stroke-opacity:1"
       d="m 120.90534,144.48648 c -3.35637,-3.85836 -9.36612,-8.48145 -15.10459,-11.61944 -1.37648,-0.7527 -3.09844,-1.91703 -3.82658,-2.58739 -1.27382,-1.17276 -1.31215,-1.25985 -1.01367,-2.30307 0.6548,-2.28861 5.53734,-10.27502 18.87727,-30.877728 8.08174,-12.481741 13.0713,-20.315737 19.4845,-30.592152 9.51498,-15.246654 13.95465,-21.612367 15.07322,-21.612367 1.5315,0 5.56807,7.238839 7.73252,13.866838 2.19598,6.724549 2.53273,9.151568 2.69111,19.395492 0.15145,9.795918 -0.0387,12.473967 -1.33428,18.789989 -2.51977,12.284228 -7.09137,20.394788 -17.39864,30.867258 -6.09988,6.19764 -11.55125,10.33857 -18.63412,14.15473 -1.92533,1.03734 -3.92245,2.33116 -4.43805,2.87516 l -0.93745,0.98909 -1.17124,-1.34641 z"
       id="path4845"
       inkscape:connector-curvature="0"
       transform="translate(0,796.36216)" />
  </g>
</svg>
