<?xml version="1.0" encoding="UTF-8" standalone="no"?>
<!-- Created with Inkscape (http://www.inkscape.org/) -->

<svg
   xmlns:dc="http://purl.org/dc/elements/1.1/"
   xmlns:cc="http://creativecommons.org/ns#"
   xmlns:rdf="http://www.w3.org/1999/02/22-rdf-syntax-ns#"
   xmlns:svg="http://www.w3.org/2000/svg"
   xmlns="http://www.w3.org/2000/svg"
   xmlns:xlink="http://www.w3.org/1999/xlink"
   xmlns:sodipodi="http://sodipodi.sourceforge.net/DTD/sodipodi-0.dtd"
   xmlns:inkscape="http://www.inkscape.org/namespaces/inkscape"
   width="256"
   height="256"
   viewBox="0 0 256 256"
   id="svg2"
   version="1.1"
   inkscape:version="0.91 r13725"
   sodipodi:docname="ekiga.svg">
  <sodipodi:namedview
     id="base"
     pagecolor="#ffffff"
     bordercolor="#666666"
     borderopacity="1.0"
     inkscape:pageopacity="0.0"
     inkscape:pageshadow="2"
     inkscape:zoom="2.0507812"
     inkscape:cx="32.426664"
     inkscape:cy="128"
     inkscape:document-units="px"
     inkscape:current-layer="layer1"
     showgrid="true"
     units="px"
     inkscape:window-width="1600"
     inkscape:window-height="836"
     inkscape:window-x="0"
     inkscape:window-y="27"
     inkscape:window-maximized="1">
    <inkscape:grid
       type="xygrid"
       id="grid4168"
       spacingx="5"
       spacingy="5" />
  </sodipodi:namedview>
  <defs
     id="defs4">
    <linearGradient
       id="linearGradient5464">
      <stop
         style="stop-color:#c03b00;stop-opacity:1;"
         offset="0"
         id="stop5466" />
      <stop
         style="stop-color:#e74700;stop-opacity:1;"
         offset="1"
         id="stop5468" />
    </linearGradient>
    <linearGradient
       id="linearGradient5458">
      <stop
         style="stop-color:#c03b00;stop-opacity:1;"
         offset="0"
         id="stop5460" />
      <stop
         style="stop-color:#e74700;stop-opacity:1;"
         offset="1"
         id="stop5462" />
    </linearGradient>
    <linearGradient
       id="linearGradient5452">
      <stop
         style="stop-color:#c03b00;stop-opacity:1;"
         offset="0"
         id="stop5454" />
      <stop
         style="stop-color:#e74700;stop-opacity:1;"
         offset="1"
         id="stop5456" />
    </linearGradient>
    <linearGradient
       id="linearGradient5233">
      <stop
         style="stop-color:#c03b00;stop-opacity:1;"
         offset="0"
         id="stop5235" />
      <stop
         style="stop-color:#e74700;stop-opacity:1;"
         offset="1"
         id="stop5237" />
    </linearGradient>
    <linearGradient
       id="linearGradient5227">
      <stop
         style="stop-color:#c03b00;stop-opacity:1;"
         offset="0"
         id="stop5229" />
      <stop
         style="stop-color:#e74700;stop-opacity:1;"
         offset="1"
         id="stop5231" />
    </linearGradient>
    <linearGradient
       id="linearGradient5221">
      <stop
         style="stop-color:#c03b00;stop-opacity:1;"
         offset="0"
         id="stop5223" />
      <stop
         style="stop-color:#e74700;stop-opacity:1;"
         offset="1"
         id="stop5225" />
    </linearGradient>
    <clipPath
       clipPathUnits="userSpaceOnUse"
       id="clipPath5002">
      <g
         id="g5004">
        <path
           transform="translate(0,796.36216)"
           inkscape:connector-curvature="0"
           id="path5006"
           d="M 88.118406,249.43519 C 46.103287,235.29134 14.771284,201.68742 4.1335861,159.36053 1.3377997,148.23623 0.92261224,144.16281 0.92582381,127.88908 0.92787958,117.47222 1.134384,112.01362 1.6577819,108.54099 4.4653598,89.913336 12.17654,70.638106 23.042737,55.086148 c 3.958678,-5.665755 8.344812,-10.93092 9.101533,-10.925587 0.32809,0.0023 10.488643,18.309713 22.579009,40.683112 12.090365,22.373397 22.374546,41.334697 22.853732,42.136217 0.479186,0.80151 0.924733,2.44098 0.990103,3.64326 0.343424,6.31639 2.524175,14.20976 5.6424,20.42304 2.954444,5.88693 5.065381,8.73258 10.434696,14.06652 6.71418,6.66995 12.88853,10.28643 21.73204,12.72904 3.16587,0.87442 5.10478,1.05037 11.57517,1.05037 8.82596,0 12.60219,-0.76201 19.26429,-3.88733 2.04584,-0.95974 3.93661,-1.66536 4.20172,-1.56805 0.2651,0.0973 -11.0555,17.66459 -25.1569,39.0384 l -25.6389,38.86148 -3.094121,0.11221 c -2.554618,0.0927 -4.195204,-0.25845 -9.409103,-2.01364 z"
           style="fill:#0f9d58;fill-opacity:1;stroke:none;stroke-width:4.85768509;stroke-linejoin:round;stroke-miterlimit:4;stroke-dasharray:none;stroke-opacity:1" />
        <path
           inkscape:connector-curvature="0"
           id="path5008"
           d="m 112.35984,1051.5167 c -10.0014,-1.4495 -12.15632,-1.8201 -12.531784,-2.1556 -0.248854,-0.2223 1.738304,-3.7475 4.550294,-8.0722 7.16635,-11.0213 49.77231,-74.64801 50.25856,-75.05489 3.57509,-2.99158 8.63523,-8.0414 10.57512,-10.55356 3.36154,-4.35318 7.55784,-12.9141 9.06523,-18.494 6.19314,-22.92535 -2.59253,-47.15185 -21.69967,-59.83688 l -2.96081,-1.96565 17.02469,0.29584 c 9.36358,0.1627 31.17032,0.43384 48.45941,0.60252 l 31.43471,0.30668 1.54584,4.18869 c 2.24597,6.08579 4.67816,15.0947 5.93451,21.9816 1.52517,8.36049 1.92536,28.85896 0.73851,37.82758 -3.0805,23.27845 -12.81326,45.72018 -27.80202,64.10577 -20.47622,25.1166 -51.4599,42.1974 -84.14612,46.3885 -5.31244,0.6812 -26.64601,0.9864 -30.44647,0.4356 z"
           style="fill:#f4b400;fill-opacity:1;stroke:none;stroke-width:4.85768509;stroke-linejoin:round;stroke-miterlimit:4;stroke-dasharray:none;stroke-opacity:1" />
        <path
           transform="translate(0,796.36216)"
           inkscape:connector-curvature="0"
           id="path5010"
           d="M 67.989788,108.87302 C 41.284246,59.575543 33.290284,45.149038 32.233625,44.344765 31.651257,43.901497 32.811213,42.549931 38.695603,36.815353 53.43581,22.450419 68.809334,13.040746 87.839196,6.7360352 101.68742,2.1480329 112.58238,0.43719165 127.95142,0.43719165 c 21.3099,0 37.80488,3.80960275 56.83492,13.12633035 25.29351,12.383198 46.19421,33.578863 58.51993,59.345832 1.61138,3.368591 2.92978,6.372442 2.92978,6.675231 0,0.560033 -10.54865,0.49527 -71.16508,-0.436914 l -24.28843,-0.373518 -3.93063,-1.764495 c -6.75732,-3.033425 -10.64587,-3.839529 -18.6576,-3.867747 -5.0296,-0.01773 -7.97946,0.207636 -10.31642,0.788106 -14.50826,3.603659 -26.283291,12.94777 -33.291614,26.418653 -3.58502,6.89086 -5.24713,13.08166 -6.331628,23.58317 l -0.33738,3.26696 -9.92748,-18.32578 z"
           style="fill:#db4437;fill-opacity:1;stroke:none;stroke-width:10;stroke-linejoin:round;stroke-miterlimit:4;stroke-dasharray:none;stroke-opacity:1" />
      </g>
    </clipPath>
    <clipPath
       id="clipPath4271"
       clipPathUnits="userSpaceOnUse">
      <circle
         r="128"
         cy="128.00002"
         cx="128"
         id="circle4273"
         style="fill:#292929;fill-opacity:0.26020412;stroke:none;stroke-width:10;stroke-linejoin:round;stroke-miterlimit:4;stroke-dasharray:none;stroke-opacity:0.25882353" />
    </clipPath>
    <clipPath
       clipPathUnits="userSpaceOnUse"
       id="clipPath4363">
      <circle
         r="128"
         cy="924.36218"
         cx="128"
         id="circle4365"
         style="fill:#4285f4;fill-opacity:1;stroke:none;stroke-width:10;stroke-linejoin:round;stroke-miterlimit:4;stroke-dasharray:none;stroke-opacity:0.25882353" />
    </clipPath>
    <clipPath
       id="clipPath4452"
       clipPathUnits="userSpaceOnUse">
      <circle
         r="128"
         cy="924.36218"
         cx="128"
         id="circle4454"
         style="fill:#4285f4;fill-opacity:1;stroke:none;stroke-width:10;stroke-linejoin:round;stroke-miterlimit:4;stroke-dasharray:none;stroke-opacity:0.25882353" />
    </clipPath>
    <clipPath
       clipPathUnits="userSpaceOnUse"
       id="clipPath5177">
      <circle
         r="128"
         cy="924.36218"
         cx="128"
         id="circle5179"
         style="fill:#4285f4;fill-opacity:1;stroke:none;stroke-width:10;stroke-linejoin:round;stroke-miterlimit:4;stroke-dasharray:none;stroke-opacity:0.25882353" />
    </clipPath>
    <clipPath
       id="clipPath4342"
       clipPathUnits="userSpaceOnUse">
      <circle
         r="128"
         cy="933.48718"
         cx="128"
         id="circle4344"
         style="fill:#4285f4;fill-opacity:1;stroke:none;stroke-width:10;stroke-linejoin:round;stroke-miterlimit:4;stroke-dasharray:none;stroke-opacity:0.25882353" />
    </clipPath>
    <clipPath
       clipPathUnits="userSpaceOnUse"
       id="clipPath4373">
      <circle
         r="128"
         cy="924.36218"
         cx="128"
         id="circle4375"
         style="fill:#4285f4;fill-opacity:1;stroke:none;stroke-width:10;stroke-linejoin:round;stroke-miterlimit:4;stroke-dasharray:none;stroke-opacity:0.25882353" />
    </clipPath>
    <clipPath
       id="clipPath4484"
       clipPathUnits="userSpaceOnUse">
      <circle
         r="128"
         cy="933.47552"
         cx="128"
         id="circle4486"
         style="fill:#4285f4;fill-opacity:1;stroke:none;stroke-width:10;stroke-linejoin:round;stroke-miterlimit:4;stroke-dasharray:none;stroke-opacity:0.25882353" />
    </clipPath>
    <clipPath
       clipPathUnits="userSpaceOnUse"
       id="clipPath4344">
      <circle
         r="128"
         cy="128.00002"
         cx="128"
         id="circle4346"
         style="fill:#4285f4;fill-opacity:1;stroke:none;stroke-width:10;stroke-linejoin:round;stroke-miterlimit:4;stroke-dasharray:none;stroke-opacity:0.25882353" />
    </clipPath>
    <clipPath
       id="clipPath4561"
       clipPathUnits="userSpaceOnUse">
      <circle
         r="87.855125"
         cy="971.61078"
         cx="129.54271"
         id="circle4563"
         style="fill:#4285f4;fill-opacity:1;stroke:none;stroke-width:10;stroke-linejoin:round;stroke-miterlimit:4;stroke-dasharray:none;stroke-opacity:0.25882353" />
    </clipPath>
    <linearGradient
       gradientUnits="userSpaceOnUse"
       y2="2.4294622"
       x2="6.4635968"
       y1="13.196473"
       x1="6.4635968"
       id="linearGradient4188"
       xlink:href="#linearGradient4182"
       inkscape:collect="always" />
    <linearGradient
       id="linearGradient4182">
      <stop
         id="stop4184"
         offset="0"
         style="stop-color:#c03b00;stop-opacity:1;" />
      <stop
         id="stop4186"
         offset="1"
         style="stop-color:#e74700;stop-opacity:1;" />
    </linearGradient>
    <linearGradient
       y2="10.118958"
       x2="18.965513"
       y1="10.118958"
       x1="3.0193484"
       gradientTransform="matrix(9.0814218,0,0,9.6689593,14.885479,822.07367)"
       gradientUnits="userSpaceOnUse"
       id="linearGradient7030"
       xlink:href="#linearGradient4175"
       inkscape:collect="always" />
    <linearGradient
       id="linearGradient4175">
      <stop
         id="stop4177"
         offset="0"
         style="stop-color:#fff6b8;stop-opacity:1;" />
      <stop
         id="stop4179"
         offset="1"
         style="stop-color:#ffef81;stop-opacity:1;" />
    </linearGradient>
    <filter
       height="1.1487828"
       y="-0.074391392"
       width="1.1488172"
       x="-0.07440861"
       id="filter5166"
       style="color-interpolation-filters:sRGB"
       inkscape:collect="always">
      <feGaussianBlur
         id="feGaussianBlur5168"
         stdDeviation="0.41324781"
         inkscape:collect="always" />
    </filter>
    <clipPath
       clipPathUnits="userSpaceOnUse"
       id="clipPath5440">
      <ellipse
         cy="7.7741981"
         cx="6.8423514"
         id="circle5442"
         style="fill:#4285f4;fill-opacity:1;stroke:none;stroke-width:10;stroke-linejoin:round;stroke-miterlimit:4;stroke-dasharray:none;stroke-opacity:0.25882353"
         rx="7.9278398"
         ry="7.9278369" />
    </clipPath>
  </defs>
  <metadata
     id="metadata7">
    <rdf:RDF>
      <cc:Work
         rdf:about="">
        <dc:format>image/svg+xml</dc:format>
        <dc:type
           rdf:resource="http://purl.org/dc/dcmitype/StillImage" />
        <dc:title />
      </cc:Work>
    </rdf:RDF>
  </metadata>
  <g
     transform="translate(0,-796.36216)"
     id="layer1"
     inkscape:groupmode="layer"
     inkscape:label="Layer 1">
    <circle
       style="fill:#faa214;fill-opacity:1;stroke:none;stroke-width:10;stroke-linejoin:round;stroke-miterlimit:4;stroke-dasharray:none;stroke-opacity:0.25882353"
       id="path4152"
       cx="128"
       cy="924.36218"
       r="128" />
    <text
       sodipodi:linespacing="125%"
       id="text4914"
       y="927.36218"
       x="120"
       style="font-style:normal;font-weight:normal;font-size:40px;line-height:125%;font-family:sans-serif;letter-spacing:0px;word-spacing:0px;fill:#000000;fill-opacity:1;stroke:none;stroke-width:1px;stroke-linecap:butt;stroke-linejoin:miter;stroke-opacity:1"
       xml:space="preserve"><tspan
         y="927.36218"
         x="120"
         id="tspan4916"
         sodipodi:role="line" /></text>
    <g
       transform="translate(0.784762,-2.8005661e-6)"
       id="g5210">
      <g
         id="g9460"
         transform="matrix(16.145634,0,0,16.14564,17.525897,798.84278)"
         style="fill:url(#linearGradient4188);fill-opacity:1">
        <path
           inkscape:connector-curvature="0"
           sodipodi:nodetypes="ccczccz"
           id="path7707"
           d="m 9.4516821,8.5573773 c -1.361048,5.5950807 -3.65625,4.4687497 -3.65625,4.4687497 -0.375464,-0.308536 -0.238119,-2.20461 0.125,-2.6875 0.482858,0.02124 0.88728,0.277255 1.65625,-2.0937497 0.759806,-2.3427472 0.216036,-2.6670399 -0.3125,-2.9375 -0.030879,-0.9892126 0.708848,-2.114069 1.25,-2.375 0,0 2.2913699,0.059428 0.9375,5.625 z"
           style="fill:#c03b00;fill-opacity:1;fill-rule:evenodd;stroke:none;stroke-width:1px;stroke-linecap:butt;stroke-linejoin:miter;stroke-opacity:1" />
        <path
           inkscape:connector-curvature="0"
           sodipodi:nodetypes="cczc"
           id="path8582"
           d="m 7.6134826,2.5599675 c -0.5878379,0.6629012 -0.9639905,1.5265221 -1.21875,2.4375 0,0 -1.0251698,-0.7267779 -0.4825248,-1.8426399 0.554688,-1.140625 1.7012748,-0.5948601 1.7012748,-0.5948601 z"
           style="fill:#c03b00;fill-opacity:1;fill-rule:evenodd;stroke:none;stroke-width:1px;stroke-linecap:butt;stroke-linejoin:miter;stroke-opacity:1" />
        <path
           inkscape:connector-curvature="0"
           style="fill:#c03b00;fill-opacity:1;fill-rule:evenodd;stroke:none;stroke-width:1px;stroke-linecap:butt;stroke-linejoin:miter;stroke-opacity:1"
           d="m 5.1155026,10.157887 c -0.421843,0.790913 -0.477403,1.697615 -0.166681,2.720106 0,0 -1.080454,0.09726 -1.1417338,-1.450788 -0.061244,-1.5471355 1.3084148,-1.269318 1.3084148,-1.269318 z"
           id="path9458"
           sodipodi:nodetypes="cczc" />
      </g>
      <g
         id="g5188"
         transform="translate(11.215237,-1.3879128)">
        <path
           style="fill:none;fill-opacity:1;fill-rule:evenodd;stroke:url(#linearGradient7030);stroke-width:4.95148182;stroke-linecap:round;stroke-linejoin:round;stroke-miterlimit:4;stroke-dasharray:none;stroke-opacity:1"
           d="m 45.483919,937.64679 c 1.950347,-8.39013 1.852046,-36.40001 7.80136,-33.56053 5.949311,2.83943 10.374367,41.23566 15.995879,44.91827 5.621512,3.68261 2.834518,-21.38117 6.490175,-30.18777 3.655632,-8.80661 3.501081,1.67354 8.132372,-5.03862 4.631281,-6.71218 5.271353,-30.10955 10.392744,-21.81008 5.121359,8.29947 4.525226,44.6344 10.092771,55.00795 5.56754,10.37359 6.42881,-13.12419 12.1774,-13.51372 5.7486,-0.38968 7.49458,14.79501 10.81692,11.95559 3.32235,-2.83948 0.33561,-11.27372 2.47246,-23.31334 2.13688,-12.03962 0.25832,-30.56869 6.07507,-24.84508 5.81673,5.72356 10.36621,40.48195 17.19193,47.73933 6.82574,7.25743 2.40654,-16.72238 10.11096,-18.70981 7.70442,-1.98747 15.53002,8.06998 20.70672,10.76001"
           id="path7020"
           sodipodi:nodetypes="czzzzzzzzzzzzz"
           inkscape:connector-curvature="0" />
        <path
           style="fill:#ffea53;fill-opacity:1;fill-rule:evenodd;stroke:none;stroke-width:1px;stroke-linecap:butt;stroke-linejoin:miter;stroke-opacity:1"
           d="m 185.58178,930.57547 -7.3074,-32.16445 5.54925,32.75868 -8.69078,-23.33185 6.91139,24.19549 -23.1143,-16.21733 21.00514,18.14741 -31.50536,2.78334 30.43361,-0.79225 -18.43537,7.05195 18.91316,-4.74664 -19.46873,11.18921 20.31875,-8.19737 2.80618,1.8168 -5.90677,22.63518 9.04833,-22.98367 6.90078,21.99303 -4.08401,-21.68168 12.02129,12.07378 -9.78536,-14.90182 19.22242,4.19727 -18.43047,-7.10725 16.44969,-12.17296 -16.64515,10.459 L 213,907.06383 l -22.41299,26.03884 8.42156,-16.78071 -10.76053,14.87151 0.70761,-15.18574 -3.37387,14.56774 z"
           id="path7022"
           sodipodi:nodetypes="cccccccccccccccccccccccccccccc"
           inkscape:connector-curvature="0" />
        <path
           style="opacity:1;fill:none;fill-opacity:1;fill-rule:nonzero;stroke:none;stroke-width:0.69999999;stroke-linecap:butt;stroke-linejoin:round;stroke-miterlimit:4;stroke-dasharray:none;stroke-dashoffset:0;stroke-opacity:1"
           d="m 203.72413,937.09283 a 18.310921,18.315157 0 0 1 -18.29631,18.31516 18.310921,18.315157 0 0 1 -18.32551,-18.28593 18.310921,18.315157 0 0 1 18.26708,-18.34433 18.310921,18.315157 0 0 1 18.35465,18.25666"
           id="path8325" />
        <path
           transform="matrix(1.0897435,0,0,1.0897435,-24.786928,-82.955495)"
           style="opacity:1;fill:#fcf5c7;fill-opacity:1;fill-rule:nonzero;stroke:none;stroke-width:0.69999999;stroke-linecap:butt;stroke-linejoin:round;stroke-miterlimit:4;stroke-dasharray:none;stroke-dashoffset:0;stroke-opacity:1;filter:url(#filter5166)"
           d="m 199.55403,936.04443 a 6.664516,6.6660585 0 0 1 -6.6592,6.66606 6.664516,6.6660585 0 0 1 -6.66983,-6.65542 6.664516,6.6660585 0 0 1 6.64856,-6.67668 6.664516,6.6660585 0 0 1 6.68043,6.64477"
           id="path7024" />
      </g>
    </g>
  </g>
</svg>
