<?xml version="1.0" encoding="UTF-8" standalone="no"?>
<!-- Created with Inkscape (http://www.inkscape.org/) -->

<svg
   xmlns:dc="http://purl.org/dc/elements/1.1/"
   xmlns:cc="http://creativecommons.org/ns#"
   xmlns:rdf="http://www.w3.org/1999/02/22-rdf-syntax-ns#"
   xmlns:svg="http://www.w3.org/2000/svg"
   xmlns="http://www.w3.org/2000/svg"
   xmlns:sodipodi="http://sodipodi.sourceforge.net/DTD/sodipodi-0.dtd"
   xmlns:inkscape="http://www.inkscape.org/namespaces/inkscape"
   width="256"
   height="256"
   viewBox="0 0 256 256"
   id="svg4149"
   version="1.1"
   inkscape:version="0.91 r13725"
   sodipodi:docname="javaws.svg">
  <sodipodi:namedview
     id="base"
     pagecolor="#ffffff"
     bordercolor="#666666"
     borderopacity="1.0"
     inkscape:pageopacity="0.0"
     inkscape:pageshadow="2"
     inkscape:zoom="3.34375"
     inkscape:cx="69.383178"
     inkscape:cy="128"
     inkscape:document-units="px"
     inkscape:current-layer="layer1"
     showgrid="false"
     units="px"
     inkscape:window-width="1600"
     inkscape:window-height="836"
     inkscape:window-x="0"
     inkscape:window-y="27"
     inkscape:window-maximized="1" />
  <defs
     id="defs4151">
    <clipPath
       id="clipPath4863"
       clipPathUnits="userSpaceOnUse">
      <circle
         r="77.263145"
         cy="924.36218"
         cx="128"
         id="circle4865"
         style="fill:#e9e9e9;fill-opacity:1;stroke:none;stroke-width:20;stroke-miterlimit:4;stroke-dasharray:none;stroke-opacity:1" />
    </clipPath>
    <clipPath
       clipPathUnits="userSpaceOnUse"
       id="clipPath4227">
      <circle
         r="77.263145"
         cy="924.36218"
         cx="128"
         id="circle4229"
         style="fill:#e9e9e9;fill-opacity:1;stroke:none;stroke-width:20;stroke-miterlimit:4;stroke-dasharray:none;stroke-opacity:1" />
    </clipPath>
    <clipPath
       id="clipPath5543"
       clipPathUnits="userSpaceOnUse">
      <circle
         r="128"
         cy="924.36218"
         cx="128"
         id="circle5545"
         style="fill:#9e9fe9;fill-opacity:1;stroke:none;stroke-width:20;stroke-miterlimit:4;stroke-dasharray:none;stroke-opacity:1" />
    </clipPath>
    <clipPath
       id="clipPath5522"
       clipPathUnits="userSpaceOnUse">
      <path
         inkscape:connector-curvature="0"
         id="path5524"
         d="m 153.38672,796.84847 -105.781251,0 c -7.804357,0 -14.087891,6.28158 -14.087891,14.08594 l 0,227.33989 c 0,7.8043 6.283534,14.0878 14.087891,14.0878 l 165.162111,0 c 7.80436,0 14.08594,-6.2835 14.08594,-14.0878 l 0,-154.82232 -73.4668,-86.60351 z"
         style="fill:#db4437;fill-opacity:1" />
    </clipPath>
    <clipPath
       id="clipPath7273"
       clipPathUnits="userSpaceOnUse">
      <circle
         r="87.222778"
         cy="965.23419"
         cx="125.3036"
         id="circle7275"
         style="fill:#9e9fe9;fill-opacity:1;stroke:none;stroke-width:20;stroke-miterlimit:4;stroke-dasharray:none;stroke-opacity:1" />
    </clipPath>
    <linearGradient
       id="linearGradient3094-6-7">
      <stop
         id="stop3096-6-3"
         style="stop-color:#bdc4cf;stop-opacity:1;"
         offset="0" />
      <stop
         id="stop3104-2-9"
         style="stop-color:#a1a8ba;stop-opacity:1;"
         offset="1" />
    </linearGradient>
    <clipPath
       clipPathUnits="userSpaceOnUse"
       id="clipPath4543">
      <circle
         r="128"
         cy="924.36218"
         cx="128"
         id="circle4545"
         style="fill:#db4437;fill-opacity:1;stroke:none;stroke-width:20;stroke-miterlimit:4;stroke-dasharray:none;stroke-opacity:1" />
    </clipPath>
  </defs>
  <metadata
     id="metadata4154">
    <rdf:RDF>
      <cc:Work
         rdf:about="">
        <dc:format>image/svg+xml</dc:format>
        <dc:type
           rdf:resource="http://purl.org/dc/dcmitype/StillImage" />
        <dc:title />
      </cc:Work>
    </rdf:RDF>
  </metadata>
  <g
     inkscape:label="Layer 1"
     inkscape:groupmode="layer"
     id="layer1"
     transform="translate(0,-796.36216)">
    <circle
       style="fill:#db4437;fill-opacity:1;stroke:none;stroke-width:20;stroke-miterlimit:4;stroke-dasharray:none;stroke-opacity:1"
       id="path4723"
       cx="128"
       cy="924.36218"
       r="128" />
    <g
       transform="matrix(0.93333348,0,0,0.93333348,8.5337701,61.623948)"
       id="g4297">
      <path
         inkscape:connector-curvature="0"
         style="color:#000000;display:inline;overflow:visible;visibility:visible;fill:#3d4649;fill-opacity:1;fill-rule:nonzero;stroke:none;stroke-width:1;marker:none;enable-background:accumulate"
         d="m 91.384766,34.953125 c -0.43886,0.0378 -0.779014,0.01645 -1.183594,0.130859 -0.78693,0.22207 -1.587695,0.676304 -2.365234,1.183594 -0.628631,0.41004 -1.218374,0.859123 -1.839844,1.445313 -0.19009,0.17957 -0.336131,0.33024 -0.525391,0.52539 -0.69637,0.71096 -1.417786,1.578364 -2.103515,2.496094 -0.270432,0.36337 -0.51845,0.789384 -0.78711,1.183594 -0.32257,0.47356 -0.600202,0.928812 -0.919922,1.445312 -0.56394,0.90698 -1.154004,1.858178 -1.708984,2.892578 -0.4312,0.80421 -0.889133,1.619014 -1.314453,2.496094 -0.0446,0.0921 -0.08624,0.170732 -0.13086,0.263672 -0.64489,1.34233 -1.209663,2.706048 -1.839843,4.205078 -1.55215,3.68687 -3.151693,7.851516 -4.601563,12.353516 -0.0294,0.0871 -0.103109,0.176192 -0.130859,0.263672 -1.21696,3.80745 -2.284596,7.964526 -3.416016,12.222656 -0.12028,0.45207 -0.275511,0.858023 -0.394531,1.314453 -1.20518,4.61762 -2.326429,9.468731 -3.417969,14.457031 -0.20692,0.94636 -0.45354,1.933965 -0.65625,2.890625 -2.23402,10.539554 -4.154383,21.636694 -5.783203,32.726564 -0.527365,3.59062 -1.02013,7.15292 -1.486328,10.69922 0.100977,-0.76331 0.199265,-1.52771 0.302734,-2.28906 8.539343,-3.52385 17.287953,-6.83671 26.384766,-9.80079 a 29.738613,29.738613 0 0 1 29.734373,-29.662106 29.738613,29.738613 0 0 1 27.1875,17.777346 c 6.51091,-0.59159 13.24865,-0.95652 20.25781,-1.05078 2.07495,-0.0294 4.18625,-0.021 6.3086,0 1.77509,2.71956 3.54462,5.44317 5.25781,8.14843 -6.31154,-9.96644 -13.06169,-20.11113 -20.10742,-29.83398 -0.57449,-0.79277 -1.13252,-1.578734 -1.70899,-2.365234 -0.867,-1.18516 -1.75862,-2.248959 -2.6289,-3.417969 -2.96774,-3.98 -5.97082,-7.833393 -8.9375,-11.564453 -0.96356,-1.21409 -1.93128,-2.367618 -2.89063,-3.548828 -0.9451,-1.1614 -1.82076,-2.42242 -2.75976,-3.548828 -0.52827,-0.63497 -1.05221,-1.216734 -1.57813,-1.839844 -1.41121,-1.66982 -2.68484,-3.155122 -4.07422,-4.732422 -1.87624,-2.13644 -3.69688,-4.230361 -5.51953,-6.175781 -1.7581,-1.87275 -3.56299,-3.586763 -5.25586,-5.257813 -1.34489,-1.32899 -2.64792,-2.622527 -3.94336,-3.810547 -0.41257,-0.37851 -0.77644,-0.689364 -1.18359,-1.052734 -1.05786,-0.94661 -2.00546,-1.786373 -3.02344,-2.626953 -0.0993,-0.0816 -0.16288,-0.182922 -0.26172,-0.263672 -1.12611,-0.92218 -2.21413,-1.716087 -3.28515,-2.498047 -0.18042,-0.13164 -0.34861,-0.265148 -0.52735,-0.392578 -0.7288,-0.52197 -1.40135,-0.995326 -2.10156,-1.447266 -0.6102,-0.39407 -1.12174,-0.712011 -1.70898,-1.050781 -0.27884,-0.16276 -0.5156,-0.244811 -0.789066,-0.394531 -0.87141,-0.47419 -1.681873,-0.974213 -2.496093,-1.314453 -0.042,-0.0168 -0.09095,0.0168 -0.13086,0 -0.92454,-0.38608 -1.784196,-0.715652 -2.628906,-0.919922 -0.18042,-0.0429 -0.349171,-0.09685 -0.525391,-0.13086 -0.18799,-0.0379 -0.343553,0.0294 -0.527343,0 -0.76741,-0.11524 -1.546655,-0.192679 -2.234375,-0.130859 z M 56.779297,140.14844 c -0.316874,2.39531 -0.623522,4.79284 -0.898438,7.1582 0.274164,-2.3712 0.583608,-4.76334 0.898438,-7.1582 z m 84.767583,-20.90039 a 29.738613,29.738613 0 0 1 0.0527,0.15429 29.738613,29.738613 0 0 0 -0.0527,-0.15429 z m 0.68359,2.5957 a 29.738613,29.738613 0 0 1 0.12891,0.57422 29.738613,29.738613 0 0 0 -0.12891,-0.57422 z m 0.44726,2.63477 a 29.738613,29.738613 0 0 1 0.12305,1.02343 29.738613,29.738613 0 0 0 -0.12305,-1.02343 z m 0.26368,3.65625 a 29.738613,29.738613 0 0 1 -0.12891,2.5625 29.738613,29.738613 0 0 0 0.12891,-2.5625 z m -59.351566,2.53515 a 29.738613,29.738613 0 0 0 0.179687,1.48242 29.738613,29.738613 0 0 1 -0.179687,-1.48242 z m 59.050776,1.42969 a 29.738613,29.738613 0 0 1 -0.23046,1.52344 29.738613,29.738613 0 0 0 0.23046,-1.52344 z m -58.648432,1.51367 a 29.738613,29.738613 0 0 0 0.324218,1.44727 29.738613,29.738613 0 0 1 -0.324218,-1.44727 z m 58.103512,1.41211 a 29.738613,29.738613 0 0 1 -0.38281,1.50195 29.738613,29.738613 0 0 0 0.38281,-1.50195 z m -57.414059,1.4707 a 29.738613,29.738613 0 0 0 0.476562,1.4336 29.738613,29.738613 0 0 1 -0.476562,-1.4336 z m 56.583979,1.375 a 29.738613,29.738613 0 0 1 -0.52539,1.44336 29.738613,29.738613 0 0 0 0.52539,-1.44336 z m -55.605464,1.42969 a 29.738613,29.738613 0 0 0 0.621094,1.38867 29.738613,29.738613 0 0 1 -0.621094,-1.38867 z m 54.474614,1.36328 a 29.738613,29.738613 0 0 1 -0.64258,1.33203 29.738613,29.738613 0 0 0 0.64258,-1.33203 z m -53.22852,1.32227 a 29.738613,29.738613 0 0 0 0.75,1.30859 29.738613,29.738613 0 0 1 -0.75,-1.30859 z m 51.84766,1.29883 a 29.738613,29.738613 0 0 1 -0.78711,1.28125 29.738613,29.738613 0 0 0 0.78711,-1.28125 z m -50.314457,1.2832 a 29.738613,29.738613 0 0 0 0.828125,1.16016 29.738613,29.738613 0 0 1 -0.828125,-1.16016 z m 48.675777,1.1875 a 29.738613,29.738613 0 0 1 -0.90429,1.18945 29.738613,29.738613 0 0 0 0.90429,-1.18945 z m -46.912105,1.20312 a 29.738613,29.738613 0 0 0 0.974609,1.10938 29.738613,29.738613 0 0 1 -0.974609,-1.10938 z m 45.031255,1.09961 a 29.738613,29.738613 0 0 1 -1.01758,1.0918 29.738613,29.738613 0 0 0 1.01758,-1.0918 z m -43.056646,1.08203 a 29.738613,29.738613 0 0 0 1.091797,1.01954 29.738613,29.738613 0 0 1 -1.091797,-1.01954 z m 40.947266,1.02735 a 29.738613,29.738613 0 0 1 -1.11328,0.97656 29.738613,29.738613 0 0 0 1.11328,-0.97656 z m -38.720703,0.98828 a 29.738613,29.738613 0 0 0 1.128906,0.85742 29.738613,29.738613 0 0 1 -1.128906,-0.85742 z m 36.433593,0.88086 a 29.738613,29.738613 0 0 1 -1.21875,0.87109 29.738613,29.738613 0 0 0 1.21875,-0.87109 z m -34.042968,0.87891 a 29.738613,29.738613 0 0 0 1.248047,0.76367 29.738613,29.738613 0 0 1 -1.248047,-0.76367 z m 31.556638,0.76953 a 29.738613,29.738613 0 0 1 -1.26953,0.72851 29.738613,29.738613 0 0 0 1.26953,-0.72851 z m -29.027341,0.73047 a 29.738613,29.738613 0 0 0 1.367191,0.66015 29.738613,29.738613 0 0 1 -1.367191,-0.66015 z m 26.371091,0.66796 a 29.738613,29.738613 0 0 1 -1.31445,0.5879 29.738613,29.738613 0 0 0 1.31445,-0.5879 z m -23.66406,0.5918 a 29.738613,29.738613 0 0 0 1.38867,0.50586 29.738613,29.738613 0 0 1 -1.38867,-0.50586 z m 20.95313,0.50586 a 29.738613,29.738613 0 0 1 -1.42383,0.47266 29.738613,29.738613 0 0 0 1.42383,-0.47266 z m -18.14649,0.4707 a 29.738613,29.738613 0 0 0 1.40234,0.35938 29.738613,29.738613 0 0 1 -1.40234,-0.35938 z m 15.30859,0.36328 a 29.738613,29.738613 0 0 1 -1.46679,0.33008 29.738613,29.738613 0 0 0 1.46679,-0.33008 z m -12.40234,0.33399 a 29.738613,29.738613 0 0 0 1.41602,0.21289 29.738613,29.738613 0 0 1 -1.41602,-0.21289 z m 9.45508,0.2207 a 29.738613,29.738613 0 0 1 -1.45899,0.17578 29.738613,29.738613 0 0 0 1.45899,-0.17578 z m -6.5332,0.17578 a 29.738613,29.738613 0 0 0 2.53515,0.12696 29.738613,29.738613 0 0 1 -2.53515,-0.12696 z"
         id="path3816"
         transform="translate(0,796.36216)" />
      <path
         inkscape:connector-curvature="0"
         style="color:#000000;display:inline;overflow:visible;visibility:visible;fill:#e8e7e6;fill-opacity:1;fill-rule:nonzero;stroke:none;stroke-width:2.28571415;marker:none;enable-background:accumulate"
         d="m 160.64648,115.12305 c -7.00916,0.0943 -13.7469,0.45919 -20.25781,1.05078 a 29.738613,29.738613 0 0 1 2.55274,11.96094 29.738613,29.738613 0 0 1 -29.74024,29.73828 29.738613,29.738613 0 0 1 -29.738279,-29.73828 29.738613,29.738613 0 0 1 0.0039,-0.0762 c -9.096813,2.96408 -17.845423,6.27694 -26.384766,9.80079 -0.47074,3.46383 -0.928333,6.96893 -1.314453,10.38281 -0.008,0.0875 0.008,0.17619 0,0.26367 -3.98446,35.38037 -4.023125,66.37741 2.234375,70.44531 15.1244,9.8324 37.458572,-17.34583 74.257813,-24.83984 36.79924,-7.49401 58.15993,12.9356 69.78711,-2.49805 4.88113,-6.47909 -9.58897,-36.37328 -29.83399,-68.3418 -1.71319,-2.70526 -3.48272,-5.42887 -5.25781,-8.14843 -2.12235,-0.021 -4.23365,-0.0294 -6.3086,0 z"
         id="path3833"
         transform="translate(0,796.36216)" />
    </g>
  </g>
</svg>
