<?xml version="1.0" encoding="UTF-8" standalone="no"?>
<!-- Created with Inkscape (http://www.inkscape.org/) -->

<svg
   xmlns:dc="http://purl.org/dc/elements/1.1/"
   xmlns:cc="http://creativecommons.org/ns#"
   xmlns:rdf="http://www.w3.org/1999/02/22-rdf-syntax-ns#"
   xmlns:svg="http://www.w3.org/2000/svg"
   xmlns="http://www.w3.org/2000/svg"
   xmlns:sodipodi="http://sodipodi.sourceforge.net/DTD/sodipodi-0.dtd"
   xmlns:inkscape="http://www.inkscape.org/namespaces/inkscape"
   width="256"
   height="256"
   viewBox="0 0 256 256"
   id="svg4149"
   version="1.1"
   inkscape:version="0.91 r13725"
   sodipodi:docname="jitsi.svg">
  <sodipodi:namedview
     id="base"
     pagecolor="#ffffff"
     bordercolor="#666666"
     borderopacity="1.0"
     inkscape:pageopacity="0.0"
     inkscape:pageshadow="2"
     inkscape:zoom="2.0507812"
     inkscape:cx="-49.493338"
     inkscape:cy="128"
     inkscape:document-units="px"
     inkscape:current-layer="layer1"
     showgrid="false"
     units="px"
     inkscape:window-width="1600"
     inkscape:window-height="836"
     inkscape:window-x="0"
     inkscape:window-y="27"
     inkscape:window-maximized="1" />
  <defs
     id="defs4151">
    <clipPath
       id="clipPath4863"
       clipPathUnits="userSpaceOnUse">
      <circle
         r="77.263145"
         cy="924.36218"
         cx="128"
         id="circle4865"
         style="fill:#e9e9e9;fill-opacity:1;stroke:none;stroke-width:20;stroke-miterlimit:4;stroke-dasharray:none;stroke-opacity:1" />
    </clipPath>
    <clipPath
       clipPathUnits="userSpaceOnUse"
       id="clipPath4227">
      <circle
         r="77.263145"
         cy="924.36218"
         cx="128"
         id="circle4229"
         style="fill:#e9e9e9;fill-opacity:1;stroke:none;stroke-width:20;stroke-miterlimit:4;stroke-dasharray:none;stroke-opacity:1" />
    </clipPath>
    <clipPath
       id="clipPath5543"
       clipPathUnits="userSpaceOnUse">
      <circle
         r="128"
         cy="924.36218"
         cx="128"
         id="circle5545"
         style="fill:#9e9fe9;fill-opacity:1;stroke:none;stroke-width:20;stroke-miterlimit:4;stroke-dasharray:none;stroke-opacity:1" />
    </clipPath>
    <clipPath
       id="clipPath5522"
       clipPathUnits="userSpaceOnUse">
      <path
         inkscape:connector-curvature="0"
         id="path5524"
         d="m 153.38672,796.84847 -105.781251,0 c -7.804357,0 -14.087891,6.28158 -14.087891,14.08594 l 0,227.33989 c 0,7.8043 6.283534,14.0878 14.087891,14.0878 l 165.162111,0 c 7.80436,0 14.08594,-6.2835 14.08594,-14.0878 l 0,-154.82232 -73.4668,-86.60351 z"
         style="fill:#db4437;fill-opacity:1" />
    </clipPath>
    <clipPath
       id="clipPath7273"
       clipPathUnits="userSpaceOnUse">
      <circle
         r="87.222778"
         cy="965.23419"
         cx="125.3036"
         id="circle7275"
         style="fill:#9e9fe9;fill-opacity:1;stroke:none;stroke-width:20;stroke-miterlimit:4;stroke-dasharray:none;stroke-opacity:1" />
    </clipPath>
    <clipPath
       clipPathUnits="userSpaceOnUse"
       id="clipPath5533">
      <circle
         r="128"
         cy="128.00002"
         cx="128"
         id="circle5535"
         style="fill:#ffd794;fill-opacity:1;stroke:none;stroke-width:20;stroke-miterlimit:4;stroke-dasharray:none;stroke-opacity:1" />
    </clipPath>
  </defs>
  <metadata
     id="metadata4154">
    <rdf:RDF>
      <cc:Work
         rdf:about="">
        <dc:format>image/svg+xml</dc:format>
        <dc:type
           rdf:resource="http://purl.org/dc/dcmitype/StillImage" />
        <dc:title />
      </cc:Work>
    </rdf:RDF>
  </metadata>
  <g
     inkscape:label="Layer 1"
     inkscape:groupmode="layer"
     id="layer1"
     transform="translate(0,-796.36216)">
    <circle
       style="fill:#ff8b11;fill-opacity:1;stroke:none;stroke-width:20;stroke-miterlimit:4;stroke-dasharray:none;stroke-opacity:1"
       id="path4723"
       cx="128"
       cy="924.36218"
       r="128" />
    <path
       inkscape:connector-curvature="0"
       style="fill:#ffffff;fill-opacity:0;fill-rule:nonzero;stroke:none"
       d="m 141.43653,863.74285 c -3.28414,1.91412 -7.23261,4.05496 -8.01659,5.99058 -2.63093,5.52734 -3.61709,15.4466 -2.81605,14.87694 7.80752,-5.55178 16.84697,-7.09098 20.13616,-10.06443 9.74682,-8.81131 13.53074,-27.0264 11.48262,-24.32638 -6.63035,8.74076 -17.39808,11.54868 -20.78614,13.52329 z M 90.344539,986.05703 c 0,0 -9.21935,-6.37679 -9.04943,-8.42256 1.4119,-17.0001 -1.60529,-17.99209 -3.12589,-17.81182 -1.83708,0.21788 -11.38361,6.24468 -13.24595,23.26142 -1.35139,12.34816 3.52779,31.64073 4.27106,32.68463 3.84614,-10.3366 2.34557,-18.65627 21.15021,-29.71167 z M 191.06486,910.74236 c -0.45871,-12.74442 -8.13184,-21.50711 -13.3432,-19.45493 -2.21094,0.87065 -3.69534,6.80489 -2.91905,10.48424 0.68853,3.2636 5.38001,15.89258 5.71735,16.96014 0.79762,2.52443 6.1825,17.99608 5.22527,25.42991 -0.83905,6.51595 -19.72653,8.77041 -19.72653,8.77041 0,0 -0.3174,5.30357 -0.9685,8.88723 -0.80041,4.40536 -2.3873,7.86266 -2.3873,7.86266 0,0 4.11218,3.83084 4.27835,3.8266 0.16618,0 25.88228,-13.90506 24.12361,-62.76626 z m -19.71567,39.47814 c 1.32939,-0.37206 9.17866,-2.44746 8.75797,-2.72341 -2.9128,-1.91066 -6.22756,-4.31574 -11.77932,-8.63365 -30.82194,-23.97209 -58.81811,-3.78153 -58.26647,-3.96491 5.11808,-1.70231 10.52277,-2.66422 18.03141,-2.16268 6.04797,0.40395 15.55527,3.4697 23.88351,13.39728 3.09778,3.69261 6.61274,6.19814 19.3729,4.08737 z m -13.74882,-52.0338 c 0.93255,-0.80678 4.17379,-6.91678 3.59013,-7.05865 -8.17921,-1.98918 -8.97583,-5.60803 -9.77638,-9.54538 -0.74982,-3.68784 -0.63414,-4.21382 -2.1836,-3.70197 -12.51916,4.13504 -15.98209,6.40744 -17.89767,7.99725 -3.00075,2.49046 -0.8959,9.18234 0.27746,11.84188 1.63541,3.7069 7.64803,10.41464 10.44526,10.95484 4.08007,0.78788 13.72258,-7.57103 15.5448,-10.48797 z m 9.09875,-22.58126 c -0.67847,-2.77498 -2.85824,-6.34877 -3.43907,-6.34877 -0.54699,0 -6.33882,4.48171 -7.8348,6.04327 -3.39527,3.54406 -1.74059,9.96649 2.02579,12.16947 6.37486,3.72866 11.05626,-4.46879 9.24808,-11.86397 z m -4.80651,-10.61337 c 2.78904,-2.78608 6.49664,-7.35939 7.48256,-14.30911 0.38641,-2.72384 0.61078,-5.11983 -1.08331,-10.5053 -0.39263,-1.24826 -1.58615,-4.83799 -1.63077,-4.36505 -0.88114,9.33825 -2.17221,19.70731 -8.26699,30.72724 -1.91306,3.45904 -0.8843,2.83027 3.49851,-1.54778 z m -65.411261,55.61772 c -3.32259,13.93696 5.482291,32.24061 12.614941,33.28391 6.89487,1.00854 26.6614,-4.9595 37.02812,-7.84221 2.71612,-0.75522 4.17727,-0.36132 -1.83149,-5.39518 -9.42042,-6.40432 -17.02359,-7.22895 -24.60863,-6.368 -8.36645,0.9496 -14.63577,3.42593 -14.04923,2.93479 3.83597,-3.21195 10.66835,-8.9557 23.86857,-11.55657 5.73736,-1.13048 14.59155,-1.2298 25.28132,2.94528 13.25941,5.17877 20.16556,12.85891 25.77152,15.46177 1.99627,0.9269 2.70937,0.49591 3.49812,-1.82052 1.32148,-3.88093 -6.71145,-28.11285 -9.62173,-35.17904 -4.44124,-10.78333 0.74051,-15.93748 -0.39208,-15.68779 -5.49346,1.2109 -10.3377,4.74179 -14.39863,8.37763 -9.92648,8.88749 -15.97671,10.78073 -16.87457,10.70437 -2.83486,-0.24102 -8.13906,-5.25841 -10.0662,-7.80615 -1.22967,-1.62569 -23.2374,2.62227 -29.7272,8.26037 -0.14848,0.12896 -5.155951,3.34048 -6.492831,9.68734 z m -7.05131,60.67699 c 7.25868,-3.04556 14.365221,-9.51756 13.750571,-9.62451 -3.768461,-0.65537 -17.666561,-10.17857 -17.656971,-10.07985 0.47739,4.91469 -0.59369,9.3307 -1.08236,14.2018 -0.2038,2.03147 2.50411,5.17868 4.98876,5.50256 z m 23.422301,-21.30336 c -1.38862,3.09556 -2.83842,15.26824 -22.905251,23.07968 -0.58126,0.22628 16.816471,12.12253 17.763261,12.16403 57.4534,2.5222 56.96649,-41.22926 56.2039,-42.33235 -0.11036,-0.15956 -5.02437,0.0113 -8.83046,-1.79452 -0.29027,-0.13772 -2.87211,-1.46848 -4.4115,-3.473 -0.52214,-0.67981 -0.60341,-1.04927 -2.53822,-0.48706 -8.95459,2.60234 -35.68905,12.19469 -35.28173,12.84322 z M 94.954159,938.64313 c -10.25965,-35.84802 25.744881,-37.51106 31.453431,-38.8914 4.41454,-1.06739 3.45262,-1.48252 2.5217,-5.65786 -1.30706,-5.86257 -0.89989,-10.97278 0.2206,-16.45046 1.05956,-5.1799 1.60604,-7.79922 3.84382,-10.39654 1.80369,-2.09343 11.96735,-6.88099 14.48691,-8.08947 10.73723,-5.1499 14.83947,-10.81045 16.03619,-15.26278 0.84365,-3.1388 2.07816,-10.8751 1.52324,-16.40478 -0.13658,-1.3611 0.7416,0.77159 5.11019,14.34498 2.23221,6.9355 1.133,15.26312 -5.90716,22.78163 -0.95612,1.02111 -0.49243,1.2233 0.79334,3.34794 2.67138,4.41419 4.14814,9.93399 3.73209,13.94986 -0.34089,3.28996 -1.74727,6.40086 0.26419,6.15914 0.29079,-0.0347 9.1756,-1.38008 15.25765,2.48569 4.11881,2.61794 9.98617,7.6362 8.46316,28.59879 -3.33501,45.90309 -25.76286,55.89298 -25.92008,55.89835 -0.37964,0.013 -4.57565,-4.34364 -4.824,-3.83058 -12.86006,26.56669 -39.3958,25.61219 -54.19517,25.89149 -2.95889,0.055 -15.262611,-10.3041 -16.299651,-9.5954 -13.09816,8.9514 -16.73449,11.187 -21.78493,34.06547 -0.19355,-0.3627 -7.00381,-12.4431 -6.72112,-36.7386 0.23161,-19.90577 11.10659,-29.29992 15.94113,-28.75808 5.86913,0.65772 8.81459,3.71974 17.08036,9.15027 1.47543,0.96937 6.688301,4.12161 7.874541,4.09283 2.95535,-0.0693 4.9715,-5.49926 5.45385,-9.01454 0.48651,-3.5458 0.95688,-2.68884 -1.81047,-3.64113 -3.48893,-1.20068 -9.506891,-7.73431 -12.593811,-18.03482 z"
       id="path5062"
       sodipodi:nodetypes="ccsssccssscccsssscscsccsssssccssssssccsssccssssccsscssssssssssssccsssccssssssccssssssssssssscsssscssscssc"
       inkscape:export-filename="/home/emcho/storage/images/sc_logo/sc_logo136x203.png"
       inkscape:export-xdpi="19.25"
       inkscape:export-ydpi="19.25" />
    <path
       style="fill:#ffffff;fill-opacity:1;stroke:none;stroke-width:10;stroke-linecap:round;stroke-miterlimit:4;stroke-dasharray:none;stroke-opacity:1"
       d="m 107.08114,156.49256 c -3.76551,-2.40099 -7.90065,-9.16171 -9.786112,-15.99974 -1.959731,-7.10738 -1.313416,-16.7211 1.414663,-21.04266 3.590379,-5.68752 11.923359,-9.77097 25.185779,-12.34189 7.53479,-1.46062 7.58055,-1.45183 11.29139,2.1689 1.76013,1.71738 4.12967,3.59667 5.26567,4.17621 1.94926,0.99444 2.1867,1.01239 4.22113,0.31919 3.01235,-1.02641 9.26208,-5.24083 15.40581,-10.3887 4.72041,-3.955255 9.40255,-6.844466 12.53592,-7.735547 1.04815,-0.298076 1.13489,-0.21356 0.84197,0.820349 -1.52573,5.385278 -1.24413,9.231038 1.11264,15.195438 3.84785,9.73794 8.66753,26.23011 9.14883,31.3058 0.23054,2.43128 0.11857,3.12135 -0.66257,4.08336 -0.9292,1.14436 -0.95926,1.14779 -2.61756,0.29875 -0.92265,-0.4724 -4.42041,-2.77347 -7.77279,-5.1135 -7.75964,-5.41637 -11.78292,-7.71183 -17.5056,-9.98773 -12.60189,-5.01175 -25.29058,-4.8456 -37.35155,0.48909 -3.38627,1.49778 -10.28419,5.96601 -11.70523,7.58223 -0.8901,1.01236 -0.897,1.07877 -0.0812,0.7806 1.93688,-0.70792 8.55873,-2.22752 11.87984,-2.72623 7.97718,-1.19786 14.03715,-0.29367 20.97236,3.12926 4.06286,2.00525 10.03681,6.59126 9.41042,7.22407 -0.35091,0.35451 -19.26085,5.48159 -25.6,6.94097 -2.95009,0.67916 -7.33866,1.35177 -9.75238,1.49469 -3.77081,0.22327 -4.59449,0.12855 -5.85143,-0.67291 z"
       id="path4296"
       inkscape:connector-curvature="0"
       transform="translate(0,796.36216)" />
    <path
       style="fill:#ffffff;fill-opacity:1;stroke:none;stroke-width:10;stroke-linecap:round;stroke-miterlimit:4;stroke-dasharray:none;stroke-opacity:1"
       d="m 157.84628,153.66317 c -1.90876,-0.61369 -3.27647,-1.67411 -6.84549,-5.30752 -9.63757,-9.81146 -19.12904,-13.46636 -31.28665,-12.04762 -2.6571,0.31008 -5.37966,0.68513 -6.05014,0.83347 -2.0608,0.45592 3.43405,-2.28225 7.06579,-3.52099 13.25294,-4.52041 28.1871,-2.93229 40.3906,4.2952 2.85851,1.69295 15.90978,11.11946 17.79422,12.8522 0.51077,0.46965 -0.3304,0.85898 -4.13815,1.91532 -6.07148,1.68432 -13.41693,2.10949 -16.93018,0.97994 z"
       id="path4298"
       inkscape:connector-curvature="0"
       transform="translate(0,796.36216)" />
    <path
       style="fill:#ffffff;fill-opacity:1;stroke:none;stroke-width:10;stroke-linecap:round;stroke-miterlimit:4;stroke-dasharray:none;stroke-opacity:1"
       d="m 105.89021,197.55236 c -1.1914,-0.68099 -5.21462,-3.35014 -8.940495,-5.93144 l -6.774322,-4.69326 2.933745,-1.33173 c 9.290352,-4.21722 15.797892,-10.65165 18.617612,-18.40846 0.65264,-1.79537 1.58841,-3.39409 2.23439,-3.81735 1.92693,-1.26257 21.5075,-8.41519 31.14256,-11.37611 l 4.4003,-1.35224 1.89079,1.70472 c 2.26011,2.03771 5.16095,3.39347 8.12612,3.79789 4.41069,0.60159 4.36785,0.57616 4.36785,2.59288 0,5.23313 -2.41909,13.27458 -5.6577,18.8071 -2.56469,4.38125 -7.86457,9.94065 -12.13796,12.73231 -8.24541,5.38645 -20.74354,8.53778 -33.78918,8.51974 -3.64799,-0.005 -4.5533,-0.18064 -6.41371,-1.24405 z"
       id="path4300"
       inkscape:connector-curvature="0"
       transform="translate(0,796.36216)" />
    <path
       style="fill:#ffffff;fill-opacity:1;stroke:none;stroke-width:10;stroke-linecap:round;stroke-miterlimit:4;stroke-dasharray:none;stroke-opacity:1"
       d="m 86.603245,182.98823 -1.847946,-1.74283 0.313398,-3.89965 c 0.172368,-2.14481 0.452802,-5.63081 0.623187,-7.74666 l 0.309789,-3.84701 4.107914,2.67768 c 2.259353,1.47272 6.069493,3.71378 8.466977,4.98013 l 4.359066,2.30247 -2.53636,2.06323 c -3.234627,2.63125 -9.032522,6.23804 -10.678818,6.64315 -1.019619,0.2509 -1.632722,-0.0305 -3.117207,-1.43051 z"
       id="path4302"
       inkscape:connector-curvature="0"
       transform="translate(0,796.36216)" />
    <path
       style="fill:#ffffff;fill-opacity:1;stroke:none;stroke-width:10;stroke-linecap:round;stroke-miterlimit:4;stroke-dasharray:none;stroke-opacity:1"
       d="m 67.896613,214.08646 c -2.002873,-8.5581 -2.66575,-13.91421 -2.70628,-21.86703 -0.03452,-6.7732 0.108654,-8.31626 1.085843,-11.70286 1.692921,-5.86708 3.845669,-9.8566 7.151868,-13.25401 3.245036,-3.33455 5.356838,-4.27323 6.401041,-2.84519 1.207826,1.6518 1.786038,6.19242 1.51024,11.85971 l -0.268285,5.51289 1.502679,1.71146 c 0.826473,0.9413 2.795249,2.70607 4.375058,3.9217 l 2.872379,2.21025 -3.890549,2.66171 c -5.117993,3.50146 -10.128473,8.82431 -12.092374,12.84625 -0.851219,1.74323 -2.137196,5.25409 -2.857726,7.8019 -0.720531,2.54781 -1.482072,4.81769 -1.692314,5.04418 -0.210241,0.22648 -0.836452,-1.52895 -1.39158,-3.90096 z"
       id="path4304"
       inkscape:connector-curvature="0"
       transform="translate(0,796.36216)" />
    <path
       style="fill:#ffffff;fill-opacity:1;stroke:none;stroke-width:10;stroke-linecap:round;stroke-miterlimit:4;stroke-dasharray:none;stroke-opacity:1"
       d="m 164.79916,175.01479 c -1.69971,-1.58547 -1.93493,-2.02832 -1.50453,-2.83253 0.86362,-1.61369 2.00388,-6.60358 2.47858,-10.84654 0.24873,-2.2232 0.56575,-4.1557 0.7045,-4.29444 0.13874,-0.13875 2.19127,-0.67032 4.56118,-1.18127 6.3568,-1.37053 11.17141,-3.25087 13.184,-5.14898 l 1.74677,-1.64741 -0.28113,-5.24115 c -0.34256,-6.38644 -2.2035,-13.58781 -7.21376,-27.91542 -2.88907,-8.26174 -3.49541,-10.52154 -3.49451,-13.02391 0.001,-4.076595 1.67794,-7.6267 3.7114,-7.859254 4.35485,-0.498039 9.49813,5.599554 11.33878,13.442614 1.13114,4.81987 0.7054,22.13784 -0.73083,29.72741 -2.70743,14.30713 -8.5336,26.16601 -16.76754,34.12953 -5.07469,4.90801 -5.27994,4.97945 -7.73291,2.69135 z"
       id="path4306"
       inkscape:connector-curvature="0"
       transform="translate(0,796.36216)" />
    <path
       style="fill:#ffffff;fill-opacity:1;stroke:none;stroke-width:10;stroke-linecap:round;stroke-miterlimit:4;stroke-dasharray:none;stroke-opacity:1"
       d="m 140.23924,111.10164 c -1.83748,-1.13151 -5.59865,-5.15035 -7.17488,-7.66642 -1.78525,-2.84972 -2.82131,-6.367785 -2.82131,-9.580059 0,-3.48119 0.76145,-4.402366 5.67252,-6.862379 4.57445,-2.291393 13.13134,-5.405252 13.96965,-5.083562 0.37691,0.144634 0.93385,1.500646 1.23765,3.01336 1.08252,5.390269 2.81939,7.534013 7.52399,9.286532 1.2739,0.474545 2.31619,0.951454 2.31619,1.059798 0,0.573618 -2.29342,4.605588 -3.78252,6.6499 -3.11704,4.27922 -11.30374,10.08964 -14.21011,10.08546 -0.69758,-0.001 -1.92661,-0.40719 -2.73118,-0.90263 z"
       id="path4308"
       inkscape:connector-curvature="0"
       transform="translate(0,796.36216)" />
    <path
       style="fill:#ffffff;fill-opacity:1;stroke:none;stroke-width:10;stroke-linecap:round;stroke-miterlimit:4;stroke-dasharray:none;stroke-opacity:1"
       d="m 158.23459,91.073687 c -2.71239,-1.216001 -4.31026,-3.851596 -4.29753,-7.088502 0.005,-1.350405 0.28465,-2.958632 0.62073,-3.57384 0.76761,-1.405121 8.37293,-7.461704 8.93418,-7.114835 0.22843,0.141183 0.98427,1.379437 1.67964,2.751677 2.41642,4.768569 2.0097,10.683093 -0.94648,13.763957 -1.98706,2.07087 -3.4827,2.385837 -5.99054,1.261543 z"
       id="path4310"
       inkscape:connector-curvature="0"
       transform="translate(0,796.36216)" />
    <path
       style="fill:#ffffff;fill-opacity:1;stroke:none;stroke-width:10;stroke-linecap:round;stroke-miterlimit:4;stroke-dasharray:none;stroke-opacity:1"
       d="m 130.73067,85.613121 c 0,-2.795562 1.79029,-10.144656 2.92642,-12.01287 1.41307,-2.323605 4.26909,-4.161331 13.4102,-8.628876 7.07947,-3.459962 8.81836,-4.540373 11.9008,-7.394236 l 3.6099,-3.342212 -0.36044,1.944631 c -1.39806,7.54273 -7.34076,18.450806 -12.06601,22.147666 -0.71661,0.560652 -4.17814,2.208336 -7.69228,3.661519 -3.51414,1.453183 -7.48426,3.315856 -8.82249,4.139275 -1.33822,0.823418 -2.53955,1.497124 -2.66962,1.497124 -0.13007,0 -0.23648,-0.90541 -0.23648,-2.012021 z"
       id="path4312"
       inkscape:connector-curvature="0"
       transform="translate(0,796.36216)" />
    <path
       style="fill:#ffffff;fill-opacity:1;stroke:none;stroke-width:10;stroke-linecap:round;stroke-miterlimit:4;stroke-dasharray:none;stroke-opacity:1"
       d="m 159.98378,67.510856 c 3.39144,-7.244799 4.54269,-11.577044 6.70575,-25.234287 0.26443,-1.669599 0.29467,-1.632531 1.3921,1.706667 1.93595,5.890603 1.48169,11.895449 -1.33238,17.612441 -1.3679,2.778997 -7.29808,9.938036 -8.23216,9.938036 -0.22907,0 0.43094,-1.810286 1.46669,-4.022857 z"
       id="path4314"
       inkscape:connector-curvature="0"
       transform="translate(0,796.36216)" />
  </g>
</svg>
