<?xml version="1.0" encoding="UTF-8" standalone="no"?>
<!-- Created with Inkscape (http://www.inkscape.org/) -->

<svg
   xmlns:dc="http://purl.org/dc/elements/1.1/"
   xmlns:cc="http://creativecommons.org/ns#"
   xmlns:rdf="http://www.w3.org/1999/02/22-rdf-syntax-ns#"
   xmlns:svg="http://www.w3.org/2000/svg"
   xmlns="http://www.w3.org/2000/svg"
   xmlns:sodipodi="http://sodipodi.sourceforge.net/DTD/sodipodi-0.dtd"
   xmlns:inkscape="http://www.inkscape.org/namespaces/inkscape"
   width="256"
   height="256"
   viewBox="0 0 256 256"
   id="svg2"
   version="1.1"
   inkscape:version="0.91 r13725"
   sodipodi:docname="masterpdfeditor3.svg">
  <sodipodi:namedview
     id="base"
     pagecolor="#ffffff"
     bordercolor="#666666"
     borderopacity="1.0"
     inkscape:pageopacity="0.0"
     inkscape:pageshadow="2"
     inkscape:zoom="3.2851562"
     inkscape:cx="68.337692"
     inkscape:cy="128"
     inkscape:document-units="px"
     inkscape:current-layer="layer1"
     showgrid="true"
     units="px"
     inkscape:window-width="1600"
     inkscape:window-height="836"
     inkscape:window-x="0"
     inkscape:window-y="27"
     inkscape:window-maximized="1">
    <inkscape:grid
       type="xygrid"
       id="grid4168"
       spacingx="5"
       spacingy="5" />
  </sodipodi:namedview>
  <defs
     id="defs4">
    <inkscape:path-effect
       effect="skeletal"
       id="path-effect4235"
       is_visible="true"
       pattern="M 0,0 1,0"
       copytype="single_stretched"
       prop_scale="1"
       scale_y_rel="false"
       spacing="0"
       normal_offset="0"
       tang_offset="0"
       prop_units="false"
       vertical_pattern="false"
       fuse_tolerance="0" />
    <clipPath
       clipPathUnits="userSpaceOnUse"
       id="clipPath5002">
      <g
         id="g5004">
        <path
           transform="translate(0,796.36216)"
           inkscape:connector-curvature="0"
           id="path5006"
           d="M 88.118406,249.43519 C 46.103287,235.29134 14.771284,201.68742 4.1335861,159.36053 1.3377997,148.23623 0.92261224,144.16281 0.92582381,127.88908 0.92787958,117.47222 1.134384,112.01362 1.6577819,108.54099 4.4653598,89.913336 12.17654,70.638106 23.042737,55.086148 c 3.958678,-5.665755 8.344812,-10.93092 9.101533,-10.925587 0.32809,0.0023 10.488643,18.309713 22.579009,40.683112 12.090365,22.373397 22.374546,41.334697 22.853732,42.136217 0.479186,0.80151 0.924733,2.44098 0.990103,3.64326 0.343424,6.31639 2.524175,14.20976 5.6424,20.42304 2.954444,5.88693 5.065381,8.73258 10.434696,14.06652 6.71418,6.66995 12.88853,10.28643 21.73204,12.72904 3.16587,0.87442 5.10478,1.05037 11.57517,1.05037 8.82596,0 12.60219,-0.76201 19.26429,-3.88733 2.04584,-0.95974 3.93661,-1.66536 4.20172,-1.56805 0.2651,0.0973 -11.0555,17.66459 -25.1569,39.0384 l -25.6389,38.86148 -3.094121,0.11221 c -2.554618,0.0927 -4.195204,-0.25845 -9.409103,-2.01364 z"
           style="fill:#0f9d58;fill-opacity:1;stroke:none;stroke-width:4.85768509;stroke-linejoin:round;stroke-miterlimit:4;stroke-dasharray:none;stroke-opacity:1" />
        <path
           inkscape:connector-curvature="0"
           id="path5008"
           d="m 112.35984,1051.5167 c -10.0014,-1.4495 -12.15632,-1.8201 -12.531784,-2.1556 -0.248854,-0.2223 1.738304,-3.7475 4.550294,-8.0722 7.16635,-11.0213 49.77231,-74.64801 50.25856,-75.05489 3.57509,-2.99158 8.63523,-8.0414 10.57512,-10.55356 3.36154,-4.35318 7.55784,-12.9141 9.06523,-18.494 6.19314,-22.92535 -2.59253,-47.15185 -21.69967,-59.83688 l -2.96081,-1.96565 17.02469,0.29584 c 9.36358,0.1627 31.17032,0.43384 48.45941,0.60252 l 31.43471,0.30668 1.54584,4.18869 c 2.24597,6.08579 4.67816,15.0947 5.93451,21.9816 1.52517,8.36049 1.92536,28.85896 0.73851,37.82758 -3.0805,23.27845 -12.81326,45.72018 -27.80202,64.10577 -20.47622,25.1166 -51.4599,42.1974 -84.14612,46.3885 -5.31244,0.6812 -26.64601,0.9864 -30.44647,0.4356 z"
           style="fill:#f4b400;fill-opacity:1;stroke:none;stroke-width:4.85768509;stroke-linejoin:round;stroke-miterlimit:4;stroke-dasharray:none;stroke-opacity:1" />
        <path
           transform="translate(0,796.36216)"
           inkscape:connector-curvature="0"
           id="path5010"
           d="M 67.989788,108.87302 C 41.284246,59.575543 33.290284,45.149038 32.233625,44.344765 31.651257,43.901497 32.811213,42.549931 38.695603,36.815353 53.43581,22.450419 68.809334,13.040746 87.839196,6.7360352 101.68742,2.1480329 112.58238,0.43719165 127.95142,0.43719165 c 21.3099,0 37.80488,3.80960275 56.83492,13.12633035 25.29351,12.383198 46.19421,33.578863 58.51993,59.345832 1.61138,3.368591 2.92978,6.372442 2.92978,6.675231 0,0.560033 -10.54865,0.49527 -71.16508,-0.436914 l -24.28843,-0.373518 -3.93063,-1.764495 c -6.75732,-3.033425 -10.64587,-3.839529 -18.6576,-3.867747 -5.0296,-0.01773 -7.97946,0.207636 -10.31642,0.788106 -14.50826,3.603659 -26.283291,12.94777 -33.291614,26.418653 -3.58502,6.89086 -5.24713,13.08166 -6.331628,23.58317 l -0.33738,3.26696 -9.92748,-18.32578 z"
           style="fill:#db4437;fill-opacity:1;stroke:none;stroke-width:10;stroke-linejoin:round;stroke-miterlimit:4;stroke-dasharray:none;stroke-opacity:1" />
      </g>
    </clipPath>
    <clipPath
       id="clipPath4271"
       clipPathUnits="userSpaceOnUse">
      <circle
         r="128"
         cy="128.00002"
         cx="128"
         id="circle4273"
         style="fill:#292929;fill-opacity:0.26020412;stroke:none;stroke-width:10;stroke-linejoin:round;stroke-miterlimit:4;stroke-dasharray:none;stroke-opacity:0.25882353" />
    </clipPath>
    <clipPath
       clipPathUnits="userSpaceOnUse"
       id="clipPath4363">
      <circle
         r="128"
         cy="924.36218"
         cx="128"
         id="circle4365"
         style="fill:#4285f4;fill-opacity:1;stroke:none;stroke-width:10;stroke-linejoin:round;stroke-miterlimit:4;stroke-dasharray:none;stroke-opacity:0.25882353" />
    </clipPath>
    <clipPath
       id="clipPath4452"
       clipPathUnits="userSpaceOnUse">
      <circle
         r="128"
         cy="924.36218"
         cx="128"
         id="circle4454"
         style="fill:#4285f4;fill-opacity:1;stroke:none;stroke-width:10;stroke-linejoin:round;stroke-miterlimit:4;stroke-dasharray:none;stroke-opacity:0.25882353" />
    </clipPath>
    <clipPath
       clipPathUnits="userSpaceOnUse"
       id="clipPath5177">
      <circle
         r="128"
         cy="924.36218"
         cx="128"
         id="circle5179"
         style="fill:#4285f4;fill-opacity:1;stroke:none;stroke-width:10;stroke-linejoin:round;stroke-miterlimit:4;stroke-dasharray:none;stroke-opacity:0.25882353" />
    </clipPath>
    <clipPath
       id="clipPath4342"
       clipPathUnits="userSpaceOnUse">
      <circle
         r="128"
         cy="933.48718"
         cx="128"
         id="circle4344"
         style="fill:#4285f4;fill-opacity:1;stroke:none;stroke-width:10;stroke-linejoin:round;stroke-miterlimit:4;stroke-dasharray:none;stroke-opacity:0.25882353" />
    </clipPath>
    <clipPath
       clipPathUnits="userSpaceOnUse"
       id="clipPath4681">
      <circle
         r="128"
         cy="930.43964"
         cx="127.00293"
         id="circle4683"
         style="fill:#9d5fad;fill-opacity:1;stroke:none;stroke-width:10;stroke-linejoin:round;stroke-miterlimit:4;stroke-dasharray:none;stroke-opacity:0.25882353" />
    </clipPath>
    <clipPath
       id="clipPath4480"
       clipPathUnits="userSpaceOnUse">
      <circle
         r="128"
         cy="924.36218"
         cx="128"
         id="circle4482"
         style="fill:#df7618;fill-opacity:1;stroke:none;stroke-width:10;stroke-linejoin:round;stroke-miterlimit:4;stroke-dasharray:none;stroke-opacity:0.25882353" />
    </clipPath>
    <filter
       id="filter4301"
       inkscape:label="Drop Shadow"
       style="color-interpolation-filters:sRGB">
      <feFlood
         id="feFlood4303"
         result="flood"
         flood-color="rgb(0,0,0)"
         flood-opacity="0.498039" />
      <feComposite
         id="feComposite4305"
         result="composite1"
         operator="in"
         in2="SourceGraphic"
         in="flood" />
      <feGaussianBlur
         id="feGaussianBlur4307"
         result="blur"
         stdDeviation="3.7"
         in="composite1" />
      <feOffset
         id="feOffset4309"
         result="offset"
         dy="3.7"
         dx="3.8" />
      <feComposite
         id="feComposite4311"
         result="composite2"
         operator="over"
         in2="offset"
         in="SourceGraphic" />
    </filter>
    <clipPath
       clipPathUnits="userSpaceOnUse"
       id="clipPath5827">
      <circle
         r="128"
         cy="924.36218"
         cx="128"
         id="circle5829"
         style="fill:#df7618;fill-opacity:1;stroke:none;stroke-width:10;stroke-linejoin:round;stroke-miterlimit:4;stroke-dasharray:none;stroke-opacity:0.25882353" />
    </clipPath>
    <clipPath
       id="clipPath5688"
       clipPathUnits="userSpaceOnUse">
      <circle
         r="128"
         cy="923.87457"
         cx="126.04952"
         id="circle5690"
         style="fill:#ffeb4f;fill-opacity:1;stroke:none;stroke-width:10;stroke-linejoin:round;stroke-miterlimit:4;stroke-dasharray:none;stroke-opacity:0.25882353" />
    </clipPath>
    <clipPath
       id="clipPath5238"
       clipPathUnits="userSpaceOnUse">
      <path
         inkscape:connector-curvature="0"
         id="path5240"
         d="m 151.20117,796.60532 -105.78125,0 c -7.804357,0 -14.087891,6.28158 -14.087891,14.08594 l 0,227.33994 c 0,7.8043 6.283534,14.0878 14.087891,14.0878 l 165.16211,0 c 7.80436,0 14.08594,-6.2835 14.08594,-14.0878 l 0,-154.82237 -73.4668,-86.60351 z"
         style="fill:#df1818;fill-opacity:1" />
    </clipPath>
    <clipPath
       id="clipPath5740"
       clipPathUnits="userSpaceOnUse">
      <circle
         r="128"
         cy="923.87457"
         cx="126.04952"
         id="circle5742"
         style="fill:#ffeb4f;fill-opacity:1;stroke:none;stroke-width:10;stroke-linejoin:round;stroke-miterlimit:4;stroke-dasharray:none;stroke-opacity:0.25882353" />
    </clipPath>
    <clipPath
       id="clipPath5744"
       clipPathUnits="userSpaceOnUse">
      <circle
         r="99.950417"
         cy="962.41302"
         cx="128.12729"
         id="circle5746"
         style="fill:#ffeb4f;fill-opacity:1;stroke:none;stroke-width:10;stroke-linejoin:round;stroke-miterlimit:4;stroke-dasharray:none;stroke-opacity:0.25882353" />
    </clipPath>
    <clipPath
       clipPathUnits="userSpaceOnUse"
       id="clipPath4780">
      <circle
         r="128"
         cy="923.87457"
         cx="126.04952"
         id="circle4782"
         style="fill:#ea685c;fill-opacity:1;stroke:none;stroke-width:10;stroke-linejoin:round;stroke-miterlimit:4;stroke-dasharray:none;stroke-opacity:0.25882353" />
    </clipPath>
  </defs>
  <metadata
     id="metadata7">
    <rdf:RDF>
      <cc:Work
         rdf:about="">
        <dc:format>image/svg+xml</dc:format>
        <dc:type
           rdf:resource="http://purl.org/dc/dcmitype/StillImage" />
        <dc:title />
      </cc:Work>
    </rdf:RDF>
  </metadata>
  <g
     transform="translate(0,-796.36216)"
     id="layer1"
     inkscape:groupmode="layer"
     inkscape:label="Layer 1">
    <path
       inkscape:connector-curvature="0"
       id="path4913"
       d="M 154.47438,968.80998 101.03985,1048.476 0.4857685,1048.9618 0,842.0244 l 33.032258,-2.42884 45.176471,83.55218 21.373814,35.4611 26.717267,13.11575 z"
       style="fill:none;fill-rule:evenodd;stroke:none;stroke-width:1px;stroke-linecap:butt;stroke-linejoin:miter;stroke-opacity:1" />
    <circle
       style="fill:#d2383d;fill-opacity:1;stroke:none;stroke-width:10;stroke-linejoin:round;stroke-miterlimit:4;stroke-dasharray:none;stroke-opacity:0.25882353"
       id="path4152"
       cx="126.04952"
       cy="923.87457"
       r="128" />
    <text
       sodipodi:linespacing="125%"
       id="text4914"
       y="927.36218"
       x="120"
       style="font-style:normal;font-weight:normal;font-size:40px;line-height:125%;font-family:sans-serif;letter-spacing:0px;word-spacing:0px;fill:#000000;fill-opacity:1;stroke:none;stroke-width:1px;stroke-linecap:butt;stroke-linejoin:miter;stroke-opacity:1"
       xml:space="preserve"><tspan
         y="927.36218"
         x="120"
         id="tspan4916"
         sodipodi:role="line" /></text>
    <path
       style="fill:none;stroke:black;stroke-opacity:1;stroke-width:1px;stroke-linejoin:miter;stroke-linecap:butt;fill-rule:evenodd"
       d="m 90,171 c -0.02835,0.10164 -0.09512,0.18781 -0.142791,0.28195 -0.03402,0.0672 -0.06286,0.17517 0.01,0.19433 0.629137,0.16553 1.29252,0 1.943068,0 2e-6,0 4e-6,0 6e-6,0 2.428841,0 4.857683,0 7.286524,0 10e-7,0 2e-6,0 3e-6,0 5.667296,0 11.334596,0 17.001896,0 0,0 0,0 0,0 11.01075,0 22.02151,0 33.03226,0 3.40038,0 6.80076,0 10.20114,0 1.13346,0 2.26692,0 3.40038,0 0.64769,0 1.29538,0 1.94307,0 0,0 0,0 1e-5,0 0.16221,0 0.32574,0.0266 0.48575,0 0,0 1e-5,0 1e-5,0 0.8145,-0.13574 1.61434,-0.35002 2.42884,-0.48577 0,0 1e-5,0 1e-5,0 0.16001,-0.0266 0.32354,0 0.48576,0 0.64769,0 1.29539,0 1.94308,0 1.61923,0 3.23845,0 4.85768,0 1.94307,0 3.88615,0 5.82922,0 0.65029,0 1.31221,0.15772 1.94308,0 0.23053,-0.0576 0.26033,-0.41062 0.48575,-0.48577 10e-6,0 10e-6,0 10e-6,0 0.30935,-0.10312 0.64546,0 0.97153,0 1e-5,0 1e-5,0 1e-5,0 0.48771,0 0.98416,0.11829 1.45731,0 0.22811,-0.057 0.27547,-0.38062 0.48577,-0.48576 0.0332,-0.0166 0.073,-0.0132 0.11001,-0.0156 0,0 0,0 0,0 0.0743,-0.005 0.14882,-0.006 0.22329,-0.007 0.21191,-0.003 0.42387,-6e-4 0.63577,0.003 0.32448,0.005 0.64949,0.0204 0.974,0.0204 1.29538,0 2.59077,0 3.88615,0 0.33969,0 0.67926,0.0178 1.01889,0.024 1e-5,0 1e-5,0 1e-5,0 0.20078,0.004 0.40162,0.007 0.6024,0.003 0,0 10e-6,0 10e-6,0 0.10737,-0.002 0.22572,0.0211 0.32176,-0.027 0.20741,-0.1037 0.27836,-0.38207 0.48577,-0.48577 0.0501,-0.0251 0.11077,-0.0175 0.16675,-0.0206 0.1181,-0.006 0.23641,-0.008 0.35467,-0.01 0.34828,-0.004 0.6966,-6.9e-4 1.04487,0.003 0.61137,0.007 1.22268,0.0269 1.83409,0.0269 0.43027,0 0.86055,-0.006 1.29082,-0.008 0.26002,-0.001 0.52005,-0.002 0.78008,-0.001 0.0852,4.2e-4 0.17049,9e-4 0.25571,0.003 l 0,0 c 0,0 1e-5,0 1e-5,0 0.0244,5.9e-4 0.0489,0.001 0.0733,0.003 0.009,5.7e-4 0.0217,-0.003 0.0289,0.004 0.0602,0.0602 0.0251,0.16159 5e-5,0.24293 -0.0251,0.0813 -0.0602,0.1827 0,0.24289 0.0726,0.0726 0.19615,0.0134 0.2942,-0.0172 0.0707,-0.0221 0.20179,-0.0562 0.19157,0.0172 -0.054,0.38821 -0.41242,0.65005 -0.62239,0.98102"
       id="path4233"
       inkscape:path-effect="#path-effect4235"
       inkscape:original-d="m 90,171 c -0.04428,0.15876 -0.292221,0.43434 -0.132827,0.47628 0.626374,0.1648 1.295382,0 1.943074,0 2.428842,0 4.857685,0 7.286527,0 5.667296,0 11.334596,0 17.001896,0 11.01075,0 22.02151,0 33.03226,0 3.40038,0 6.80076,0 10.20114,0 1.13346,0 2.26692,0 3.40038,0 0.64769,0 1.29538,0 1.94307,0 0.16192,0 0.32605,0.0266 0.48577,0 0.81441,-0.13573 1.61443,-0.35003 2.42884,-0.48577 0.15972,-0.0266 0.32385,0 0.48577,0 0.64769,0 1.29538,0 1.94308,0 1.61922,0 3.23845,0 4.85768,0 1.94307,0 3.88615,0 5.82922,0 0.64769,0 1.31472,0.15709 1.94308,0 0.22215,-0.0555 0.26852,-0.41335 0.48576,-0.48577 0.30723,-0.10241 0.6477,0 0.97154,0 0.48577,0 0.98604,0.11782 1.45731,0 0.22215,-0.0555 0.28095,-0.38336 0.48577,-0.48576 0.10887,-0.0544 1.82764,0 1.94307,0 1.29538,0 2.59077,0 3.88615,0 0.25402,0 1.81534,0.0639 1.94307,0 0.20482,-0.10241 0.28095,-0.38336 0.48577,-0.48577 0.14338,-0.0717 2.89994,0 3.40038,0 0.22904,0 2.40683,-0.022 2.42884,0 0.1145,0.11449 -0.11449,0.37127 0,0.48577 0.1145,0.11449 0.50811,-0.16038 0.48577,0 -0.0534,0.38356 -0.41493,0.65401 -0.62239,0.98102" />
    <path
       inkscape:connector-curvature="0"
       id="path4301"
       d="m 101.83876,865.34815 c -1.997617,0.10567 -4.956217,0.95521 -10.252127,2.62478 -3.18131,1.00295 -7.37415,2.61808 -11.56454,4.41343 -4.19037,1.79535 -8.377415,3.77195 -11.553929,5.49297 -5.17341,2.80297 -7.954418,4.2523 -8.971507,4.50163 -0.508544,0.12463 -0.575377,-0.0524 -0.282234,-0.50802 0.293162,-0.45555 0.947312,-1.19035 1.883912,-2.18732 1.722429,-1.83343 2.780214,-3.16438 3.256281,-4.0077 0.238033,-0.42168 0.33169,-0.72308 0.289278,-0.90315 -0.04239,-0.18008 -0.220043,-0.23749 -0.522128,-0.1799 -1.208303,0.23025 -4.410955,2.34562 -8.943274,6.2197 -2.086651,1.78361 -3.891248,3.60779 -5.422408,5.49651 -1.531178,1.88871 -2.789769,3.83917 -3.788993,5.88104 -0.999225,2.04187 -1.738866,4.17422 -2.229655,6.4173 -0.49077,2.24307 -0.731477,4.59879 -0.73733,7.09111 -0.0045,1.87922 0.15377,2.91874 0.878456,3.37622 0.724668,0.45746 2.015428,0.33283 4.279366,-0.11994 1.421247,-0.28425 4.924972,-1.75275 9.426603,-3.89128 4.501631,-2.13853 10.001149,-4.94919 15.409956,-7.9096 10.817596,-5.92082 21.616636,-11.33761 24.000446,-12.0408 1.03656,-0.30577 1.82262,-0.52253 2.40251,-0.57151 0.57987,-0.049 0.956467,0.067 1.167727,0.42334 0.42255,0.71271 0.19534,2.38749 -0.32809,5.61293 -0.342637,2.11145 -1.250207,4.79404 -2.691787,8.00131 -1.44161,3.20728 -3.41898,6.93758 -5.8987,11.13765 -2.4797,4.20006 -5.46156,8.87018 -8.91858,13.95997 -3.45699,5.08982 -7.38861,10.59886 -11.762086,16.4754 -3.719884,4.99838 -7.101847,9.95782 -9.553604,13.92117 -2.451756,3.96336 -3.97244,6.92984 -3.97244,7.94489 0,1.43654 0.321773,3.05285 0.860808,4.66743 0.539053,1.61457 1.296541,3.22971 2.159101,4.6639 0.862542,1.4342 1.830644,2.68895 2.801166,3.58438 0.970504,0.89544 1.941749,1.43051 2.804689,1.4288 0.48322,0 1.250173,-0.4804 2.264931,-1.40059 1.014759,-0.92018 2.277666,-2.28023 3.750176,-4.0324 2.944999,-3.50438 6.730469,-8.58449 11.063559,-14.88783 6.59504,-9.59378 13.35985,-18.75404 19.823377,-26.97447 6.46354,-8.22044 12.6285,-15.49937 18.01709,-21.32628 5.38859,-5.82691 10.00059,-10.20262 13.37081,-12.61585 1.68511,-1.20661 3.06053,-1.92309 4.06417,-2.08499 0.50182,-0.0809 0.91133,-0.0242 1.22065,0.17991 0.30935,0.20413 0.51883,0.55673 0.62092,1.0619 0.24347,1.20445 -0.1595,3.06853 -1.27004,5.69406 -1.11057,2.62552 -2.9281,6.01191 -5.51061,10.25213 -5.16503,8.48046 -13.39354,20.38449 -25.15407,36.48575 -3.24906,4.44828 -5.58528,8.07078 -7.10877,11.07062 -1.523477,2.99983 -2.233167,5.3746 -2.233167,7.32395 0,1.8656 0.18503,3.72776 0.50802,5.47181 0.32298,1.74407 0.782647,3.37008 1.337087,4.7627 0.55442,1.39261 1.20366,2.55437 1.89802,3.36563 0.69434,0.81126 1.43398,1.27358 2.17671,1.27358 0.65939,0 2.83803,-1.92013 5.81755,-5.01317 2.97952,-3.09306 6.76131,-7.35845 10.62257,-12.05139 6.87481,-8.35556 18.57135,-20.98421 29.57808,-32.24166 5.50337,-5.62872 10.8361,-10.91364 15.30411,-15.15241 4.46803,-4.23876 8.07132,-7.43065 10.12513,-8.86918 1.90548,-1.33466 3.22877,-2.0887 3.97598,-2.28611 0.3736,-0.0988 0.60322,-0.0596 0.69147,0.11633 0.0883,0.17593 0.0356,0.49073 -0.15877,0.9349 -0.7771,1.77671 -3.80406,5.67238 -8.98915,11.48338 -5.45249,6.11075 -10.08484,11.91383 -13.88236,17.37855 -3.79752,5.46469 -6.76,10.59045 -8.87626,15.34996 -1.05811,2.37978 -1.90369,4.66944 -2.53656,6.86181 -0.63287,2.19238 -1.05515,4.28916 -1.25948,6.28676 -0.20433,1.9976 -0.19221,3.89511 0.0352,5.69053 0.2275,1.79542 0.67094,3.48729 1.33355,5.07316 1.18809,2.84347 2.59373,5.06708 4.25467,6.67482 0.83048,0.80386 1.72615,1.45366 2.68827,1.95095 0.96215,0.49727 1.99125,0.84142 3.09399,1.03367 2.2055,0.3845 4.70334,0.15949 7.52506,-0.66678 2.82172,-0.82622 5.96991,-2.2549 9.47953,-4.27936 2.97025,-1.71337 6.13774,-3.77832 9.24668,-5.98336 3.10894,-2.20503 6.15722,-4.54937 8.88682,-6.81594 2.7296,-2.26656 5.13897,-4.45586 6.97118,-6.35377 1.8322,-1.89793 3.08646,-3.50481 3.50322,-4.60394 0.45804,-1.20802 0.72693,-2.08727 0.64209,-2.58597 -0.0849,-0.4987 -0.52186,-0.61603 -1.47468,-0.29636 -1.90564,0.6394 -5.87331,3.02461 -13.20147,7.5921 -3.58638,2.23529 -7.37834,4.26667 -10.59788,5.73992 -3.21954,1.47326 -5.86676,2.38841 -7.16521,2.38841 -1.07747,0 -1.90953,-0.0414 -2.55421,-0.20462 -0.64469,-0.16329 -1.10092,-0.44751 -1.42175,-0.94197 -0.64167,-0.98889 -0.7444,-2.81046 -0.7444,-6.13152 0,-1.62164 0.1916,-3.37242 0.57506,-5.246 0.38347,-1.8736 0.95865,-3.87064 1.71809,-5.98336 1.51891,-4.22546 3.78153,-8.91493 6.7595,-14.01995 2.97797,-5.10503 6.67229,-10.62514 11.04945,-16.50716 4.37716,-5.882 9.43943,-12.12745 15.15594,-18.68386 3.59573,-4.12401 6.30906,-7.29205 8.23417,-9.83936 1.92512,-2.54731 3.05886,-4.47297 3.48912,-6.1139 0.21513,-0.82045 0.25615,-1.57006 0.13059,-2.28962 -0.12554,-0.71954 -0.41639,-1.40727 -0.86081,-2.10968 -0.88882,-1.40485 -2.39184,-2.86012 -4.42401,-4.6992 -1.08094,-0.97824 -2.24127,-1.66535 -3.30567,-2.00738 -1.06437,-0.34204 -2.03482,-0.33916 -2.73413,0.067 -3.90414,2.26769 -10.56045,7.40377 -18.45102,14.11872 -7.89058,6.71496 -17.01483,15.0094 -25.85966,23.59121 l -20.37374,19.76694 11.80795,-20.67009 c 6.43313,-11.26205 10.0387,-17.90865 11.82912,-22.56458 0.89521,-2.32797 1.33631,-4.15872 1.44998,-5.82107 0.11362,-1.66234 -0.0999,-3.15455 -0.51508,-4.80854 -0.38174,-1.52101 -0.943,-2.73979 -1.68634,-3.65493 -0.74336,-0.91514 -1.66757,-1.52722 -2.76943,-1.83805 -1.10184,-0.31083 -2.38115,-0.32017 -3.83838,-0.0282 -1.45723,0.29195 -3.09433,0.8849 -4.9038,1.77808 -3.61897,1.78635 -7.93823,4.77534 -12.94747,8.95738 -5.00924,4.18206 -10.70763,9.55718 -17.08219,16.12261 l -17.74896,18.28168 5.55647,-11.74092 c 3.05558,-6.45725 6.05743,-14.39781 6.66778,-17.64313 0.30708,-1.63284 0.36122,-3.37718 0.19755,-5.14724 -0.16365,-1.77004 -0.54736,-3.56476 -1.12187,-5.29188 -0.57453,-1.72713 -1.3395,-3.38915 -2.26493,-4.89322 -0.92544,-1.50407 -2.01162,-2.85041 -3.22805,-3.95127 -0.72525,-0.65635 -1.34553,-1.14266 -2.0356,-1.45351 -0.69008,-0.31084 -1.44957,-0.44444 -2.44838,-0.3916 z"
       style="fill:#ffffff;fill-opacity:1" />
  </g>
</svg>
