<?xml version="1.0" encoding="UTF-8" standalone="no"?>
<!-- Created with Inkscape (http://www.inkscape.org/) -->

<svg
   xmlns:dc="http://purl.org/dc/elements/1.1/"
   xmlns:cc="http://creativecommons.org/ns#"
   xmlns:rdf="http://www.w3.org/1999/02/22-rdf-syntax-ns#"
   xmlns:svg="http://www.w3.org/2000/svg"
   xmlns="http://www.w3.org/2000/svg"
   xmlns:sodipodi="http://sodipodi.sourceforge.net/DTD/sodipodi-0.dtd"
   xmlns:inkscape="http://www.inkscape.org/namespaces/inkscape"
   sodipodi:docname="picard.svg"
   inkscape:version="0.91 r13725"
   version="1.1"
   id="svg2"
   viewBox="0 0 256 256"
   height="256"
   width="256">
  <sodipodi:namedview
     inkscape:window-maximized="1"
     inkscape:window-y="27"
     inkscape:window-x="0"
     inkscape:window-height="836"
     inkscape:window-width="1600"
     units="px"
     showgrid="true"
     inkscape:current-layer="layer1"
     inkscape:document-units="px"
     inkscape:cy="128"
     inkscape:cx="68.337692"
     inkscape:zoom="3.2851562"
     inkscape:pageshadow="2"
     inkscape:pageopacity="0.0"
     borderopacity="1.0"
     bordercolor="#666666"
     pagecolor="#ffffff"
     id="base">
    <inkscape:grid
       spacingy="5"
       spacingx="5"
       id="grid4168"
       type="xygrid" />
  </sodipodi:namedview>
  <defs
     id="defs4">
    <clipPath
       id="clipPath5002"
       clipPathUnits="userSpaceOnUse">
      <g
         id="g5004">
        <path
           style="fill:#0f9d58;fill-opacity:1;stroke:none;stroke-width:4.85768509;stroke-linejoin:round;stroke-miterlimit:4;stroke-dasharray:none;stroke-opacity:1"
           d="M 88.118406,249.43519 C 46.103287,235.29134 14.771284,201.68742 4.1335861,159.36053 1.3377997,148.23623 0.92261224,144.16281 0.92582381,127.88908 0.92787958,117.47222 1.134384,112.01362 1.6577819,108.54099 4.4653598,89.913336 12.17654,70.638106 23.042737,55.086148 c 3.958678,-5.665755 8.344812,-10.93092 9.101533,-10.925587 0.32809,0.0023 10.488643,18.309713 22.579009,40.683112 12.090365,22.373397 22.374546,41.334697 22.853732,42.136217 0.479186,0.80151 0.924733,2.44098 0.990103,3.64326 0.343424,6.31639 2.524175,14.20976 5.6424,20.42304 2.954444,5.88693 5.065381,8.73258 10.434696,14.06652 6.71418,6.66995 12.88853,10.28643 21.73204,12.72904 3.16587,0.87442 5.10478,1.05037 11.57517,1.05037 8.82596,0 12.60219,-0.76201 19.26429,-3.88733 2.04584,-0.95974 3.93661,-1.66536 4.20172,-1.56805 0.2651,0.0973 -11.0555,17.66459 -25.1569,39.0384 l -25.6389,38.86148 -3.094121,0.11221 c -2.554618,0.0927 -4.195204,-0.25845 -9.409103,-2.01364 z"
           id="path5006"
           inkscape:connector-curvature="0"
           transform="translate(0,796.36216)" />
        <path
           style="fill:#f4b400;fill-opacity:1;stroke:none;stroke-width:4.85768509;stroke-linejoin:round;stroke-miterlimit:4;stroke-dasharray:none;stroke-opacity:1"
           d="m 112.35984,1051.5167 c -10.0014,-1.4495 -12.15632,-1.8201 -12.531784,-2.1556 -0.248854,-0.2223 1.738304,-3.7475 4.550294,-8.0722 7.16635,-11.0213 49.77231,-74.64801 50.25856,-75.05489 3.57509,-2.99158 8.63523,-8.0414 10.57512,-10.55356 3.36154,-4.35318 7.55784,-12.9141 9.06523,-18.494 6.19314,-22.92535 -2.59253,-47.15185 -21.69967,-59.83688 l -2.96081,-1.96565 17.02469,0.29584 c 9.36358,0.1627 31.17032,0.43384 48.45941,0.60252 l 31.43471,0.30668 1.54584,4.18869 c 2.24597,6.08579 4.67816,15.0947 5.93451,21.9816 1.52517,8.36049 1.92536,28.85896 0.73851,37.82758 -3.0805,23.27845 -12.81326,45.72018 -27.80202,64.10577 -20.47622,25.1166 -51.4599,42.1974 -84.14612,46.3885 -5.31244,0.6812 -26.64601,0.9864 -30.44647,0.4356 z"
           id="path5008"
           inkscape:connector-curvature="0" />
        <path
           style="fill:#db4437;fill-opacity:1;stroke:none;stroke-width:10;stroke-linejoin:round;stroke-miterlimit:4;stroke-dasharray:none;stroke-opacity:1"
           d="M 67.989788,108.87302 C 41.284246,59.575543 33.290284,45.149038 32.233625,44.344765 31.651257,43.901497 32.811213,42.549931 38.695603,36.815353 53.43581,22.450419 68.809334,13.040746 87.839196,6.7360352 101.68742,2.1480329 112.58238,0.43719165 127.95142,0.43719165 c 21.3099,0 37.80488,3.80960275 56.83492,13.12633035 25.29351,12.383198 46.19421,33.578863 58.51993,59.345832 1.61138,3.368591 2.92978,6.372442 2.92978,6.675231 0,0.560033 -10.54865,0.49527 -71.16508,-0.436914 l -24.28843,-0.373518 -3.93063,-1.764495 c -6.75732,-3.033425 -10.64587,-3.839529 -18.6576,-3.867747 -5.0296,-0.01773 -7.97946,0.207636 -10.31642,0.788106 -14.50826,3.603659 -26.283291,12.94777 -33.291614,26.418653 -3.58502,6.89086 -5.24713,13.08166 -6.331628,23.58317 l -0.33738,3.26696 -9.92748,-18.32578 z"
           id="path5010"
           inkscape:connector-curvature="0"
           transform="translate(0,796.36216)" />
      </g>
    </clipPath>
    <clipPath
       clipPathUnits="userSpaceOnUse"
       id="clipPath4271">
      <circle
         style="fill:#292929;fill-opacity:0.26020412;stroke:none;stroke-width:10;stroke-linejoin:round;stroke-miterlimit:4;stroke-dasharray:none;stroke-opacity:0.25882353"
         id="circle4273"
         cx="128"
         cy="128.00002"
         r="128" />
    </clipPath>
    <clipPath
       id="clipPath4363"
       clipPathUnits="userSpaceOnUse">
      <circle
         style="fill:#4285f4;fill-opacity:1;stroke:none;stroke-width:10;stroke-linejoin:round;stroke-miterlimit:4;stroke-dasharray:none;stroke-opacity:0.25882353"
         id="circle4365"
         cx="128"
         cy="924.36218"
         r="128" />
    </clipPath>
    <clipPath
       clipPathUnits="userSpaceOnUse"
       id="clipPath4452">
      <circle
         style="fill:#4285f4;fill-opacity:1;stroke:none;stroke-width:10;stroke-linejoin:round;stroke-miterlimit:4;stroke-dasharray:none;stroke-opacity:0.25882353"
         id="circle4454"
         cx="128"
         cy="924.36218"
         r="128" />
    </clipPath>
    <clipPath
       id="clipPath4954"
       clipPathUnits="userSpaceOnUse">
      <circle
         style="fill:#f16529;fill-opacity:1;stroke:none;stroke-width:10;stroke-linejoin:round;stroke-miterlimit:4;stroke-dasharray:none;stroke-opacity:0.25882353"
         id="circle4956"
         cx="128"
         cy="924.36218"
         r="128" />
    </clipPath>
    <clipPath
       clipPathUnits="userSpaceOnUse"
       id="clipPath5071">
      <circle
         style="fill:#0f9d58;fill-opacity:1;stroke:none;stroke-width:10;stroke-linejoin:round;stroke-miterlimit:4;stroke-dasharray:none;stroke-opacity:0.25882353"
         id="circle5073"
         cx="132.21979"
         cy="933.98254"
         r="99.306747" />
    </clipPath>
    <clipPath
       id="clipPath6641"
       clipPathUnits="userSpaceOnUse">
      <circle
         style="fill:#62d1f9;fill-opacity:1;stroke:none;stroke-width:10;stroke-linejoin:round;stroke-miterlimit:4;stroke-dasharray:none;stroke-opacity:0.25882353"
         id="circle6643"
         cx="128.0004"
         cy="918.68585"
         r="128" />
    </clipPath>
    <clipPath
       clipPathUnits="userSpaceOnUse"
       id="clipPath7343">
      <circle
         style="fill:#62d1f9;fill-opacity:1;stroke:none;stroke-width:10;stroke-linejoin:round;stroke-miterlimit:4;stroke-dasharray:none;stroke-opacity:0.25882353"
         id="circle7345"
         cx="126.88464"
         cy="924.20221"
         r="128" />
    </clipPath>
    <clipPath
       id="clipPath5934"
       clipPathUnits="userSpaceOnUse">
      <circle
         style="fill:#62d1f9;fill-opacity:1;stroke:none;stroke-width:10;stroke-linejoin:round;stroke-miterlimit:4;stroke-dasharray:none;stroke-opacity:0.25882353"
         id="circle5936"
         cx="128"
         cy="924.36218"
         r="128" />
    </clipPath>
    <clipPath
       clipPathUnits="userSpaceOnUse"
       id="clipPath4749">
      <circle
         style="fill:#13cc72;fill-opacity:1;stroke:none;stroke-width:10;stroke-linejoin:round;stroke-miterlimit:4;stroke-dasharray:none;stroke-opacity:0.25882353"
         id="circle4751"
         cx="128"
         cy="128.00002"
         r="128" />
    </clipPath>
  </defs>
  <metadata
     id="metadata7">
    <rdf:RDF>
      <cc:Work
         rdf:about="">
        <dc:format>image/svg+xml</dc:format>
        <dc:type
           rdf:resource="http://purl.org/dc/dcmitype/StillImage" />
        <dc:title />
      </cc:Work>
    </rdf:RDF>
  </metadata>
  <g
     inkscape:label="Layer 1"
     inkscape:groupmode="layer"
     id="layer1"
     transform="translate(0,-796.36216)">
    <path
       style="fill:none;fill-rule:evenodd;stroke:none;stroke-width:1px;stroke-linecap:butt;stroke-linejoin:miter;stroke-opacity:1"
       d="M 154.47438,968.80998 101.03985,1048.476 0.4857685,1048.9618 0,842.0244 l 33.032258,-2.42884 45.176471,83.55218 21.373814,35.4611 26.717267,13.11575 z"
       id="path4913"
       inkscape:connector-curvature="0" />
    <circle
       r="128"
       cy="924.36218"
       cx="128"
       id="path4152"
       style="fill:#51eba0;fill-opacity:1;stroke:none;stroke-width:10;stroke-linejoin:round;stroke-miterlimit:4;stroke-dasharray:none;stroke-opacity:0.25882353" />
    <path
       inkscape:connector-curvature="0"
       style="fill:#ffa954;fill-opacity:1;stroke:none;stroke-width:10.5;stroke-linecap:round;stroke-linejoin:round;stroke-miterlimit:4;stroke-dasharray:none;stroke-opacity:1"
       d="m 76.391944,876.13068 c -7.453238,2.23082 -11.659296,10.02729 -9.428487,17.48052 l 30.270587,101.13541 c 2.230817,7.45329 10.028586,11.65689 17.481826,9.42599 l 68.89243,-20.61996 c 7.45324,-2.23081 11.65743,-10.02671 9.42662,-17.47996 l -30.27059,-101.1354 c -2.23081,-7.45324 -10.02671,-11.65743 -17.47995,-9.42661 l -68.892436,20.62001 z m 36.178036,-4.52051 a 7.5,7.5 0 0 1 9.33561,5.03453 7.5,7.5 0 0 1 -5.03452,9.3356 7.5,7.5 0 0 1 -9.33561,-5.03452 7.5,7.5 0 0 1 5.03452,-9.33561 z"
       id="path4355" />
    <g
       id="g4474">
      <path
         style="fill:#5b59a3;fill-opacity:1;stroke:none;stroke-width:10.5;stroke-linecap:round;stroke-linejoin:round;stroke-miterlimit:4;stroke-dasharray:none;stroke-opacity:1"
         d="M 84.912109 66.957031 C 77.132182 66.957031 70.867188 73.220073 70.867188 81 L 70.867188 186.56836 C 70.867188 194.34829 77.132182 200.61133 84.912109 200.61133 L 156.82422 200.61133 C 164.60415 200.61133 170.86719 194.34829 170.86719 186.56836 L 170.86719 81 C 170.86719 73.220073 164.60415 66.957031 156.82422 66.957031 L 84.912109 66.957031 z M 120.86719 73 A 7.5 7.5 0 0 1 128.36719 80.5 A 7.5 7.5 0 0 1 120.86719 88 A 7.5 7.5 0 0 1 113.36719 80.5 A 7.5 7.5 0 0 1 120.86719 73 z "
         transform="translate(0,796.36216)"
         id="rect4337" />
      <circle
         style="fill:none;fill-opacity:1;stroke:#000000;stroke-width:3.1;stroke-linecap:round;stroke-linejoin:round;stroke-miterlimit:4;stroke-dasharray:none;stroke-opacity:1"
         id="path4339"
         cx="120.86801"
         cy="876.86218"
         r="7.5" />
    </g>
    <g
       transform="matrix(1.4964548,0,0,1.6127746,-68.819237,-575.74844)"
       style="fill:#ffffff;fill-opacity:1;stroke:none;stroke-opacity:1"
       id="g4453">
      <rect
         style="fill:#ffffff;fill-opacity:1;stroke:none;stroke-width:3.0999999;stroke-linecap:round;stroke-linejoin:round;stroke-miterlimit:4;stroke-dasharray:none;stroke-opacity:1"
         id="rect4434"
         width="63.197922"
         height="14.871428"
         x="-115.84389"
         y="912.41852"
         transform="matrix(0.94673842,-0.32200367,0.26194686,0.9650823,0,0)" />
      <g
         style="fill:#ffffff;fill-opacity:1;stroke:none;stroke-opacity:1"
         id="g4443"
         transform="matrix(1.1521998,0,0,1,37.288942,-19.785969)">
        <rect
           y="917.0578"
           x="129.6956"
           height="50"
           width="5"
           id="rect4436"
           style="fill:#ffffff;fill-opacity:1;stroke:none;stroke-width:3.0999999;stroke-linecap:round;stroke-linejoin:round;stroke-miterlimit:4;stroke-dasharray:none;stroke-opacity:1" />
        <ellipse
           ry="5"
           rx="10"
           cy="967.36218"
           cx="125"
           id="path4441"
           style="fill:#ffffff;fill-opacity:1;stroke:none;stroke-width:3.0999999;stroke-linecap:round;stroke-linejoin:round;stroke-miterlimit:4;stroke-dasharray:none;stroke-opacity:1" />
      </g>
      <g
         style="fill:#ffffff;fill-opacity:1;stroke:none;stroke-opacity:1"
         transform="matrix(1.1369798,0,0,1,-17.883472,3.6872962e-8)"
         id="g4447">
        <rect
           style="fill:#ffffff;fill-opacity:1;stroke:none;stroke-width:3.0999999;stroke-linecap:round;stroke-linejoin:round;stroke-miterlimit:4;stroke-dasharray:none;stroke-opacity:1"
           id="rect4449"
           width="5"
           height="50"
           x="129.6956"
           y="917.0578" />
        <ellipse
           style="fill:#ffffff;fill-opacity:1;stroke:none;stroke-width:3.0999999;stroke-linecap:round;stroke-linejoin:round;stroke-miterlimit:4;stroke-dasharray:none;stroke-opacity:1"
           id="ellipse4451"
           cx="125"
           cy="967.36218"
           rx="10"
           ry="5" />
      </g>
    </g>
    <path
       id="path4478"
       d="m 76.391944,876.13068 c -7.453238,2.23082 -11.659296,10.02729 -9.428487,17.48052 l 30.270587,101.13541 c 2.230817,7.45329 10.028586,11.65689 17.481826,9.42599 l 68.89243,-20.61996 c 7.45324,-2.23081 11.65743,-10.02671 9.42662,-17.47996 l -30.27059,-101.1354 c -2.23081,-7.45324 -10.02671,-11.65743 -17.47995,-9.42661 l -68.892436,20.62001 z m 36.178036,-4.52051 a 7.5,7.5 0 0 1 9.33561,5.03453 7.5,7.5 0 0 1 -5.03452,9.3356 7.5,7.5 0 0 1 -9.33561,-5.03452 7.5,7.5 0 0 1 5.03452,-9.33561 z"
       style="fill:#ffa954;fill-opacity:1;stroke:none;stroke-width:10.5;stroke-linecap:round;stroke-linejoin:round;stroke-miterlimit:4;stroke-dasharray:none;stroke-opacity:1"
       inkscape:connector-curvature="0" />
    <g
       id="g4480">
      <path
         id="path4482"
         transform="translate(0,796.36216)"
         d="M 84.912109 66.957031 C 77.132182 66.957031 70.867188 73.220073 70.867188 81 L 70.867188 186.56836 C 70.867188 194.34829 77.132182 200.61133 84.912109 200.61133 L 156.82422 200.61133 C 164.60415 200.61133 170.86719 194.34829 170.86719 186.56836 L 170.86719 81 C 170.86719 73.220073 164.60415 66.957031 156.82422 66.957031 L 84.912109 66.957031 z M 120.86719 73 A 7.5 7.5 0 0 1 128.36719 80.5 A 7.5 7.5 0 0 1 120.86719 88 A 7.5 7.5 0 0 1 113.36719 80.5 A 7.5 7.5 0 0 1 120.86719 73 z "
         style="fill:#5b59a3;fill-opacity:1;stroke:none;stroke-width:10.5;stroke-linecap:round;stroke-linejoin:round;stroke-miterlimit:4;stroke-dasharray:none;stroke-opacity:1" />
      <circle
         r="7.5"
         cy="876.86218"
         cx="120.86801"
         id="circle4484"
         style="fill:none;fill-opacity:1;stroke:#000000;stroke-width:3.1;stroke-linecap:round;stroke-linejoin:round;stroke-miterlimit:4;stroke-dasharray:none;stroke-opacity:1" />
    </g>
    <g
       id="g4486"
       style="fill:#ffffff;fill-opacity:1;stroke:none;stroke-opacity:1"
       transform="matrix(1.4964548,0,0,1.6127746,-68.819237,-575.74844)">
      <rect
         transform="matrix(0.94673842,-0.32200367,0.26194686,0.9650823,0,0)"
         y="912.41852"
         x="-115.84389"
         height="14.871428"
         width="63.197922"
         id="rect4488"
         style="fill:#ffffff;fill-opacity:1;stroke:none;stroke-width:3.0999999;stroke-linecap:round;stroke-linejoin:round;stroke-miterlimit:4;stroke-dasharray:none;stroke-opacity:1" />
      <g
         transform="matrix(1.1521998,0,0,1,37.288942,-19.785969)"
         id="g4490"
         style="fill:#ffffff;fill-opacity:1;stroke:none;stroke-opacity:1">
        <rect
           style="fill:#ffffff;fill-opacity:1;stroke:none;stroke-width:3.0999999;stroke-linecap:round;stroke-linejoin:round;stroke-miterlimit:4;stroke-dasharray:none;stroke-opacity:1"
           id="rect4492"
           width="5"
           height="50"
           x="129.6956"
           y="917.0578" />
        <ellipse
           style="fill:#ffffff;fill-opacity:1;stroke:none;stroke-width:3.0999999;stroke-linecap:round;stroke-linejoin:round;stroke-miterlimit:4;stroke-dasharray:none;stroke-opacity:1"
           id="ellipse4494"
           cx="125"
           cy="967.36218"
           rx="10"
           ry="5" />
      </g>
      <g
         id="g4496"
         transform="matrix(1.1369798,0,0,1,-17.883472,3.6872962e-8)"
         style="fill:#ffffff;fill-opacity:1;stroke:none;stroke-opacity:1">
        <rect
           y="917.0578"
           x="129.6956"
           height="50"
           width="5"
           id="rect4498"
           style="fill:#ffffff;fill-opacity:1;stroke:none;stroke-width:3.0999999;stroke-linecap:round;stroke-linejoin:round;stroke-miterlimit:4;stroke-dasharray:none;stroke-opacity:1" />
        <ellipse
           ry="5"
           rx="10"
           cy="967.36218"
           cx="125"
           id="ellipse4500"
           style="fill:#ffffff;fill-opacity:1;stroke:none;stroke-width:3.0999999;stroke-linecap:round;stroke-linejoin:round;stroke-miterlimit:4;stroke-dasharray:none;stroke-opacity:1" />
      </g>
    </g>
    <g
       id="g4504">
      <path
         id="circle4508"
         d="m 128.36801,876.86218 a 7.5,7.5 0 0 1 -7.5,7.5 7.5,7.5 0 0 1 -7.5,-7.5 7.5,7.5 0 0 1 7.5,-7.5 7.5,7.5 0 0 1 7.5,7.5 z"
         style="fill:none;fill-opacity:1;stroke:#000000;stroke-width:3.0999999;stroke-linecap:round;stroke-linejoin:round;stroke-miterlimit:4;stroke-dasharray:none;stroke-opacity:1" />
    </g>
    <g
       transform="matrix(1.4964548,0,0,1.6127746,-68.819237,-575.74844)"
       style="fill:#ffffff;fill-opacity:1;stroke:none;stroke-opacity:1"
       id="g4510">
      <path
         id="rect4512"
         d="m -115.84389,912.41852 63.197924,0 0,14.87143 -63.197924,0 z"
         style="fill:#ffffff;fill-opacity:1;stroke:none;stroke-width:3.0999999;stroke-linecap:round;stroke-linejoin:round;stroke-miterlimit:4;stroke-dasharray:none;stroke-opacity:1"
         transform="matrix(0.94673842,-0.32200367,0.26194686,0.9650823,0,0)" />
      <g
         style="fill:#ffffff;fill-opacity:1;stroke:none;stroke-opacity:1"
         id="g4514"
         transform="matrix(1.1521998,0,0,1,37.288942,-19.785969)" />
      <g
         style="fill:#ffffff;fill-opacity:1;stroke:none;stroke-opacity:1"
         transform="matrix(1.1369798,0,0,1,-17.883472,3.6872962e-8)"
         id="g4520">
        <path
           id="rect4522"
           d="m 129.6956,917.0578 5,0 0,50 -5,0 z"
           style="fill:#ffffff;fill-opacity:1;stroke:none;stroke-width:3.0999999;stroke-linecap:round;stroke-linejoin:round;stroke-miterlimit:4;stroke-dasharray:none;stroke-opacity:1" />
        <path
           id="ellipse4524"
           d="m 135,967.36218 a 10,5 0 0 1 -10,5 10,5 0 0 1 -10,-5 10,5 0 0 1 10,-5 10,5 0 0 1 10,5 z"
           style="fill:#ffffff;fill-opacity:1;stroke:none;stroke-width:3.0999999;stroke-linecap:round;stroke-linejoin:round;stroke-miterlimit:4;stroke-dasharray:none;stroke-opacity:1" />
      </g>
    </g>
  </g>
</svg>
