<?xml version="1.0" encoding="UTF-8" standalone="no"?>
<!-- Created with Inkscape (http://www.inkscape.org/) -->

<svg
   xmlns:dc="http://purl.org/dc/elements/1.1/"
   xmlns:cc="http://creativecommons.org/ns#"
   xmlns:rdf="http://www.w3.org/1999/02/22-rdf-syntax-ns#"
   xmlns:svg="http://www.w3.org/2000/svg"
   xmlns="http://www.w3.org/2000/svg"
   xmlns:sodipodi="http://sodipodi.sourceforge.net/DTD/sodipodi-0.dtd"
   xmlns:inkscape="http://www.inkscape.org/namespaces/inkscape"
   width="256"
   height="256"
   viewBox="0 0 256 256"
   id="svg4149"
   version="1.1"
   inkscape:version="0.91 r13725"
   sodipodi:docname="popcorntime.svg">
  <sodipodi:namedview
     id="base"
     pagecolor="#ffffff"
     bordercolor="#666666"
     borderopacity="1.0"
     inkscape:pageopacity="0.0"
     inkscape:pageshadow="2"
     inkscape:zoom="3.2851562"
     inkscape:cx="16.894172"
     inkscape:cy="128"
     inkscape:document-units="px"
     inkscape:current-layer="layer1"
     showgrid="true"
     units="px"
     inkscape:window-width="1600"
     inkscape:window-height="836"
     inkscape:window-x="0"
     inkscape:window-y="27"
     inkscape:window-maximized="1">
    <inkscape:grid
       spacingy="5"
       spacingx="5"
       id="grid4250"
       type="xygrid" />
  </sodipodi:namedview>
  <defs
     id="defs4151">
    <clipPath
       id="clipPath4863"
       clipPathUnits="userSpaceOnUse">
      <circle
         r="77.263145"
         cy="924.36218"
         cx="128"
         id="circle4865"
         style="fill:#e9e9e9;fill-opacity:1;stroke:none;stroke-width:20;stroke-miterlimit:4;stroke-dasharray:none;stroke-opacity:1" />
    </clipPath>
    <clipPath
       clipPathUnits="userSpaceOnUse"
       id="clipPath4227">
      <circle
         r="77.263145"
         cy="924.36218"
         cx="128"
         id="circle4229"
         style="fill:#e9e9e9;fill-opacity:1;stroke:none;stroke-width:20;stroke-miterlimit:4;stroke-dasharray:none;stroke-opacity:1" />
    </clipPath>
    <clipPath
       id="clipPath5543"
       clipPathUnits="userSpaceOnUse">
      <circle
         r="128"
         cy="924.36218"
         cx="128"
         id="circle5545"
         style="fill:#9e9fe9;fill-opacity:1;stroke:none;stroke-width:20;stroke-miterlimit:4;stroke-dasharray:none;stroke-opacity:1" />
    </clipPath>
    <clipPath
       clipPathUnits="userSpaceOnUse"
       id="clipPath6248">
      <circle
         r="128"
         cy="924.36218"
         cx="128"
         id="circle6250"
         style="fill:#77c445;fill-opacity:1;stroke:none;stroke-width:20;stroke-miterlimit:4;stroke-dasharray:none;stroke-opacity:1" />
    </clipPath>
    <clipPath
       clipPathUnits="userSpaceOnUse"
       id="clipPath4624">
      <path
         style="fill:#0f9d58;fill-opacity:1"
         d="m 151.20117,0.24318 -105.78125,0 c -7.804357,0 -14.087891,6.28158 -14.087891,14.08594 l 0,227.33994 c 0,7.8043 6.283534,14.0878 14.087891,14.0878 l 165.16211,0 c 7.80436,0 14.08594,-6.2835 14.08594,-14.0878 l 0,-154.82237 -73.4668,-86.60351 z"
         id="path4626"
         inkscape:connector-curvature="0" />
    </clipPath>
    <clipPath
       clipPathUnits="userSpaceOnUse"
       id="clipPath6409">
      <circle
         r="128"
         cy="924.36218"
         cx="128"
         id="circle6411"
         style="fill:#77c445;fill-opacity:1;stroke:none;stroke-width:20;stroke-miterlimit:4;stroke-dasharray:none;stroke-opacity:1" />
    </clipPath>
    <clipPath
       id="clipPath4544"
       clipPathUnits="userSpaceOnUse">
      <circle
         r="128"
         cy="128.00002"
         cx="128"
         id="circle4546"
         style="fill:#0f9d97;fill-opacity:1;stroke:none;stroke-width:20;stroke-miterlimit:4;stroke-dasharray:none;stroke-opacity:1" />
    </clipPath>
    <clipPath
       clipPathUnits="userSpaceOnUse"
       id="clipPath4250">
      <circle
         r="128"
         cy="924.36218"
         cx="128"
         id="circle4252"
         style="fill:#b70a01;fill-opacity:1;stroke:none;stroke-width:20;stroke-miterlimit:4;stroke-dasharray:none;stroke-opacity:1" />
    </clipPath>
    <clipPath
       id="clipPath4241"
       clipPathUnits="userSpaceOnUse">
      <circle
         r="128"
         cy="924.36218"
         cx="128"
         id="circle4243"
         style="fill:#01a3d2;fill-opacity:1;stroke:none;stroke-width:20;stroke-miterlimit:4;stroke-dasharray:none;stroke-opacity:1" />
    </clipPath>
    <clipPath
       clipPathUnits="userSpaceOnUse"
       id="clipPath4247">
      <circle
         r="128"
         cy="924.36218"
         cx="128"
         id="circle4249"
         style="fill:#01a3d2;fill-opacity:1;stroke:none;stroke-width:20;stroke-miterlimit:4;stroke-dasharray:none;stroke-opacity:1" />
    </clipPath>
    <clipPath
       id="clipPath5181"
       clipPathUnits="userSpaceOnUse">
      <circle
         r="128"
         cy="931.80023"
         cx="135.51227"
         id="circle5183"
         style="fill:#ff5353;fill-opacity:1;stroke:none;stroke-width:20;stroke-miterlimit:4;stroke-dasharray:none;stroke-opacity:1" />
    </clipPath>
    <clipPath
       id="clipPath5123"
       clipPathUnits="userSpaceOnUse">
      <circle
         r="128"
         cy="901.25757"
         cx="117.28299"
         id="circle5125"
         style="fill:#6ab5d9;fill-opacity:1;stroke:none;stroke-width:20;stroke-miterlimit:4;stroke-dasharray:none;stroke-opacity:1" />
    </clipPath>
    <clipPath
       clipPathUnits="userSpaceOnUse"
       id="clipPath4468">
      <circle
         r="128"
         cy="924.36218"
         cx="128"
         id="circle4470"
         style="fill:#3976b0;fill-opacity:1;stroke:none;stroke-width:20;stroke-miterlimit:4;stroke-dasharray:none;stroke-opacity:1" />
    </clipPath>
  </defs>
  <metadata
     id="metadata4154">
    <rdf:RDF>
      <cc:Work
         rdf:about="">
        <dc:format>image/svg+xml</dc:format>
        <dc:type
           rdf:resource="http://purl.org/dc/dcmitype/StillImage" />
        <dc:title />
      </cc:Work>
    </rdf:RDF>
  </metadata>
  <g
     inkscape:label="Layer 1"
     inkscape:groupmode="layer"
     id="layer1"
     transform="translate(0,-796.36216)">
    <circle
       style="fill:#3976b0;fill-opacity:1;stroke:none;stroke-width:20;stroke-miterlimit:4;stroke-dasharray:none;stroke-opacity:1"
       id="path4723"
       cx="128"
       cy="924.36218"
       r="128" />
    <g
       id="g4914"
       transform="translate(10.412609,47.456587)">
      <path
         inkscape:connector-curvature="0"
         id="path4912"
         d="m 74.639515,967.25532 c 0,-0.22029 -3.2867,-22.30828 -7.30378,-49.08442 -4.01708,-26.77614 -7.3046,-48.85512 -7.30559,-49.06439 -10e-4,-0.30316 12.55496,-0.3805 61.772165,-0.3805 l 61.77397,0 -0.14184,0.9893 c -0.078,0.54411 -2.26039,22.28965 -4.84972,48.32342 -2.58934,26.03377 -4.7891,47.8478 -4.88838,48.47563 l -0.18049,1.1415 -49.43816,0 c -40.666585,0 -49.438175,-0.0711 -49.438175,-0.40054 z"
         style="opacity:1;fill:#ffffff;fill-opacity:1;stroke:none" />
      <path
         inkscape:connector-curvature="0"
         style="opacity:1;fill:#b3170b;fill-opacity:1;stroke:none"
         d="m 59.30321,868.19094 c 0,0 15.000001,100 15.000001,100 0,0 20,0 20,0 0,0 -10.000001,-100 -10.000001,-100 0,0 -25,0 -25,0 0,0 0,0 0,0 m 50,0 c 0,0 5,100 5,100 0,0 20,0 20,0 0,0 0,-100 0,-100 0,0 -25,0 -25,0 0,0 0,0 0,0 m 50,0 c 0,0 -5,100 -5,100 0,0 20,0 20,0 0,0 10,-100 10,-100 0,0 -25,0 -25,0 0,0 0,0 0,0"
         id="rect4828" />
    </g>
    <g
       id="g4219">
      <ellipse
         ry="38.500595"
         rx="37.5"
         cy="863.66296"
         cx="168.00298"
         id="path4924"
         style="opacity:1;fill:#f4ece3;fill-opacity:1;stroke:none" />
      <ellipse
         cy="868.07739"
         cx="80.438171"
         id="path4918"
         style="opacity:1;fill:#f4ece3;fill-opacity:1;stroke:none"
         rx="24.630796"
         ry="26.000595" />
      <ellipse
         ry="17.5"
         rx="27.5"
         cy="898.66003"
         cx="74.259811"
         id="path4922"
         style="opacity:1;fill:#f4ece3;fill-opacity:1;stroke:none" />
      <ellipse
         ry="12.5"
         rx="15"
         cy="902.09875"
         cx="194.24019"
         id="path4926"
         style="opacity:1;fill:#f4ece3;fill-opacity:1;stroke:none" />
      <rect
         y="876.29321"
         x="81.021408"
         height="40"
         width="115"
         id="rect4930"
         style="opacity:1;fill:#f4ece3;fill-opacity:1;stroke:none" />
      <ellipse
         ry="25"
         rx="17.5"
         cy="863.11597"
         cx="119.13021"
         id="path4928"
         style="opacity:1;fill:#f4ece3;fill-opacity:1;stroke:none" />
      <circle
         style="opacity:1;fill:#630400;fill-opacity:1;stroke:none"
         id="path4211"
         cx="105.52438"
         cy="874.96979"
         r="10" />
      <circle
         r="10"
         cy="874.96979"
         cx="160.92509"
         id="circle4213"
         style="opacity:1;fill:#630400;fill-opacity:1;stroke:none" />
      <path
         style="opacity:1;fill:#9a1409;fill-opacity:1;stroke:none"
         d="m 155.73841,896.29381 c 0,9.66498 -10.07359,17.5 -22.5,17.5 -12.42641,0 -22.5,-7.83502 -22.5,-17.5 0,-9.66498 9.76919,-9.58561 22.1956,-9.58561 12.42641,0 22.8044,-0.0794 22.8044,9.58561 z"
         id="path4215"
         inkscape:connector-curvature="0"
         sodipodi:nodetypes="sssss" />
    </g>
  </g>
</svg>
