<?xml version="1.0" encoding="UTF-8" standalone="no"?>
<!-- Created with Inkscape (http://www.inkscape.org/) -->

<svg
   xmlns:dc="http://purl.org/dc/elements/1.1/"
   xmlns:cc="http://creativecommons.org/ns#"
   xmlns:rdf="http://www.w3.org/1999/02/22-rdf-syntax-ns#"
   xmlns:svg="http://www.w3.org/2000/svg"
   xmlns="http://www.w3.org/2000/svg"
   xmlns:sodipodi="http://sodipodi.sourceforge.net/DTD/sodipodi-0.dtd"
   xmlns:inkscape="http://www.inkscape.org/namespaces/inkscape"
   width="256"
   height="256"
   viewBox="0 0 256 256"
   id="svg4149"
   version="1.1"
   inkscape:version="0.91 r13725"
   sodipodi:docname="qtdesigner.svg">
  <sodipodi:namedview
     id="base"
     pagecolor="#ffffff"
     bordercolor="#666666"
     borderopacity="1.0"
     inkscape:pageopacity="0.0"
     inkscape:pageshadow="2"
     inkscape:zoom="2.0625"
     inkscape:cx="-57.454545"
     inkscape:cy="127.0303"
     inkscape:document-units="px"
     inkscape:current-layer="layer1"
     showgrid="false"
     units="px"
     inkscape:window-width="1600"
     inkscape:window-height="836"
     inkscape:window-x="0"
     inkscape:window-y="27"
     inkscape:window-maximized="1" />
  <defs
     id="defs4151">
    <clipPath
       id="clipPath4863"
       clipPathUnits="userSpaceOnUse">
      <circle
         r="77.263145"
         cy="924.36218"
         cx="128"
         id="circle4865"
         style="fill:#e9e9e9;fill-opacity:1;stroke:none;stroke-width:20;stroke-miterlimit:4;stroke-dasharray:none;stroke-opacity:1" />
    </clipPath>
    <clipPath
       clipPathUnits="userSpaceOnUse"
       id="clipPath4227">
      <circle
         r="77.263145"
         cy="924.36218"
         cx="128"
         id="circle4229"
         style="fill:#e9e9e9;fill-opacity:1;stroke:none;stroke-width:20;stroke-miterlimit:4;stroke-dasharray:none;stroke-opacity:1" />
    </clipPath>
    <clipPath
       id="clipPath5543"
       clipPathUnits="userSpaceOnUse">
      <circle
         r="128"
         cy="924.36218"
         cx="128"
         id="circle5545"
         style="fill:#9e9fe9;fill-opacity:1;stroke:none;stroke-width:20;stroke-miterlimit:4;stroke-dasharray:none;stroke-opacity:1" />
    </clipPath>
    <clipPath
       clipPathUnits="userSpaceOnUse"
       id="clipPath6248">
      <circle
         r="128"
         cy="924.36218"
         cx="128"
         id="circle6250"
         style="fill:#77c445;fill-opacity:1;stroke:none;stroke-width:20;stroke-miterlimit:4;stroke-dasharray:none;stroke-opacity:1" />
    </clipPath>
  </defs>
  <metadata
     id="metadata4154">
    <rdf:RDF>
      <cc:Work
         rdf:about="">
        <dc:format>image/svg+xml</dc:format>
        <dc:type
           rdf:resource="http://purl.org/dc/dcmitype/StillImage" />
        <dc:title />
      </cc:Work>
    </rdf:RDF>
  </metadata>
  <g
     inkscape:label="Layer 1"
     inkscape:groupmode="layer"
     id="layer1"
     transform="translate(0,-796.36216)">
    <circle
       style="fill:#77c445;fill-opacity:1;stroke:none;stroke-width:20;stroke-miterlimit:4;stroke-dasharray:none;stroke-opacity:1"
       id="path4723"
       cx="128"
       cy="924.36218"
       r="128" />
    <path
       inkscape:connector-curvature="0"
       style="opacity:1;fill:#990012;fill-opacity:1;stroke:#454545;stroke-width:0.14559628;stroke-linecap:round;stroke-linejoin:round;stroke-miterlimit:4;stroke-dasharray:none;stroke-opacity:1"
       d="M 159.80299,838.60864 181.61664,858.77653 75.047906,974.0416 53.234246,953.87372 Z"
       id="path4520" />
    <path
       inkscape:connector-curvature="0"
       style="opacity:1;fill:#e4e50f;fill-opacity:1;stroke:#454545;stroke-width:0.06240201;stroke-linecap:round;stroke-linejoin:round;stroke-miterlimit:4;stroke-dasharray:none;stroke-opacity:1"
       d="m 160.11058,839.11635 20.97582,19.39328 c 0.249,0.23022 0.26413,0.61601 0.0339,0.86501 l -18.69034,20.21554 c -0.23022,0.249 -0.61601,0.26413 -0.86501,0.0339 l -20.97583,-19.39327 c -0.249,-0.23023 -0.26412,-0.61601 -0.0339,-0.86501 l 18.69035,-20.21554 c 0.23021,-0.24901 0.61601,-0.26413 0.86501,-0.0339 z"
       id="path4522" />
    <path
       style="fill:#dec185;fill-opacity:1;fill-rule:evenodd;stroke:#000000;stroke-width:0.01712804;stroke-linecap:butt;stroke-linejoin:round;stroke-miterlimit:4;stroke-dasharray:none;stroke-opacity:1"
       d="M 53.44382,953.63275 38.440344,991.75567 75.271716,973.81381 Z"
       id="path4524"
       inkscape:connector-curvature="0" />
    <path
       inkscape:connector-curvature="0"
       id="path4526"
       d="m 44.271146,976.93475 -5.834351,14.82472 14.3225,-6.977 z"
       style="fill:#393939;fill-opacity:1;fill-rule:evenodd;stroke:#000000;stroke-width:0.00666053;stroke-linecap:butt;stroke-linejoin:round;stroke-miterlimit:4;stroke-dasharray:none;stroke-opacity:1" />
    <path
       style="fill:#ffffff;fill-opacity:1"
       d="m 106.10496,996.20101 c -13.222486,-2.84936 -19.141826,-8.82813 -21.528966,-21.74514 -1.11817,-6.05051 -2.01599,-7.25398 -5.43064,-7.27945 -1.12909,-0.008 -5.79093,-1.82298 -10.35964,-4.03236 -14.50074,-7.01239 -24.33186,-19.02769 -28.68909,-35.06291 -2.14851,-7.90684 -2.42459,-25.16798 -0.52654,-32.92004 5.08838,-20.78204 20.73526,-36.86557 40.3679,-41.49443 19.80589,-4.66971 40.868196,0.71662 54.204466,13.86187 11.57515,11.40935 16.51808,23.02117 17.2965,40.63256 0.58419,13.21701 -0.79241,20.41558 -5.9282,31 -5.99959,12.36463 -21.68061,24.80323 -34.68067,27.50962 -3.29833,0.68666 -3.35809,0.79063 -2.88205,5.0141 1.43396,12.722 13.64251,18.306 33.06482,15.12332 l 4.81459,-0.78896 -0.31459,3.81851 -0.3146,3.8185 -6.5,1.2311 c -8.71167,1.65001 -27.51554,2.40791 -32.59329,1.31371 z m -0.93498,-38.46364 c 9.30672,-3.8886 16.93448,-15.02565 20.13075,-29.39229 2.00183,-8.99784 1.46359,-31.94461 -0.92143,-39.2834 -5.33845,-16.42659 -14.73977,-25.46081 -27.720246,-26.63784 -11.90986,-1.07995 -21.43993,4.83712 -27.44679,17.04129 -5.13885,10.44063 -6.81051,19.63601 -6.21659,34.19598 0.91162,22.3486 8.05707,36.87695 21.20258,43.10976 5.85933,2.77814 15.5653,3.22545 20.971726,0.9665 z m 80.52827,9.54996 c -4.52373,-0.97702 -6.91823,-2.3211 -10,-5.61319 l -2.5,-2.67061 -0.5,-30.67121 -0.5,-30.67121 -5.25,-0.30226 c -5.05837,-0.29123 -5.25,-0.40823 -5.25,-3.20549 0,-2.48293 0.83243,-3.38367 5.75,-6.22188 5.2408,-3.02476 6.1485,-4.09116 10.25,-12.04208 l 4.5,-8.72342 5.25,-0.002 5.25,-0.002 0,10.5 0,10.5 12.5,0 12.5,0 0,4.5 0,4.5 -12.5,0 -12.5,0 0.002,24.75 c 0.002,33.18028 0.69767,34.59385 16.74859,34.03648 l 8.25015,-0.28648 -1.5e-4,3.59311 -1.4e-4,3.59312 -7.75,2.11335 c -8.92578,2.43398 -19.19231,3.41899 -24.25,2.32664 z"
       id="path6044"
       inkscape:connector-curvature="0" />
  </g>
</svg>
