<?xml version="1.0" encoding="UTF-8" standalone="no"?>
<!-- Created with Inkscape (http://www.inkscape.org/) -->

<svg
   xmlns:dc="http://purl.org/dc/elements/1.1/"
   xmlns:cc="http://creativecommons.org/ns#"
   xmlns:rdf="http://www.w3.org/1999/02/22-rdf-syntax-ns#"
   xmlns:svg="http://www.w3.org/2000/svg"
   xmlns="http://www.w3.org/2000/svg"
   xmlns:xlink="http://www.w3.org/1999/xlink"
   xmlns:sodipodi="http://sodipodi.sourceforge.net/DTD/sodipodi-0.dtd"
   xmlns:inkscape="http://www.inkscape.org/namespaces/inkscape"
   sodipodi:docname="ubuntuone-music.svg"
   inkscape:version="0.91 r13725"
   version="1.1"
   id="svg2"
   viewBox="0 0 256 256"
   height="256"
   width="256">
  <sodipodi:namedview
     inkscape:window-maximized="1"
     inkscape:window-y="27"
     inkscape:window-x="0"
     inkscape:window-height="836"
     inkscape:window-width="1600"
     units="px"
     showgrid="true"
     inkscape:current-layer="layer1"
     inkscape:document-units="px"
     inkscape:cy="128"
     inkscape:cx="32.426664"
     inkscape:zoom="2.0507812"
     inkscape:pageshadow="2"
     inkscape:pageopacity="0.0"
     borderopacity="1.0"
     bordercolor="#666666"
     pagecolor="#ffffff"
     id="base">
    <inkscape:grid
       type="xygrid"
       id="grid4168"
       spacingx="5"
       spacingy="5" />
  </sodipodi:namedview>
  <defs
     id="defs4">
    <clipPath
       clipPathUnits="userSpaceOnUse"
       id="clipPath5002">
      <g
         id="g5004">
        <path
           transform="translate(0,796.36216)"
           inkscape:connector-curvature="0"
           id="path5006"
           d="M 88.118406,249.43519 C 46.103287,235.29134 14.771284,201.68742 4.1335861,159.36053 1.3377997,148.23623 0.92261224,144.16281 0.92582381,127.88908 0.92787958,117.47222 1.134384,112.01362 1.6577819,108.54099 4.4653598,89.913336 12.17654,70.638106 23.042737,55.086148 c 3.958678,-5.665755 8.344812,-10.93092 9.101533,-10.925587 0.32809,0.0023 10.488643,18.309713 22.579009,40.683112 12.090365,22.373397 22.374546,41.334697 22.853732,42.136217 0.479186,0.80151 0.924733,2.44098 0.990103,3.64326 0.343424,6.31639 2.524175,14.20976 5.6424,20.42304 2.954444,5.88693 5.065381,8.73258 10.434696,14.06652 6.71418,6.66995 12.88853,10.28643 21.73204,12.72904 3.16587,0.87442 5.10478,1.05037 11.57517,1.05037 8.82596,0 12.60219,-0.76201 19.26429,-3.88733 2.04584,-0.95974 3.93661,-1.66536 4.20172,-1.56805 0.2651,0.0973 -11.0555,17.66459 -25.1569,39.0384 l -25.6389,38.86148 -3.094121,0.11221 c -2.554618,0.0927 -4.195204,-0.25845 -9.409103,-2.01364 z"
           style="fill:#0f9d58;fill-opacity:1;stroke:none;stroke-width:4.85768509;stroke-linejoin:round;stroke-miterlimit:4;stroke-dasharray:none;stroke-opacity:1" />
        <path
           inkscape:connector-curvature="0"
           id="path5008"
           d="m 112.35984,1051.5167 c -10.0014,-1.4495 -12.15632,-1.8201 -12.531784,-2.1556 -0.248854,-0.2223 1.738304,-3.7475 4.550294,-8.0722 7.16635,-11.0213 49.77231,-74.64801 50.25856,-75.05489 3.57509,-2.99158 8.63523,-8.0414 10.57512,-10.55356 3.36154,-4.35318 7.55784,-12.9141 9.06523,-18.494 6.19314,-22.92535 -2.59253,-47.15185 -21.69967,-59.83688 l -2.96081,-1.96565 17.02469,0.29584 c 9.36358,0.1627 31.17032,0.43384 48.45941,0.60252 l 31.43471,0.30668 1.54584,4.18869 c 2.24597,6.08579 4.67816,15.0947 5.93451,21.9816 1.52517,8.36049 1.92536,28.85896 0.73851,37.82758 -3.0805,23.27845 -12.81326,45.72018 -27.80202,64.10577 -20.47622,25.1166 -51.4599,42.1974 -84.14612,46.3885 -5.31244,0.6812 -26.64601,0.9864 -30.44647,0.4356 z"
           style="fill:#f4b400;fill-opacity:1;stroke:none;stroke-width:4.85768509;stroke-linejoin:round;stroke-miterlimit:4;stroke-dasharray:none;stroke-opacity:1" />
        <path
           transform="translate(0,796.36216)"
           inkscape:connector-curvature="0"
           id="path5010"
           d="M 67.989788,108.87302 C 41.284246,59.575543 33.290284,45.149038 32.233625,44.344765 31.651257,43.901497 32.811213,42.549931 38.695603,36.815353 53.43581,22.450419 68.809334,13.040746 87.839196,6.7360352 101.68742,2.1480329 112.58238,0.43719165 127.95142,0.43719165 c 21.3099,0 37.80488,3.80960275 56.83492,13.12633035 25.29351,12.383198 46.19421,33.578863 58.51993,59.345832 1.61138,3.368591 2.92978,6.372442 2.92978,6.675231 0,0.560033 -10.54865,0.49527 -71.16508,-0.436914 l -24.28843,-0.373518 -3.93063,-1.764495 c -6.75732,-3.033425 -10.64587,-3.839529 -18.6576,-3.867747 -5.0296,-0.01773 -7.97946,0.207636 -10.31642,0.788106 -14.50826,3.603659 -26.283291,12.94777 -33.291614,26.418653 -3.58502,6.89086 -5.24713,13.08166 -6.331628,23.58317 l -0.33738,3.26696 -9.92748,-18.32578 z"
           style="fill:#db4437;fill-opacity:1;stroke:none;stroke-width:10;stroke-linejoin:round;stroke-miterlimit:4;stroke-dasharray:none;stroke-opacity:1" />
      </g>
    </clipPath>
    <clipPath
       id="clipPath4271"
       clipPathUnits="userSpaceOnUse">
      <circle
         r="128"
         cy="128.00002"
         cx="128"
         id="circle4273"
         style="fill:#292929;fill-opacity:0.26020412;stroke:none;stroke-width:10;stroke-linejoin:round;stroke-miterlimit:4;stroke-dasharray:none;stroke-opacity:0.25882353" />
    </clipPath>
    <clipPath
       clipPathUnits="userSpaceOnUse"
       id="clipPath4363">
      <circle
         r="128"
         cy="924.36218"
         cx="128"
         id="circle4365"
         style="fill:#4285f4;fill-opacity:1;stroke:none;stroke-width:10;stroke-linejoin:round;stroke-miterlimit:4;stroke-dasharray:none;stroke-opacity:0.25882353" />
    </clipPath>
    <clipPath
       id="clipPath4452"
       clipPathUnits="userSpaceOnUse">
      <circle
         r="128"
         cy="924.36218"
         cx="128"
         id="circle4454"
         style="fill:#4285f4;fill-opacity:1;stroke:none;stroke-width:10;stroke-linejoin:round;stroke-miterlimit:4;stroke-dasharray:none;stroke-opacity:0.25882353" />
    </clipPath>
    <clipPath
       clipPathUnits="userSpaceOnUse"
       id="clipPath5177">
      <circle
         r="128"
         cy="924.36218"
         cx="128"
         id="circle5179"
         style="fill:#4285f4;fill-opacity:1;stroke:none;stroke-width:10;stroke-linejoin:round;stroke-miterlimit:4;stroke-dasharray:none;stroke-opacity:0.25882353" />
    </clipPath>
    <clipPath
       id="clipPath4342"
       clipPathUnits="userSpaceOnUse">
      <circle
         r="128"
         cy="933.48718"
         cx="128"
         id="circle4344"
         style="fill:#4285f4;fill-opacity:1;stroke:none;stroke-width:10;stroke-linejoin:round;stroke-miterlimit:4;stroke-dasharray:none;stroke-opacity:0.25882353" />
    </clipPath>
    <clipPath
       clipPathUnits="userSpaceOnUse"
       id="clipPath4681">
      <circle
         r="128"
         cy="930.43964"
         cx="127.00293"
         id="circle4683"
         style="fill:#9d5fad;fill-opacity:1;stroke:none;stroke-width:10;stroke-linejoin:round;stroke-miterlimit:4;stroke-dasharray:none;stroke-opacity:0.25882353" />
    </clipPath>
    <clipPath
       id="clipPath4235"
       clipPathUnits="userSpaceOnUse">
      <circle
         r="128"
         cy="924.36218"
         cx="128"
         id="circle4237"
         style="fill:#0f9d58;fill-opacity:1;stroke:none;stroke-width:10;stroke-linejoin:round;stroke-miterlimit:4;stroke-dasharray:none;stroke-opacity:0.25882353" />
    </clipPath>
    <clipPath
       clipPathUnits="userSpaceOnUse"
       id="clipPath4771">
      <circle
         r="128"
         cy="924.36218"
         cx="128"
         id="circle4773"
         style="fill:#0f9d58;fill-opacity:1;stroke:none;stroke-width:10;stroke-linejoin:round;stroke-miterlimit:4;stroke-dasharray:none;stroke-opacity:0.25882353" />
    </clipPath>
    <clipPath
       id="clipPath4842"
       clipPathUnits="userSpaceOnUse">
      <circle
         r="128"
         cy="924.36218"
         cx="128"
         id="circle4844"
         style="fill:#0f9d58;fill-opacity:1;stroke:none;stroke-width:10;stroke-linejoin:round;stroke-miterlimit:4;stroke-dasharray:none;stroke-opacity:0.25882353" />
    </clipPath>
    <clipPath
       clipPathUnits="userSpaceOnUse"
       id="clipPath4458">
      <circle
         r="128"
         cy="924.36218"
         cx="128"
         id="circle4460"
         style="fill:#ff3b38;fill-opacity:1;stroke:none;stroke-width:10;stroke-linejoin:round;stroke-miterlimit:4;stroke-dasharray:none;stroke-opacity:0.25882353" />
    </clipPath>
    <clipPath
       id="clipPath4783"
       clipPathUnits="userSpaceOnUse">
      <circle
         r="128"
         cy="924.36218"
         cx="128"
         id="circle4785"
         style="fill:#ff3b38;fill-opacity:1;stroke:none;stroke-width:10;stroke-linejoin:round;stroke-miterlimit:4;stroke-dasharray:none;stroke-opacity:0.25882353" />
    </clipPath>
    <clipPath
       clipPathUnits="userSpaceOnUse"
       id="clipPath4789">
      <circle
         r="128"
         cy="924.36218"
         cx="102.64714"
         id="circle4791"
         style="fill:#80b4ff;fill-opacity:1;stroke:none;stroke-width:10;stroke-linejoin:round;stroke-miterlimit:4;stroke-dasharray:none;stroke-opacity:0.25882353" />
    </clipPath>
    <linearGradient
       gradientTransform="matrix(3.125,0,0,3.125,-22,771.2372)"
       x1="56"
       y1="80"
       x2="56"
       y2="16"
       id="linearGradient3842"
       xlink:href="#linearGradient5105-8"
       gradientUnits="userSpaceOnUse" />
    <linearGradient
       id="linearGradient5105-8">
      <stop
         id="stop5107-4"
         style="stop-color:#f5f5f5;stop-opacity:1"
         offset="0" />
      <stop
         id="stop5109-4"
         style="stop-color:#ebebeb;stop-opacity:1"
         offset="1" />
    </linearGradient>
    <clipPath
       id="clipPath4366"
       clipPathUnits="userSpaceOnUse">
      <circle
         r="128"
         cy="924.36218"
         cx="128"
         id="circle4368"
         style="fill:#dd4713;fill-opacity:1;stroke:none;stroke-width:10;stroke-linejoin:round;stroke-miterlimit:4;stroke-dasharray:none;stroke-opacity:0.25882353" />
    </clipPath>
    <clipPath
       clipPathUnits="userSpaceOnUse"
       id="clipPath5497">
      <circle
         r="128"
         cy="932.36218"
         cx="128"
         id="circle5499"
         style="fill:#dd4713;fill-opacity:1;stroke:none;stroke-width:10;stroke-linejoin:round;stroke-miterlimit:4;stroke-dasharray:none;stroke-opacity:0.25882353" />
    </clipPath>
  </defs>
  <metadata
     id="metadata7">
    <rdf:RDF>
      <cc:Work
         rdf:about="">
        <dc:format>image/svg+xml</dc:format>
        <dc:type
           rdf:resource="http://purl.org/dc/dcmitype/StillImage" />
        <dc:title />
      </cc:Work>
    </rdf:RDF>
  </metadata>
  <g
     transform="translate(0,-796.36216)"
     id="layer1"
     inkscape:groupmode="layer"
     inkscape:label="Layer 1">
    <circle
       style="fill:#dd4713;fill-opacity:1;stroke:none;stroke-width:10;stroke-linejoin:round;stroke-miterlimit:4;stroke-dasharray:none;stroke-opacity:0.25882353"
       id="path4152"
       cx="128"
       cy="924.36218"
       r="128" />
    <text
       sodipodi:linespacing="125%"
       id="text4914"
       y="927.36218"
       x="120"
       style="font-style:normal;font-weight:normal;font-size:40px;line-height:125%;font-family:sans-serif;letter-spacing:0px;word-spacing:0px;fill:#000000;fill-opacity:1;stroke:none;stroke-width:1px;stroke-linecap:butt;stroke-linejoin:miter;stroke-opacity:1"
       xml:space="preserve"><tspan
         y="927.36218"
         x="120"
         id="tspan4916"
         sodipodi:role="line" /></text>
    <g
       style="stroke:none"
       transform="translate(-4.11162,138)"
       id="g4241">
      <g
         style="stroke:none"
         id="g4446">
        <g
           id="g4448"
           style="fill:none;fill-rule:evenodd;stroke:none;stroke-width:10;stroke-linecap:round;stroke-linejoin:miter;stroke-miterlimit:4;stroke-dasharray:none;stroke-opacity:1">
          <path
             style="stroke:none"
             id="path4450"
             d="m 129.98857,850.41168 c 0,15 0,15 0,15 L -82.143464,1077.5437 c 0,0 0,0 0,-15 z"
             inkscape:connector-curvature="0" />
        </g>
        <path
           inkscape:connector-curvature="0"
           id="path4247"
           d="m 129.98857,850.41168 c 0,15 0,15 0,15"
           style="fill:none;fill-rule:evenodd;stroke:none;stroke-width:10;stroke-linecap:round;stroke-linejoin:miter;stroke-miterlimit:4;stroke-dasharray:none;stroke-opacity:1" />
      </g>
      <g
         style="stroke:none"
         id="g4453">
        <g
           id="g4455"
           style="fill:none;fill-rule:evenodd;stroke:none;stroke-width:10;stroke-linecap:round;stroke-linejoin:miter;stroke-miterlimit:4;stroke-dasharray:none;stroke-opacity:1">
          <path
             style="stroke:none"
             id="path4457"
             d="m 111.58095,850.41168 c 0,15 0,15 0,15 l -212.13203,212.13202 c 0,0 0,0 0,-15 z"
             inkscape:connector-curvature="0" />
        </g>
        <path
           style="fill:none;fill-rule:evenodd;stroke:none;stroke-width:10;stroke-linecap:round;stroke-linejoin:miter;stroke-miterlimit:4;stroke-dasharray:none;stroke-opacity:1"
           d="m 111.58095,850.41168 c 0,15 0,15 0,15"
           id="path4245"
           inkscape:connector-curvature="0" />
      </g>
      <g
         style="stroke:none"
         id="g4460">
        <g
           id="g4462"
           style="fill:none;fill-rule:evenodd;stroke:none;stroke-width:10;stroke-linecap:round;stroke-linejoin:miter;stroke-miterlimit:4;stroke-dasharray:none;stroke-opacity:1">
          <path
             style="stroke:none"
             id="path4464"
             d="m 93.173333,850.41168 c 0,15 0,15 0,15 L -118.9587,1077.5437 c 0,0 0,0 0,-15 z"
             inkscape:connector-curvature="0" />
        </g>
        <path
           inkscape:connector-curvature="0"
           id="path4243"
           d="m 93.173333,850.41168 c 0,15 0,15 0,15"
           style="fill:none;fill-rule:evenodd;stroke:none;stroke-width:10;stroke-linecap:round;stroke-linejoin:miter;stroke-miterlimit:4;stroke-dasharray:none;stroke-opacity:1" />
      </g>
      <g
         style="stroke:none"
         id="g4467">
        <g
           id="g4469"
           style="fill:none;fill-rule:evenodd;stroke:none;stroke-width:10;stroke-linecap:round;stroke-linejoin:miter;stroke-miterlimit:4;stroke-dasharray:none;stroke-opacity:1">
          <path
             style="stroke:none"
             id="path4471"
             d="m 166.80381,850.41168 c 0,15 0,15 0,15 L -45.328224,1077.5437 c 0,0 0,0 0,-15 z"
             inkscape:connector-curvature="0" />
        </g>
        <path
           inkscape:connector-curvature="0"
           id="path4251"
           d="m 166.80381,850.41168 c 0,15 0,15 0,15"
           style="fill:none;fill-rule:evenodd;stroke:none;stroke-width:10;stroke-linecap:round;stroke-linejoin:miter;stroke-miterlimit:4;stroke-dasharray:none;stroke-opacity:1" />
      </g>
      <g
         style="stroke:none"
         id="g4474">
        <g
           id="g4476"
           style="fill:none;fill-rule:evenodd;stroke:none;stroke-width:10;stroke-linecap:round;stroke-linejoin:miter;stroke-miterlimit:4;stroke-dasharray:none;stroke-opacity:1">
          <path
             style="stroke:none"
             id="path4478"
             d="m 148.39619,850.41168 c 0,15 0,15 0,15 L -63.735844,1077.5437 c 0,0 0,0 0,-15 z"
             inkscape:connector-curvature="0" />
        </g>
        <path
           style="fill:none;fill-rule:evenodd;stroke:none;stroke-width:10;stroke-linecap:round;stroke-linejoin:miter;stroke-miterlimit:4;stroke-dasharray:none;stroke-opacity:1"
           d="m 148.39619,850.41168 c 0,15 0,15 0,15"
           id="path4249"
           inkscape:connector-curvature="0" />
      </g>
    </g>
    <g
       id="g5182"
       transform="translate(3.7857322e-7,-8.0000113)">
      <path
         d="m 78,904.61211 0,39.50067 c 0,32.84493 1.153773,40.70821 2.438333,46.08837 4.829294,20.22655 17.821334,31.82085 38.758147,34.61935 11.33352,1.5149 34.22371,-0.2474 52.22569,-3.9997 l 6.57783,-1.3513 0,-114.85739 -33.33333,-0.0827 0,91.66667 -33.33334,0 0,-64.58334 -12.499997,0 L 115.5,904.5294 Z"
         inkscape:connector-curvature="0"
         id="path5184"
         style="fill:#ffffff;fill-opacity:1" />
      <g
         transform="matrix(1.3303174,0,0,1.3303174,-132.41525,-313.98299)"
         id="g5186">
        <path
           style="fill:#c0c0c0;fill-opacity:1"
           d="m 194.92216,866.97306 c -7.01712,0.0739 -14.04559,1.28268 -20.79883,3.65625 -23.72536,8.33879 -40.74658,31.15545 -42.13476,56.47852 -0.41865,7.6369 0.0751,12.13223 3.09375,28.09179 1.97653,10.45 3.82508,20.0125 4.10742,21.25 0.15595,0.68354 0.36033,1.16393 0.71289,1.50391 l -3.86719,-19.91406 c -2.70375,-13.92013 -3.90812,-22.75069 -3.85156,-28.25 0.25054,-24.35869 13.81171,-45.18571 37.00195,-56.82813 7.09744,-3.56319 15.77043,-5.37632 26.63867,-5.56836 17.40787,-0.3076 31.6787,5.67809 44.85352,18.8125 10.82718,10.79396 16.62423,23.24419 18.42773,39.58399 0.67849,6.14717 0.009,11.13273 -5.1875,38.69922 l -2.54883,13.51757 c 0.39175,-0.34209 0.6167,-0.837 0.78516,-1.55664 2.76865,-11.82738 7.50794,-40.84613 7.49414,-45.88672 -0.0587,-21.51714 -12.76561,-43.85113 -31.07617,-54.625 -10.29346,-6.05663 -21.9552,-9.08803 -33.65039,-8.96484 z m -0.35156,7.98633 c -16.07116,0.10366 -28.45346,5.6466 -39.86329,17.84375 -12.55278,13.41898 -17.73809,32.20279 -14.01171,50.75781 l 1.125,5.60352 2.625,-1.89063 c 3.18542,-2.29452 13.12208,-6.24492 13.12695,-5.21875 0.004,0.81607 8.6817,46.41792 9.51172,49.98438 0.50682,2.1777 0.28599,2.25 -6.87305,2.25 -5.24216,0 -7.74656,-0.42142 -8.59961,-1.44922 -0.662,-0.7977 -1.70911,-4.39766 -2.32617,-8 l -1.12109,-6.55078 -4.09766,0 -3.67187,0 c 0.64918,0.31323 1.6348,0.41015 3.21875,0.41015 l 3.91015,0 1.11523,5.75 c 0.61335,3.1625 1.53498,6.7625 2.04883,8 0.88938,2.1419 1.46716,2.25 12.02149,2.25 18.20897,0 18.31468,-0.20831 13.40234,-26.36718 -1.97607,-10.52288 -4.02417,-20.81405 -4.55273,-22.86719 -1.03715,-4.0287 -3.25577,-5.76563 -7.35938,-5.76563 -2.90332,0 -13.04755,3.23501 -18.68555,5.95899 l -3.68749,1.78125 -1.08203,-6.20117 c -1.85168,-10.63313 -1.89033,-10.53907 4.36132,-10.53907 3.26593,0 5.75561,-0.49969 6.22852,-1.25 0.43332,-0.6875 1.59051,-4.38614 2.57031,-8.21875 6.01337,-23.52221 29.27919,-38.02789 51.50391,-32.11132 16.43285,4.37469 27.85522,15.82967 32.01757,32.11132 0.97979,3.83261 2.13699,7.53125 2.57032,8.21875 0.47291,0.75031 2.96258,1.25 6.22851,1.25 3.0922,0 4.64123,-0.0192 5.19727,1.24414 -0.07,-4.35344 -0.48371,-8.97284 -1.32422,-12.93945 -2.21695,-10.46236 -7.01392,-19.18784 -15.02539,-27.33398 -11.38294,-11.57427 -24.08702,-16.81682 -40.50195,-16.71094 z m 56.80078,61.48437 c -0.1902,1.30641 -0.44208,2.81359 -0.78711,4.79493 l -0.91016,5.22851 c 0.90668,-1.69834 1.50717,-5.47397 1.69727,-10.02344 z m -24.67383,3.25586 c -2.76229,0 -7.0332,2.88361 -7.0332,4.75 0,0.41304 -1.8,10.20108 -4,21.75 -2.2,11.54892 -4,21.58189 -4,22.29493 0,0.71304 1.10507,2.4 2.45507,3.75 2.32312,2.3231 3.07393,2.45507 14.02149,2.45507 13.20498,0 12.46121,0.52408 14.55078,-10.25 l 1.10742,-5.70703 -0.64844,0.0469 -1.29101,6.39843 c -0.70929,3.51846 -1.7946,7.0059 -2.41211,7.75 -0.75973,0.9154 -3.53058,1.35157 -8.56836,1.35157 -6.60628,0 -7.38997,-0.1972 -6.96484,-1.75 0.26352,-0.9625 2.6026,-12.91138 5.19921,-26.55469 4.09071,-21.49373 4.93862,-24.71172 6.33985,-24.09766 0.88944,0.38978 3.72518,1.46118 6.30273,2.38086 2.57756,0.91968 5.34921,2.22117 6.15821,2.89258 0.42369,0.35163 0.81548,0.35713 1.17382,0.0781 l -3.27148,-1.58008 c -5.95022,-2.87483 -15.84555,-5.95899 -19.11914,-5.95899 z m 24.38476,38.50586 -3.83984,0.28321 -2.86914,0.21093 3.34375,0 c 1.70839,0 2.71862,-0.11673 3.36523,-0.49414 z"
           id="path5188"
           inkscape:connector-curvature="0" />
        <path
           style="fill:#ffffff;fill-opacity:1"
           d="m 151.57649,993.00707 c -0.66201,-0.79766 -1.70851,-4.39766 -2.32556,-8 l -1.12192,-6.5497 -4.09788,0 -4.09788,0 -3.93322,-20.25 c -2.70376,-13.92013 -3.90751,-22.75069 -3.85095,-28.25 0.25053,-24.35869 13.81225,-45.18721 37.0025,-56.82963 7.09744,-3.56319 15.7695,-5.37585 26.63773,-5.56789 17.40787,-0.3076 31.67945,5.6781 44.85427,18.81251 10.82718,10.79396 16.62319,23.24521 18.42669,39.58501 0.67849,6.14717 0.0105,11.13171 -5.18616,38.6982 l -2.58229,13.69821 -4.09339,0.30179 -4.0934,0.3018 -1.2896,6.39718 c -0.70929,3.51845 -1.79484,7.00595 -2.41235,7.75 -0.75973,0.91542 -3.5299,1.35282 -8.56768,1.35282 -6.60628,0 -7.39097,-0.19714 -6.96584,-1.75 0.26352,-0.9625 2.60361,-12.91271 5.20022,-26.55602 4.09071,-21.49373 4.93705,-24.71138 6.33828,-24.09732 0.88944,0.38978 3.72608,1.46116 6.30363,2.38084 2.57756,0.91968 5.34837,2.22148 6.15737,2.89289 3.34486,2.77599 4.78968,-15.85716 2.18332,-28.15725 -2.21695,-10.46236 -7.01286,-19.18753 -15.02433,-27.33367 -11.38294,-11.57427 -24.08789,-16.81587 -40.50282,-16.70999 -16.07115,0.10366 -28.45303,5.64593 -39.86286,17.84308 -12.5528,13.41898 -17.73807,32.20283 -14.01169,50.75785 l 1.12544,5.60398 2.62456,-1.89052 c 3.18542,-2.29452 13.12318,-6.24545 13.12805,-5.21928 0.004,0.81607 8.68095,46.41893 9.51097,49.98541 0.50682,2.17773 0.28608,2.25 -6.87296,2.25 -5.24216,0 -7.7472,-0.42244 -8.60025,-1.4503 z"
           id="path5190"
           inkscape:connector-curvature="0" />
      </g>
    </g>
  </g>
</svg>
