<?xml version="1.0" encoding="UTF-8" standalone="no"?>
<!-- Created with Inkscape (http://www.inkscape.org/) -->

<svg
   xmlns:dc="http://purl.org/dc/elements/1.1/"
   xmlns:cc="http://creativecommons.org/ns#"
   xmlns:rdf="http://www.w3.org/1999/02/22-rdf-syntax-ns#"
   xmlns:svg="http://www.w3.org/2000/svg"
   xmlns="http://www.w3.org/2000/svg"
   xmlns:xlink="http://www.w3.org/1999/xlink"
   xmlns:sodipodi="http://sodipodi.sourceforge.net/DTD/sodipodi-0.dtd"
   xmlns:inkscape="http://www.inkscape.org/namespaces/inkscape"
   width="256"
   height="256"
   viewBox="0 0 256 256"
   id="svg2"
   version="1.1"
   inkscape:version="0.91 r13725"
   sodipodi:docname="application-pdf.svg">
  <sodipodi:namedview
     id="base"
     pagecolor="#ffffff"
     bordercolor="#666666"
     borderopacity="1.0"
     inkscape:pageopacity="0.0"
     inkscape:pageshadow="2"
     inkscape:zoom="2.1328125"
     inkscape:cx="7.7797561"
     inkscape:cy="146.75458"
     inkscape:document-units="px"
     inkscape:current-layer="layer1"
     showgrid="false"
     units="px"
     inkscape:window-width="1600"
     inkscape:window-height="836"
     inkscape:window-x="0"
     inkscape:window-y="27"
     inkscape:window-maximized="1" />
  <defs
     id="defs4">
    <radialGradient
       cx="0"
       cy="0"
       r="1"
       fx="0"
       fy="0"
       id="radialGradient4895"
       gradientUnits="userSpaceOnUse"
       gradientTransform="matrix(45.124908,0,0,-45.124908,74.972946,125.50104)"
       spreadMethod="pad">
      <stop
         id="stop4899"
         style="stop-color:#ebeaea;stop-opacity:1"
         offset="0" />
      <stop
         id="stop4901"
         style="stop-color:#ebeaea;stop-opacity:1"
         offset="1" />
    </radialGradient>
    <filter
       id="filter4301"
       inkscape:label="Drop Shadow"
       style="color-interpolation-filters:sRGB;">
      <feFlood
         id="feFlood4303"
         result="flood"
         flood-color="rgb(0,0,0)"
         flood-opacity="0.498039" />
      <feComposite
         id="feComposite4305"
         result="composite1"
         operator="in"
         in2="SourceGraphic"
         in="flood" />
      <feGaussianBlur
         id="feGaussianBlur4307"
         result="blur"
         stdDeviation="3.7"
         in="composite1" />
      <feOffset
         id="feOffset4309"
         result="offset"
         dy="3.7"
         dx="3.8" />
      <feComposite
         id="feComposite4311"
         result="composite2"
         operator="over"
         in2="offset"
         in="SourceGraphic" />
    </filter>
    <radialGradient
       spreadMethod="pad"
       gradientTransform="matrix(228.32686,0,0,222.71229,48.684695,874.0012)"
       gradientUnits="userSpaceOnUse"
       xlink:href="#radialGradient4895"
       id="radialGradient8118"
       fy="0"
       fx="0"
       r="0.80999798"
       cy="0"
       cx="0" />
    <radialGradient
       spreadMethod="pad"
       gradientTransform="matrix(45.124908,0,0,-45.124908,74.972946,125.50104)"
       gradientUnits="userSpaceOnUse"
       id="radialGradient4453"
       fy="0"
       fx="0"
       r="1"
       cy="0"
       cx="0">
      <stop
         offset="0"
         style="stop-color:#ffffff;stop-opacity:1"
         id="stop4455" />
      <stop
         offset="0.80999798"
         style="stop-color:#ebeaea;stop-opacity:1"
         id="stop4457" />
      <stop
         offset="0.80999798"
         style="stop-color:#ebeaea;stop-opacity:1"
         id="stop4459" />
      <stop
         offset="1"
         style="stop-color:#d4d3d4;stop-opacity:1"
         id="stop4461" />
    </radialGradient>
    <clipPath
       clipPathUnits="userSpaceOnUse"
       id="clipPath5238">
      <path
         style="fill:#df1818;fill-opacity:1"
         d="m 151.20117,796.60532 -105.78125,0 c -7.804357,0 -14.087891,6.28158 -14.087891,14.08594 l 0,227.33994 c 0,7.8043 6.283534,14.0878 14.087891,14.0878 l 165.16211,0 c 7.80436,0 14.08594,-6.2835 14.08594,-14.0878 l 0,-154.82237 -73.4668,-86.60351 z"
         id="path5240"
         inkscape:connector-curvature="0" />
    </clipPath>
  </defs>
  <metadata
     id="metadata7">
    <rdf:RDF>
      <cc:Work
         rdf:about="">
        <dc:format>image/svg+xml</dc:format>
        <dc:type
           rdf:resource="http://purl.org/dc/dcmitype/StillImage" />
        <dc:title />
      </cc:Work>
    </rdf:RDF>
  </metadata>
  <g
     transform="translate(0,-796.36214)"
     id="layer1"
     inkscape:groupmode="layer"
     inkscape:label="Layer 1">
    <path
       inkscape:connector-curvature="0"
       id="path4141"
       d="m 151.20117,796.60532 -105.78125,0 c -7.804357,0 -14.087891,6.28158 -14.087891,14.08594 l 0,227.33994 c 0,7.8043 6.283534,14.0878 14.087891,14.0878 l 165.16211,0 c 7.80436,0 14.08594,-6.2835 14.08594,-14.0878 l 0,-154.82237 -73.4668,-86.60351 z"
       style="fill:#df1818;fill-opacity:1" />
    <path
       inkscape:connector-curvature="0"
       id="rect4136"
       d="m 224.85352,883.45199 -73.4668,-86.60352 0,72.51758 c 0,7.80436 6.28158,14.08594 14.08594,14.08594 l 59.38086,0 z"
       style="fill:#ff7272;fill-opacity:1;filter:url(#filter4301)" />
    <text
       sodipodi:linespacing="125%"
       id="text4143"
       y="951.72528"
       x="74.722427"
       style="font-style:normal;font-variant:normal;font-weight:bold;font-stretch:normal;font-size:80px;line-height:125%;font-family:FreeSerif;-inkscape-font-specification:'FreeSerif Bold';letter-spacing:0px;word-spacing:0px;fill:#ffffff;fill-opacity:1;stroke:none;stroke-width:1px;stroke-linecap:butt;stroke-linejoin:miter;stroke-opacity:1"
       xml:space="preserve"><tspan
         y="951.72528"
         x="74.722427"
         id="tspan4145"
         sodipodi:role="line" /></text>
    <path
       d="m 107.63933,972.15785 c 3.92648,-7.5068 8.38929,-15.9662 11.96158,-24.4601 l 0,0 1.4117,-3.3512 c -4.66521,-17.3185 -7.46333,-31.2217 -4.96374,-40.2092 l 0,0 c 0.67296,-2.3444 3.4559,-3.7658 6.43111,-3.7658 l 0,0 1.81144,0.024 0.33395,0 c 4.07321,-0.059 5.99091,4.9947 6.20848,6.959 l 0,0 c 0.35925,3.2722 -1.19413,8.8098 -1.19413,8.8098 l 0,0 c 0,-2.2358 0.0911,-5.8485 -1.35605,-8.9677 l 0,0 c -1.68494,-3.6079 -3.29399,-5.7647 -4.73605,-6.1052 l 0,0 c -0.72863,0.4738 -1.43701,1.456 -1.67989,3.3462 l 0,0 c -0.50092,2.6504 -0.65272,5.9966 -0.65272,7.7191 l 0,0 c 0,6.0953 1.22955,14.1352 3.64818,22.4267 l 0,0 c 0.45539,-1.2832 0.85512,-2.517 1.17389,-3.6719 l 0,0 c 0.49587,-1.8212 3.64818,-13.8934 3.64818,-13.8934 l 0,0 c 0,0 -0.7944,16.0699 -1.90252,20.9313 l 0,0 c -0.23782,1.0266 -0.50093,2.0433 -0.77416,3.0847 l 0,0 c 3.98719,10.8629 10.40818,20.5562 18.06885,27.5349 l 0,0 c 3.02075,2.7541 6.8359,4.975 10.44866,6.9985 l 0,0 c 7.8833,-1.1006 15.14424,-1.6188 21.20092,-1.5546 l 0,0 c 8.0351,0.1036 13.93493,1.2634 16.32319,3.5584 l 0,0 c 1.16884,1.1155 1.64446,2.4628 1.7912,3.9731 l 0,0 c 0.0352,0.5873 -0.25805,1.9692 -0.34407,2.3147 l 0,0 c 0.086,-0.4195 0.086,-2.4825 -6.36534,-4.4913 l 0,0 c -5.08012,-1.5842 -14.58765,-1.5349 -25.99769,-0.3504 l 0,0 c 13.19618,6.2977 26.05335,9.4268 30.12656,7.5513 l 0,0 c 0.9968,-0.4738 2.20611,-2.0877 2.20611,-2.0877 l 0,0 c 0,0 -0.7185,3.1833 -1.23461,3.978 l 0,0 c -0.65779,0.8637 -1.94806,1.8014 -3.17255,2.1173 l 0,0 c -6.43618,1.6731 -23.1844,-2.2012 -37.78723,-10.3398 l 0,0 c -16.31306,2.3443 -34.23012,6.6727 -48.59008,11.2676 l 0,0 c -14.112012,24.12455 -24.722592,35.20465 -33.354752,30.98975 l 0,0 -3.17255,-1.5547 c -1.29027,-0.7205 -1.48761,-2.4726 -1.18907,-3.899 l 0,0 c 1.00691,-4.8022 7.17997,-12.0376 19.58175,-19.25805 l 0,0 c 1.33581,-0.7897 7.28118,-3.8546 7.28118,-3.8546 l 0,0 c 0,0 -4.4021,4.1556 -5.43432,4.97 l 0,0 c -9.89713,7.91145 -17.20361,17.86625 -17.02145,21.72585 l 0,0 0.0354,0.3356 c 8.40953,-1.1697 21.01876,-17.8615 37.230622,-48.80185 m 5.13579,2.5665 c -2.70704,4.9749 -5.35336,9.5846 -7.79729,13.8193 l 0,0 c 13.51496,-5.5228 28.06213,-9.0566 41.91104,-11.5688 l 0,0 c -1.86204,-1.2536 -3.66842,-2.5812 -5.36854,-3.9829 l 0,0 c -7.62525,-6.2976 -13.43906,-14.1549 -17.65394,-22.4218 l 0,0 c -2.67162,7.0232 -5.84923,14.4856 -11.09127,24.1542"
       id="path4905"
       style="opacity:0.95999995;fill:#ffffff;fill-opacity:1;stroke:none"
       inkscape:connector-curvature="0"
       sodipodi:nodetypes="ccccccccccccccccccccccccccccccccccccccccccccccccccccccccccccccccccccccccccccccccccccc" />
  </g>
</svg>
