<?xml version="1.0" encoding="UTF-8" standalone="no"?>
<!-- Created with Inkscape (http://www.inkscape.org/) -->

<svg
   xmlns:dc="http://purl.org/dc/elements/1.1/"
   xmlns:cc="http://creativecommons.org/ns#"
   xmlns:rdf="http://www.w3.org/1999/02/22-rdf-syntax-ns#"
   xmlns:svg="http://www.w3.org/2000/svg"
   xmlns="http://www.w3.org/2000/svg"
   xmlns:sodipodi="http://sodipodi.sourceforge.net/DTD/sodipodi-0.dtd"
   xmlns:inkscape="http://www.inkscape.org/namespaces/inkscape"
   sodipodi:docname="application-x-cd-image.svg"
   inkscape:version="0.91 r13725"
   version="1.1"
   id="svg2"
   viewBox="0 0 256 256"
   height="256"
   width="256">
  <sodipodi:namedview
     inkscape:window-maximized="1"
     inkscape:window-y="27"
     inkscape:window-x="0"
     inkscape:window-height="836"
     inkscape:window-width="1600"
     units="px"
     showgrid="false"
     inkscape:current-layer="layer1"
     inkscape:document-units="px"
     inkscape:cy="128"
     inkscape:cx="68.337692"
     inkscape:zoom="3.2851562"
     inkscape:pageshadow="2"
     inkscape:pageopacity="0.0"
     borderopacity="1.0"
     bordercolor="#666666"
     pagecolor="#ffffff"
     id="base" />
  <defs
     id="defs4">
    <filter
       id="filter4301"
       inkscape:label="Drop Shadow"
       style="color-interpolation-filters:sRGB;">
      <feFlood
         id="feFlood4303"
         result="flood"
         flood-color="rgb(0,0,0)"
         flood-opacity="0.498039" />
      <feComposite
         id="feComposite4305"
         result="composite1"
         operator="in"
         in2="SourceGraphic"
         in="flood" />
      <feGaussianBlur
         id="feGaussianBlur4307"
         result="blur"
         stdDeviation="3.7"
         in="composite1" />
      <feOffset
         id="feOffset4309"
         result="offset"
         dy="3.7"
         dx="3.8" />
      <feComposite
         id="feComposite4311"
         result="composite2"
         operator="over"
         in2="offset"
         in="SourceGraphic" />
    </filter>
    <inkscape:perspective
       sodipodi:type="inkscape:persp3d"
       inkscape:vp_x="-205.29213 : 219.03694 : 1"
       inkscape:vp_y="-31.58481 : 2876.4958 : 0"
       inkscape:vp_z="492.61536 : 242.25177 : 1"
       inkscape:persp3d-origin="145.00924 : 107.91388 : 1"
       id="perspective4280" />
    <clipPath
       clipPathUnits="userSpaceOnUse"
       id="clipPath4826">
      <path
         style="fill:#f4b400;fill-opacity:1"
         d="m 151.20117,796.84847 -105.78125,0 c -7.804357,0 -14.087891,6.28158 -14.087891,14.08594 l 0,227.33989 c 0,7.8043 6.283534,14.0878 14.087891,14.0878 l 165.16211,0 c 7.80436,0 14.08594,-6.2835 14.08594,-14.0878 l 0,-154.82232 -73.4668,-86.60351 z"
         id="path4828"
         inkscape:connector-curvature="0" />
    </clipPath>
    <clipPath
       id="clipPath5056"
       clipPathUnits="userSpaceOnUse">
      <path
         style="fill:#f4b400;fill-opacity:1"
         d="m 151.20117,796.84847 -105.78125,0 c -7.804357,0 -14.087891,6.28158 -14.087891,14.08594 l 0,227.33989 c 0,7.8043 6.283534,14.0878 14.087891,14.0878 l 165.16211,0 c 7.80436,0 14.08594,-6.2835 14.08594,-14.0878 l 0,-154.82232 -73.4668,-86.60351 z"
         id="path5058"
         inkscape:connector-curvature="0" />
    </clipPath>
    <clipPath
       clipPathUnits="userSpaceOnUse"
       id="clipPath4308">
      <path
         id="path4310"
         d="m 125.29952,841.0874 a 85,85 0 0 0 -84.999996,85 85,85 0 0 0 84.999996,85 85,85 0 0 0 85,-85 85,85 0 0 0 -85,-85 z m 0,70.61719 a 14.383562,14.383562 0 0 1 14.38281,14.38281 14.383562,14.383562 0 0 1 -14.38281,14.38281 14.383562,14.383562 0 0 1 -14.38281,-14.38281 14.383562,14.383562 0 0 1 14.38281,-14.38281 z"
         style="opacity:1;fill:#ffffff;fill-opacity:0.99215686;stroke:none;stroke-width:3;stroke-linecap:butt;stroke-linejoin:miter;stroke-miterlimit:4;stroke-dasharray:none;stroke-opacity:1"
         inkscape:connector-curvature="0" />
    </clipPath>
    <clipPath
       clipPathUnits="userSpaceOnUse"
       id="clipPath4356">
      <path
         style="fill:#ff9797;fill-opacity:1"
         d="m 161.83504,690.09544 -154.2643284,0 c -11.3813542,0 -20.5448416,9.16064 -20.5448416,20.542 l 0,331.53736 c 0,11.3813 9.1634874,20.5447 20.5448416,20.5447 l 240.8614184,0 c 11.38136,0 20.54199,-9.1634 20.54199,-20.5447 l 0,-225.78257 -107.13908,-126.29679 z"
         id="path4358"
         inkscape:connector-curvature="0" />
    </clipPath>
  </defs>
  <metadata
     id="metadata7">
    <rdf:RDF>
      <cc:Work
         rdf:about="">
        <dc:format>image/svg+xml</dc:format>
        <dc:type
           rdf:resource="http://purl.org/dc/dcmitype/StillImage" />
        <dc:title />
      </cc:Work>
    </rdf:RDF>
  </metadata>
  <g
     transform="translate(0,-796.36214)"
     id="layer1"
     inkscape:groupmode="layer"
     inkscape:label="Layer 1">
    <path
       inkscape:connector-curvature="0"
       id="path4141"
       d="m 151.20117,796.84847 -105.78125,0 c -7.804357,0 -14.087891,6.28158 -14.087891,14.08594 l 0,227.33989 c 0,7.8043 6.283534,14.0878 14.087891,14.0878 l 165.16211,0 c 7.80436,0 14.08594,-6.2835 14.08594,-14.0878 l 0,-154.82232 -73.4668,-86.60351 z"
       style="fill:#ff9797;fill-opacity:1" />
    <path
       inkscape:connector-curvature="0"
       id="rect4136"
       d="m 224.85352,883.45199 -73.4668,-86.60352 0,72.51758 c 0,7.80436 6.28158,14.08594 14.08594,14.08594 l 59.38086,0 z"
       style="fill:#ffd5d5;fill-opacity:1;filter:url(#filter4301)" />
    <g
       transform="matrix(0.68571427,0,0,0.68571427,40.228575,323.64018)"
       id="g4185">
      <path
         inkscape:connector-curvature="0"
         style="opacity:1;fill:#ffffff;fill-opacity:0.99215686;stroke:none;stroke-width:3;stroke-linecap:butt;stroke-linejoin:miter;stroke-miterlimit:4;stroke-dasharray:none;stroke-opacity:1"
         d="m 127.99999,836.86221 a 87.500005,87.500005 0 0 0 -87.499995,87.5 87.500005,87.500005 0 0 0 87.499995,87.49989 87.500005,87.500005 0 0 0 87.50001,-87.49989 87.500005,87.500005 0 0 0 -87.50001,-87.5 z m 0,72.69416 a 14.806609,14.806609 0 0 1 14.80584,14.80584 14.806609,14.806609 0 0 1 -14.80584,14.80583 A 14.806609,14.806609 0 0 1 113.19416,924.36221 14.806609,14.806609 0 0 1 128,909.55637 Z"
         id="path4187" />
      <g
         transform="translate(2.650105,-1.7751878)"
         clip-path="url(#clipPath4308)"
         id="g4189">
        <g
           id="g4192"
           transform="matrix(0.9961947,0.08715574,-0.08715574,0.9961947,81.398004,-7.4344302)">
          <path
             inkscape:connector-curvature="0"
             id="path4194"
             d="m 97.19204,843.36017 -20.35743,11.75391 48.60547,72.90821 0.63672,0.72461 -28.88476,-85.38673 z"
             style="fill:#8aa1a3;fill-opacity:0.99215686;fill-rule:evenodd;stroke:none;stroke-width:1px;stroke-linecap:butt;stroke-linejoin:miter;stroke-opacity:1" />
          <path
             id="path4196"
             d="m 125.59766,928.14146 28.88476,85.38474 20.35742,-11.7539 -48.59961,-72.90037 -0.64257,-0.73047 z"
             style="fill:#8aa1a3;fill-opacity:0.99215686;fill-rule:evenodd;stroke:none;stroke-width:1px;stroke-linecap:butt;stroke-linejoin:miter;stroke-opacity:1"
             inkscape:connector-curvature="0" />
        </g>
        <path
           style="fill:#67dde7;fill-opacity:0.99215686;fill-rule:evenodd;stroke:none;stroke-width:3;stroke-linecap:butt;stroke-linejoin:miter;stroke-miterlimit:4;stroke-dasharray:none;stroke-opacity:1"
           d="m 125,927.36216 -75,-50 25,-25 z"
           id="path4198"
           inkscape:connector-curvature="0" />
        <path
           inkscape:connector-curvature="0"
           id="path4200"
           d="m 125.69978,928.06194 75,50 -25,24.99996 z"
           style="fill:#67dde7;fill-opacity:0.99215686;fill-rule:evenodd;stroke:none;stroke-width:3;stroke-linecap:butt;stroke-linejoin:miter;stroke-miterlimit:4;stroke-dasharray:none;stroke-opacity:1"
           inkscape:transform-center-x="-37.84989"
           inkscape:transform-center-y="37.84987" />
      </g>
      <path
         style="opacity:1;fill:none;fill-opacity:0.99215686;stroke:#1d1d1d;stroke-width:3;stroke-linecap:butt;stroke-linejoin:miter;stroke-miterlimit:4;stroke-dasharray:none;stroke-opacity:0.45982145"
         d="m 162.94963,924.31219 a 35,35 0 0 1 -35,35 35,35 0 0 1 -34.999999,-35 35,35 0 0 1 34.999999,-35 35,35 0 0 1 35,35 z"
         id="path4202"
         inkscape:connector-curvature="0" />
    </g>
  </g>
</svg>
