<?xml version="1.0" encoding="UTF-8" standalone="no"?>
<!-- Created with Inkscape (http://www.inkscape.org/) -->

<svg
   xmlns:dc="http://purl.org/dc/elements/1.1/"
   xmlns:cc="http://creativecommons.org/ns#"
   xmlns:rdf="http://www.w3.org/1999/02/22-rdf-syntax-ns#"
   xmlns:svg="http://www.w3.org/2000/svg"
   xmlns="http://www.w3.org/2000/svg"
   xmlns:sodipodi="http://sodipodi.sourceforge.net/DTD/sodipodi-0.dtd"
   xmlns:inkscape="http://www.inkscape.org/namespaces/inkscape"
   sodipodi:docname="encrypted.svg"
   inkscape:version="0.91 r13725"
   version="1.1"
   id="svg2"
   viewBox="0 0 256 256"
   height="256"
   width="256">
  <sodipodi:namedview
     inkscape:window-maximized="1"
     inkscape:window-y="27"
     inkscape:window-x="0"
     inkscape:window-height="836"
     inkscape:window-width="1600"
     units="px"
     showgrid="false"
     inkscape:current-layer="layer1"
     inkscape:document-units="px"
     inkscape:cy="128"
     inkscape:cx="32.426664"
     inkscape:zoom="2.0507812"
     inkscape:pageshadow="2"
     inkscape:pageopacity="0.0"
     borderopacity="1.0"
     bordercolor="#666666"
     pagecolor="#ffffff"
     id="base" />
  <defs
     id="defs4">
    <filter
       id="filter4301"
       inkscape:label="Drop Shadow"
       style="color-interpolation-filters:sRGB;">
      <feFlood
         id="feFlood4303"
         result="flood"
         flood-color="rgb(0,0,0)"
         flood-opacity="0.498039" />
      <feComposite
         id="feComposite4305"
         result="composite1"
         operator="in"
         in2="SourceGraphic"
         in="flood" />
      <feGaussianBlur
         id="feGaussianBlur4307"
         result="blur"
         stdDeviation="3.7"
         in="composite1" />
      <feOffset
         id="feOffset4309"
         result="offset"
         dy="3.7"
         dx="3.8" />
      <feComposite
         id="feComposite4311"
         result="composite2"
         operator="over"
         in2="offset"
         in="SourceGraphic" />
    </filter>
    <clipPath
       clipPathUnits="userSpaceOnUse"
       id="clipPath4624">
      <path
         style="fill:#0f9d58;fill-opacity:1"
         d="m 151.20117,0.24318 -105.78125,0 c -7.804357,0 -14.087891,6.28158 -14.087891,14.08594 l 0,227.33994 c 0,7.8043 6.283534,14.0878 14.087891,14.0878 l 165.16211,0 c 7.80436,0 14.08594,-6.2835 14.08594,-14.0878 l 0,-154.82237 -73.4668,-86.60351 z"
         id="path4626"
         inkscape:connector-curvature="0" />
    </clipPath>
    <clipPath
       id="clipPath5045"
       clipPathUnits="userSpaceOnUse">
      <path
         style="fill:#0f9d58;fill-opacity:1"
         d="m 151.20117,796.60532 -105.78125,0 c -7.804357,0 -14.087891,6.28158 -14.087891,14.08594 l 0,227.33994 c 0,7.8043 6.283534,14.0878 14.087891,14.0878 l 165.16211,0 c 7.80436,0 14.08594,-6.2835 14.08594,-14.0878 l 0,-154.82237 -73.4668,-86.60351 z"
         id="path5047"
         inkscape:connector-curvature="0" />
    </clipPath>
    <clipPath
       clipPathUnits="userSpaceOnUse"
       id="clipPath3451">
      <path
         style="fill:#7c9fc8;fill-opacity:1"
         d="m 276.10636,795.23533 -120.57272,0 c -8.89564,0 -16.05781,7.15993 -16.05781,16.05558 l 0,259.12899 c 0,8.8956 7.16217,16.0578 16.05781,16.0578 l 188.25684,0 c 8.89565,0 16.05559,-7.1622 16.05559,-16.0578 l 0,-176.47124 -83.73971,-98.71333 z"
         id="path3453"
         inkscape:connector-curvature="0" />
    </clipPath>
  </defs>
  <metadata
     id="metadata7">
    <rdf:RDF>
      <cc:Work
         rdf:about="">
        <dc:format>image/svg+xml</dc:format>
        <dc:type
           rdf:resource="http://purl.org/dc/dcmitype/StillImage" />
        <dc:title />
      </cc:Work>
    </rdf:RDF>
  </metadata>
  <g
     transform="translate(0,-796.36214)"
     id="layer1"
     inkscape:groupmode="layer"
     inkscape:label="Layer 1">
    <path
       inkscape:connector-curvature="0"
       id="path4141"
       d="m 151.20117,796.60532 -105.78125,0 c -7.804357,0 -14.087891,6.28158 -14.087891,14.08594 l 0,227.33994 c 0,7.8043 6.283534,14.0878 14.087891,14.0878 l 165.16211,0 c 7.80436,0 14.08594,-6.2835 14.08594,-14.0878 l 0,-154.82237 -73.4668,-86.60351 z"
       style="fill:#7c9fc8;fill-opacity:1" />
    <path
       inkscape:connector-curvature="0"
       id="rect4136"
       d="m 224.85352,883.45199 -73.4668,-86.60352 0,72.51758 c 0,7.80436 6.28158,14.08594 14.08594,14.08594 l 59.38086,0 z"
       style="fill:#c1d2e5;fill-opacity:1;filter:url(#filter4301)" />
    <text
       sodipodi:linespacing="125%"
       id="text4143"
       y="951.72528"
       x="74.722427"
       style="font-style:normal;font-variant:normal;font-weight:bold;font-stretch:normal;font-size:80px;line-height:125%;font-family:FreeSerif;-inkscape-font-specification:'FreeSerif Bold';letter-spacing:0px;word-spacing:0px;fill:#ffffff;fill-opacity:1;stroke:none;stroke-width:1px;stroke-linecap:butt;stroke-linejoin:miter;stroke-opacity:1"
       xml:space="preserve"><tspan
         y="951.72528"
         x="74.722427"
         id="tspan4145"
         sodipodi:role="line" /></text>
    <path
       style="fill:#ffffff;fill-opacity:1;stroke:none;stroke-width:23;stroke-linecap:round;stroke-linejoin:round;stroke-miterlimit:4;stroke-dasharray:none;stroke-opacity:1"
       d="m 172.29368,914.52604 a 30.706316,46.059473 0 0 0 -29.78444,35.09293 l -78.542699,0 c -6.075464,0 -10.966542,4.8911 -10.966542,10.96654 0,6.07547 4.891078,10.96658 10.966542,10.96658 l 10.006969,0 c 1.822165,-0.72598 6.834717,0.31285 7.669718,-1.35713 0.582735,-1.16547 -0.333383,-4.80034 0.428388,-5.5621 0.403332,-0.40333 1.139696,0 1.710087,0 6.32601,0 3.60064,4.36717 7.700574,6.41714 0.816033,0.40804 2.917714,0 3.850282,0 1.011282,0 2.093399,0.47349 2.566855,0 0.240457,-0.24048 0.730916,-2.0546 0.856768,-2.13848 0.928462,-0.61897 2.084768,-0.82904 2.993528,-1.28342 2.73594,-1.36798 4.50037,2.56686 6.8455,2.56686 0.11728,0 5.58551,-4.03495 5.98877,-4.70705 0.0871,-0.1452 0.17011,-2.69428 2.13848,-1.7101 0.19117,0.0956 2.46526,4.60374 2.99523,5.13371 0.20167,0.20167 -0.12754,0.59996 0,0.85505 0.66588,1.33177 0.12854,-0.13952 0.85505,0.42839 0.49271,0.38514 0.78706,1.01857 1.30227,1.35713 l 0.0548,0 c -0.24889,-0.33312 -0.81286,-0.75485 -0.50034,-0.93049 0.26305,-0.14783 0.666,0.63747 0.68026,0.93049 l 20.39434,0 A 30.706316,46.059473 0 0 0 172.29368,1006.645 30.706316,46.059473 0 0 0 203,960.58551 30.706316,46.059473 0 0 0 172.29368,914.52604 Z m 0.15765,19.73978 a 10.966541,26.319699 0 0 1 10.96654,26.31969 10.966541,26.319699 0 0 1 -10.96654,26.31972 10.966541,26.319699 0 0 1 -10.96654,-26.31972 10.966541,26.319699 0 0 1 10.96654,-26.31969 z"
       id="path5336"
       inkscape:connector-curvature="0" />
    <path
       style="fill:#827f69;fill-opacity:1;stroke:none;stroke-width:23;stroke-linecap:round;stroke-linejoin:round;stroke-miterlimit:4;stroke-dasharray:none;stroke-opacity:1"
       d="m 56.166259,954.62462 76.661811,0 c 1.21509,0 2.19331,0.97822 2.19331,2.19331 0,1.21509 -0.97823,2.19119 -2.19331,2.19331 l -79.330181,0.13827 c -0.634401,-1.03827 1.033154,-4.4755 2.668379,-4.52489 z"
       id="path5338"
       inkscape:connector-curvature="0"
       sodipodi:nodetypes="cssscc" />
  </g>
</svg>
