<?xml version="1.0" encoding="UTF-8" standalone="no"?>
<!-- Created with Inkscape (http://www.inkscape.org/) -->

<svg
   xmlns:dc="http://purl.org/dc/elements/1.1/"
   xmlns:cc="http://creativecommons.org/ns#"
   xmlns:rdf="http://www.w3.org/1999/02/22-rdf-syntax-ns#"
   xmlns:svg="http://www.w3.org/2000/svg"
   xmlns="http://www.w3.org/2000/svg"
   xmlns:sodipodi="http://sodipodi.sourceforge.net/DTD/sodipodi-0.dtd"
   xmlns:inkscape="http://www.inkscape.org/namespaces/inkscape"
   sodipodi:docname="extension.svg"
   inkscape:version="0.91 r13725"
   version="1.1"
   id="svg2"
   viewBox="0 0 256 256"
   height="256"
   width="256">
  <sodipodi:namedview
     inkscape:window-maximized="1"
     inkscape:window-y="27"
     inkscape:window-x="0"
     inkscape:window-height="836"
     inkscape:window-width="1600"
     units="px"
     showgrid="false"
     inkscape:current-layer="layer1"
     inkscape:document-units="px"
     inkscape:cy="126.46559"
     inkscape:cx="31.939044"
     inkscape:zoom="2.0507812"
     inkscape:pageshadow="2"
     inkscape:pageopacity="0.0"
     borderopacity="1.0"
     bordercolor="#666666"
     pagecolor="#ffffff"
     id="base" />
  <defs
     id="defs4">
    <filter
       id="filter4301"
       inkscape:label="Drop Shadow"
       style="color-interpolation-filters:sRGB;">
      <feFlood
         id="feFlood4303"
         result="flood"
         flood-color="rgb(0,0,0)"
         flood-opacity="0.498039" />
      <feComposite
         id="feComposite4305"
         result="composite1"
         operator="in"
         in2="SourceGraphic"
         in="flood" />
      <feGaussianBlur
         id="feGaussianBlur4307"
         result="blur"
         stdDeviation="3.7"
         in="composite1" />
      <feOffset
         id="feOffset4309"
         result="offset"
         dy="3.7"
         dx="3.8" />
      <feComposite
         id="feComposite4311"
         result="composite2"
         operator="over"
         in2="offset"
         in="SourceGraphic" />
    </filter>
    <clipPath
       clipPathUnits="userSpaceOnUse"
       id="clipPath4624">
      <path
         style="fill:#0f9d58;fill-opacity:1"
         d="m 151.20117,0.24318 -105.78125,0 c -7.804357,0 -14.087891,6.28158 -14.087891,14.08594 l 0,227.33994 c 0,7.8043 6.283534,14.0878 14.087891,14.0878 l 165.16211,0 c 7.80436,0 14.08594,-6.2835 14.08594,-14.0878 l 0,-154.82237 -73.4668,-86.60351 z"
         id="path4626"
         inkscape:connector-curvature="0" />
    </clipPath>
    <clipPath
       id="clipPath5045"
       clipPathUnits="userSpaceOnUse">
      <path
         style="fill:#0f9d58;fill-opacity:1"
         d="m 151.20117,796.60532 -105.78125,0 c -7.804357,0 -14.087891,6.28158 -14.087891,14.08594 l 0,227.33994 c 0,7.8043 6.283534,14.0878 14.087891,14.0878 l 165.16211,0 c 7.80436,0 14.08594,-6.2835 14.08594,-14.0878 l 0,-154.82237 -73.4668,-86.60351 z"
         id="path5047"
         inkscape:connector-curvature="0" />
    </clipPath>
    <clipPath
       clipPathUnits="userSpaceOnUse"
       id="clipPath4438">
      <path
         style="fill:#d2a577;fill-opacity:1"
         d="m 151.20117,0.24318 -105.78125,0 c -7.804357,0 -14.087891,6.28158 -14.087891,14.08594 l 0,227.33994 c 0,7.8043 6.283534,14.0878 14.087891,14.0878 l 165.16211,0 c 7.80436,0 14.08594,-6.2835 14.08594,-14.0878 l 0,-154.82237 -73.4668,-86.60351 z"
         id="path4440"
         inkscape:connector-curvature="0" />
    </clipPath>
  </defs>
  <metadata
     id="metadata7">
    <rdf:RDF>
      <cc:Work
         rdf:about="">
        <dc:format>image/svg+xml</dc:format>
        <dc:type
           rdf:resource="http://purl.org/dc/dcmitype/StillImage" />
        <dc:title />
      </cc:Work>
    </rdf:RDF>
  </metadata>
  <g
     transform="translate(0,-796.36214)"
     id="layer1"
     inkscape:groupmode="layer"
     inkscape:label="Layer 1">
    <path
       inkscape:connector-curvature="0"
       id="path4141"
       d="m 151.20117,796.60532 -105.78125,0 c -7.804357,0 -14.087891,6.28158 -14.087891,14.08594 l 0,227.33994 c 0,7.8043 6.283534,14.0878 14.087891,14.0878 l 165.16211,0 c 7.80436,0 14.08594,-6.2835 14.08594,-14.0878 l 0,-154.82237 -73.4668,-86.60351 z"
       style="fill:#4dec65;fill-opacity:1" />
    <path
       inkscape:connector-curvature="0"
       id="rect4136"
       d="m 224.85352,883.45199 -73.4668,-86.60352 0,72.51758 c 0,7.80436 6.28158,14.08594 14.08594,14.08594 l 59.38086,0 z"
       style="fill:#a0f5ad;fill-opacity:1;filter:url(#filter4301)" />
    <text
       sodipodi:linespacing="125%"
       id="text4143"
       y="951.72528"
       x="74.722427"
       style="font-style:normal;font-variant:normal;font-weight:bold;font-stretch:normal;font-size:80px;line-height:125%;font-family:FreeSerif;-inkscape-font-specification:'FreeSerif Bold';letter-spacing:0px;word-spacing:0px;fill:#ffffff;fill-opacity:1;stroke:none;stroke-width:1px;stroke-linecap:butt;stroke-linejoin:miter;stroke-opacity:1"
       xml:space="preserve"><tspan
         y="951.72528"
         x="74.722427"
         id="tspan4145"
         sodipodi:role="line" /></text>
    <path
       style="fill:#ffffff;fill-opacity:1"
       d="m 119.71093,902.91878 c -7.54053,0 -13.65429,6.22326 -13.65429,13.89844 0.0562,3.84692 4.63281,6.2577 4.63281,10.11719 l 0,1.54882 -39.74023,0 0,35.97852 1.78515,0 c 3.85949,0 6.27027,-4.57661 10.11719,-4.63281 7.67518,0 13.89844,6.11376 13.89844,13.65429 0,7.54051 -6.22326,13.65235 -13.89844,13.65235 -4.1512,0 -6.60129,-4.63282 -10.41211,-4.63282 l -1.49023,0 0,35.98044 49.98046,0 0,-0.8535 c 0,-3.8595 -4.57661,-6.2703 -4.63281,-10.1172 0,-7.67515 6.11377,-13.89841 13.6543,-13.89841 7.54052,0 13.65234,6.22326 13.65234,13.89841 0,4.1512 -4.63281,6.6013 -4.63281,10.4121 l 0,0.5586 21.97851,0 0,-55.96481 c 3.6908,0.16667 6.12947,4.61719 10.20313,4.61719 7.67518,0 13.89844,-6.10987 13.89844,-13.65039 0,-7.54053 -6.22325,-13.65625 -13.89844,-13.65625 -3.84691,0.0562 -6.2577,4.63476 -10.11719,4.63476 l -0.0859,0 0,-15.98047 -32.21875,0 0,-1.2539 c 0,-3.81082 4.63282,-6.26091 4.63282,-10.41211 0,-7.67518 -6.11183,-13.89844 -13.65235,-13.89844 z"
       id="path4282"
       inkscape:connector-curvature="0" />
  </g>
</svg>
