<?xml version="1.0" encoding="UTF-8" standalone="no"?>
<!-- Created with Inkscape (http://www.inkscape.org/) -->

<svg
   xmlns:dc="http://purl.org/dc/elements/1.1/"
   xmlns:cc="http://creativecommons.org/ns#"
   xmlns:rdf="http://www.w3.org/1999/02/22-rdf-syntax-ns#"
   xmlns:svg="http://www.w3.org/2000/svg"
   xmlns="http://www.w3.org/2000/svg"
   xmlns:xlink="http://www.w3.org/1999/xlink"
   xmlns:sodipodi="http://sodipodi.sourceforge.net/DTD/sodipodi-0.dtd"
   xmlns:inkscape="http://www.inkscape.org/namespaces/inkscape"
   width="256"
   height="256"
   viewBox="0 0 256 256"
   id="svg2"
   version="1.1"
   inkscape:version="0.91 r13725"
   sodipodi:docname="rpm.svg">
  <sodipodi:namedview
     id="base"
     pagecolor="#ffffff"
     bordercolor="#666666"
     borderopacity="1.0"
     inkscape:pageopacity="0.0"
     inkscape:pageshadow="2"
     inkscape:zoom="2.0507812"
     inkscape:cx="32.426664"
     inkscape:cy="114.78294"
     inkscape:document-units="px"
     inkscape:current-layer="layer1"
     showgrid="false"
     units="px"
     inkscape:window-width="1600"
     inkscape:window-height="836"
     inkscape:window-x="0"
     inkscape:window-y="27"
     inkscape:window-maximized="1" />
  <defs
     id="defs4">
    <radialGradient
       cx="0"
       cy="0"
       r="1"
       fx="0"
       fy="0"
       id="radialGradient4895"
       gradientUnits="userSpaceOnUse"
       gradientTransform="matrix(45.124908,0,0,-45.124908,74.972946,125.50104)"
       spreadMethod="pad">
      <stop
         id="stop4899"
         style="stop-color:#ebeaea;stop-opacity:1"
         offset="0" />
      <stop
         id="stop4901"
         style="stop-color:#ebeaea;stop-opacity:1"
         offset="1" />
    </radialGradient>
    <filter
       id="filter4301"
       inkscape:label="Drop Shadow"
       style="color-interpolation-filters:sRGB;">
      <feFlood
         id="feFlood4303"
         result="flood"
         flood-color="rgb(0,0,0)"
         flood-opacity="0.498039" />
      <feComposite
         id="feComposite4305"
         result="composite1"
         operator="in"
         in2="SourceGraphic"
         in="flood" />
      <feGaussianBlur
         id="feGaussianBlur4307"
         result="blur"
         stdDeviation="3.7"
         in="composite1" />
      <feOffset
         id="feOffset4309"
         result="offset"
         dy="3.7"
         dx="3.8" />
      <feComposite
         id="feComposite4311"
         result="composite2"
         operator="over"
         in2="offset"
         in="SourceGraphic" />
    </filter>
    <radialGradient
       spreadMethod="pad"
       gradientTransform="matrix(228.32686,0,0,222.71229,48.684695,874.0012)"
       gradientUnits="userSpaceOnUse"
       xlink:href="#radialGradient4895"
       id="radialGradient8118"
       fy="0"
       fx="0"
       r="0.80999798"
       cy="0"
       cx="0" />
    <radialGradient
       spreadMethod="pad"
       gradientTransform="matrix(45.124908,0,0,-45.124908,74.972946,125.50104)"
       gradientUnits="userSpaceOnUse"
       id="radialGradient4453"
       fy="0"
       fx="0"
       r="1"
       cy="0"
       cx="0">
      <stop
         offset="0"
         style="stop-color:#ffffff;stop-opacity:1"
         id="stop4455" />
      <stop
         offset="0.80999798"
         style="stop-color:#ebeaea;stop-opacity:1"
         id="stop4457" />
      <stop
         offset="0.80999798"
         style="stop-color:#ebeaea;stop-opacity:1"
         id="stop4459" />
      <stop
         offset="1"
         style="stop-color:#d4d3d4;stop-opacity:1"
         id="stop4461" />
    </radialGradient>
    <clipPath
       clipPathUnits="userSpaceOnUse"
       id="clipPath5238">
      <path
         style="fill:#df1818;fill-opacity:1"
         d="m 151.20117,796.60532 -105.78125,0 c -7.804357,0 -14.087891,6.28158 -14.087891,14.08594 l 0,227.33994 c 0,7.8043 6.283534,14.0878 14.087891,14.0878 l 165.16211,0 c 7.80436,0 14.08594,-6.2835 14.08594,-14.0878 l 0,-154.82237 -73.4668,-86.60351 z"
         id="path5240"
         inkscape:connector-curvature="0" />
    </clipPath>
    <clipPath
       id="clipPath5105"
       clipPathUnits="userSpaceOnUse">
      <path
         style="fill:#df1818;fill-opacity:1"
         d="m 151.20117,0.24318 -105.78125,0 c -7.804357,0 -14.087891,6.28158 -14.087891,14.08594 l 0,227.33994 c 0,7.8043 6.283534,14.0878 14.087891,14.0878 l 165.16211,0 c 7.80436,0 14.08594,-6.2835 14.08594,-14.0878 l 0,-154.82237 -73.4668,-86.60351 z"
         id="path5107"
         inkscape:connector-curvature="0" />
    </clipPath>
    <clipPath
       id="clipPath4187"
       clipPathUnits="userSpaceOnUse">
      <rect
         style="fill:#fae32f;fill-opacity:1;stroke:none;stroke-width:5;stroke-linecap:round;stroke-linejoin:round;stroke-miterlimit:4;stroke-dasharray:none;stroke-opacity:1"
         id="rect4189"
         width="193.336"
         height="255.51401"
         x="31.332001"
         y="796.60516"
         ry="13.653326" />
    </clipPath>
    <clipPath
       clipPathUnits="userSpaceOnUse"
       id="clipPath4690">
      <path
         style="fill:#df1818;fill-opacity:1"
         d="m 151.20117,0.24318 -105.78125,0 c -7.804357,0 -14.087891,6.28158 -14.087891,14.08594 l 0,227.33994 c 0,7.8043 6.283534,14.0878 14.087891,14.0878 l 165.16211,0 c 7.80436,0 14.08594,-6.2835 14.08594,-14.0878 l 0,-154.82237 -73.4668,-86.60351 z"
         id="path4692"
         inkscape:connector-curvature="0" />
    </clipPath>
  </defs>
  <metadata
     id="metadata7">
    <rdf:RDF>
      <cc:Work
         rdf:about="">
        <dc:format>image/svg+xml</dc:format>
        <dc:type
           rdf:resource="http://purl.org/dc/dcmitype/StillImage" />
        <dc:title />
      </cc:Work>
    </rdf:RDF>
  </metadata>
  <g
     transform="translate(0,-796.36214)"
     id="layer1"
     inkscape:groupmode="layer"
     inkscape:label="Layer 1">
    <path
       inkscape:connector-curvature="0"
       id="path4141"
       d="m 151.20117,796.60532 -105.78125,0 c -7.804357,0 -14.087891,6.28158 -14.087891,14.08594 l 0,227.33994 c 0,7.8043 6.283534,14.0878 14.087891,14.0878 l 165.16211,0 c 7.80436,0 14.08594,-6.2835 14.08594,-14.0878 l 0,-154.82237 -73.4668,-86.60351 z"
       style="fill:#d72226;fill-opacity:1" />
    <path
       inkscape:connector-curvature="0"
       id="rect4136"
       d="m 224.85352,883.45199 -73.4668,-86.60352 0,72.51758 c 0,7.80436 6.28158,14.08594 14.08594,14.08594 l 59.38086,0 z"
       style="fill:#ff7272;fill-opacity:1;filter:url(#filter4301)" />
    <text
       sodipodi:linespacing="125%"
       id="text4143"
       y="951.72528"
       x="74.722427"
       style="font-style:normal;font-variant:normal;font-weight:bold;font-stretch:normal;font-size:80px;line-height:125%;font-family:FreeSerif;-inkscape-font-specification:'FreeSerif Bold';letter-spacing:0px;word-spacing:0px;fill:#ffffff;fill-opacity:1;stroke:none;stroke-width:1px;stroke-linecap:butt;stroke-linejoin:miter;stroke-opacity:1"
       xml:space="preserve"><tspan
         y="951.72528"
         x="74.722427"
         id="tspan4145"
         sodipodi:role="line" /></text>
    <text
       xml:space="preserve"
       style="font-style:normal;font-weight:normal;font-size:40px;line-height:125%;font-family:sans-serif;letter-spacing:0px;word-spacing:0px;fill:#000000;fill-opacity:1;stroke:none;stroke-width:1px;stroke-linecap:butt;stroke-linejoin:miter;stroke-opacity:1"
       x="91.810249"
       y="952.7796"
       id="text5142"
       sodipodi:linespacing="125%"><tspan
         sodipodi:role="line"
         id="tspan5144"
         x="91.810249"
         y="952.7796" /></text>
    <path
       style="fill:#ffffff;fill-opacity:1"
       d="m 76.124985,973.20325 0,-24.25738 11.32813,0.17531 c 9.24178,0.14303 11.96122,0.28687 14.765625,0.781 11.53562,2.03256 19.27189,6.4275 22.36155,12.7035 0.79094,1.60663 1.01723,2.51855 1.14179,4.60123 0.18557,3.10298 -0.46973,5.20919 -2.43579,7.82886 -4.44623,5.92439 -16.37777,11.15949 -27.357575,12.00347 l -2.61623,0.20109 0,3.84599 0,3.84599 -1.01562,0.17406 c -1.03686,0.17771 -15.89821,2.35426 -16.07471,2.35426 -0.0534,0 -0.0972,-10.91582 -0.0972,-24.25738 z m 22.03125,8.02988 c 4.611945,-2.29918 8.223575,-5.84868 9.561995,-9.3975 0.99505,-2.63837 0.76566,-6.0683 -0.58993,-8.82078 -2.15231,-4.37019 -7.940205,-8.75705 -12.520005,-9.48939 l -1.29581,-0.20721 0,14.76833 0,14.76832 1.17188,-0.18772 c 0.64453,-0.10325 2.29687,-0.74857 3.67187,-1.43405 z m -66.40625,-13.30375 0,-18.90625 8.32492,0 c 7.25191,0 8.3718,0.0641 8.68859,0.49733 0.30677,0.41954 0.56508,0.4431 1.65137,0.15059 0.70825,-0.19071 3.11566,-0.48585 5.3498,-0.65588 4.78104,-0.36384 7.65955,-0.0527 10.48153,1.1329 1.05052,0.44136 2.29676,0.96214 2.76942,1.15728 0.47265,0.19514 0.85568,0.42944 0.85117,0.52067 -0.004,0.0912 -2.02303,1.39795 -4.48559,2.90385 l -4.47739,2.73799 -1.84254,-0.86299 c -1.69961,-0.79605 -2.14143,-0.86299 -5.69604,-0.86299 -3.45394,0 -3.89947,0.0629 -4.29687,0.6066 -0.36818,0.50374 -0.44337,3.14013 -0.44337,15.54688 l 0,14.94027 -8.4375,0 -8.4375,0 z m 105.312505,-0.0186 0,-18.92484 34.45312,0.13513 c 35.8191,0.14048 36.35641,0.15956 41.17012,1.46219 1.93918,0.52476 3.66868,1.4507 4.05381,2.17033 0.21074,0.39377 0.32295,6.42132 0.32295,17.34775 l 0,16.74432 -8.51563,-0.0832 -8.51562,-0.0831 -0.0809,-16.49316 -0.0809,-16.49316 -0.85661,-0.35199 c -0.48665,-0.19996 -3.52218,-0.41438 -7.02849,-0.49645 l -6.17187,-0.14446 0,17.06774 0,17.06773 -8.59099,0 -8.59099,0 -0.0809,-16.48021 -0.0809,-16.4802 -0.9375,-0.46461 c -0.70479,-0.34928 -2.46952,-0.49416 -7.10938,-0.58365 l -6.17187,-0.11904 0,17.06386 0,17.06385 -8.59375,0 -8.59375,0 0,-18.92483 z M 164.09374,900.018 c -3.35811,-1.69206 -3.89105,-1.90669 -9.84375,-3.96425 -11.38466,-3.93514 -24.89358,-5.57034 -37.34375,-4.52031 -11.61604,0.97968 -22.048635,3.74714 -31.174795,8.26974 -5.85363,2.90086 -9.78631,5.66456 -14.00929,9.84504 -5.0749,5.02384 -7.67357,9.24788 -9.2663,15.06202 -0.73028,2.66583 -0.74375,9.65769 -0.0235,12.2036 0.27958,0.98829 0.42421,1.79688 0.32139,1.79688 -0.10282,0 -6.84091,1.19531 -14.97354,2.65625 -8.13264,1.46094 -15.08457,2.65625 -15.44875,2.65625 -0.63777,0 -0.65408,-0.0925 -0.4431,-2.51114 1.97842,-22.68011 24.96817,-42.60237 58.76791,-50.92659 11.490355,-2.82985 20.664995,-3.88716 33.749995,-3.88944 11.29794,-0.002 18.70709,0.68263 28.59375,2.64203 3.55239,0.70404 10.08421,2.34626 11.09375,2.78918 0.34375,0.15082 2.15975,0.78847 4.03556,1.417 m 0,0 c 5.38693,1.80502 8.73827,3.18418 13.77694,5.66956 20.20087,9.96429 32.78789,24.58051 34.84708,40.46492 0.2095,1.61603 0.42261,3.09304 0.47359,3.28225 0.051,0.18921 1.65203,0.5949 3.55789,0.90152 3.249,0.52273 3.46519,0.60248 3.46519,1.27817 0,0.39636 -0.10547,0.77865 -0.23438,0.84952 -0.1289,0.0709 -2.83593,-0.33309 -6.01562,-0.89771 l 0,-10e-5 c -6.80362,-1.20813 -39.89436,-7.02705 -62.96875,-11.0729 -8.9375,-1.5671 -18.85145,-3.31538 -22.031,-3.88507 l -5.781,-1.03581 -0.8836,0.7435 c -1.24173,1.04484 -2.81751,0.99722 -3.93361,-0.11888 -0.47431,-0.4743 -0.92214,-1.04167 -0.99519,-1.2608 -0.0785,-0.23543 -1.37544,-0.60506 -3.1702,-0.90351 -3.02359,-0.50278 -3.03652,-0.50876 -2.84306,-1.31731 0.10688,-0.44674 0.20971,-0.83344 0.2285,-0.85935 0.0188,-0.0259 1.36776,0.20463 2.99771,0.5123 2.85762,0.53941 2.97772,0.53915 3.36034,-0.007 0.50008,-0.71396 2.29773,-1.32358 3.08154,-1.04501 0.82301,0.29249 2.00082,1.39504 2.00082,1.87296 0,0.2177 0.13647,0.48018 0.30328,0.58327 0.49568,0.30635 58.79607,10.48856 59.07333,10.3172 0.5757,-0.3558 1.01171,-4.53542 0.85003,-8.14834 -0.18944,-4.23326 -0.82645,-6.67195 -2.76001,-10.56628 -3.66005,-7.3716 -10.94059,-14.0992 -20.43538,-18.88336"
       id="path4256"
       inkscape:connector-curvature="0"
       sodipodi:nodetypes="scssssssccccsssssscccssccsssssscscssssccccccssssccccccscccccccssccccccccssssssssssssscccsscsscccsscsscsccsccsccssc" />
  </g>
</svg>
