<?xml version="1.0" encoding="UTF-8" standalone="no"?>
<!-- Created with Inkscape (http://www.inkscape.org/) -->

<svg
   xmlns:dc="http://purl.org/dc/elements/1.1/"
   xmlns:cc="http://creativecommons.org/ns#"
   xmlns:rdf="http://www.w3.org/1999/02/22-rdf-syntax-ns#"
   xmlns:svg="http://www.w3.org/2000/svg"
   xmlns="http://www.w3.org/2000/svg"
   xmlns:sodipodi="http://sodipodi.sourceforge.net/DTD/sodipodi-0.dtd"
   xmlns:inkscape="http://www.inkscape.org/namespaces/inkscape"
   sodipodi:docname="text-x-perl.svg"
   inkscape:version="0.91 r13725"
   version="1.1"
   id="svg2"
   viewBox="0 0 256 256"
   height="256"
   width="256">
  <sodipodi:namedview
     inkscape:window-maximized="1"
     inkscape:window-y="27"
     inkscape:window-x="0"
     inkscape:window-height="836"
     inkscape:window-width="1600"
     units="px"
     showgrid="false"
     inkscape:current-layer="layer1"
     inkscape:document-units="px"
     inkscape:cy="128"
     inkscape:cx="-49.305499"
     inkscape:zoom="2.0585938"
     inkscape:pageshadow="2"
     inkscape:pageopacity="0.0"
     borderopacity="1.0"
     bordercolor="#666666"
     pagecolor="#ffffff"
     id="base" />
  <defs
     id="defs4">
    <filter
       id="filter4301"
       inkscape:label="Drop Shadow"
       style="color-interpolation-filters:sRGB;">
      <feFlood
         id="feFlood4303"
         result="flood"
         flood-color="rgb(0,0,0)"
         flood-opacity="0.498039" />
      <feComposite
         id="feComposite4305"
         result="composite1"
         operator="in"
         in2="SourceGraphic"
         in="flood" />
      <feGaussianBlur
         id="feGaussianBlur4307"
         result="blur"
         stdDeviation="3.7"
         in="composite1" />
      <feOffset
         id="feOffset4309"
         result="offset"
         dy="3.7"
         dx="3.8" />
      <feComposite
         id="feComposite4311"
         result="composite2"
         operator="over"
         in2="offset"
         in="SourceGraphic" />
    </filter>
    <clipPath
       clipPathUnits="userSpaceOnUse"
       id="clipPath4266">
      <path
         style="fill:#db4437;fill-opacity:1"
         d="m 153.38672,796.84847 -105.781251,0 c -7.804357,0 -14.087891,6.28158 -14.087891,14.08594 l 0,227.33989 c 0,7.8043 6.283534,14.0878 14.087891,14.0878 l 165.162111,0 c 7.80436,0 14.08594,-6.2835 14.08594,-14.0878 l 0,-154.82232 -73.4668,-86.60351 z"
         id="path4268"
         inkscape:connector-curvature="0" />
    </clipPath>
    <clipPath
       id="clipPath4407"
       clipPathUnits="userSpaceOnUse">
      <path
         inkscape:connector-curvature="0"
         style="fill:#db4437;fill-opacity:1"
         d="m 153.38672,796.84847 -105.781251,0 c -7.804357,0 -14.087891,6.28158 -14.087891,14.08594 l 0,227.33989 c 0,7.8043 6.283534,14.0878 14.087891,14.0878 l 165.162111,0 c 7.80436,0 14.08594,-6.2835 14.08594,-14.0878 l 0,-154.82232 -73.4668,-86.60351 z"
         id="path4409" />
    </clipPath>
    <clipPath
       clipPathUnits="userSpaceOnUse"
       id="clipPath4610">
      <path
         style="fill:#db4437;fill-opacity:1"
         d="m 153.38672,796.84847 -105.781251,0 c -7.804357,0 -14.087891,6.28158 -14.087891,14.08594 l 0,227.33989 c 0,7.8043 6.283534,14.0878 14.087891,14.0878 l 165.162111,0 c 7.80436,0 14.08594,-6.2835 14.08594,-14.0878 l 0,-154.82232 -73.4668,-86.60351 z"
         id="path4612"
         inkscape:connector-curvature="0" />
    </clipPath>
  </defs>
  <metadata
     id="metadata7">
    <rdf:RDF>
      <cc:Work
         rdf:about="">
        <dc:format>image/svg+xml</dc:format>
        <dc:type
           rdf:resource="http://purl.org/dc/dcmitype/StillImage" />
        <dc:title />
      </cc:Work>
    </rdf:RDF>
  </metadata>
  <g
     transform="translate(0,-796.36214)"
     id="layer1"
     inkscape:groupmode="layer"
     inkscape:label="Layer 1">
    <path
       id="path4141"
       d="M 153.38672 0.48632812 L 47.605469 0.48632812 C 39.801112 0.48632812 33.517578 6.7679087 33.517578 14.572266 L 33.517578 241.91211 C 33.517578 249.71647 39.801112 256 47.605469 256 L 212.76758 256 C 220.57194 256 226.85352 249.71647 226.85352 241.91211 L 226.85352 87.089844 L 153.38672 0.48632812 z "
       style="fill:#db4437;fill-opacity:1"
       transform="translate(0,796.36214)" />
    <path
       inkscape:connector-curvature="0"
       id="rect4136"
       d="m 226.85352,883.45199 -73.4668,-86.60352 0,72.51758 c 0,7.80436 6.28158,14.08594 14.08594,14.08594 l 59.38086,0 z"
       style="fill:#ec6155;fill-opacity:1;filter:url(#filter4301)" />
    <path
       style="fill:#ffffff;fill-opacity:1"
       d="m 98.04282,1000.7626 c -0.6585,-1.0655 0.45158,-2.36843 2.46686,-2.89544 4.49082,-1.17438 8.2513,-9.72572 8.15504,-18.5446 -0.30176,-27.65116 -0.033,-26.51725 -6.34,-26.74666 -8.93982,-0.32519 -18.72133,-12.37901 -19.21301,-23.67631 -0.22556,-5.18271 0.71283,-10.24555 2.36687,-12.76995 2.17644,-3.32165 2.24294,-4.1827 0.3231,-4.1827 -1.32964,0 -3.89579,-1.08094 -5.70256,-2.40208 -5.09649,-3.72665 -0.26741,-10.30332 7.56546,-10.30332 3.25387,0 5.91611,-0.7294 5.91611,-1.62086 0,-2.31385 4.94722,-3.90147 8.23093,-2.64138 4.30435,1.65173 9.60718,14.15374 8.48761,20.01043 l -0.97795,5.11583 7.10392,-6.20087 c 3.90716,-3.41049 8.2916,-7.9007 9.74322,-9.97826 3.95278,-5.65725 7.51555,-8.04943 15.20764,-10.211 8.31945,-2.33788 14.83618,0.91443 17.62744,8.79738 2.32828,6.57538 10.92978,23.6715 15.02748,29.86817 4.66636,7.05661 5.22521,14.99317 1.63868,23.27173 -3.36386,7.76453 -5.1223,8.83792 -6.45377,3.93948 -0.91053,-3.34989 -1.61446,12.67617 -1.39516,31.7635 l 0.13034,11.34411 -5.42169,0 c -6.25121,0 -6.36941,-0.4876 -2.66427,-10.9891 3.2737,-9.27866 3.12675,-17.65283 -0.51635,-29.42351 -4.31454,-13.94004 -7.03534,-12.45309 -8.32315,4.54869 -0.31255,4.12642 -2.22095,8.60658 -4.86494,11.42098 -3.6778,3.91483 -4.00986,5.17674 -2.14698,8.15965 1.212,1.94075 2.20365,5.079 2.20365,6.97393 0,2.94429 -1.38574,3.44753 -9.52905,3.46047 -12.51323,0.02 -13.93381,-1.13775 -7.5967,-6.19081 l 5.25795,-4.19253 -6.7225,-6.88447 -6.72248,-6.88443 2.58675,-8.59519 c 1.9777,-6.57139 2.0644,-8.59517 0.36825,-8.59517 -1.92126,0 -7.08389,18.62352 -11.44676,41.29256 -1.00868,5.24103 -1.8066,5.89893 -7.15401,5.89893 -3.31028,0 -6.55747,-0.8718 -7.21597,-1.9372 z m 43.20484,-29.82631 c 0.51576,-2.99485 0.30498,-7.07872 -0.46842,-9.07528 -1.25834,-3.24846 -1.55507,-3.05762 -2.82234,1.81506 -0.77889,2.99484 -2.43103,6.26194 -3.67143,7.26022 -1.59151,1.28085 -1.75178,3.11312 -0.54455,6.22554 1.46752,3.78345 2.05609,4.0415 4.13985,1.81507 1.33601,-1.4275 2.85111,-5.04576 3.36689,-8.04061 z m 29.0388,-18.85718 c 0.49321,-1.88604 0.19258,-4.54057 -0.66806,-5.89893 -1.06389,-1.67915 -1.57369,-0.58143 -1.59259,3.42919 -0.0311,6.60388 0.91052,7.63262 2.26065,2.46974 z"
       id="path4216"
       inkscape:connector-curvature="0" />
  </g>
</svg>
