<?xml version="1.0" encoding="UTF-8" standalone="no"?>
<!-- Created with Inkscape (http://www.inkscape.org/) -->

<svg
   xmlns:dc="http://purl.org/dc/elements/1.1/"
   xmlns:cc="http://creativecommons.org/ns#"
   xmlns:rdf="http://www.w3.org/1999/02/22-rdf-syntax-ns#"
   xmlns:svg="http://www.w3.org/2000/svg"
   xmlns="http://www.w3.org/2000/svg"
   xmlns:xlink="http://www.w3.org/1999/xlink"
   xmlns:sodipodi="http://sodipodi.sourceforge.net/DTD/sodipodi-0.dtd"
   xmlns:inkscape="http://www.inkscape.org/namespaces/inkscape"
   width="256"
   height="256"
   viewBox="0 0 256 256"
   id="svg2"
   version="1.1"
   inkscape:version="0.91 r13725"
   sodipodi:docname="text-x-makefile.svg">
  <sodipodi:namedview
     id="base"
     pagecolor="#ffffff"
     bordercolor="#666666"
     borderopacity="1.0"
     inkscape:pageopacity="0.0"
     inkscape:pageshadow="2"
     inkscape:zoom="3.2851562"
     inkscape:cx="16.894172"
     inkscape:cy="128"
     inkscape:document-units="px"
     inkscape:current-layer="layer1"
     showgrid="false"
     units="px"
     inkscape:window-width="1600"
     inkscape:window-height="836"
     inkscape:window-x="0"
     inkscape:window-y="27"
     inkscape:window-maximized="1" />
  <defs
     id="defs4">
    <filter
       style="color-interpolation-filters:sRGB;"
       inkscape:label="Drop Shadow"
       id="filter4301">
      <feFlood
         flood-opacity="0.498039"
         flood-color="rgb(0,0,0)"
         result="flood"
         id="feFlood4303" />
      <feComposite
         in="flood"
         in2="SourceGraphic"
         operator="in"
         result="composite1"
         id="feComposite4305" />
      <feGaussianBlur
         in="composite1"
         stdDeviation="3.7"
         result="blur"
         id="feGaussianBlur4307" />
      <feOffset
         dx="3.8"
         dy="3.7"
         result="offset"
         id="feOffset4309" />
      <feComposite
         in="SourceGraphic"
         in2="offset"
         operator="over"
         result="composite2"
         id="feComposite4311" />
    </filter>
    <clipPath
       id="clipPath5055"
       clipPathUnits="userSpaceOnUse">
      <path
         inkscape:connector-curvature="0"
         id="path5057"
         d="m 153.38672,796.84847 -105.781251,0 c -7.804357,0 -14.087891,6.28158 -14.087891,14.08594 l 0,227.33989 c 0,7.8043 6.283534,14.0878 14.087891,14.0878 l 165.162111,0 c 7.80436,0 14.08594,-6.2835 14.08594,-14.0878 l 0,-154.82232 -73.4668,-86.60351 z"
         style="fill:#db4437;fill-opacity:1" />
    </clipPath>
    <clipPath
       clipPathUnits="userSpaceOnUse"
       id="clipPath4563">
      <path
         id="path4565"
         d="m 153.38672,796.84847 -105.781251,0 c -7.804357,0 -14.087891,6.28158 -14.087891,14.08594 l 0,227.33989 c 0,7.8043 6.283534,14.0878 14.087891,14.0878 l 165.162111,0 c 7.80436,0 14.08594,-6.2835 14.08594,-14.0878 l 0,-154.82232 -73.4668,-86.60351 z"
         style="fill:#db4437;fill-opacity:1"
         inkscape:connector-curvature="0" />
    </clipPath>
    <linearGradient
       inkscape:collect="always"
       xlink:href="#linearGradient3669"
       id="linearGradient3675"
       x1="-678.82251"
       y1="1794.8141"
       x2="-1549.978"
       y2="1721.275"
       gradientUnits="userSpaceOnUse"
       gradientTransform="matrix(0.06639038,0,0,0.06639038,197.22365,1775.5634)" />
    <linearGradient
       inkscape:collect="always"
       id="linearGradient3669">
      <stop
         style="stop-color:#01a300;stop-opacity:1"
         offset="0"
         id="stop3671" />
      <stop
         style="stop-color:#01df00;stop-opacity:1"
         offset="1"
         id="stop3673" />
    </linearGradient>
    <linearGradient
       inkscape:collect="always"
       xlink:href="#linearGradient3653"
       id="linearGradient3659"
       x1="-933.38092"
       y1="680.41388"
       x2="-316.78384"
       y2="1721.275"
       gradientUnits="userSpaceOnUse"
       gradientTransform="matrix(0.06639038,0,0,0.06639038,167.25409,1775.5634)" />
    <linearGradient
       inkscape:collect="always"
       id="linearGradient3653">
      <stop
         style="stop-color:#b40e0e;stop-opacity:1"
         offset="0"
         id="stop3655" />
      <stop
         style="stop-color:#ff5959;stop-opacity:1"
         offset="1"
         id="stop3657" />
    </linearGradient>
    <linearGradient
       inkscape:collect="always"
       xlink:href="#linearGradient3645"
       id="linearGradient3651"
       x1="-1527.3507"
       y1="1387.5206"
       x2="-1086.1161"
       y2="454.13968"
       gradientUnits="userSpaceOnUse"
       gradientTransform="matrix(0.06639038,0,0,0.06639038,224.4628,1775.5634)" />
    <linearGradient
       inkscape:collect="always"
       id="linearGradient3645">
      <stop
         style="stop-color:#1011a1;stop-opacity:1"
         offset="0"
         id="stop3647" />
      <stop
         style="stop-color:#6969e1;stop-opacity:1"
         offset="1"
         id="stop3649" />
    </linearGradient>
    <clipPath
       id="clipPath4402"
       clipPathUnits="userSpaceOnUse">
      <path
         inkscape:connector-curvature="0"
         id="path4404"
         d="m 153.38672,796.84847 -105.781251,0 c -7.804357,0 -14.087891,6.28158 -14.087891,14.08594 l 0,227.33989 c 0,7.8043 6.283534,14.0878 14.087891,14.0878 l 165.162111,0 c 7.80436,0 14.08594,-6.2835 14.08594,-14.0878 l 0,-154.82232 -73.4668,-86.60351 z"
         style="fill:#db4437;fill-opacity:1" />
    </clipPath>
    <clipPath
       clipPathUnits="userSpaceOnUse"
       id="clipPath5280">
      <path
         id="path5282"
         d="m 153.28865,-10.32993 -103.34851,0 c -7.624873,0 -13.7639,6.0316357 -13.7639,13.5254566 l 0,218.2939634 c 0,7.49382 6.139027,13.52733 13.7639,13.52733 l 161.36374,0 c 7.62487,0 13.76199,-6.03351 13.76199,-13.52733 l 0,-148.66187 -71.77722,-83.15755 z"
         style="fill:#db4437;fill-opacity:1"
         inkscape:connector-curvature="0" />
    </clipPath>
  </defs>
  <metadata
     id="metadata7">
    <rdf:RDF>
      <cc:Work
         rdf:about="">
        <dc:format>image/svg+xml</dc:format>
        <dc:type
           rdf:resource="http://purl.org/dc/dcmitype/StillImage" />
        <dc:title />
      </cc:Work>
    </rdf:RDF>
  </metadata>
  <g
     inkscape:label="Layer 1"
     inkscape:groupmode="layer"
     id="layer1"
     transform="translate(0,-796.36214)">
    <path
       transform="translate(0,796.36214)"
       style="fill:#db4437;fill-opacity:1"
       d="M 153.38672 0.48632812 L 47.605469 0.48632812 C 39.801112 0.48632812 33.517578 6.7679087 33.517578 14.572266 L 33.517578 241.91211 C 33.517578 249.71647 39.801112 256 47.605469 256 L 212.76758 256 C 220.57194 256 226.85352 249.71647 226.85352 241.91211 L 226.85352 87.089844 L 153.38672 0.48632812 z "
       id="path4141" />
    <path
       style="fill:#ec6155;fill-opacity:1;filter:url(#filter4301)"
       d="m 226.85352,883.45199 -73.4668,-86.60352 0,72.51758 c 0,7.80436 6.28158,14.08594 14.08594,14.08594 l 59.38086,0 z"
       id="rect4136"
       inkscape:connector-curvature="0" />
    <path
       inkscape:connector-curvature="0"
       style="fill:url(#linearGradient3651);fill-opacity:1;fill-rule:nonzero;stroke:#000000;stroke-width:0.06639037;stroke-opacity:1"
       d="m 160.68212,1844.3652 -65.369096,55.8834 59.872126,-119.6328 5.49697,63.7494 z"
       id="path2828"
       sodipodi:nodetypes="cccc" />
    <path
       inkscape:connector-curvature="0"
       style="fill:url(#linearGradient3659);fill-opacity:1;fill-rule:nonzero;stroke:#000000;stroke-width:0.06639037;stroke-opacity:1"
       d="m 106.50266,1879.2647 -8.495142,-98.6596 59.948792,119.6544 -51.45365,-20.9948 z"
       id="path2828-4"
       sodipodi:nodetypes="cccc" />
    <path
       inkscape:connector-curvature="0"
       style="fill:url(#linearGradient3675);fill-opacity:1;fill-rule:nonzero;stroke:#000000;stroke-width:0.06639037;stroke-opacity:1"
       d="m 106.89352,1866.9056 81.09386,33.3395 -119.897791,-0.013 38.803931,-33.3263 z"
       id="path2828-1"
       sodipodi:nodetypes="cccc" />
    <g
       transform="matrix(1.0235392,0,0,1.041439,-3.5102222,807.60646)"
       style="fill:none;stroke:#ffffff;stroke-width:9.09971142;stroke-linejoin:round;stroke-miterlimit:4;stroke-dasharray:none;stroke-opacity:1"
       id="g4201">
      <g
         style="fill:none;stroke:#ffffff;stroke-width:9.09971142;stroke-linejoin:round;stroke-miterlimit:4;stroke-dasharray:none;stroke-opacity:1"
         transform="translate(128.48577,156.17457)"
         inkscape:label="Gear10"
         id="g4203">
        <path
           inkscape:connector-curvature="0"
           d="m 32.40946,-5.35926 16.77566,2.39496 0,5.9286 -16.77566,2.39496 -3.03956,9.35481 12.16407,11.79805 -3.48474,4.79634 -14.97952,-7.92292 -7.95767,5.78158 2.90621,16.69469 -5.63842,1.83204 -7.46172,-15.21452 -9.83622,0 -7.46172,15.21452 -5.63842,-1.83204 2.90621,-16.69469 -7.95767,-5.78158 -14.97952,7.92292 -3.48474,-4.79634 12.16407,-11.79805 -3.03956,-9.35481 -16.77566,-2.39496 0,-5.9286 16.77566,-2.39496 3.03956,-9.35481 -12.16407,-11.79805 3.48474,-4.79634 14.97952,7.92292 7.95767,-5.78158 -2.90621,-16.69469 5.63842,-1.83204 7.46172,15.21452 9.83622,0 7.46172,-15.21452 5.63842,1.83204 -2.90621,16.69469 7.95767,5.78158 14.97952,-7.92292 3.48474,4.79634 -12.16407,11.79805 z"
           style="fill:none;stroke:#ffffff;stroke-width:9.09971142;stroke-linejoin:round;stroke-miterlimit:4;stroke-dasharray:none;stroke-opacity:1"
           id="path4205"
           sodipodi:nodetypes="ccccccccccccccccccccccccccccccccccccccccc" />
        <path
           inkscape:connector-curvature="0"
           style="fill:none;stroke:#ffffff;stroke-width:9.09971142;stroke-linejoin:round;stroke-miterlimit:4;stroke-dasharray:none;stroke-opacity:1"
           d="M 14.25,0 A 14.25,14.25 0 0 1 0,14.25 14.25,14.25 0 0 1 -14.25,0 14.25,14.25 0 0 1 0,-14.25 14.25,14.25 0 0 1 14.25,0 Z"
           id="path4207" />
      </g>
    </g>
  </g>
</svg>
