<?xml version="1.0" encoding="UTF-8" standalone="no"?>
<!-- Created with Inkscape (http://www.inkscape.org/) -->

<svg
   xmlns:dc="http://purl.org/dc/elements/1.1/"
   xmlns:cc="http://creativecommons.org/ns#"
   xmlns:rdf="http://www.w3.org/1999/02/22-rdf-syntax-ns#"
   xmlns:svg="http://www.w3.org/2000/svg"
   xmlns="http://www.w3.org/2000/svg"
   xmlns:sodipodi="http://sodipodi.sourceforge.net/DTD/sodipodi-0.dtd"
   xmlns:inkscape="http://www.inkscape.org/namespaces/inkscape"
   sodipodi:docname="text-x-c++src.svg"
   inkscape:version="0.91 r13725"
   version="1.1"
   id="svg2"
   viewBox="0 0 256 256"
   height="256"
   width="256">
  <sodipodi:namedview
     inkscape:window-maximized="1"
     inkscape:window-y="27"
     inkscape:window-x="0"
     inkscape:window-height="836"
     inkscape:window-width="1600"
     units="px"
     showgrid="false"
     inkscape:current-layer="layer1"
     inkscape:document-units="px"
     inkscape:cy="128"
     inkscape:cx="32.789376"
     inkscape:zoom="2.0585938"
     inkscape:pageshadow="2"
     inkscape:pageopacity="0.0"
     borderopacity="1.0"
     bordercolor="#666666"
     pagecolor="#ffffff"
     id="base" />
  <defs
     id="defs4">
    <filter
       id="filter4301"
       inkscape:label="Drop Shadow"
       style="color-interpolation-filters:sRGB;">
      <feFlood
         id="feFlood4303"
         result="flood"
         flood-color="rgb(0,0,0)"
         flood-opacity="0.498039" />
      <feComposite
         id="feComposite4305"
         result="composite1"
         operator="in"
         in2="SourceGraphic"
         in="flood" />
      <feGaussianBlur
         id="feGaussianBlur4307"
         result="blur"
         stdDeviation="3.7"
         in="composite1" />
      <feOffset
         id="feOffset4309"
         result="offset"
         dy="3.7"
         dx="3.8" />
      <feComposite
         id="feComposite4311"
         result="composite2"
         operator="over"
         in2="offset"
         in="SourceGraphic" />
    </filter>
    <clipPath
       clipPathUnits="userSpaceOnUse"
       id="clipPath4266">
      <path
         style="fill:#db4437;fill-opacity:1"
         d="m 153.38672,796.84847 -105.781251,0 c -7.804357,0 -14.087891,6.28158 -14.087891,14.08594 l 0,227.33989 c 0,7.8043 6.283534,14.0878 14.087891,14.0878 l 165.162111,0 c 7.80436,0 14.08594,-6.2835 14.08594,-14.0878 l 0,-154.82232 -73.4668,-86.60351 z"
         id="path4268"
         inkscape:connector-curvature="0" />
    </clipPath>
    <clipPath
       id="clipPath4372"
       clipPathUnits="userSpaceOnUse">
      <path
         inkscape:connector-curvature="0"
         style="fill:#db4437;fill-opacity:1"
         d="m 153.38672,796.84847 -105.781251,0 c -7.804357,0 -14.087891,6.28158 -14.087891,14.08594 l 0,227.33989 c 0,7.8043 6.283534,14.0878 14.087891,14.0878 l 165.162111,0 c 7.80436,0 14.08594,-6.2835 14.08594,-14.0878 l 0,-154.82232 -73.4668,-86.60351 z"
         id="path4374" />
    </clipPath>
    <clipPath
       clipPathUnits="userSpaceOnUse"
       id="clipPath6685">
      <path
         style="fill:#db4437;fill-opacity:1"
         d="m 153.38672,0.48632812 -105.781251,0 c -7.804357,0 -14.087891,6.28158058 -14.087891,14.08593788 l 0,227.339844 c 0,7.80436 6.283534,14.08789 14.087891,14.08789 l 165.162111,0 c 7.80436,0 14.08594,-6.28353 14.08594,-14.08789 l 0,-154.822266 -73.4668,-86.60351588 z"
         id="path6687"
         inkscape:connector-curvature="0" />
    </clipPath>
  </defs>
  <metadata
     id="metadata7">
    <rdf:RDF>
      <cc:Work
         rdf:about="">
        <dc:format>image/svg+xml</dc:format>
        <dc:type
           rdf:resource="http://purl.org/dc/dcmitype/StillImage" />
        <dc:title />
      </cc:Work>
    </rdf:RDF>
  </metadata>
  <g
     transform="translate(0,-796.36214)"
     id="layer1"
     inkscape:groupmode="layer"
     inkscape:label="Layer 1">
    <path
       transform="translate(0,796.36214)"
       id="path4141"
       d="M 153.38672 0.48632812 L 47.605469 0.48632812 C 39.801112 0.48632812 33.517578 6.7679087 33.517578 14.572266 L 33.517578 241.91211 C 33.517578 249.71647 39.801112 256 47.605469 256 L 212.76758 256 C 220.57194 256 226.85352 249.71647 226.85352 241.91211 L 226.85352 87.089844 L 153.38672 0.48632812 z "
       style="fill:#db4437;fill-opacity:1" />
    <path
       inkscape:connector-curvature="0"
       id="rect4136"
       d="m 226.85352,883.45199 -73.4668,-86.60352 0,72.51758 c 0,7.80436 6.28158,14.08594 14.08594,14.08594 l 59.38086,0 z"
       style="fill:#ec6155;fill-opacity:1;filter:url(#filter4301)" />
    <path
       inkscape:connector-curvature="0"
       style="font-style:normal;font-variant:normal;font-weight:bold;font-stretch:normal;font-size:medium;line-height:125%;font-family:FreeSerif;-inkscape-font-specification:'FreeSerif Bold';letter-spacing:0px;word-spacing:0px;fill:#ffffff;fill-opacity:1;stroke:none;stroke-width:1px;stroke-linecap:butt;stroke-linejoin:miter;stroke-opacity:1"
       d="m 76.881414,915.39256 c -7.84,0 -14.42643,2.66667 -19.75977,8 -5.38666,5.49334 -8.08007,12.37396 -8.08007,20.64063 0,7.84 2.4527,14.39969 7.35937,19.67969 5.33333,5.65333 12.32094,8.48046 20.96094,8.48046 6.29333,0 11.84062,-1.89302 16.64062,-5.67968 1.38667,-1.06667 3.413424,-3.06667 6.080086,-6 l -2.400392,-2 c -0.74667,0.8 -1.49357,1.54494 -2.240234,2.23828 -5.33334,5.06666 -10.72016,7.60156 -16.16016,7.60156 -10.66667,-0.0533 -16.02674,-8.37427 -16.08008,-24.96094 0,-3.89333 0.2942,-7.36039 0.88086,-10.40039 1.81334,-9.97333 6.42651,-14.95898 13.83985,-14.95898 1.12,0 2.23937,0.13372 3.35937,0.40039 5.97333,1.54667 11.09271,6.85325 15.359384,15.91992 l 2,0 0,-18.7207 -2.16016,0 c -0.16,0.32 -0.29177,0.64094 -0.39844,0.96093 -0.853334,1.81334 -1.894434,2.71876 -3.121094,2.71876 -0.8,0 -2.16008,-0.39922 -4.08008,-1.19922 -4.37333,-1.81334 -8.37333,-2.72071 -12,-2.72071 z m 49.203126,6.64063 0,17.83984 -18.32031,0 0,7.67969 18.32031,0 0,18 7.67969,0 0,-18 18.16016,0 0,-7.67969 -18.16016,0 0,-17.83984 -7.67969,0 z m 54.0625,0 0,17.83984 -18.32031,0 0,7.67969 18.32031,0 0,18 7.67969,0 0,-18 18.16016,0 0,-7.67969 -18.16016,0 0,-17.83984 -7.67969,0 z"
       id="path6385" />
  </g>
</svg>
