<?xml version="1.0" encoding="UTF-8" standalone="no"?>
<!-- Created with Inkscape (http://www.inkscape.org/) -->

<svg
   xmlns:dc="http://purl.org/dc/elements/1.1/"
   xmlns:cc="http://creativecommons.org/ns#"
   xmlns:rdf="http://www.w3.org/1999/02/22-rdf-syntax-ns#"
   xmlns:svg="http://www.w3.org/2000/svg"
   xmlns="http://www.w3.org/2000/svg"
   xmlns:sodipodi="http://sodipodi.sourceforge.net/DTD/sodipodi-0.dtd"
   xmlns:inkscape="http://www.inkscape.org/namespaces/inkscape"
   sodipodi:docname="text-x-lua.svg"
   inkscape:version="0.91 r13725"
   version="1.1"
   id="svg2"
   viewBox="0 0 256 256"
   height="256"
   width="256">
  <sodipodi:namedview
     inkscape:window-maximized="1"
     inkscape:window-y="27"
     inkscape:window-x="0"
     inkscape:window-height="836"
     inkscape:window-width="1600"
     units="px"
     showgrid="false"
     inkscape:current-layer="layer1"
     inkscape:document-units="px"
     inkscape:cy="128"
     inkscape:cx="32.789376"
     inkscape:zoom="2.0585938"
     inkscape:pageshadow="2"
     inkscape:pageopacity="0.0"
     borderopacity="1.0"
     bordercolor="#666666"
     pagecolor="#ffffff"
     id="base" />
  <defs
     id="defs4">
    <filter
       style="color-interpolation-filters:sRGB;"
       inkscape:label="Drop Shadow"
       id="filter4301">
      <feFlood
         flood-opacity="0.498039"
         flood-color="rgb(0,0,0)"
         result="flood"
         id="feFlood4303" />
      <feComposite
         in="flood"
         in2="SourceGraphic"
         operator="in"
         result="composite1"
         id="feComposite4305" />
      <feGaussianBlur
         in="composite1"
         stdDeviation="3.7"
         result="blur"
         id="feGaussianBlur4307" />
      <feOffset
         dx="3.8"
         dy="3.7"
         result="offset"
         id="feOffset4309" />
      <feComposite
         in="SourceGraphic"
         in2="offset"
         operator="over"
         result="composite2"
         id="feComposite4311" />
    </filter>
    <clipPath
       id="clipPath5055"
       clipPathUnits="userSpaceOnUse">
      <path
         inkscape:connector-curvature="0"
         id="path5057"
         d="m 153.38672,796.84847 -105.781251,0 c -7.804357,0 -14.087891,6.28158 -14.087891,14.08594 l 0,227.33989 c 0,7.8043 6.283534,14.0878 14.087891,14.0878 l 165.162111,0 c 7.80436,0 14.08594,-6.2835 14.08594,-14.0878 l 0,-154.82232 -73.4668,-86.60351 z"
         style="fill:#db4437;fill-opacity:1" />
    </clipPath>
    <clipPath
       clipPathUnits="userSpaceOnUse"
       id="clipPath4563">
      <path
         id="path4565"
         d="m 153.38672,796.84847 -105.781251,0 c -7.804357,0 -14.087891,6.28158 -14.087891,14.08594 l 0,227.33989 c 0,7.8043 6.283534,14.0878 14.087891,14.0878 l 165.162111,0 c 7.80436,0 14.08594,-6.2835 14.08594,-14.0878 l 0,-154.82232 -73.4668,-86.60351 z"
         style="fill:#db4437;fill-opacity:1"
         inkscape:connector-curvature="0" />
    </clipPath>
    <clipPath
       clipPathUnits="userSpaceOnUse"
       id="clipPath4527">
      <path
         id="path4529"
         d="m 153.38672,796.84847 -105.781251,0 c -7.804357,0 -14.087891,6.28158 -14.087891,14.08594 l 0,227.33989 c 0,7.8043 6.283534,14.0878 14.087891,14.0878 l 165.162111,0 c 7.80436,0 14.08594,-6.2835 14.08594,-14.0878 l 0,-154.82232 -73.4668,-86.60351 z"
         style="fill:#db4437;fill-opacity:1"
         inkscape:connector-curvature="0" />
    </clipPath>
  </defs>
  <metadata
     id="metadata7">
    <rdf:RDF>
      <cc:Work
         rdf:about="">
        <dc:format>image/svg+xml</dc:format>
        <dc:type
           rdf:resource="http://purl.org/dc/dcmitype/StillImage" />
        <dc:title />
      </cc:Work>
    </rdf:RDF>
  </metadata>
  <g
     inkscape:label="Layer 1"
     inkscape:groupmode="layer"
     id="layer1"
     transform="translate(0,-796.36214)">
    <path
       transform="translate(0,796.36214)"
       style="fill:#db4437;fill-opacity:1"
       d="M 153.38672 0.48632812 L 47.605469 0.48632812 C 39.801112 0.48632812 33.517578 6.7679087 33.517578 14.572266 L 33.517578 241.91211 C 33.517578 249.71647 39.801112 256 47.605469 256 L 212.76758 256 C 220.57194 256 226.85352 249.71647 226.85352 241.91211 L 226.85352 87.089844 L 153.38672 0.48632812 z "
       id="path4141" />
    <path
       style="fill:#ec6155;fill-opacity:1;filter:url(#filter4301)"
       d="m 226.85352,883.45199 -73.4668,-86.60352 0,72.51758 c 0,7.80436 6.28158,14.08594 14.08594,14.08594 l 59.38086,0 z"
       id="rect4136"
       inkscape:connector-curvature="0" />
    <g
       id="g4903"
       style="fill:#ffffff;fill-opacity:1;stroke:none;stroke-width:9.10000038;stroke-miterlimit:4;stroke-dasharray:none;stroke-opacity:1" />
    <g
       id="g4906">
      <g
         style="fill:#ffffff;fill-opacity:1;stroke:none;stroke-width:9.10000038;stroke-miterlimit:4;stroke-dasharray:none;stroke-opacity:1"
         id="g4908" />
    </g>
    <g
       transform="translate(0,796.36214)"
       id="g4332">
      <g
         style="fill:#ffffff;fill-opacity:1;stroke:#000000;stroke-width:0.66019756;stroke-miterlimit:4;stroke-dasharray:none;stroke-opacity:1"
         id="g4334" />
    </g>
    <g
       id="g4305"
       transform="translate(0.01560282,-3.0001831e-6)">
      <path
         inkscape:connector-curvature="0"
         style="fill:#ffffff;fill-opacity:1;stroke:none;stroke-width:0.66019756;stroke-miterlimit:4;stroke-dasharray:none;stroke-opacity:1"
         d="m 122.19534,919.6166 a 47.169903,47.169903 0 0 0 -47.169926,47.16993 47.169903,47.169903 0 0 0 47.169926,47.16997 47.169903,47.169903 0 0 0 47.16992,-47.16997 47.169903,47.169903 0 0 0 -47.16992,-47.16993 z m 20.37695,15.13868 a 12.138693,12.138692 0 0 1 12.13868,12.13867 12.138693,12.138692 0 0 1 -12.13868,12.13867 12.138693,12.138692 0 0 1 -12.13867,-12.13867 12.138693,12.138692 0 0 1 12.13867,-12.13867 z"
         id="path4307" />
      <ellipse
         style="fill:#ffffff;fill-opacity:1;stroke:none;stroke-width:0.72261548;stroke-miterlimit:4;stroke-dasharray:none;stroke-opacity:1"
         id="ellipse4309"
         cx="168.80469"
         cy="920.66302"
         rx="12.138693"
         ry="12.138692" />
    </g>
  </g>
</svg>
