<?xml version="1.0" encoding="UTF-8" standalone="no"?>
<!-- Created with Inkscape (http://www.inkscape.org/) -->

<svg
   xmlns:dc="http://purl.org/dc/elements/1.1/"
   xmlns:cc="http://creativecommons.org/ns#"
   xmlns:rdf="http://www.w3.org/1999/02/22-rdf-syntax-ns#"
   xmlns:svg="http://www.w3.org/2000/svg"
   xmlns="http://www.w3.org/2000/svg"
   xmlns:sodipodi="http://sodipodi.sourceforge.net/DTD/sodipodi-0.dtd"
   xmlns:inkscape="http://www.inkscape.org/namespaces/inkscape"
   sodipodi:docname="text-x-sql.svg"
   inkscape:version="0.91 r13725"
   version="1.1"
   id="svg2"
   viewBox="0 0 256 256"
   height="256"
   width="256">
  <sodipodi:namedview
     inkscape:window-maximized="1"
     inkscape:window-y="27"
     inkscape:window-x="0"
     inkscape:window-height="836"
     inkscape:window-width="1600"
     units="px"
     showgrid="false"
     inkscape:current-layer="layer1"
     inkscape:document-units="px"
     inkscape:cy="128"
     inkscape:cx="-57.295259"
     inkscape:zoom="2.0585938"
     inkscape:pageshadow="2"
     inkscape:pageopacity="0.0"
     borderopacity="1.0"
     bordercolor="#666666"
     pagecolor="#ffffff"
     id="base" />
  <defs
     id="defs4">
    <filter
       style="color-interpolation-filters:sRGB;"
       inkscape:label="Drop Shadow"
       id="filter4301">
      <feFlood
         flood-opacity="0.498039"
         flood-color="rgb(0,0,0)"
         result="flood"
         id="feFlood4303" />
      <feComposite
         in="flood"
         in2="SourceGraphic"
         operator="in"
         result="composite1"
         id="feComposite4305" />
      <feGaussianBlur
         in="composite1"
         stdDeviation="3.7"
         result="blur"
         id="feGaussianBlur4307" />
      <feOffset
         dx="3.8"
         dy="3.7"
         result="offset"
         id="feOffset4309" />
      <feComposite
         in="SourceGraphic"
         in2="offset"
         operator="over"
         result="composite2"
         id="feComposite4311" />
    </filter>
    <clipPath
       id="clipPath4403"
       clipPathUnits="userSpaceOnUse">
      <path
         inkscape:connector-curvature="0"
         id="path4405"
         d="m 151.20117,796.84847 -105.78125,0 c -7.804357,0 -14.087891,6.28158 -14.087891,14.08594 l 0,227.33989 c 0,7.8043 6.283534,14.0878 14.087891,14.0878 l 165.16211,0 c 7.80436,0 14.08594,-6.2835 14.08594,-14.0878 l 0,-154.82232 -73.4668,-86.60351 z"
         style="fill:#d7875f;fill-opacity:1" />
    </clipPath>
    <clipPath
       id="clipPath4632"
       clipPathUnits="userSpaceOnUse">
      <path
         style="opacity:0.93000016;fill:#f4b400;fill-opacity:1"
         d="m 151.20117,796.60532 -105.78125,0 c -7.804357,0 -14.087891,6.28158 -14.087891,14.08594 l 0,227.33994 c 0,7.8043 6.283534,14.0878 14.087891,14.0878 l 165.16211,0 c 7.80436,0 14.08594,-6.2835 14.08594,-14.0878 l 0,-154.82237 -73.4668,-86.60351 z"
         id="path4634"
         inkscape:connector-curvature="0" />
    </clipPath>
    <clipPath
       clipPathUnits="userSpaceOnUse"
       id="clipPath4836">
      <path
         inkscape:connector-curvature="0"
         id="path4838"
         d="m 148.14771,800.24889 -105.781247,0 c -7.804357,0 -14.087891,6.28158 -14.087891,14.08594 l 0,227.33987 c 0,7.8043 6.283534,14.0878 14.087891,14.0878 l 165.162107,0 c 7.80436,0 14.08594,-6.2835 14.08594,-14.0878 l 0,-154.8223 -73.4668,-86.60351 z"
         style="fill:#f16529;fill-opacity:1" />
    </clipPath>
  </defs>
  <metadata
     id="metadata7">
    <rdf:RDF>
      <cc:Work
         rdf:about="">
        <dc:format>image/svg+xml</dc:format>
        <dc:type
           rdf:resource="http://purl.org/dc/dcmitype/StillImage" />
        <dc:title />
      </cc:Work>
    </rdf:RDF>
  </metadata>
  <g
     inkscape:label="Layer 1"
     inkscape:groupmode="layer"
     id="layer1"
     transform="translate(0,-796.36214)">
    <path
       style="fill:#f16529;fill-opacity:1"
       d="m 151.20117,796.84851 -105.78125,0 c -7.804357,0 -14.087891,6.28158 -14.087891,14.08594 l 0,227.33985 c 0,7.8043 6.283534,14.0878 14.087891,14.0878 l 165.16211,0 c 7.80436,0 14.08594,-6.2835 14.08594,-14.0878 l 0,-154.82228 -73.4668,-86.60351 z"
       id="path4141"
       inkscape:connector-curvature="0" />
    <path
       style="fill:#fe976b;fill-opacity:1;filter:url(#filter4301)"
       d="m 224.85352,883.45199 -73.4668,-86.60352 0,72.51758 c 0,7.80436 6.28158,14.08594 14.08594,14.08594 l 59.38086,0 z"
       id="rect4136"
       inkscape:connector-curvature="0" />
    <text
       xml:space="preserve"
       style="font-style:normal;font-variant:normal;font-weight:bold;font-stretch:normal;font-size:80px;line-height:125%;font-family:FreeSerif;-inkscape-font-specification:'FreeSerif Bold';letter-spacing:0px;word-spacing:0px;fill:#ffffff;fill-opacity:1;stroke:none;stroke-width:1px;stroke-linecap:butt;stroke-linejoin:miter;stroke-opacity:1"
       x="74.722427"
       y="951.72528"
       id="text4143"
       sodipodi:linespacing="125%"><tspan
         sodipodi:role="line"
         id="tspan4145"
         x="74.722427"
         y="951.72528" /></text>
    <text
       xml:space="preserve"
       style="font-style:normal;font-weight:normal;font-size:80px;line-height:125%;font-family:sans-serif;letter-spacing:0px;word-spacing:0px;fill:#000000;fill-opacity:1;stroke:none;stroke-width:1px;stroke-linecap:butt;stroke-linejoin:miter;stroke-opacity:1"
       x="69.391937"
       y="922.95557"
       id="text4162"
       sodipodi:linespacing="125%"><tspan
         sodipodi:role="line"
         id="tspan4164"
         x="69.391937"
         y="922.95557" /></text>
    <path
       transform="translate(0,796.36214)"
       inkscape:connector-curvature="0"
       id="path4196"
       d="m 68.143217,162.53143 c 0.0082,-0.20007 0.04894,-0.24077 0.103762,-0.10376 0.04961,0.12398 0.04351,0.27211 -0.01356,0.32918 -0.05707,0.0571 -0.09766,-0.0444 -0.0902,-0.22542 z"
       style="fill:#ffffff;fill-opacity:1;stroke:none;stroke-width:10;stroke-linejoin:round;stroke-miterlimit:4;stroke-dasharray:none;stroke-opacity:1" />
    <path
       transform="translate(0,796.36214)"
       inkscape:connector-curvature="0"
       id="path4198"
       d="m 68.156776,162.11638 c 0,-0.23615 0.03898,-0.33276 0.08663,-0.21468 0.04764,0.11807 0.04764,0.31129 0,0.42936 -0.04764,0.11808 -0.08663,0.0215 -0.08663,-0.21468 z"
       style="fill:#ffffff;fill-opacity:1;stroke:none;stroke-width:10;stroke-linejoin:round;stroke-miterlimit:4;stroke-dasharray:none;stroke-opacity:1" />
    <g
       transform="translate(2.638969,-3.8861488)"
       id="g4210">
      <ellipse
         style="fill:#ffffff;fill-opacity:1;stroke:none;stroke-width:10;stroke-linejoin:round;stroke-miterlimit:4;stroke-dasharray:none;stroke-opacity:1"
         id="ellipse4212"
         cx="124.62498"
         cy="938.20654"
         rx="51.248577"
         ry="14.573054" />
      <path
         inkscape:connector-curvature="0"
         id="path4214"
         d="m 122.53754,989.99919 c -20.71853,-1.20253 -30.0735,-2.59422 -38.092485,-5.66683 -4.904347,-1.87918 -7.439532,-3.43082 -9.080844,-5.55786 -1.518089,-1.96734 -1.617199,-2.52574 -1.562441,-8.80296 l 0.04603,-5.2763 0.807333,1.00906 c 1.827933,2.28467 4.58846,3.91109 10.250597,6.03931 7.394617,2.77942 19.82428,4.55823 37.33082,5.34243 5.24521,0.23495 9.39832,0.0822 17.21788,-0.63341 11.43496,-1.04643 15.58185,-1.76512 21.9362,-3.80172 5.45261,-1.74758 11.51004,-4.51641 13.1951,-6.03142 l 0.8493,-0.7636 0.019,5.21121 c 0.0105,2.86616 0.004,5.40442 -0.0141,5.64057 -0.0624,0.80909 -0.90556,2.39934 -1.62243,3.06013 -0.75023,0.69154 -4.44502,2.64654 -7.05559,3.73327 -4.32719,1.80135 -10.70781,3.63021 -15.45706,4.43043 -7.47076,1.25877 -23.21146,2.39016 -28.7673,2.06769 l 0,0 z"
         style="fill:#ffffff;fill-opacity:1;stroke:none;stroke-width:10;stroke-linejoin:round;stroke-miterlimit:4;stroke-dasharray:none;stroke-opacity:1" />
      <path
         style="fill:#ffffff;fill-opacity:1;stroke:none;stroke-width:10;stroke-linejoin:round;stroke-miterlimit:4;stroke-dasharray:none;stroke-opacity:1"
         d="m 122.53754,970.41494 c -20.71853,-1.20253 -30.0735,-2.59422 -38.092485,-5.66683 -4.904347,-1.87918 -7.439532,-3.43082 -9.080844,-5.55786 -1.518089,-1.96734 -1.617199,-2.52574 -1.562441,-8.80296 l 0.04603,-5.2763 0.807333,1.00906 c 1.827933,2.28467 4.58846,3.91109 10.250597,6.03931 7.394617,2.77942 19.82428,4.55823 37.33082,5.34243 5.24521,0.23495 9.39832,0.0822 17.21788,-0.63341 11.43496,-1.04643 15.58185,-1.76512 21.9362,-3.80172 5.45261,-1.74758 11.51004,-4.51641 13.1951,-6.03142 l 0.8493,-0.7636 0.019,5.21121 c 0.0105,2.86616 0.004,5.40442 -0.0141,5.64057 -0.0624,0.80909 -0.90556,2.39934 -1.62243,3.06013 -0.75023,0.69154 -4.44502,2.64654 -7.05559,3.73327 -4.32719,1.80135 -10.70781,3.63021 -15.45706,4.43043 -7.47076,1.25877 -23.21146,2.39016 -28.7673,2.06769 l 0,0 z"
         id="path4216"
         inkscape:connector-curvature="0" />
      <path
         style="fill:#ffffff;fill-opacity:1;stroke:none;stroke-width:10;stroke-linejoin:round;stroke-miterlimit:4;stroke-dasharray:none;stroke-opacity:1"
         d="m 122.53754,1009.5834 c -20.71853,-1.2025 -30.0735,-2.5942 -38.092485,-5.6668 -4.904347,-1.8792 -7.439532,-3.4308 -9.080844,-5.55788 -1.518089,-1.96734 -1.617199,-2.52574 -1.562441,-8.80296 l 0.04603,-5.2763 0.807333,1.00906 c 1.827933,2.28467 4.58846,3.91109 10.250597,6.03931 7.394617,2.77942 19.82428,4.55823 37.33082,5.34243 5.24521,0.23495 9.39832,0.0822 17.21788,-0.63341 11.43496,-1.04643 15.58185,-1.76512 21.9362,-3.80172 5.45261,-1.74758 11.51004,-4.51641 13.1951,-6.03142 l 0.8493,-0.7636 0.019,5.21121 c 0.0105,2.86616 0.004,5.40442 -0.0141,5.64057 -0.0624,0.80909 -0.90556,2.39934 -1.62243,3.06013 -0.75023,0.69158 -4.44502,2.64658 -7.05559,3.73328 -4.32719,1.8013 -10.70781,3.6302 -15.45706,4.4304 -7.47076,1.2588 -23.21146,2.3902 -28.7673,2.0677 l 0,0 z"
         id="path4218"
         inkscape:connector-curvature="0" />
    </g>
  </g>
</svg>
