<?xml version="1.0" encoding="UTF-8" standalone="no"?>
<!-- Created with Inkscape (http://www.inkscape.org/) -->

<svg
   xmlns:dc="http://purl.org/dc/elements/1.1/"
   xmlns:cc="http://creativecommons.org/ns#"
   xmlns:rdf="http://www.w3.org/1999/02/22-rdf-syntax-ns#"
   xmlns:svg="http://www.w3.org/2000/svg"
   xmlns="http://www.w3.org/2000/svg"
   xmlns:sodipodi="http://sodipodi.sourceforge.net/DTD/sodipodi-0.dtd"
   xmlns:inkscape="http://www.inkscape.org/namespaces/inkscape"
   sodipodi:docname="vcalendar.svg"
   inkscape:version="0.91 r13725"
   version="1.1"
   id="svg2"
   viewBox="0 0 256 256"
   height="256"
   width="256">
  <sodipodi:namedview
     inkscape:window-maximized="1"
     inkscape:window-y="27"
     inkscape:window-x="0"
     inkscape:window-height="836"
     inkscape:window-width="1600"
     units="px"
     showgrid="false"
     inkscape:current-layer="layer1"
     inkscape:document-units="px"
     inkscape:cy="128"
     inkscape:cx="32.789376"
     inkscape:zoom="2.0585938"
     inkscape:pageshadow="2"
     inkscape:pageopacity="0.0"
     borderopacity="1.0"
     bordercolor="#666666"
     pagecolor="#ffffff"
     id="base" />
  <defs
     id="defs4">
    <filter
       style="color-interpolation-filters:sRGB;"
       inkscape:label="Drop Shadow"
       id="filter4301">
      <feFlood
         flood-opacity="0.498039"
         flood-color="rgb(0,0,0)"
         result="flood"
         id="feFlood4303" />
      <feComposite
         in="flood"
         in2="SourceGraphic"
         operator="in"
         result="composite1"
         id="feComposite4305" />
      <feGaussianBlur
         in="composite1"
         stdDeviation="3.7"
         result="blur"
         id="feGaussianBlur4307" />
      <feOffset
         dx="3.8"
         dy="3.7"
         result="offset"
         id="feOffset4309" />
      <feComposite
         in="SourceGraphic"
         in2="offset"
         operator="over"
         result="composite2"
         id="feComposite4311" />
    </filter>
    <clipPath
       id="clipPath4355"
       clipPathUnits="userSpaceOnUse">
      <path
         inkscape:connector-curvature="0"
         id="path4357"
         d="m 153.38672,796.84847 -105.781251,0 c -7.804357,0 -14.087891,6.28158 -14.087891,14.08594 l 0,227.33989 c 0,7.8043 6.283534,14.0878 14.087891,14.0878 l 165.162111,0 c 7.80436,0 14.08594,-6.2835 14.08594,-14.0878 l 0,-154.82232 -73.4668,-86.60351 z"
         style="fill:#00d75f;fill-opacity:1" />
    </clipPath>
    <clipPath
       clipPathUnits="userSpaceOnUse"
       id="clipPath4560">
      <path
         id="path4562"
         d="m 153.38672,0.48632812 -105.781251,0 c -7.804357,0 -14.087891,6.28158058 -14.087891,14.08593788 l 0,227.339844 c 0,7.80436 6.283534,14.08789 14.087891,14.08789 l 165.162111,0 c 7.80436,0 14.08594,-6.28353 14.08594,-14.08789 l 0,-154.822266 -73.4668,-86.60351588 z"
         style="fill:#00d75f;fill-opacity:1"
         inkscape:connector-curvature="0" />
    </clipPath>
    <clipPath
       id="clipPath3973"
       clipPathUnits="userSpaceOnUse">
      <path
         inkscape:connector-curvature="0"
         id="path3975"
         d="m 153.38672,796.14793 -105.78125,0 c -7.804357,0 -14.087891,6.28158 -14.087891,14.08594 l 0,227.33983 c 0,7.8044 6.283534,14.0879 14.087891,14.0879 l 165.16211,0 c 7.80436,0 14.08594,-6.2835 14.08594,-14.0879 l 0,-154.82225 -73.4668,-86.60352 z"
         style="fill:#00d75f;fill-opacity:1" />
    </clipPath>
    <clipPath
       clipPathUnits="userSpaceOnUse"
       id="clipPath5348">
      <path
         id="path5350"
         d="m 153.38672,796.84847 -105.781251,0 c -7.804357,0 -14.087891,6.28158 -14.087891,14.08594 l 0,227.33989 c 0,7.8043 6.283534,14.0878 14.087891,14.0878 l 165.162111,0 c 7.80436,0 14.08594,-6.2835 14.08594,-14.0878 l 0,-154.82232 -73.4668,-86.60351 z"
         style="fill:#00d75f;fill-opacity:1"
         inkscape:connector-curvature="0" />
    </clipPath>
  </defs>
  <metadata
     id="metadata7">
    <rdf:RDF>
      <cc:Work
         rdf:about="">
        <dc:format>image/svg+xml</dc:format>
        <dc:type
           rdf:resource="http://purl.org/dc/dcmitype/StillImage" />
        <dc:title />
      </cc:Work>
    </rdf:RDF>
  </metadata>
  <g
     inkscape:label="Layer 1"
     inkscape:groupmode="layer"
     id="layer1"
     transform="translate(0,-796.36214)">
    <path
       style="fill:#00d75f;fill-opacity:1"
       d="M 153.38672 0.48632812 L 47.605469 0.48632812 C 39.801112 0.48632812 33.517578 6.7679087 33.517578 14.572266 L 33.517578 241.91211 C 33.517578 249.71647 39.801112 256 47.605469 256 L 212.76758 256 C 220.57194 256 226.85352 249.71647 226.85352 241.91211 L 226.85352 87.089844 L 153.38672 0.48632812 z "
       id="path4141"
       transform="translate(0,796.36214)" />
    <path
       style="fill:#7fe8ad;fill-opacity:1;filter:url(#filter4301)"
       d="m 226.85352,883.45199 -73.4668,-86.60352 0,72.51758 c 0,7.80436 6.28158,14.08594 14.08594,14.08594 l 59.38086,0 z"
       id="rect4136"
       inkscape:connector-curvature="0" />
    <g
       transform="translate(0.371921,-7.957e-4)"
       id="g4269"
       style="fill:#fff9f9;fill-opacity:1">
      <path
         inkscape:connector-curvature="0"
         id="path4271"
         transform="translate(0,796.36214)"
         d="m 66.550781,117.07031 c -4.036737,0 -7.287109,3.14079 -7.287109,7.04297 l 0,92.29688 c 0,3.9022 3.250372,7.04296 7.287109,7.04296 l 122.898439,0 c 4.03674,0 7.28711,-3.14076 7.28711,-7.04296 l 0,-92.29688 c 0,-3.90218 -3.25037,-7.04297 -7.28711,-7.04297 l -4.85742,0 0,10.25781 c 0,6.18967 -3.88459,11.17188 -8.70899,11.17188 l -5.89843,0 c -4.8244,0 -8.70899,-4.98221 -8.70899,-11.17188 l 0,-10.25781 -20.88867,0 0,10.25781 c 0,6.18967 -3.88264,11.17188 -8.70703,11.17188 l -5.90039,0 c -4.8244,0 -8.70899,-4.98221 -8.70899,-11.17188 l 0,-10.25781 -20.888669,0 0,10.25781 c 0,6.18967 -3.882638,11.17188 -8.707032,11.17188 l -5.90039,0 c -4.824394,0 -8.708985,-4.98221 -8.708985,-11.17188 l 0,-10.25781 -6.314453,0 z M 78,150.58789 l 100,0 c 3.6522,0 6.5918,3.12492 6.5918,7.00586 l 0,47.19531 c 0,3.88094 -2.9396,7.00586 -6.5918,7.00586 l -100,0 c -3.652199,0 -6.591797,-3.12492 -6.591797,-7.00586 l 0,-47.19531 c 0,-3.88094 2.939598,-7.00586 6.591797,-7.00586 z"
         style="fill:#fff9f9;fill-opacity:1" />
      <rect
         style="fill:#fff9f9;fill-opacity:1"
         id="rect4273"
         width="15"
         height="43.233406"
         x="165.64705"
         y="887.20087"
         rx="5.6021361"
         ry="11.17268" />
      <rect
         ry="11.17268"
         rx="5.6021361"
         y="887.20087"
         x="77.23719"
         height="43.233406"
         width="15"
         id="rect4275"
         style="fill:#fff9f9;fill-opacity:1" />
      <rect
         ry="11.17268"
         rx="5.6021361"
         y="887.20087"
         x="121.44212"
         height="43.233406"
         width="15"
         id="rect4277"
         style="fill:#fff9f9;fill-opacity:1" />
    </g>
  </g>
</svg>
